<svg xmlns="http://www.w3.org/2000/svg" xmlns:xlink="http://www.w3.org/1999/xlink" viewBox="0 0 95.76 96.53"><defs><style>.cls-1{isolation:isolate;}.cls-2{opacity:0.7;}.cls-3{fill:url(#Áåçûìÿííûé_ãðàäèåíò_254);}.cls-23,.cls-24,.cls-25,.cls-26,.cls-27,.cls-28,.cls-29,.cls-4{fill:#6dcace;}.cls-5{fill:url(#Áåçûìÿííûé_ãðàäèåíò_24);}.cls-6{fill:url(#Áåçûìÿííûé_ãðàäèåíò_3);}.cls-7{fill:#211c58;opacity:0.1;}.cls-8{fill:#fff;}.cls-9{fill:url(#Áåçûìÿííûé_ãðàäèåíò_3-2);}.cls-10{fill:url(#Áåçûìÿííûé_ãðàäèåíò_3-3);}.cls-11{fill:url(#Áåçûìÿííûé_ãðàäèåíò_3-4);}.cls-12{fill:#282567;}.cls-13,.cls-23,.cls-24,.cls-25,.cls-26{mix-blend-mode:lighten;}.cls-13{fill:url(#Áåçûìÿííûé_ãðàäèåíò_11);}.cls-14{fill:#fcd1c6;}.cls-15{fill:#211b58;}.cls-16{fill:#e2b1a6;}.cls-17{fill:#4b4a9f;}.cls-18{fill:#47419a;}.cls-19{fill:#ab8483;}.cls-20{fill:#946e6d;}.cls-21{fill:#f1f6fc;}.cls-22{fill:#c4cbd5;}.cls-23,.cls-27{opacity:0.4;}.cls-24,.cls-28{opacity:0.6;}.cls-25,.cls-29{opacity:0.8;}</style><linearGradient id="Áåçûìÿííûé_ãðàäèåíò_254" x1="146.04" y1="177.49" x2="166.2" y2="177.49" gradientTransform="translate(-150.57 -84.64) rotate(-16.61)" gradientUnits="userSpaceOnUse"><stop offset="0" stop-color="#6dcace"/><stop offset="0.18" stop-color="#6cc5cc"/><stop offset="0.39" stop-color="#69b7c8"/><stop offset="0.61" stop-color="#659fc0"/><stop offset="0.84" stop-color="#5f7eb5"/><stop offset="1" stop-color="#5a64ad"/></linearGradient><linearGradient id="Áåçûìÿííûé_ãðàäèåíò_24" x1="148.14" y1="139.94" x2="41.31" y2="61.42" gradientUnits="userSpaceOnUse"><stop offset="0" stop-color="#5a64ad"/><stop offset="0.18" stop-color="#5f68af"/><stop offset="0.39" stop-color="#6d75b7"/><stop offset="0.62" stop-color="#858ac2"/><stop offset="0.85" stop-color="#a6a8d3"/><stop offset="1" stop-color="#bebddf"/></linearGradient><linearGradient id="Áåçûìÿííûé_ãðàäèåíò_3" x1="-72.27" y1="64.9" x2="84.22" y2="64.9" gradientUnits="userSpaceOnUse"><stop offset="0" stop-color="#c2bedf"/><stop offset="0.29" stop-color="#c6c3e1"/><stop offset="0.64" stop-color="#d3d1e9"/><stop offset="1" stop-color="#e8e8f4"/></linearGradient><linearGradient id="Áåçûìÿííûé_ãðàäèåíò_3-2" x1="-2588.77" y1="3372.3" x2="-2486.8" y2="3326.08" gradientTransform="translate(2573.59 -3298.02) rotate(0.04)" xlink:href="#Áåçûìÿííûé_ãðàäèåíò_3"/><linearGradient id="Áåçûìÿííûé_ãðàäèåíò_3-3" x1="2755.52" y1="3329.78" x2="2755.52" y2="3326.05" gradientTransform="matrix(-1, 0, 0, 1, 2846.94, -3298.27)" xlink:href="#Áåçûìÿííûé_ãðàäèåíò_3"/><linearGradient id="Áåçûìÿííûé_ãðàäèåíò_3-4" x1="3258.02" y1="4602.8" x2="3258.02" y2="4568.38" gradientTransform="matrix(-0.87, -0.5, 0, 1.15, 2893.16, -3630.64)" xlink:href="#Áåçûìÿííûé_ãðàäèåíò_3"/><linearGradient id="Áåçûìÿííûé_ãðàäèåíò_11" x1="53.19" y1="24.59" x2="86.01" y2="43.54" gradientUnits="userSpaceOnUse"><stop offset="0" stop-color="#141043"/><stop offset="0.02" stop-color="#1b1f4e"/><stop offset="0.11" stop-color="#345375"/><stop offset="0.2" stop-color="#487d95"/><stop offset="0.28" stop-color="#589fae"/><stop offset="0.36" stop-color="#64b7c0"/><stop offset="0.44" stop-color="#6bc5ca"/><stop offset="0.5" stop-color="#6dcace"/><stop offset="0.56" stop-color="#6ac5ca"/><stop offset="0.63" stop-color="#63b5be"/><stop offset="0.72" stop-color="#579bab"/><stop offset="0.81" stop-color="#457891"/><stop offset="0.9" stop-color="#2f4a6f"/><stop offset="0.99" stop-color="#151346"/><stop offset="1" stop-color="#130f43"/></linearGradient></defs><title>SVG INFO</title><g class="cls-1"><g id="Layer_2" data-name="Layer 2"><g id="Layer_1-2" data-name="Layer 1"><g class="cls-2"><path class="cls-3" d="M41.48,48.33s6.64,2.08,12.61-4.45c4.58-5,4.3-9.05,3.92-10.66a1,1,0,0,0-1-.8c-1.64,0-5.72.61-10.48,4.93C40.3,43,41.48,48.33,41.48,48.33Z"/></g><path class="cls-4" d="M47.77,96.53a3.16,3.16,0,0,1-1.58-.37h0L.67,69.88a1.17,1.17,0,0,1-.67-1,1.57,1.57,0,0,1,.92-1.25l45-26a4,4,0,0,1,3.64-.14L95.09,67.8a1.15,1.15,0,0,1,.67,1A1.57,1.57,0,0,1,94.84,70l-45,26A4.33,4.33,0,0,1,47.77,96.53ZM46.3,96a3.81,3.81,0,0,0,3.42-.15l45-26a1.34,1.34,0,0,0,.8-1A1,1,0,0,0,95,68L49.46,41.71a3.81,3.81,0,0,0-3.42.15l-45,26a1.36,1.36,0,0,0-.8,1.06,1,1,0,0,0,.55.79L46.3,96Z"/><path class="cls-5" d="M95.65,64.9H92.9l-43.38-25A3.94,3.94,0,0,0,46,40L2.78,65H.11v2.19h0A1.06,1.06,0,0,0,.72,68L46.24,94.31a3.91,3.91,0,0,0,3.53-.15l45-26A1.45,1.45,0,0,0,95.65,67h0Z"/><path class="cls-6" d="M46.24,92.13.72,65.85c-.9-.52-.79-1.44.26-2l45-26a3.94,3.94,0,0,1,3.53-.14L95,64c.9.52.79,1.43-.26,2l-45,26A3.91,3.91,0,0,1,46.24,92.13Z"/><path class="cls-7" d="M46.35,90.25,4,65.78c-.84-.48-.74-1.33.24-1.89L46.12,39.7a3.62,3.62,0,0,1,3.29-.14L91.78,64c.84.49.74,1.34-.24,1.9L49.64,90.11A3.65,3.65,0,0,1,46.35,90.25Z"/><path class="cls-8" d="M94.78,65.75l-45,26a3.91,3.91,0,0,1-3.53.15L.72,65.6a1.13,1.13,0,0,1-.6-.77,1,1,0,0,0,.6,1L46.24,92.13A3.91,3.91,0,0,0,49.77,92l45-26c.63-.37.92-.84.86-1.28A1.61,1.61,0,0,1,94.78,65.75Z"/><path class="cls-7" d="M48.34,66.14H91.61l.89-3.65-43-24.81a3.94,3.94,0,0,0-3.53.14L21.36,52.05,42.94,64.68A10.67,10.67,0,0,0,48.34,66.14Z"/><path class="cls-9" d="M46.34.64l1-.6h0a.53.53,0,0,1,.51,0L92.24,25.75a1.91,1.91,0,0,1,.8,1.53L93,64.87a.71.71,0,0,1-.28.65h0l-1,.6-.07-3.73L50.22,38.45a1.91,1.91,0,0,1-.8-1.53l0-34.52a3.05,3.05,0,0,1-.13.38S46.34.64,46.34.64Z"/><path class="cls-10" d="M93,27l-6.53,2.54-1.34-.78,7.23-2.94A2,2,0,0,1,93,27Z"/><path class="cls-11" d="M46.82,40.41,91.18,66.06c.44.26.8,0,.8-.6l0-37.6a1.91,1.91,0,0,0-.8-1.53L46.87.68c-.44-.26-.8,0-.8.6l0,37.6A1.93,1.93,0,0,0,46.82,40.41Z"/><path class="cls-8" d="M91.23,26.33,46.87.68a.46.46,0,0,0-.64.06.59.59,0,0,1,.43.08L91,26.47A1.92,1.92,0,0,1,91.82,28l0,37.59a.89.89,0,0,1-.16.54c.22-.06.37-.3.37-.68l0-37.6A1.91,1.91,0,0,0,91.23,26.33Z"/><polygon class="cls-12" points="46.69 39.6 91.29 65.39 91.35 27.71 46.74 1.92 46.69 39.6"/><path class="cls-13" d="M67.05,39.47a1.59,1.59,0,0,1-.78-.24l-4-2.29A3.7,3.7,0,0,1,60.64,34V32.9a3.43,3.43,0,0,0-1.56-2.7L55.22,28a.87.87,0,0,0-1.44.84v7.32a1.1,1.1,0,0,1-1.79,1l-4.54-2.63.11-.19L52.1,37a.88.88,0,0,0,1.45-.83V28.81a1.26,1.26,0,0,1,.53-1.15,1.25,1.25,0,0,1,1.26.12L59.19,30a3.7,3.7,0,0,1,1.67,2.9V34a3.46,3.46,0,0,0,1.56,2.71l4,2.29a1.06,1.06,0,0,0,1,.11,1,1,0,0,0,.41-.95V29.88a1.25,1.25,0,0,1,.53-1.15,1.22,1.22,0,0,1,1.26.12L74,31.39a.87.87,0,0,0,1.44-.83V26.25a1.1,1.1,0,0,1,1.79-1l4.59,2.65a3.7,3.7,0,0,1,1.67,2.89,3.46,3.46,0,0,0,1.56,2.71l5.06,2.92-.11.19L85,33.66a3.7,3.7,0,0,1-1.67-2.9,3.46,3.46,0,0,0-1.56-2.7l-4.59-2.65a1.06,1.06,0,0,0-1-.11,1,1,0,0,0-.42.95v4.31a1.24,1.24,0,0,1-.53,1.14,1.22,1.22,0,0,1-1.25-.11L69.51,29a.88.88,0,0,0-1.45.84V38.2a1.23,1.23,0,0,1-.53,1.14A.86.86,0,0,1,67.05,39.47Z"/><path class="cls-14" d="M54.1,60.73a4.58,4.58,0,0,0-.22.89,3.63,3.63,0,0,0,.55.87,4.15,4.15,0,0,0,.92.81,2.72,2.72,0,0,1,.54.38.2.2,0,0,0,.12,0,1.06,1.06,0,0,0-.14-.72c-.2-.24.1-.59.1-.59l-.53-1.39Z"/><path class="cls-15" d="M59.18,76a10.15,10.15,0,0,1-1.63.22c-.8,0-3,.44-2.94,1.22a2.92,2.92,0,0,0,2.58,2.09,35.76,35.76,0,0,0,4.18-.19,1.28,1.28,0,0,0,1.23-1.76C62.26,76.75,59.18,76,59.18,76Z"/><path class="cls-15" d="M64,74s.3.48.14.76-.57,1-1.85.31-3.77-1.71-3.77-1.71-1.43-.75-1.33-1.63S58.63,71,58.63,71Z"/><path class="cls-14" d="M49.73,42.5a4.21,4.21,0,0,1-1.22-.15c-.38-.17-1.46-.53-1.53-.56a4,4,0,0,1-.94-.26.23.23,0,0,0-.06.4,1.48,1.48,0,0,0,.7.33l.43.25s-.87.45-1,.48-.81.59-.88.62-.4.29-.28.51c0,0,0,.05.18.09,0,0-.47.21-.35.44s.41.13.41.13.11.41.67.09c0,0,.07.51,1.32,0a3.51,3.51,0,0,1,.87-.11A4,4,0,0,0,50,44.13C50.55,43.75,49.73,42.5,49.73,42.5Z"/><path class="cls-16" d="M48.1,44.74A4,4,0,0,0,50,44.13c.36-.25.11-.9-.1-1.3l-.47-.23s0,1.24,0,1.43-1.15.4-1.86.51a13.76,13.76,0,0,0-1.66.38c.06.11.29.36,1.3-.07A3.51,3.51,0,0,1,48.1,44.74Z"/><path class="cls-17" d="M59.54,40.1s-1.76.31-2.36.5-5.64,1.19-7.49,1.64a.3.3,0,0,0-.23.25.61.61,0,0,0,0,.3c.06.21.23,2.31,1.26,2a14.06,14.06,0,0,1,1.94-.38c.72-.1,3.81-.34,3.81-.34l5.23-3Z"/><path class="cls-12" d="M55.76,61.39s.47,5.77,1.61,8,1.42,6.2,1.66,7a3.08,3.08,0,0,0,2.2,2.09c1.21.24,1.43-.56,1.38-1s-.37-1.25-.37-1.77a6.07,6.07,0,0,1,.16-1S63.79,75,64,74a3.85,3.85,0,0,1-.12-.46c0-.16.21-4,.26-4.42a19.54,19.54,0,0,0-.52-4.21A15.32,15.32,0,0,1,63.47,61l-4-.59Z"/><path class="cls-15" d="M62.27,61.42a4.41,4.41,0,0,1-.44,1.65,30,30,0,0,1-.41,4.6s.46,3.08.76,4a11,11,0,0,1,.22,2.87,1.39,1.39,0,0,0,.39.07c.23,0,.32-3.75,0-4.41a13.59,13.59,0,0,1-.39-4.52c.15-.89.16-3.47.35-3.92a.57.57,0,0,0-.21-.7Z"/><path class="cls-15" d="M59.28,40.15a2.94,2.94,0,0,0-1.18,2.31l.89-.17S58.76,40.65,59.28,40.15Z"/><path class="cls-15" d="M59.31,62.65a6.64,6.64,0,0,0,4.13-1c0-.36,0-.6,0-.6l-4-.59-3.7,1s.09,1.15.3,2.61c.65.07,1.32-1.49,1.32-1.49l1.83.13S56.65,62.55,59.31,62.65Z"/><path class="cls-18" d="M56.27,61.48s5.76,2.36,8.65-2a.74.74,0,0,0,.12-.43V58a1,1,0,0,1,.07-.38h0a1.63,1.63,0,0,0,.07-.82c-.19-1.15-.7-4.3-.82-5.18a18.68,18.68,0,0,1,1.54-7.21c1-1.83-1.36-6-1.36-6a1.62,1.62,0,0,0-1.79-.68s1.12.81.48,1.64a6.91,6.91,0,0,1-2.52,1.46S57.22,42.55,56,44.68a8.89,8.89,0,0,0-.49,2.53c-.05,1.42,0,4.83,0,5.3s-.3,3.69-.29,3.84S56.27,61.48,56.27,61.48Z"/><path class="cls-12" d="M58,62s3.6-9,3.5-12.36-5.14,6.5-5.14,6.5l-.12,5.37A10.05,10.05,0,0,0,58,62Z"/><path class="cls-17" d="M56.35,51.21A14.35,14.35,0,0,0,56.6,49c0-1.31.45-3.49,2.85-3.07,3.38.58,1.83,5.25,1.45,6.06s-1.94,4.47-2,4.68a63.77,63.77,0,0,1-3.33,5.82.21.21,0,0,1-.31,0c-.33-.28-1.08-.95-1.17-1.38a10.38,10.38,0,0,1,.4-2.51s1.39-5,1.51-5.18S56.13,52.42,56.35,51.21Z"/><path class="cls-14" d="M59.33,40.26a1.19,1.19,0,0,0-.88-.69c-.63-.08-1-.26-1-.49a4.38,4.38,0,0,0-.21-.86A7,7,0,0,1,56.94,37s-.47-.18-.49-.39.24-.95.22-1a1.83,1.83,0,0,1-.24-.88,4.73,4.73,0,0,1,.29-1.31c.2-.43,1.59-3.08,5-1.63s.75,4.34,1.05,6.24c0,0,.31.4-.28,1.07S60.29,39.89,59.33,40.26Z"/><path class="cls-16" d="M62.53,39.1c.59-.67.28-1.07.28-1.07a2.65,2.65,0,0,1,0-.84l-1.37.23s-2-1.83-1.87-.86-.36,1.12-.36,1.12l.4.54c.1.13,0,.29,0,.44-.6,1-2,.66-2,.66a2.21,2.21,0,0,0,.86.25,1.19,1.19,0,0,1,.88.69C60.29,39.89,62,39.77,62.53,39.1Z"/><path class="cls-19" d="M56.59,32.41s-.25.71.13,1l.75.6,0,.9a.69.69,0,0,0,.1.37l.48.77a.88.88,0,0,1,.14.5v.37a.21.21,0,0,0,.18.21l.13,0a.21.21,0,0,0,.23-.19l.07-.51s.26-.4.82.1l.51.21a.55.55,0,0,1,.3.33,3.71,3.71,0,0,0,.65,1.31c.31.18,1.52-.42,1.68-.69s.61-2.08.88-2.94a2.88,2.88,0,0,0-2.41-3.61C58.64,30.57,57,31.64,56.59,32.41Z"/><path class="cls-20" d="M62.74,37.72c.17-.27.61-2.08.88-2.94a6.45,6.45,0,0,1-2.31.82c-1.3.17-3.85-1.34-3.85-1.34v.66a.69.69,0,0,0,.1.37l.48.77a.88.88,0,0,1,.14.5v.37a.21.21,0,0,0,.18.21l.13,0a.21.21,0,0,0,.23-.19l.07-.51s.26-.4.82.1l.74.31s.42,1.36.72,1.54S62.58,38,62.74,37.72Z"/><path class="cls-21" d="M62.79,37.81s1,.63.47,1.49-4.17,2.36-4.35,2.59c0,0-.12-1.31.37-1.74,0,0,2.78-.49,3.23-1.19A1.42,1.42,0,0,0,62.79,37.81Z"/><path class="cls-22" d="M62.79,37.81A1.42,1.42,0,0,1,62.51,39c-.34.53-2,.94-2.81,1.11h0a2.91,2.91,0,0,1,.77,1,9,9,0,0,0,2.79-1.78C63.78,38.44,62.79,37.81,62.79,37.81Z"/><path class="cls-12" d="M60.92,46.65c.88,2.84-1.55,7.19-1.91,8.45s-4,7.15-4,7.15l.26.23a.21.21,0,0,0,.31,0,63.77,63.77,0,0,0,3.33-5.82c.08-.21,1.63-3.87,2-4.68C61.21,51.3,62.27,48.15,60.92,46.65Z"/><path class="cls-12" d="M63.41,40.6s-1.63.89-2.43,1.3-1.66.94-1.66.94l-.3-.31-.38.79a11,11,0,0,0-1.84,1.32,6.55,6.55,0,0,0-1.11,1.59,11.35,11.35,0,0,1,2.81-2.56l.33-.16.2-.62.29.32A41.66,41.66,0,0,0,63.41,40.6Z"/><path class="cls-14" d="M37.26,40.79a1.9,1.9,0,0,0,.83,0,2.11,2.11,0,0,1,1.47,0,2.23,2.23,0,0,0,.89.23,2.94,2.94,0,0,1,.83.15.37.37,0,0,1,.16.61c-.24.35-1.17,0-1.32,0s-.32.24-.24.48a13.21,13.21,0,0,0,1.69,1.92c.22.15,1.16.78,1.2,1s0,.28,0,.28.27.25.18.48-.53-.12-.61-.07.07.26,0,.3a1.85,1.85,0,0,1-.79-.26s-.07.2-.42,0-1.69-1-1.85-1.1a7.66,7.66,0,0,0-.9-.76,7.78,7.78,0,0,1-.77-.75,4.53,4.53,0,0,0-1.34-.66C35.92,42.63,37.26,40.79,37.26,40.79Z"/><path class="cls-16" d="M38.32,43.55a3.35,3.35,0,0,0-1.34-1,10,10,0,0,1,.73-1.71h0a3.78,3.78,0,0,1-.45-.05s-1.34,1.84-1,1.9a4.53,4.53,0,0,1,1.34.66,7.78,7.78,0,0,0,.77.75,7.66,7.66,0,0,1,.9.76c.16.14,1.5.9,1.85,1.1s.42,0,.42,0a1.85,1.85,0,0,0,.79.26c.1,0,0-.3,0-.3a6.9,6.9,0,0,0-.87-.4A11.11,11.11,0,0,1,38.32,43.55Z"/><path class="cls-14" d="M36.25,38.77A5.15,5.15,0,0,1,36.34,40c-.05.56-1.17-.17-1.13-.27s.53-.94.53-.94Z"/><path class="cls-12" d="M31.36,21.9s.62,0,1.38,1.22,2,5.48,2.68,7.12a1.91,1.91,0,0,1,.13.45c.22,1.29,1.25,7.32,1.29,8a5.81,5.81,0,0,1-1.28.65L34.46,39,33.37,28.08l-1.76-5.77Z"/><path class="cls-15" d="M27.84,57.88a3.55,3.55,0,0,0-.1,1.2c.12.2,1.43,1.69,1.57,1.89a3.7,3.7,0,0,0,2.06,1.71c1.25.3,2.1.22,2.27-.37s-.57-1.55-.9-1.87-1.77-2-2-2.25a1.24,1.24,0,0,0-.63-.28l-1.63.28Z"/><path class="cls-15" d="M32.88,54.85s1.24.48,1.89.65S37,56.82,37,57.4s-.78,1-1.55.93a4.4,4.4,0,0,1-1.85-.69A4.67,4.67,0,0,0,32.24,57c-.64-.19-1.66-.29-1.83-.63a3.3,3.3,0,0,1-.19-1Z"/><path class="cls-12" d="M30.07,54.64c0-.06.05-.16.06-.2.05-.31,0-1.56,0-1.56l-.27.37s.19,1.26.56,3.21c.1.5.36,1,.4,1.29.11.84-.39,1-.39,1a1.7,1.7,0,0,1-2.18.05c-.31-.24-.42-.63-.85-2.05a20.57,20.57,0,0,1-.7-5.06A30.47,30.47,0,0,0,27,48.15a40.36,40.36,0,0,0-.92-5l3.77-.73,2.57-1.33,2,.3s.25-.83.51,1.75-1.32,7.25-1.32,7.25c-.42,2.29-.53,4.93-.77,5.29s-1.17,1.2-2,.54a2.85,2.85,0,0,1-.44-.37Z"/><path class="cls-15" d="M29.86,53.25a45.15,45.15,0,0,0,1.82-6.64c.58-3.21,1.58-3.66,2-4.24a5.57,5.57,0,0,0,1,.35h.11c.28,0-1.38,2.06-1.68,2.59A60.9,60.9,0,0,0,30.92,51a36.58,36.58,0,0,0-.1,5.27c.14.25-.48-.19-.48-.19A10.06,10.06,0,0,1,29.86,53.25Z"/><path class="cls-15" d="M33.07,41.22l-.66-.1-2.57,1.33-3.77.73a40.36,40.36,0,0,1,.92,5,30.47,30.47,0,0,1-.29,3.55,21.06,21.06,0,0,0,.7,5.06c.19.62.32,1,.42,1.34a1.13,1.13,0,0,0,.78.92s-1.48-4.57-1.35-7.25.5-4.83.44-5.34c0,0,4.29-1.32,5.09-4.09C32.91,41.91,33,41.54,33.07,41.22Z"/><path class="cls-18" d="M25.64,22.49a1.34,1.34,0,0,0-.37.52c-.07.26-.44,1.19-.44,1.19a31.42,31.42,0,0,0-2.12,3.11,6.93,6.93,0,0,0-.43,1.28L27,34.44s-1.66,5.73-1.2,7.82,1.08,2.91,1.83,3.14,4.75-1.42,5-3.51a8,8,0,0,0,.16-2.34s1.87.5,2,0a31,31,0,0,0-.34-4.38c-.09-.48-.38-5.88-.38-5.88s-1.14-5-1.2-5.22-.77-2.11-1.68-2.22-2,1.34-2,1.34Z"/><path class="cls-21" d="M25.86,22.31a.6.6,0,0,0-.23.33,1.11,1.11,0,0,0,.14,1.05c.34.43,3.07,2.66,4.18,4.53s2.51,4,2.62,4.46c0,0,.51-3,0-4.39a19.57,19.57,0,0,0-2.21-4.37,10.6,10.6,0,0,0-2.19-.39Z"/><path class="cls-22" d="M28.68,25.33a1.67,1.67,0,0,0-.19.43s-.8-.4-1.13-.55l1.22.85a2.12,2.12,0,0,1,.13-.51,4.06,4.06,0,0,1,.8.76c.1.24,1.38,3.47,1.38,3.47l.68,1.11.17-.27-1.1-3s-.63-.95-.63-1l-.43-1Z"/><path class="cls-15" d="M28.68,25.33a1.42,1.42,0,0,1,1.19-.73s.22.94.29,1.31c0,0-.51.22-.71.05Z"/><path class="cls-15" d="M30,25.71a15.62,15.62,0,0,1,2.71,5.48l-.14,1.55-1.06-1.89s-1.74-4.33-2.14-5.13S30,25.71,30,25.71Z"/><path class="cls-12" d="M26.7,35.67c-.13.53-.29,1.19-.44,1.9,0,0,3,3.89,5.89,5.47a2.41,2.41,0,0,0,.53-1.15,19,19,0,0,0,.19-2l-3.39-2.56Z"/><path class="cls-12" d="M26.5,30a9,9,0,0,0,1.09,1.28c.23.11,2.09,3.37,2.47,4a8.79,8.79,0,0,0,1.38,1.48l-1,.09-3.71-5Z"/><path class="cls-17" d="M27,31a6,6,0,0,0-1.72-2.39c-.85-.72-2-1.42-2.57-.79-1,1.11-.6,3.19.85,5.14a64.53,64.53,0,0,0,4.33,5.25,57.86,57.86,0,0,0,7.6,5.09.41.41,0,0,0,.53-.16c.36-.59,1.09-1.81,1.35-2.32a.21.21,0,0,0-.07-.29c-.94-.61-5.64-3.63-7-4.57a1.53,1.53,0,0,1-.5-.57,20.28,20.28,0,0,0-2.38-3.75A2.07,2.07,0,0,1,27,31Z"/><path class="cls-12" d="M30.48,22.94l1.65,1.66-.43.15.55.31a15.86,15.86,0,0,1,1,6.63A12.77,12.77,0,0,0,32.51,25l-.43-.23.29-.09Z"/><path class="cls-14" d="M25.82,22a.34.34,0,0,1,0,.2,4.7,4.7,0,0,0,0,.51A3.64,3.64,0,0,0,29,24.65l.31-.46a2.37,2.37,0,0,0,1.2-.35.8.8,0,0,0,.14-.85l.05-.65a.35.35,0,0,1,.1-.21.62.62,0,0,0,.19-.25.57.57,0,0,0-.07-.3.35.35,0,0,1,0-.2,2.71,2.71,0,0,0-.08-.95.74.74,0,0,1,0-.39,5,5,0,0,0,.14-.62c0-.17-.28-.63-.29-.81a5,5,0,0,0-.26-.78s-1.57-2.91-4.1-1.65-1.22,4-.9,4.76c0,0,.3.63.36.77A2.34,2.34,0,0,0,25.82,22Z"/><path class="cls-19" d="M30.61,18.14a.62.62,0,0,1-.21.54,3.36,3.36,0,0,1-1.72.83c-.57.07-.88.1-1.05.11a.23.23,0,0,0-.21.21c0,.21,0,.54-.06.75a.73.73,0,0,1-.08.25l-.18.38a.25.25,0,0,1-.24.15h0a.23.23,0,0,1-.22-.21h0a.87.87,0,0,0-.48-.7.52.52,0,0,0-.44,0,.44.44,0,0,0-.25.6,4.57,4.57,0,0,1-.77-1.48,3,3,0,0,1,.92-3.16,3.14,3.14,0,0,1,3.75-.26A2.85,2.85,0,0,1,30.61,18.14Z"/><path class="cls-16" d="M26.44,21.7c-.05-.06,0,.52-.58.53a4.7,4.7,0,0,0,0,.51A3.64,3.64,0,0,0,29,24.65l.31-.46A11.83,11.83,0,0,1,27,22.83,6.19,6.19,0,0,1,26.44,21.7Z"/><path class="cls-22" d="M29.87,24.6a3.33,3.33,0,0,1,.84.21,1,1,0,0,0-.08-.62s.17.14.17.83l-.9-.3Z"/><path class="cls-12" d="M36.28,42.66s-4.88-2.8-6.54-3.92-6.26-5.83-7.21-7.64A8.39,8.39,0,0,0,23.59,33a64.53,64.53,0,0,0,4.33,5.25,57.86,57.86,0,0,0,7.6,5.09.41.41,0,0,0,.53-.16l.24-.41Z"/><path class="cls-12" d="M25.05,24.35l2.23,3.17.58-.21,0,.61A17.62,17.62,0,0,1,32.55,34s-2.64-4.25-4.74-5.66l-.19-.61-.45.1Z"/><path class="cls-20" d="M24.85,19.94l-.07,0A4.89,4.89,0,0,0,25.42,21a.44.44,0,0,1,.25-.6.52.52,0,0,1,.44,0,.87.87,0,0,1,.48.7h0a.23.23,0,0,0,.22.21h0a.25.25,0,0,0,.24-.15l.18-.38a.73.73,0,0,0,.08-.25c0-.21.05-.54.06-.75A4.89,4.89,0,0,1,24.85,19.94Z"/><polygon class="cls-23" points="51.53 15.84 50.43 15.21 50.43 17.32 51.53 17.95 51.53 15.84"/><polygon class="cls-24" points="53.48 20.82 52.39 20.19 52.39 18.45 53.48 19.08 53.48 20.82"/><polygon class="cls-25" points="55.44 18.66 54.34 18.03 54.34 19.57 55.44 20.21 55.44 18.66"/><polygon class="cls-26" points="57.39 18.23 56.3 17.59 56.3 20.7 57.39 21.33 57.39 18.23"/><polygon class="cls-26" points="59.34 17.99 58.25 17.36 58.25 21.83 59.34 22.46 59.34 17.99"/><polygon class="cls-25" points="61.3 20.48 60.2 19.85 60.2 22.96 61.3 23.59 61.3 20.48"/><polygon class="cls-24" points="63.25 20.81 62.16 20.18 62.16 24.09 63.25 24.72 63.25 20.81"/><polygon class="cls-23" points="65.21 20.25 64.11 19.62 64.11 25.21 65.21 25.85 65.21 20.25"/><path class="cls-27" d="M84.23,52.94h0c.26.15.47.06.47-.2V41.53a1,1,0,0,0-.47-.75h0c-.27-.15-.48-.06-.48.2V52.19A1,1,0,0,0,84.23,52.94Z"/><path class="cls-28" d="M82.54,52h0c.26.15.47.06.47-.2V44.43a1,1,0,0,0-.48-.75h0c-.26-.15-.47-.06-.47.2v7.33A1,1,0,0,0,82.54,52Z"/><path class="cls-29" d="M80.85,51h0c.26.15.47.06.47-.2V41a1,1,0,0,0-.47-.74h0c-.26-.15-.47-.06-.47.2v9.81A1,1,0,0,0,80.85,51Z"/><path class="cls-4" d="M79.15,50h0c.27.15.48.07.48-.2V43.71a1,1,0,0,0-.47-.75h0c-.26-.15-.48-.06-.48.2v6.1A1,1,0,0,0,79.15,50Z"/><path class="cls-4" d="M77.46,49h0c.26.15.48.06.48-.2V42.14a1,1,0,0,0-.47-.75h0c-.27-.15-.48-.06-.48.2v6.69A1,1,0,0,0,77.46,49Z"/><path class="cls-29" d="M75.77,48.05h0c.26.15.47.06.47-.2V43.41a1,1,0,0,0-.48-.74h0c-.26-.16-.47-.07-.47.2V47.3A1,1,0,0,0,75.77,48.05Z"/><path class="cls-28" d="M74.08,47.07h0c.26.15.47.06.47-.2v-5.4a1,1,0,0,0-.47-.75h0c-.26-.15-.47-.06-.47.2v5.4A1,1,0,0,0,74.08,47.07Z"/><path class="cls-27" d="M72.39,46.09h0c.26.15.47.06.47-.2v-2a1,1,0,0,0-.47-.75h0c-.26-.15-.48-.06-.48.2v2A1,1,0,0,0,72.39,46.09Z"/></g></g></g></svg>