<svg xmlns="http://www.w3.org/2000/svg" width="385.66" height="268.729" viewBox="0 0 385.66 268.729"><defs><style>.a{opacity:0.25;}.b{fill:#6161ff;}.c{fill:#9c27b0;}.d{fill:#6f42c1;}.e{fill:#17a2b8;}.f{fill:#fff;}.g{fill:#005f8e;opacity:0.44;}.h{fill:#35b293;}.i{fill:#b56650;}.j{fill:#d0d1d3;}.k{fill:#449bc8;}</style></defs><g transform="translate(0)"><g class="a" transform="translate(35.119 63.9)"><g transform="translate(0.559 88.528)"><path class="b" d="M68.871,305.854h0a9.513,9.513,0,0,1,9.454-9.573l231.4-1.46a9.516,9.516,0,0,1,9.574,9.454h0a9.515,9.515,0,0,1-9.454,9.573l-231.4,1.459A9.513,9.513,0,0,1,68.871,305.854Z" transform="translate(-68.871 -294.82)"/></g><g transform="translate(64.758 44.286)"><path class="b" d="M142.865,253.97h0a9.513,9.513,0,0,1,9.488-9.539l231.406-.6a9.514,9.514,0,0,1,9.539,9.489h0a9.514,9.514,0,0,1-9.489,9.539l-231.4.6A9.514,9.514,0,0,1,142.865,253.97Z" transform="translate(-142.865 -243.827)"/></g><g transform="translate(260.074 87.951)"><path class="b" d="M367.98,303.693h0a9.513,9.513,0,0,1,9.488-9.538l11.672,0a9.513,9.513,0,0,1,9.539,9.488h0a9.513,9.513,0,0,1-9.489,9.539l-11.671,0A9.513,9.513,0,0,1,367.98,303.693Z" transform="translate(-367.98 -294.155)"/></g><g transform="translate(0)"><path class="b" d="M68.227,203.819h0a9.514,9.514,0,0,1,9.454-9.573l231.4-1.46a9.515,9.515,0,0,1,9.573,9.454h0a9.514,9.514,0,0,1-9.454,9.573l-231.4,1.46A9.516,9.516,0,0,1,68.227,203.819Z" transform="translate(-68.227 -192.785)"/></g><g transform="translate(64.989 132.816)"><path class="b" d="M143.131,356.007h0a9.514,9.514,0,0,1,9.489-9.539l231.406-.6a9.514,9.514,0,0,1,9.539,9.489h0a9.514,9.514,0,0,1-9.489,9.539l-231.406.6A9.515,9.515,0,0,1,143.131,356.007Z" transform="translate(-143.131 -345.864)"/></g></g><g transform="translate(65.127 257.24)"><path class="c" d="M357.64,416.78H103.392a.579.579,0,1,1,0-1.157H357.64a.579.579,0,0,1,0,1.157Z" transform="translate(-102.813 -415.623)"/><g transform="translate(201.538 10.332)"><path class="c" d="M363.4,428.688H335.679a.579.579,0,1,1,0-1.157H363.4a.579.579,0,0,1,0,1.157Z" transform="translate(-335.1 -427.531)"/></g><g transform="translate(78.125 10.332)"><path class="c" d="M305.667,428.688H193.436a.579.579,0,1,1,0-1.157H305.667a.579.579,0,1,1,0,1.157Z" transform="translate(-192.857 -427.531)"/></g><g transform="translate(24.993 10.332)"><path class="c" d="M163.289,428.688H132.2a.579.579,0,0,1,0-1.157h31.092a.579.579,0,1,1,0,1.157Z" transform="translate(-131.619 -427.531)"/></g></g><g transform="translate(0 51.37)"><g transform="translate(106.429)"><g transform="translate(0 22.487)"><path class="d" d="M170.358,205.418H150.995a.578.578,0,0,1,0-1.157h19.363a.578.578,0,1,1,0,1.157Z" transform="translate(-150.417 -204.261)"/></g><g transform="translate(34.747)"><path class="d" d="M364.238,249.634a.581.581,0,0,1-.579-.579V227.148H224.116a.578.578,0,1,1,0-1.157H364.238a.578.578,0,0,1,.579.578V248.11l68.26-34.9-68.26-33.357v21.56a.579.579,0,0,1-.579.579H191.044a.578.578,0,1,1,0-1.157H363.659V178.922a.579.579,0,0,1,.833-.52l70.133,34.271a.579.579,0,0,1,.009,1.035L364.5,249.571A.593.593,0,0,1,364.238,249.634Z" transform="translate(-190.465 -178.343)"/></g></g><g transform="translate(0 87.63)"><g transform="translate(258.712 22.486)"><path class="d" d="M345.875,306.417H326.512a.579.579,0,1,1,0-1.157h19.363a.579.579,0,1,1,0,1.157Z" transform="translate(-325.933 -305.26)"/></g><g transform="translate(63.215)"><path class="d" d="M281.3,302.987H108.106a.579.579,0,0,1-.579-.579v-21.56l-6.086,2.973a.578.578,0,0,1-.508-1.039l6.918-3.38a.578.578,0,0,1,.832.52v21.907H281.3a.579.579,0,0,1,0,1.157Z" transform="translate(-100.61 -279.343)"/></g><g transform="translate(0 11.816)"><path class="d" d="M98.462,352.437a.591.591,0,0,1-.264-.063L28.065,316.511a.578.578,0,0,1,.01-1.034L74.029,293.02a.578.578,0,1,1,.508,1.039L29.621,316.008l68.261,34.9V329.372a.579.579,0,0,1,.579-.579H203.293a.579.579,0,1,1,0,1.157H99.039v21.908a.58.58,0,0,1-.578.579Z" transform="translate(-27.75 -292.962)"/></g><g transform="translate(191.018 47.647)"><path class="d" d="M267.727,335.417H248.489a.579.579,0,0,1,0-1.157h19.238a.579.579,0,0,1,0,1.157Z" transform="translate(-247.911 -334.26)"/></g></g></g><g transform="translate(18.148 31.812)"><path class="c" d="M220.312,156.959H49.245a.578.578,0,0,1,0-1.157H220.312a.578.578,0,0,1,0,1.157Z" transform="translate(-48.667 -155.802)"/></g><g transform="translate(221.329 0)"><path class="c" d="M307.418,120.293H283.426a.578.578,0,1,1,0-1.157h23.992a.578.578,0,1,1,0,1.157Z" transform="translate(-282.847 -119.136)"/></g><g transform="translate(74.254 0)"><path class="c" d="M248.406,120.293H113.912a.578.578,0,1,1,0-1.157H248.406a.578.578,0,1,1,0,1.157Z" transform="translate(-113.333 -119.136)"/></g><g transform="translate(94.801 54.995)"><rect class="e" width="203.88" height="141.206"/><rect class="f" width="189.706" height="131.389" transform="translate(7.087 5.436)"/><rect class="e" width="23.408" height="18.123" transform="translate(90.236 138.94)"/><rect class="e" width="55.878" height="9.424" transform="translate(74.001 157.455)"/><path class="g" d="M241.2,346.435h23.24l.012,14.848Z" transform="translate(-150.805 -204.22)"/></g><g transform="translate(118.307 139)"><rect class="h" width="5.185" height="16.159" transform="translate(36.647 0.688)"/><rect class="h" width="5.185" height="16.159" transform="translate(66.637 17.362)"/><rect class="h" width="5.185" height="9.111" transform="translate(72.823 17.362)"/><rect class="i" width="5.185" height="12.205" transform="translate(90.146 4.641)"/><rect class="i" width="5.185" height="16.846" transform="translate(96.273)"/><rect class="h" width="5.185" height="20.113" transform="translate(84.372 17.362)"/><rect class="h" width="5.185" height="13.236" transform="translate(30.049 3.61)"/><rect class="h" width="5.185" height="12.721" transform="translate(23.45 4.126)"/><rect class="h" width="5.185" height="3.61" transform="translate(12.255 13.236)"/><rect class="h" width="5.185" height="2.235" transform="translate(6.128 14.612)"/><rect class="h" width="5.185" height="3.18" transform="translate(0 13.666)"/><rect class="i" width="5.185" height="8.079" transform="translate(41.832 17.362)"/><rect class="i" width="5.185" height="2.75" transform="translate(17.911 17.104)"/><rect class="i" width="5.185" height="18.909" transform="translate(48.078 17.362)"/><rect class="i" width="5.185" height="16.503" transform="translate(54.264 17.362)"/><rect class="i" width="5.185" height="5.157" transform="translate(60.451 17.362)"/><rect class="i" width="5.185" height="16.503" transform="translate(78.48 0.344)"/><g transform="translate(102.837 0.336)"><rect class="h" width="5.185" height="9.29" transform="translate(41.29 7.617)"/><rect class="h" width="5.185" height="16.159" transform="translate(23.509 17.018)"/><rect class="h" width="5.185" height="9.111" transform="translate(17.322 17.018)"/><rect class="i" width="5.185" height="12.205" transform="translate(0 4.298)"/><rect class="h" width="5.185" height="20.113" transform="translate(5.774 17.018)"/><rect class="h" width="5.185" height="7.61" transform="translate(47.889 9.297)"/><rect class="i" width="5.185" height="9.23" transform="translate(35.881 17.018)"/><rect class="i" width="5.185" height="5.157" transform="translate(29.695 17.018)"/><rect class="i" width="5.185" height="16.503" transform="translate(11.666)"/></g></g><path class="j" d="M323.7,266.435H163.289c-1.1,0-1.984.18-1.984.4v.009c0,.221.888.4,1.984.4H323.7c1.1,0,1.985-.179,1.985-.4v-.009C325.682,266.615,324.793,266.435,323.7,266.435Z" transform="translate(-45.429 -138.635)"/><g transform="translate(247.556 88.216)"><path class="h" d="M315.1,259.826q2.158-19.006,4.314-38.013l-1.986.268q3.371,18.738,6.741,37.475a1.017,1.017,0,0,0,1.95,0q2.292-10.919,4.583-21.838h-1.949q2.831,10.514,5.662,21.03a1.014,1.014,0,0,0,.974.742l8.9-.27c1.3-.039,1.3-2.061,0-2.022l-8.9.269.975.743q-2.831-10.514-5.662-21.029a1.018,1.018,0,0,0-1.949,0q-2.292,10.918-4.583,21.837h1.95q-3.371-18.737-6.741-37.475c-.219-1.216-1.868-.77-1.985.269l-4.314,38.013c-.147,1.294,1.877,1.281,2.022,0Z" transform="translate(-313.075 -220.812)"/></g><g transform="translate(114.945 79.26)"><path class="k" d="M161.207,248.417l5.34-.27a1.019,1.019,0,0,0,.974-.743l7.676-35.654h-1.95q3.9,10.918,7.809,21.837a1.02,1.02,0,0,0,1.95,0q3.5-9.1,7.009-18.2h-1.95q3.8,12.537,7.609,25.074a1.031,1.031,0,0,0,.974.742l26.021.926c.757.027,2.5.417,3.129-.211a25.68,25.68,0,0,0,2.568-3.732q3.7-5.414,7.4-10.829h-1.746l10.012,18.6a1.021,1.021,0,0,0,1.588.2l7.409-6.874-1.588-.2,6.808,8.9a1.025,1.025,0,0,0,1.848-.241l1.4-3.842-1.848.241,2.4,4.65a1.016,1.016,0,0,0,1.588.2l19.023-21.231-1.588-.2,7.459,11.631,4.713,7.349c.45.7,1.307,2.767,2.347,2.752l28.622-.4.183,0a1.011,1.011,0,0,0,0-2.022l-28.835.4.873.5q-6.808-10.616-13.617-21.231a1.02,1.02,0,0,0-1.588-.2l-19.023,21.231,1.588.2-2.4-4.65a1.021,1.021,0,0,0-1.848.241l-1.4,3.842,1.848-.241-6.808-8.9a1.032,1.032,0,0,0-1.588-.2l-7.409,6.874,1.588.2q-5.007-9.3-10.012-18.6a1.022,1.022,0,0,0-1.746,0l-9.812,14.356.874-.5-28.435-1.011.975.742q-3.8-12.537-7.609-25.073a1.019,1.019,0,0,0-1.95,0q-3.5,9.1-7.009,18.2h1.95q-3.9-10.919-7.81-21.838c-.312-.874-1.723-1.052-1.95,0l-7.676,35.655.975-.743-5.34.27c-1.3.066-1.3,2.088,0,2.022Z" transform="translate(-160.232 -210.489)"/></g></g></svg>