<svg height="497pt" viewBox="0 0 497 497.192" width="497pt" xmlns="http://www.w3.org/2000/svg"><path d="m496.097656 136c0-74.992188-61.007812-136-136-136-44.890625 0-84.640625 21.953125-109.425781 55.574219l-26.617187-7.988281c-.230469-13.042969-10.863282-23.585938-23.957032-23.585938-13.234375 0-24 10.769531-24 24 0 3.398438.726563 6.625 2.015625 9.558594l-23.59375 40.921875c-3.167969-1.542969-6.671875-2.480469-10.421875-2.480469-3.738281 0-7.226562.929688-10.378906 2.457031l-31.910156-40.386719c1.429687-3.070312 2.289062-6.460937 2.289062-10.070312 0-13.230469-10.769531-24-24-24-13.234375 0-24 10.769531-24 24 0 6.457031 2.589844 12.296875 6.75 16.617188l-35.839844 71.679687c-.96875-.121094-1.917968-.296875-2.910156-.296875-13.234375 0-23.9999998 10.769531-23.9999998 24s10.7656248 24 23.9999998 24c1.535156 0 3.023438-.175781 4.46875-.457031l27.488282 47.121093c-33.757813 23.246094-55.9570318 62.128907-55.9570318 106.121094 0 71.007813 57.7656248 128.773438 128.7734378 128.773438 6.664062 0 13.59375-.605469 21.152344-1.871094l7.929687-1.320312-20.058594-116.550782 116.570313 20.0625 1.320312-7.941406c1.253906-7.617188 1.871094-14.53125 1.871094-21.144531 0-71.015625-57.769531-128.792969-128.785156-128.792969-21.296875 0-41.359375 5.28125-59.070313 14.472656l-27.457031-47.074218c3.535156-4.175782 5.753906-9.503907 5.753906-15.398438 0-6.457031-2.59375-12.296875-6.753906-16.617188l35.839844-71.679687c.96875.121094 1.921875.296875 2.914062.296875 3.726563 0 7.222656-.929688 10.375-2.457031l31.910156 40.386719c-1.429687 3.070312-2.285156 6.460937-2.285156 10.070312 0 13.230469 10.765625 24 24 24 13.230469 0 24-10.769531 24-24 0-3.398438-.730468-6.625-2.007812-9.558594l23.589844-40.921875c3.167968 1.542969 6.671874 2.480469 10.417968 2.480469 7.644532 0 14.390625-3.664062 18.789063-9.257812l22.664062 6.808593c-11.070312 19.671875-17.453125 42.3125-17.453125 66.449219 0 66.792969 48.429688 122.367188 112 133.753906v18.246094h-16v168c0 22.054688 17.941406 40 40 40 22.054688 0 40-17.945312 40-40v-168h-16v-18.246094c63.566406-11.386718 112-66.960937 112-133.753906zm-356.671875 312.984375c-3.664062.382813-7.152343.566406-10.546875.566406-34.488281 0-65.367187-15.597656-86.0625-40.0625l78.550782-65.464843zm102.230469-112.199219c0 3.375-.183594 6.863282-.566406 10.542969l-104.992188-18.070313v-104.890624c58.8125 3.753906 105.558594 52.664062 105.558594 112.417968zm-121.558594-112.335937v99.808593l-86.714844 72.246094c-10.886718-17.34375-17.285156-37.777344-17.285156-59.71875 0-38.105468 19.046875-71.792968 48.0625-92.226562l9.023438 15.472656 13.824218-8.0625-9.128906-15.648438c12.855469-6.550781 27.113282-10.703124 42.21875-11.871093zm-104-64.449219c0-4.414062 3.589844-8 8-8 4.40625 0 8 3.585938 8 8s-3.59375 8-8 8c-4.410156 0-8-3.585938-8-8zm64-104c-4.410156 0-8-3.585938-8-8s3.589844-8 8-8c4.40625 0 8 3.585938 8 8s-3.59375 8-8 8zm64 72c-4.410156 0-8-3.585938-8-8s3.589844-8 8-8c4.40625 0 8 3.585938 8 8s-3.59375 8-8 8zm56-72c-4.410156 0-8-3.585938-8-8s3.589844-8 8-8c4.40625 0 8 3.585938 8 8s-3.59375 8-8 8zm40 80c0-22.574219 6.382813-43.648438 17.269532-61.703125l15.816406 4.75c-10.777344 16.378906-17.085938 35.929687-17.085938 56.953125 0 57.34375 46.65625 104 104 104 24.550782 0 48.414063-8.769531 67.183594-24.679688l-10.34375-12.199218c-15.890625 13.464844-36.074219 20.878906-56.839844 20.878906-48.523437 0-88-39.480469-88-88 0-19.511719 6.453125-37.496094 17.238282-52.097656l70.878906 21.289062c.160156 3.25.953125 6.3125 2.289062 9.097656l-32.121094 32.117188c-3.136718-1.503906-6.589843-2.40625-10.285156-2.40625-13.234375 0-24 10.769531-24 24s10.765625 24 24 24c13.230469 0 24-10.769531 24-24 0-3.695312-.90625-7.152344-2.410156-10.28125l32.121094-32.117188c3.136718 1.496094 6.589844 2.398438 10.289062 2.398438 13.230469 0 24-10.769531 24-24s-10.769531-24-24-24c-7.929687 0-14.921875 3.910156-19.289062 9.855469l-63.570313-19.085938c15.617188-14.105469 36.21875-22.769531 58.859375-22.769531 48.519532 0 88 39.480469 88 88 0 20.777344-7.417968 40.960938-20.882812 56.839844l12.199218 10.34375c15.914063-18.769532 24.683594-42.632813 24.683594-67.183594 0-57.34375-46.65625-104-104-104-30.152344 0-57.257812 12.976562-76.273437 33.535156l-16.863281-5.0625c22.023437-27.105468 55.574218-44.472656 93.136718-44.472656 66.167969 0 120 53.832031 120 120s-53.832031 120-120 120c-66.167968 0-120-53.832031-120-120zm136-32c0-4.414062 3.589844-8 8-8 4.40625 0 8 3.585938 8 8s-3.59375 8-8 8c-4.410156 0-8-3.585938-8-8zm-48 64c0 4.414062-3.59375 8-8 8-4.410156 0-8-3.585938-8-8s3.589844-8 8-8c4.40625 0 8 3.585938 8 8zm56 136v16h-48v-16zm-24 176c-13.234375 0-24-10.769531-24-24v-120h48v120c0 13.230469-10.769531 24-24 24zm8-192h-16v-16.40625c2.664063.160156 5.292969.40625 8 .40625 2.703125 0 5.335938-.246094 8-.40625zm0 0"/><path d="m174.34375 497.191406 7.878906-1.304687c54.273438-8.984375 96.777344-51.488281 105.761719-105.765625l1.3125-7.882813-137.945313-22.992187zm13.105469-18.671875-16.632813-99.800781 99.800782 16.632812c-9.839844 41.152344-42.015626 73.328126-83.167969 83.167969zm0 0"/><path d="m368.097656 456c0 4.417969-3.582031 8-8 8-4.421875 0-8-3.582031-8-8s3.578125-8 8-8c4.417969 0 8 3.582031 8 8zm0 0"/></svg>