<svg xmlns="http://www.w3.org/2000/svg" width="24.611" height="24.611" viewBox="0 0 24.611 24.611"><defs><style>.a{fill:#5aaefa;}</style></defs><path class="a" d="M113.392,68.353a2.866,2.866,0,0,0-2.606.579,3.092,3.092,0,0,0-1.158,2.461.724.724,0,1,0,1.448,0,1.572,1.572,0,0,1,.579-1.3,1.683,1.683,0,0,1,1.448-.29,1.711,1.711,0,0,1,1.3,1.3,1.582,1.582,0,0,1-.579,1.737,4.318,4.318,0,0,0-1.737,3.475.684.684,0,0,0,.724.724c.434,0,.724-.29.579-.724A3.189,3.189,0,0,1,114.7,74a3.137,3.137,0,0,0,1.158-3.185,3.283,3.283,0,0,0-2.461-2.461Z" transform="translate(-100.507 -62.562)"/><path class="a" d="M139.355,208.161a.87.87,0,0,0-.145.579.532.532,0,0,0,.145.434,1.1,1.1,0,0,0,.579.29c.145,0,.434-.145.434-.29.145,0,.29-.29.29-.434a.752.752,0,0,0-.29-.579A.7.7,0,0,0,139.355,208.161Z" transform="translate(-127.628 -190.644)"/><path class="a" d="M12.306,0A12.306,12.306,0,1,0,24.611,12.306,12.3,12.3,0,0,0,12.306,0Zm0,23.164A10.937,10.937,0,0,1,1.448,12.306,10.937,10.937,0,0,1,12.306,1.448,10.937,10.937,0,0,1,23.164,12.306,10.937,10.937,0,0,1,12.306,23.164Z"/></svg>