<svg xmlns="http://www.w3.org/2000/svg" xmlns:xlink="http://www.w3.org/1999/xlink" width="264.881" height="197.662" viewBox="0 0 264.881 197.662">
  <defs>
    <filter id="Ellipse_259" x="33.596" y="13.625" width="22.361" height="22.361" filterUnits="userSpaceOnUse">
      <feOffset dy="3" input="SourceAlpha"/>
      <feGaussianBlur stdDeviation="3" result="blur"/>
      <feFlood flood-color="#fff" flood-opacity="0.161"/>
      <feComposite operator="in" in2="blur"/>
      <feComposite in="SourceGraphic"/>
    </filter>
  </defs>
  <g id="Group_2799" data-name="Group 2799" transform="translate(-542.802 -229.533)">
    <ellipse id="Ellipse_256" data-name="Ellipse 256" cx="24.395" cy="4.118" rx="24.395" ry="4.118" transform="translate(562.356 408.263)" fill="#3f3d56" opacity="0.5"/>
    <ellipse id="Ellipse_257" data-name="Ellipse 257" cx="24.395" cy="4.118" rx="24.395" ry="4.118" transform="translate(651.212 418.348)" fill="#3f3d56" opacity="0.5"/>
    <g id="Group_2642" data-name="Group 2642" transform="translate(542.802 323.302)">
      <path id="Path_8713" data-name="Path 8713" d="M163.952,443.831c1.765,2.354,3.668,5.047,5.547,7.982l.268-13.54.148.095a26.428,26.428,0,0,0-6.537-3.495l.148.082Z" transform="translate(-143.592 -433.936)" fill="#e6e6e6"/>
      <path id="Path_8714" data-name="Path 8714" d="M143.5,432.318a13.922,13.922,0,0,0-6.914-.716c-.112.02-.221.043-.331.066.545.585,3.723,4.04,7.657,9.247Z" transform="translate(-123.859 -431.431)" fill="#e6e6e6"/>
      <path id="Path_8715" data-name="Path 8715" d="M214.781,509.455q.434,1.036.825,2.058l4.966-14.664.143.136q-.88-1.655-1.865-3.217l-4,15.746Z" transform="translate(-180.984 -476.777)" fill="#e6e6e6"/>
      <path id="Path_8716" data-name="Path 8716" d="M191.608,470.048l2.6-15.374.147.118a41.545,41.545,0,0,0-7.165-6.7l-.273,13.8Q189.534,466.033,191.608,470.048Z" transform="translate(-160.711 -443.554)" fill="#e6e6e6"/>
      <path id="Path_8717" data-name="Path 8717" d="M107.218,488.22l-.061-.188a34.687,34.687,0,0,0,1.371,6.856l23.864,2.461c-1.246-2.3-2.532-4.453-3.78-6.417Z" transform="translate(-102.695 -472.605)" fill="#e6e6e6"/>
      <path id="Path_8718" data-name="Path 8718" d="M112.456,514.061l-.063-.188q.362,1.181.812,2.388l-.064-.187,24.153,2.147q-.438-.856-.885-1.69Z" transform="translate(-106.504 -491.403)" fill="#e6e6e6"/>
      <path id="Path_8719" data-name="Path 8719" d="M207.543,494.138l3.969-15.615.145.128a49.613,49.613,0,0,0-3.961-5.389l-2.63,15.582Q206.433,491.529,207.543,494.138Z" transform="translate(-173.917 -461.861)" fill="#e6e6e6"/>
      <path id="Path_8720" data-name="Path 8720" d="M155.131,555.708l-23.5-2.263a48,48,0,0,0,4.166,4.891l-.058-.208,21.485,4.42A59.658,59.658,0,0,0,155.131,555.708Z" transform="translate(-120.495 -520.188)" fill="#e6e6e6"/>
      <path id="Path_8721" data-name="Path 8721" d="M117.627,432.526l.055-.119a9.414,9.414,0,0,0-6.768,6.114l14.378,3.249C121.034,436.137,117.675,432.577,117.627,432.526Z" transform="translate(-105.428 -432.141)" fill="#e6e6e6"/>
      <path id="Path_8722" data-name="Path 8722" d="M218.775,521.844a59.282,59.282,0,0,1,1.879,6.171l5.6-14.038.137.137a23.5,23.5,0,0,0-1.787-5.656q-.5-1.06-1.037-2.088l-5.026,14.839C218.618,521.42,218.7,521.633,218.775,521.844Z" transform="translate(-183.718 -485.944)" fill="#e6e6e6"/>
      <path id="Path_8723" data-name="Path 8723" d="M128.069,466.821c-1.86-2.9-3.742-5.562-5.486-7.888l-14.708-3.323-.05-.186a20.006,20.006,0,0,0-.976,8.706Z" transform="translate(-102.402 -448.885)" fill="#e6e6e6"/>
      <path id="Path_8724" data-name="Path 8724" d="M119.7,531.147l23.638,2.276,0-.014a80.513,80.513,0,0,0-3.506-7.928l-24.212-2.152q.617,1.633,1.394,3.3A28.856,28.856,0,0,0,119.7,531.147Z" transform="translate(-108.857 -498.281)" fill="#e6e6e6"/>
      <path id="Path_8725" data-name="Path 8725" d="M316.575,550.967l.054.167a26.428,26.428,0,0,0-2.806-6.861l.061.158-5.333,7.107c-.142,2.938-.394,6.227-.819,9.686Z" transform="translate(-248.6 -513.517)" fill="#e6e6e6"/>
      <path id="Path_8726" data-name="Path 8726" d="M315.99,530.109a13.924,13.924,0,0,0-4.868-4.962c-.1-.056-.2-.108-.3-.16.047.8.291,5.486,0,12.006Z" transform="translate(-250.849 -499.487)" fill="#e6e6e6"/>
      <path id="Path_8727" data-name="Path 8727" d="M293.588,641.428q-.327,1.075-.677,2.112l13.178-8.126.023.2q.378-1.836.616-3.667L293.6,641.517Z" transform="translate(-237.818 -577.289)" fill="#e6e6e6"/>
      <path id="Path_8728" data-name="Path 8728" d="M301.671,589.835l11.8-10.186.038.185a41.548,41.548,0,0,0-1.248-9.727l-9.011,10.453Q302.634,585.42,301.671,589.835Z" transform="translate(-244.19 -532.309)" fill="#e6e6e6"/>
      <path id="Path_8729" data-name="Path 8729" d="M309.28,606.584l-11.964,10.323q-.659,2.94-1.469,5.657l13.016-9.5.03.191A49.611,49.611,0,0,0,309.28,606.584Z" transform="translate(-239.954 -558.843)" fill="#e6e6e6"/>
      <path id="Path_8730" data-name="Path 8730" d="M168.9,590.147q.016-.242.03-.5a41.285,41.285,0,0,0,5.416-8.3l-7.226-9q-.142-.461-.3-.919l7.691,9.585a59.66,59.66,0,0,0,2.753-6.6l-15.212-15.281q.071-.18.144-.368l15.192,15.261.013-.008a80.528,80.528,0,0,0,2.356-8.342l-15.086-14.934q.047-.208.094-.418l15.087,14.934q.209-.938.4-1.866l-15.042-15.317q.038-.219.073-.44l15.054,15.329c.506-2.564.89-5.044,1.181-7.354L166.77,539.871l.073-.183c-.349.509-.689,1.043-1.02,1.6a30.406,30.406,0,0,0-.424-5.219l-5.651,14.172a45.614,45.614,0,0,1,.979,5.933c-.034.338-.065.677-.09,1.021l.186.187c.012.182.023.364.032.545l-.247-.248c-.012.2-.02.4-.029.6a42.963,42.963,0,0,0-1.1-8l-21.327-4.388c1.074,1.1,2.2,2.174,3.351,3.208a26.071,26.071,0,0,0-6.891-1.177l.166.032,3.148,8.309c2.406,1.693,5.049,3.666,7.743,5.877l-3.876-12.781q.215.192.432.381l3.866,12.748q3.774,3.126,6.987,6.3l-1.776-12,.372.258,1.8,12.127q2.13,2.131,3.992,4.269L156.6,560.29l.36.224.87,13.292-.083-.036q.733.851,1.421,1.7l.166-13.524.355.207-.169,13.758c.141.177.283.354.421.531a59.248,59.248,0,0,1,3.694,5.288l.08-1.231q.148.547.3,1.076l-.046.7c.165.275.326.55.484.825q.185.629.366,1.222-.526-.974-1.1-1.929l-21.639,2.42c11.378,5.985,25.5,8.822,26.4,9-.213-.944-.473-1.88-.772-2.806.078-.081.154-.164.231-.246.037.111.075.221.11.332l-.12.13.14-.066q.312.978.559,1.949c.066-.526.154-1.325.231-2.335,3.9-1.951,13.99-7.652,19.114-16.591l-13.391,7.311A41.7,41.7,0,0,1,168.9,590.147Zm-4.437-21.116.033-.508.34.423-.033.508Z" transform="translate(-122.664 -507.545)" fill="#e6e6e6"/>
      <path id="Path_8731" data-name="Path 8731" d="M285.929,522.148l.118-.056a9.414,9.414,0,0,0-9.112.392l9,11.673C286.251,527.1,285.934,522.218,285.929,522.148Z" transform="translate(-226.198 -496.657)" fill="#e6e6e6"/>
      <path id="Path_8732" data-name="Path 8732" d="M284.776,655.145a59.276,59.276,0,0,1-2.489,5.951l13.264-7.242.018.193a23.5,23.5,0,0,0,2.231-5.5q.295-1.132.533-2.27L285,654.5C284.925,654.719,284.851,654.934,284.776,655.145Z" transform="translate(-230.09 -587.721)" fill="#e6e6e6"/>
      <path id="Path_8733" data-name="Path 8733" d="M268.685,538.606l-9.208-11.94.08-.175a20.007,20.007,0,0,0-6.3,6.083l14.627,15.607C268.3,544.761,268.545,541.511,268.685,538.606Z" transform="translate(-208.969 -500.581)" fill="#e6e6e6"/>
      <path id="Path_8734" data-name="Path 8734" d="M115.106,579.528a13.922,13.922,0,0,0-6.8,1.456c-.1.054-.2.109-.294.165.7.388,4.79,2.692,10.141,6.428Z" transform="translate(-103.318 -539.16)" fill="#e6e6e6"/>
      <path id="Path_8735" data-name="Path 8735" d="M118.873,633.268,97.688,637.3l-.116-.16a34.693,34.693,0,0,0,3.423,6.1l23.457-5.036C122.557,636.4,120.668,634.751,118.873,633.268Z" transform="translate(-95.723 -578.254)" fill="#e6e6e6"/>
      <path id="Path_8736" data-name="Path 8736" d="M135.564,653.81q-.681-.679-1.364-1.333l-23.543,5.054-.118-.159q.709,1.011,1.51,2.02l-.119-.158Z" transform="translate(-105.155 -592.227)" fill="#e6e6e6"/>
      <path id="Path_8737" data-name="Path 8737" d="M168.216,689.226a59.652,59.652,0,0,0-4.1-5.859l-23.053,5.112a47.987,47.987,0,0,0,5.474,3.363l-.12-.18Z" transform="translate(-127.359 -614.698)" fill="#e6e6e6"/>
      <path id="Path_8738" data-name="Path 8738" d="M95.416,585.871l.016-.13a9.414,9.414,0,0,0-4.546,7.906l14.678-1.354C99.773,588.252,95.477,585.905,95.416,585.871Z" transform="translate(-90.858 -543.682)" fill="#e6e6e6"/>
      <path id="Path_8739" data-name="Path 8739" d="M105.922,610.886l-15.015,1.385-.1-.161a20.007,20.007,0,0,0,1.763,8.582l21.012-4C110.912,614.508,108.3,612.559,105.922,610.886Z" transform="translate(-90.786 -561.973)" fill="#e6e6e6"/>
      <path id="Path_8740" data-name="Path 8740" d="M146.016,664.936a80.539,80.539,0,0,0-5.785-6.456l-23.692,5.437q1.091,1.362,2.346,2.708a28.852,28.852,0,0,0,3.946,3.467l23.184-5.142Z" transform="translate(-109.52 -596.594)" fill="#e6e6e6"/>
      <path id="Path_8741" data-name="Path 8741" d="M163.952,443.831c1.765,2.354,3.668,5.047,5.547,7.982l.268-13.54.148.095a26.428,26.428,0,0,0-6.537-3.495l.148.082Z" transform="translate(-143.592 -433.936)" fill="#1f46b8"/>
      <path id="Path_8742" data-name="Path 8742" d="M143.5,432.318a13.922,13.922,0,0,0-6.914-.716c-.112.02-.221.043-.331.066.545.585,3.723,4.04,7.657,9.247Z" transform="translate(-123.859 -431.431)" fill="#1f46b8"/>
      <path id="Path_8743" data-name="Path 8743" d="M214.781,509.455q.434,1.036.825,2.058l4.966-14.664.143.136q-.88-1.655-1.865-3.217l-4,15.746Z" transform="translate(-180.984 -476.777)" fill="#1f46b8"/>
      <path id="Path_8744" data-name="Path 8744" d="M191.608,470.048l2.6-15.374.147.118a41.545,41.545,0,0,0-7.165-6.7l-.273,13.8Q189.534,466.033,191.608,470.048Z" transform="translate(-160.711 -443.554)" fill="#1f46b8"/>
      <path id="Path_8745" data-name="Path 8745" d="M107.218,488.22l-.061-.188a34.687,34.687,0,0,0,1.371,6.856l23.864,2.461c-1.246-2.3-2.532-4.453-3.78-6.417Z" transform="translate(-102.695 -472.605)" fill="#1f46b8"/>
      <path id="Path_8746" data-name="Path 8746" d="M112.456,514.061l-.063-.188q.362,1.181.812,2.388l-.064-.187,24.153,2.147q-.438-.856-.885-1.69Z" transform="translate(-106.504 -491.403)" fill="#1f46b8"/>
      <path id="Path_8747" data-name="Path 8747" d="M207.543,494.138l3.969-15.615.145.128a49.613,49.613,0,0,0-3.961-5.389l-2.63,15.582Q206.433,491.529,207.543,494.138Z" transform="translate(-173.917 -461.861)" fill="#1f46b8"/>
      <path id="Path_8748" data-name="Path 8748" d="M155.131,555.708l-23.5-2.263a48,48,0,0,0,4.166,4.891l-.058-.208,21.485,4.42A59.658,59.658,0,0,0,155.131,555.708Z" transform="translate(-120.495 -520.188)" fill="#1f46b8"/>
      <path id="Path_8749" data-name="Path 8749" d="M117.627,432.526l.055-.119a9.414,9.414,0,0,0-6.768,6.114l14.378,3.249C121.034,436.137,117.675,432.577,117.627,432.526Z" transform="translate(-105.428 -432.141)" fill="#1f46b8"/>
      <path id="Path_8750" data-name="Path 8750" d="M218.775,521.844a59.282,59.282,0,0,1,1.879,6.171l5.6-14.038.137.137a23.5,23.5,0,0,0-1.787-5.656q-.5-1.06-1.037-2.088l-5.026,14.839C218.618,521.42,218.7,521.633,218.775,521.844Z" transform="translate(-183.718 -485.944)" fill="#1f46b8"/>
      <path id="Path_8751" data-name="Path 8751" d="M128.069,466.821c-1.86-2.9-3.742-5.562-5.486-7.888l-14.708-3.323-.05-.186a20.006,20.006,0,0,0-.976,8.706Z" transform="translate(-102.402 -448.885)" fill="#1f46b8"/>
      <path id="Path_8752" data-name="Path 8752" d="M119.7,531.147l23.638,2.276,0-.014a80.513,80.513,0,0,0-3.506-7.928l-24.212-2.152q.617,1.633,1.394,3.3A28.856,28.856,0,0,0,119.7,531.147Z" transform="translate(-108.857 -498.281)" fill="#1f46b8"/>
      <path id="Path_8753" data-name="Path 8753" d="M316.575,550.967l.054.167a26.428,26.428,0,0,0-2.806-6.861l.061.158-5.333,7.107c-.142,2.938-.394,6.227-.819,9.686Z" transform="translate(-248.6 -513.517)" fill="#1f46b8"/>
      <path id="Path_8754" data-name="Path 8754" d="M315.99,530.109a13.924,13.924,0,0,0-4.868-4.962c-.1-.056-.2-.108-.3-.16.047.8.291,5.486,0,12.006Z" transform="translate(-250.849 -499.487)" fill="#1f46b8"/>
      <path id="Path_8755" data-name="Path 8755" d="M293.588,641.428q-.327,1.075-.677,2.112l13.178-8.126.023.2q.378-1.836.616-3.667L293.6,641.517Z" transform="translate(-237.818 -577.289)" fill="#1f46b8"/>
      <path id="Path_8756" data-name="Path 8756" d="M301.671,589.835l11.8-10.186.038.185a41.548,41.548,0,0,0-1.248-9.727l-9.011,10.453Q302.634,585.42,301.671,589.835Z" transform="translate(-244.19 -532.309)" fill="#1f46b8"/>
      <path id="Path_8757" data-name="Path 8757" d="M309.28,606.584l-11.964,10.323q-.659,2.94-1.469,5.657l13.016-9.5.03.191A49.611,49.611,0,0,0,309.28,606.584Z" transform="translate(-239.954 -558.843)" fill="#1f46b8"/>
      <path id="Path_8758" data-name="Path 8758" d="M168.9,590.147q.016-.242.03-.5a41.285,41.285,0,0,0,5.416-8.3l-7.226-9q-.142-.461-.3-.919l7.691,9.585a59.66,59.66,0,0,0,2.753-6.6l-15.212-15.281q.071-.18.144-.368l15.192,15.261.013-.008a80.528,80.528,0,0,0,2.356-8.342l-15.086-14.934q.047-.208.094-.418l15.087,14.934q.209-.938.4-1.866l-15.042-15.317q.038-.219.073-.44l15.054,15.329c.506-2.564.89-5.044,1.181-7.354L166.77,539.871l.073-.183c-.349.509-.689,1.043-1.02,1.6a30.406,30.406,0,0,0-.424-5.219l-5.651,14.172a45.614,45.614,0,0,1,.979,5.933c-.034.338-.065.677-.09,1.021l.186.187c.012.182.023.364.032.545l-.247-.248c-.012.2-.02.4-.029.6a42.963,42.963,0,0,0-1.1-8l-21.327-4.388c1.074,1.1,2.2,2.174,3.351,3.208a26.071,26.071,0,0,0-6.891-1.177l.166.032,3.148,8.309c2.406,1.693,5.049,3.666,7.743,5.877l-3.876-12.781q.215.192.432.381l3.866,12.748q3.774,3.126,6.987,6.3l-1.776-12,.372.258,1.8,12.127q2.13,2.131,3.992,4.269L156.6,560.29l.36.224.87,13.292-.083-.036q.733.851,1.421,1.7l.166-13.524.355.207-.169,13.758c.141.177.283.354.421.531a59.248,59.248,0,0,1,3.694,5.288l.08-1.231q.148.547.3,1.076l-.046.7c.165.275.326.55.484.825q.185.629.366,1.222-.526-.974-1.1-1.929l-21.639,2.42c11.378,5.985,25.5,8.822,26.4,9-.213-.944-.473-1.88-.772-2.806.078-.081.154-.164.231-.246.037.111.075.221.11.332l-.12.13.14-.066q.312.978.559,1.949c.066-.526.154-1.325.231-2.335,3.9-1.951,13.99-7.652,19.114-16.591l-13.391,7.311A41.7,41.7,0,0,1,168.9,590.147Zm-4.437-21.116.033-.508.34.423-.033.508Z" transform="translate(-122.664 -507.545)" fill="#1f46b8"/>
      <path id="Path_8759" data-name="Path 8759" d="M285.929,522.148l.118-.056a9.414,9.414,0,0,0-9.112.392l9,11.673C286.251,527.1,285.934,522.218,285.929,522.148Z" transform="translate(-226.198 -496.657)" fill="#1f46b8"/>
      <path id="Path_8760" data-name="Path 8760" d="M284.776,655.145a59.276,59.276,0,0,1-2.489,5.951l13.264-7.242.018.193a23.5,23.5,0,0,0,2.231-5.5q.295-1.132.533-2.27L285,654.5C284.925,654.719,284.851,654.934,284.776,655.145Z" transform="translate(-230.09 -587.721)" fill="#1f46b8"/>
      <path id="Path_8761" data-name="Path 8761" d="M268.685,538.606l-9.208-11.94.08-.175a20.007,20.007,0,0,0-6.3,6.083l14.627,15.607C268.3,544.761,268.545,541.511,268.685,538.606Z" transform="translate(-208.969 -500.581)" fill="#1f46b8"/>
      <path id="Path_8762" data-name="Path 8762" d="M115.106,579.528a13.922,13.922,0,0,0-6.8,1.456c-.1.054-.2.109-.294.165.7.388,4.79,2.692,10.141,6.428Z" transform="translate(-103.318 -539.16)" fill="#1f46b8"/>
      <path id="Path_8763" data-name="Path 8763" d="M118.873,633.268,97.688,637.3l-.116-.16a34.693,34.693,0,0,0,3.423,6.1l23.457-5.036C122.557,636.4,120.668,634.751,118.873,633.268Z" transform="translate(-95.723 -578.254)" fill="#1f46b8"/>
      <path id="Path_8764" data-name="Path 8764" d="M135.564,653.81q-.681-.679-1.364-1.333l-23.543,5.054-.118-.159q.709,1.011,1.51,2.02l-.119-.158Z" transform="translate(-105.155 -592.227)" fill="#1f46b8"/>
      <path id="Path_8765" data-name="Path 8765" d="M168.216,689.226a59.652,59.652,0,0,0-4.1-5.859l-23.053,5.112a47.987,47.987,0,0,0,5.474,3.363l-.12-.18Z" transform="translate(-127.359 -614.698)" fill="#1f46b8"/>
      <path id="Path_8766" data-name="Path 8766" d="M95.416,585.871l.016-.13a9.414,9.414,0,0,0-4.546,7.906l14.678-1.354C99.773,588.252,95.477,585.905,95.416,585.871Z" transform="translate(-90.858 -543.682)" fill="#1f46b8"/>
      <path id="Path_8767" data-name="Path 8767" d="M105.922,610.886l-15.015,1.385-.1-.161a20.007,20.007,0,0,0,1.763,8.582l21.012-4C110.912,614.508,108.3,612.559,105.922,610.886Z" transform="translate(-90.786 -561.973)" fill="#1f46b8"/>
      <path id="Path_8768" data-name="Path 8768" d="M146.016,664.936a80.539,80.539,0,0,0-5.785-6.456l-23.692,5.437q1.091,1.362,2.346,2.708a28.852,28.852,0,0,0,3.946,3.467l23.184-5.142Z" transform="translate(-109.52 -596.594)" fill="#1f46b8"/>
    </g>
    <rect id="Rectangle_1539" data-name="Rectangle 1539" width="4.088" height="29.982" transform="translate(673.436 342.648)" fill="#3f3d56"/>
    <rect id="Rectangle_1540" data-name="Rectangle 1540" width="4.088" height="29.982" transform="translate(721.681 342.648)" fill="#6585e2"/>
    <rect id="Rectangle_1541" data-name="Rectangle 1541" width="148.821" height="6.814" transform="translate(625.192 338.014)" fill="#8ca4ea"/>
    <rect id="Rectangle_1542" data-name="Rectangle 1542" width="148.821" height="6.814" transform="translate(625.192 359.547)" fill="#8ca4ea"/>
    <rect id="Rectangle_1543" data-name="Rectangle 1543" width="148.821" height="4.088" transform="translate(625.192 347.009)" fill="#8ca4ea"/>
    <rect id="Rectangle_1544" data-name="Rectangle 1544" width="148.821" height="4.088" transform="translate(625.192 353.278)" fill="#8ca4ea"/>
    <rect id="Rectangle_1545" data-name="Rectangle 1545" width="4.634" height="35.979" transform="translate(624.783 336.788)" fill="#6585e2"/>
    <rect id="Rectangle_1546" data-name="Rectangle 1546" width="4.634" height="35.979" transform="translate(769.38 336.651)" fill="#6585e2"/>
    <rect id="Rectangle_1547" data-name="Rectangle 1547" width="4.634" height="37.342" transform="translate(612.109 382.17)" fill="#6585e2"/>
    <rect id="Rectangle_1548" data-name="Rectangle 1548" width="4.634" height="19.897" transform="translate(627.373 380.807)" fill="#6585e2"/>
    <rect id="Rectangle_1549" data-name="Rectangle 1549" width="4.634" height="19.897" transform="translate(768.29 380.807)" fill="#6585e2"/>
    <rect id="Rectangle_1550" data-name="Rectangle 1550" width="4.634" height="37.342" transform="translate(781.373 382.17)" fill="#6585e2"/>
    <rect id="Rectangle_1551" data-name="Rectangle 1551" width="173.897" height="4.906" transform="translate(612.109 382.17)" fill="#6585e2"/>
    <path id="Path_8769" data-name="Path 8769" d="M266.814,520l-12.538,10.9h173.9L416.181,520Z" transform="translate(357.833 -148.733)" fill="#8ca4ea"/>
    <path id="Path_8770" data-name="Path 8770" d="M235.366,108.849l-.035-.2-3.355-1.777h-.527l-.2-.386h-6.915l-1.6.386h-5.906l-1.6,1.867-.016.114c-.1.668-2.418,16.37,3.688,21.366l2.546,1.183h1.646l-.322-.643,1.431.643h4.634l.082-.124,2.75-1.029.071-.082C231.981,129.878,237.825,122.777,235.366,108.849Z" transform="translate(361.883 128.244)" fill="#1f46b8" opacity="0.1"/>
    <rect id="Rectangle_1552" data-name="Rectangle 1552" width="2.726" height="7.087" transform="translate(586.215 252.701)" fill="#8ca4ea"/>
    <rect id="Rectangle_1553" data-name="Rectangle 1553" width="4.906" height="136.283" transform="translate(584.989 268.919)" fill="#9fb3ed"/>
    <rect id="Rectangle_1554" data-name="Rectangle 1554" width="7.359" height="4.634" transform="translate(583.762 266.602)" fill="#9fb3ed"/>
    <path id="Path_8771" data-name="Path 8771" d="M140.276,105l4.634,4.906L143,113.45l3.816.818,3.543-.818-2.181-3.816L152.542,105Z" transform="translate(440.76 153.152)" fill="#9fb3ed"/>
    <path id="Path_8772" data-name="Path 8772" d="M212.242,105.222l-2.181-2.181,1.635-1.635h20.715l1.635,1.908-2.453,1.908S218.511,104.677,212.242,105.222Z" transform="translate(365.251 131.943)" fill="#9fb3ed"/>
    <path id="Path_8773" data-name="Path 8773" d="M235.366,106.235l-.035-.2-3.355-1.777-1.532-.812-8.6-.553-4.822,1.134-.2.232-1.6,1.867-.016.114c-.1.668-2.418,16.37,3.688,21.367l2.546,1.183,2.142.995-.5-.995-.815-1.627c-.853-4.966-2.728-18.014-1.532-20.74l4.944-1.595,4.388,1.63c.3,1.96,2.26,15.7-1.169,20.6l-.074.106V128.7l2.832-1.06.071-.082C231.981,127.263,237.825,120.163,235.366,106.235Zm-4.2,20.715-1.521.572v-.1c3.761-5.612,1.3-20.682,1.2-21.326l-.038-.234-4.3-1.6-.8-.3-.921.3-4.612,1.488-.079.139c-1.753,3.143,1.254,20.726,1.382,21.473l.011.06.324.649-2.439-1.126c-5.438-4.527-3.573-19.025-3.374-20.462l1.472-1.717,2.142-.5,2.3-.542,3.791.245,4.508.292.011.005,4.369,2.311C236.759,119.206,231.793,126.143,231.169,126.95Z" transform="translate(361.883 130.859)" fill="#9fb3ed"/>
    <ellipse id="Ellipse_258" data-name="Ellipse 258" cx="7.359" cy="3.816" rx="7.359" ry="3.816" transform="translate(580.219 229.533)" fill="#9fb3ed"/>
    <path id="Path_8774" data-name="Path 8774" d="M229.423,706.406l-4.361,13.9s6.814,3.816,16.081,0l-4.361-13.9Z" transform="translate(354.339 -308.155)" fill="#9fb3ed"/>
    <g transform="matrix(1, 0, 0, 1, 542.8, 229.53)" filter="url(#Ellipse_259)">
      <circle id="Ellipse_259-2" data-name="Ellipse 259" cx="2.181" cy="2.181" r="2.181" transform="translate(42.6 19.62)" fill="#1f46b8"/>
    </g>
    <path id="Path_8775" data-name="Path 8775" d="M520.9,432.714a9.223,9.223,0,0,1,2.525-1.266,64.382,64.382,0,0,1,17.79-3.873c5.29-.375,11.023.07,15.155,3.395a5.211,5.211,0,0,1,1.537,1.791,6.559,6.559,0,0,1,.194,3.65,4.126,4.126,0,0,1-.354,1.374,3.087,3.087,0,0,1-3.114,1.3c-1.189-.127-2.3-.63-3.477-.863a15.531,15.531,0,0,0-2.2-.224l-7.355-.4c-4.574-.248-9.208-.491-13.694.432a13.638,13.638,0,0,0-3.956,1.363c-1.025.575-1.715,1.4-2.666.338C519.62,437.87,518.7,434.439,520.9,432.714Z" transform="translate(140.081 -105.243)" fill="#3f3d56"/>
    <path id="Path_8776" data-name="Path 8776" d="M560.725,453.9s9.893-4.435,13.645.682-2.047,3.07-2.047,3.07l-6.482,2.047-7.164-1.365Z" transform="translate(111.656 -123.175)" fill="#f2f2f2"/>
    <path id="Path_8777" data-name="Path 8777" d="M568.065,438.574s1.365,6.482.341,8.187,5.8,4.094,5.8,4.094l6.482-2.729s-1.706-10.575,0-12.622Z" transform="translate(104.827 -111.091)" fill="#ffb9b9"/>
    <path id="Path_8778" data-name="Path 8778" d="M568.065,438.574s1.365,6.482.341,8.187,5.8,4.094,5.8,4.094l6.482-2.729s-1.706-10.575,0-12.622Z" transform="translate(104.827 -111.091)" fill="#3f3d56" opacity="0.5"/>
    <path id="Path_8779" data-name="Path 8779" d="M534.881,714.18a37.323,37.323,0,0,1,2.254,5.908.481.481,0,0,0,.6.4l6.068-.007c.749,0,1.753-.241,1.746-.99-.005-.526-.543-.854-.943-1.2-1.111-.948-1.4-2.511-1.86-3.9a13.218,13.218,0,0,0-4.919-6.606,2.873,2.873,0,0,0-1.051-.52,2.928,2.928,0,0,0-1.153.063c-1.065.215-5.043.95-4.291,2.5.323.667,1.523,1.362,2.025,1.985A14.264,14.264,0,0,1,534.881,714.18Z" transform="translate(131.619 -308.761)" fill="#575a89"/>
    <path id="Path_8780" data-name="Path 8780" d="M610.147,697.647a13.767,13.767,0,0,1-.713,1.311c-.879,1.45-1.916,2.8-2.735,4.287a7.079,7.079,0,0,0-1,2.983,3.314,3.314,0,0,0,1.158,2.819,4.255,4.255,0,0,0,3.183.544,15.413,15.413,0,0,1,3.286-.387c-.372-2.1,1.4-3.955,1.846-6.045.125-.587.143-1.2.31-1.772a8.67,8.67,0,0,1,.687-1.519,19.637,19.637,0,0,0,1.853-5.465c.042-.231-5.394-.269-5.9-.158C610.53,694.59,610.763,696.328,610.147,697.647Z" transform="translate(77.453 -299.266)" fill="#575a89"/>
    <path id="Path_8781" data-name="Path 8781" d="M465.532,567.876c-1.552,2.428-1.194,5.646-.1,8.314s2.824,5.026,4.012,7.652c.757,1.674,1.288,3.449,2.14,5.076,1.055,2.015,2.6,3.792,3.3,5.954.451,1.378.555,2.889,1.286,4.141a12.689,12.689,0,0,0,1.507,1.869,17.276,17.276,0,0,1,3.473,6.2,6.183,6.183,0,0,1,4.725-3.727,18.23,18.23,0,0,1,6.265.156,26.35,26.35,0,0,1-3.023-5.641,56.664,56.664,0,0,1-1.317-6.059c-.924-4.141-2.9-7.959-4.851-11.725l10.042-.8a39.119,39.119,0,0,1,4.934-.183c2.592.122,5.131.758,7.709,1.051a13.148,13.148,0,0,0,7.6-.989,36.436,36.436,0,0,0-6.537,21.517,8.331,8.331,0,0,1,12.611,2.976c3.935-5.378,3.467-12.864,6.586-18.754.641-1.211,1.427-2.339,2.119-3.522a51.918,51.918,0,0,0,3.348-7.4c.872-2.231,1.751-4.714.914-6.958a7.265,7.265,0,0,0-1.491-2.292,10.033,10.033,0,0,0-6.981-3.512c-4.11-.094-7.505,2.953-11.11,4.928a25.569,25.569,0,0,1-14.031,2.91c-4.952-.351-9.682-1.972-14.4-3.4a68.558,68.558,0,0,0-7.187-1.854,13.433,13.433,0,0,0-5.944.558A9.037,9.037,0,0,0,465.532,567.876Z" transform="translate(180.173 -202.545)" fill="#444053"/>
    <path id="Path_8782" data-name="Path 8782" d="M571.011,395.674a10.242,10.242,0,0,1-10.234,10.234,9.983,9.983,0,0,1-1.818-.164,10.234,10.234,0,1,1,12.052-10.07Z" transform="translate(117.573 -74.673)" fill="#ffb9b9"/>
    <path id="Path_8783" data-name="Path 8783" d="M536.6,458.2a12.031,12.031,0,0,1,2.559,1.535c.682.682,2.729,4.435,6.14,2.047s3.753-3.752,4.776-3.752,2.388,2.047,2.388,2.047l9.381,28.144a39.293,39.293,0,0,1-8.7,7.334c-5.458,3.411-11.94,5.117-15.01,3.752s-8.869-2.388-9.893-5.117-2.729-10.916-2.729-10.916l4.776-20.809Z" transform="translate(135.782 -127.479)" fill="#f2f2f2"/>
    <path id="Path_8784" data-name="Path 8784" d="M521.2,480.956a13.4,13.4,0,0,0,.915-5.194,31.477,31.477,0,0,0-.139-5.254c-.3-2.282-1.045-4.48-1.515-6.734a28.475,28.475,0,0,1-.6-6.01,4.9,4.9,0,0,1,.576-2.663,8.5,8.5,0,0,0,1.117-1.56c.429-1.185-.631-2.425-1.793-2.913a7.055,7.055,0,0,0-4.416-.177,21.01,21.01,0,0,0-4.154,1.7,9.51,9.51,0,0,0-2.714,1.754,8.87,8.87,0,0,0-1.9,4.1,8.389,8.389,0,0,0-.339,3.612c.372,1.945,1.958,3.408,2.8,5.2a11.375,11.375,0,0,1,.525,6.77c-.39,2.266-1.084,4.483-1.3,6.772a9.111,9.111,0,0,0,1.549,6.549c.585.733,2.171,2.469,3.241,2.272.841-.154,2.06-2.005,2.737-2.592C517.755,484.891,520.077,483.383,521.2,480.956Z" transform="translate(149.863 -121.769)" fill="#3f3d56"/>
    <path id="Path_8785" data-name="Path 8785" d="M612.219,445.068a10.258,10.258,0,0,1-1.8,5.338,37.376,37.376,0,0,0-2.872,4.925,11.288,11.288,0,0,0-.527,6.944,22.413,22.413,0,0,0,.753,2.324l1.869,5.127A8.893,8.893,0,0,0,610.73,472a7.346,7.346,0,0,0,1.473,1.417,13.747,13.747,0,0,0,4.806,2.507,8.128,8.128,0,0,0,5.344-.3,77.337,77.337,0,0,1,3.32-20.5,7.436,7.436,0,0,0,.494-3.771,7.113,7.113,0,0,0-2.518-3.413c-3.271-2.938-6.869-6.023-11.248-6.419C609.867,441.292,612.2,443.693,612.219,445.068Z" transform="translate(76.718 -115.457)" fill="#3f3d56"/>
    <path id="Path_8786" data-name="Path 8786" d="M534.584,585.4c.26.508.421,1.061.677,1.57a8.774,8.774,0,0,0,1.392,1.872c2.281,2.529,5.069,5.049,8.471,5.2a2.323,2.323,0,0,0,1-.126,1.98,1.98,0,0,0,1.063-1.519,6.46,6.46,0,0,0-.926-3.849c-1.266-2.621-2.69-5.309-5.059-7a9.492,9.492,0,0,0-8.189-1.232c-1.234.38-3.281,1.044-1.647,2.17C532.606,583.339,533.866,583.989,534.584,585.4Z" transform="translate(131.965 -216.123)" fill="#ffb9b9"/>
    <path id="Path_8787" data-name="Path 8787" d="M567.812,466.091a7.626,7.626,0,0,0-1.6-2.581,5.94,5.94,0,0,0-2.446-1.239,13.372,13.372,0,0,0-3.587-.514c-1.445-.009-3.12.379-3.734,1.687a3.979,3.979,0,0,0,.381,3.306,3.241,3.241,0,0,0,1.011,1.366,5.613,5.613,0,0,0,2.167.549,10,10,0,0,1,3.2,1.452l2.53,1.53,4.346,2.627c-.115-.069-.074-3.05-.207-3.538A34.393,34.393,0,0,0,567.812,466.091Z" transform="translate(113.445 -130.188)" fill="#ffb9b9"/>
    <path id="Path_8788" data-name="Path 8788" d="M533.814,748.254c-1.017,1.382-.813,3.358-1.714,4.818-.781,1.266-2.253,1.93-3.229,3.051a8.184,8.184,0,0,0-.83,1.194c-.906,1.518-1.643,3.463-.75,4.989.718,1.227,2.227,1.707,3.611,2.034a13.248,13.248,0,0,0,5.336.428,5.314,5.314,0,0,0,4.129-3.082,11.884,11.884,0,0,1,.442-1.246c.959-1.888,3.967-1.908,4.948-3.785.687-1.313.056-2.9-.576-4.241l-1.928-4.095c-.64-1.359-3.233-.578-4.585-.9C536.9,746.992,535.082,746.525,533.814,748.254Z" transform="translate(134.782 -337.7)" fill="#444053"/>
    <path id="Path_8789" data-name="Path 8789" d="M597.654,736.725a5.48,5.48,0,0,0-1.744,2.389,26.131,26.131,0,0,0-1.6,6.991,8.466,8.466,0,0,0-.055,2.867,5.746,5.746,0,0,0,4.064,3.965,16.934,16.934,0,0,0,5.907.405,4.23,4.23,0,0,0,1.857-.377A2.879,2.879,0,0,0,607.3,750a8.44,8.44,0,0,0-1.387-3.091,8.463,8.463,0,0,1-1.389-3.09c-.29-1.892.528-4.668-.634-6.38S599.208,735.636,597.654,736.725Z" transform="translate(85.851 -329.689)" fill="#444053"/>
    <path id="Path_8790" data-name="Path 8790" d="M561.9,376.131a2.6,2.6,0,0,0-1.127-1.471,5.96,5.96,0,0,0-.238-1.941c-.62-1.832-2.088-1.727-3.473-2.537-.6-.352-.564-.662-.877-1.239a4.6,4.6,0,0,0-1.773-1.808,6.376,6.376,0,0,0-2.878-1.221c-2.209-.151-3.9,1.928-6.015,2.595-.931.294-1.931.306-2.867.584A2.637,2.637,0,0,0,540.648,371c-.064.446.049.9-.016,1.35-.13.886-.907,1.507-1.428,2.236a5.508,5.508,0,0,0-.1,5.643,7.939,7.939,0,0,0,.664,1.039,6.387,6.387,0,0,0,.7,2.373,11.826,11.826,0,0,0,4.159,4.153,9.813,9.813,0,0,1-.245-1.771,1.223,1.223,0,0,1,.075-.587c.184-.385.671-.488,1.042-.7a2.635,2.635,0,0,0,1.093-2.288c.022-.884-.165-1.77-.073-2.649a1.448,1.448,0,0,1,.5-1.065,1.712,1.712,0,0,1,.934-.223,10.546,10.546,0,0,0,4.611-.838,6.841,6.841,0,0,1,1.435-.726,3.052,3.052,0,0,1,3.069,1.533c.681,1.013,1.02,2.219,1.648,3.265a3.316,3.316,0,0,0,2.927,1.856.486.486,0,0,0,.363-.161.543.543,0,0,0,.067-.309l.068-4.641A7.015,7.015,0,0,0,561.9,376.131Z" transform="translate(126.423 -60.464)" fill="#35313e"/>
    <path id="Path_8791" data-name="Path 8791" d="M488.563,481.012a18.565,18.565,0,0,0-2.639,4.481c-.315.973-.413,2-.642,3-.761,3.321-2.958,6.271-3.179,9.67a4.6,4.6,0,0,0,.323,2.22A5.517,5.517,0,0,0,486,502.932a11.4,11.4,0,0,1,4.134,1.761,12.676,12.676,0,0,1,1.566,1.816,15.172,15.172,0,0,0,7.247,4.959c-.225-1.552-.331-3.423.91-4.383a4.493,4.493,0,0,1,2.415-.685l4-.345a51.355,51.355,0,0,0-8.762-6.826,6.373,6.373,0,0,1-2.813-2.6,6.279,6.279,0,0,1-.319-2.4,59.109,59.109,0,0,0-.753-8.874c-.329-2.038-.765-4.057-1.263-6.061-.14-.562-.967-3.085-1.984-2.495-.24.139-.464,1.739-.6,2.071A12.567,12.567,0,0,1,488.563,481.012Z" transform="translate(167.377 -141.068)" fill="#3f3d56"/>
    <path id="Path_8792" data-name="Path 8792" d="M613.97,470.437l1.632,3.395a8.158,8.158,0,0,1,1.029,4.59l.1,10.183a14.833,14.833,0,0,1-.335,4.055,3.248,3.248,0,0,1-.563,1.211,3.783,3.783,0,0,1-.965.778c-3.089,1.93-7.095,3.027-10.359,1.41a14.348,14.348,0,0,1-2.124-1.386,16.882,16.882,0,0,1-3.594-3.239,22.287,22.287,0,0,1-2.287-4.524,34.759,34.759,0,0,0-4.726-7.751,2.043,2.043,0,0,1-.585-1.16c-.02-.893,1.039-1.332,1.864-1.672a4.557,4.557,0,0,0,2.977-3.206c3,3.934,6.31,8.09,11.043,9.527a.488.488,0,0,0,.751-.417c.269-1.124.364-2.282.56-3.421a19.48,19.48,0,0,1,2.056-5.928C611,471.842,612.818,468.041,613.97,470.437Z" transform="translate(88.005 -135.937)" fill="#3f3d56"/>
    <path id="Path_8793" data-name="Path 8793" d="M520.526,508.533a15.657,15.657,0,0,1-1.5,6.977,5.762,5.762,0,0,0-.586,1.537,4.15,4.15,0,0,0,1.22,3.147,12.939,12.939,0,0,0,5.532,3.849" transform="translate(140.945 -164.215)" fill="#3f3d56" opacity="0.5"/>
    <path id="Path_8794" data-name="Path 8794" d="M652.017,501.081a3.336,3.336,0,0,0,.163,2.027,20.421,20.421,0,0,1,.744,5.925.216.216,0,0,1-.252.258,2.719,2.719,0,0,1-2.223-.527" transform="translate(44.898 -158.794)" fill="#3f3d56" opacity="0.5"/>
    <rect id="Rectangle_1555" data-name="Rectangle 1555" width="84.68" height="19.228" rx="3" transform="translate(723.002 264.285)" fill="#b2c2f0"/>
    <rect id="Rectangle_1556" data-name="Rectangle 1556" width="84.68" height="19.228" rx="3" transform="translate(723.002 286.76)" fill="#6585e2"/>
    <rect id="Rectangle_1557" data-name="Rectangle 1557" width="56.686" height="1.249" transform="translate(743.46 271.527)" fill="#3f67db"/>
    <rect id="Rectangle_1558" data-name="Rectangle 1558" width="56.686" height="1.249" transform="translate(743.46 274.773)" fill="#3f67db"/>
    <rect id="Rectangle_1559" data-name="Rectangle 1559" width="56.686" height="1.249" transform="translate(743.46 294.251)" fill="#8ca4ea"/>
    <rect id="Rectangle_1560" data-name="Rectangle 1560" width="56.686" height="1.249" transform="translate(743.46 297.497)" fill="#8ca4ea"/>
    <rect id="Rectangle_1561" data-name="Rectangle 1561" width="84.68" height="19.228" rx="3" transform="translate(723.002 308.837)" fill="#6585e2"/>
    <rect id="Rectangle_1562" data-name="Rectangle 1562" width="56.686" height="1.249" transform="translate(743.46 316.329)" fill="#8ca4ea"/>
    <rect id="Rectangle_1563" data-name="Rectangle 1563" width="56.686" height="1.249" transform="translate(743.46 319.575)" fill="#8ca4ea"/>
    <path id="Path_9456" data-name="Path 9456" d="M6.038-7.545H4.565a2.541,2.541,0,0,1,.506,1.236H6.325l-.287.986H5.09A2.237,2.237,0,0,1,4.21-3.65a3.556,3.556,0,0,1-2.135.562L5.152.482V.557H3.735L.427-3.294l-.006-.78H1.975a2.229,2.229,0,0,0,1.267-.34,1.459,1.459,0,0,0,.618-.908H.246l.287-.986H3.848Q3.548-7.5,2.012-7.545H.259l.293-.986H6.325Z" transform="translate(730.387 278.352)" fill="#3f67db"/>
    <path id="Path_9457" data-name="Path 9457" d="M6.038-7.545H4.565a2.541,2.541,0,0,1,.506,1.236H6.325l-.287.986H5.09A2.237,2.237,0,0,1,4.21-3.65a3.556,3.556,0,0,1-2.135.562L5.152.482V.557H3.735L.427-3.294l-.006-.78H1.975a2.229,2.229,0,0,0,1.267-.34,1.459,1.459,0,0,0,.618-.908H.246l.287-.986H3.848Q3.548-7.5,2.012-7.545H.259l.293-.986H6.325Z" transform="translate(730.387 300.61)" fill="#8ca4ea"/>
    <path id="Path_9458" data-name="Path 9458" d="M6.038-7.545H4.565a2.541,2.541,0,0,1,.506,1.236H6.325l-.287.986H5.09A2.237,2.237,0,0,1,4.21-3.65a3.556,3.556,0,0,1-2.135.562L5.152.482V.557H3.735L.427-3.294l-.006-.78H1.975a2.229,2.229,0,0,0,1.267-.34,1.459,1.459,0,0,0,.618-.908H.246l.287-.986H3.848Q3.548-7.5,2.012-7.545H.259l.293-.986H6.325Z" transform="translate(730.387 322.868)" fill="#8ca4ea"/>
  </g>
</svg>
