<svg xmlns="http://www.w3.org/2000/svg" xmlns:xlink="http://www.w3.org/1999/xlink" width="467" height="274" viewBox="0 0 467 274">
  <defs>
    <clipPath id="clip-path">
      <rect id="Rectangle_2318" data-name="Rectangle 2318" width="206" height="268" transform="translate(308 267)" fill="none"/>
    </clipPath>
    <linearGradient id="linear-gradient" x1="0.5" y1="1.217" x2="0.5" y2="0.032" gradientUnits="objectBoundingBox">
      <stop offset="0" stop-color="#fff" stop-opacity="0"/>
      <stop offset="0.464" stop-color="#3c4bbf"/>
      <stop offset="1" stop-color="#3c4bbf" stop-opacity="0"/>
    </linearGradient>
    <linearGradient id="linear-gradient-2" x1="0.5" y1="-0.217" x2="0.5" y2="0.968" xlink:href="#linear-gradient"/>
    <linearGradient id="linear-gradient-9" x1="0.5" y1="1" x2="0.5" gradientUnits="objectBoundingBox">
      <stop offset="0" stop-color="gray" stop-opacity="0.251"/>
      <stop offset="0.54" stop-color="gray" stop-opacity="0.122"/>
      <stop offset="1" stop-color="gray" stop-opacity="0.102"/>
    </linearGradient>
  </defs>
  <g id="Group_2907" data-name="Group 2907" transform="translate(-308 -267)">
    <g id="Group_2851" data-name="Group 2851">
      <path id="Rectangle_516" data-name="Rectangle 516" d="M15,0H452a15,15,0,0,1,15,15V268a0,0,0,0,1,0,0H0a0,0,0,0,1,0,0V15A15,15,0,0,1,15,0Z" transform="translate(308 267)" fill="#3f67db"/>
      <g id="Group_2734" data-name="Group 2734" transform="translate(308 151)">
        <g id="Group_2633" data-name="Group 2633" transform="translate(0 349.602)">
          <path id="Path_9460" data-name="Path 9460" d="M0-26S92.47-56.4,227.3-56.4,467-26,467-26v10H0Z" transform="translate(0 56.398)" fill="#fff"/>
        </g>
      </g>
    </g>
    <g id="Group_2812" data-name="Group 2812" transform="translate(667.379 460.973)">
      <g id="Group_2711" data-name="Group 2711" transform="translate(0)">
        <ellipse id="Ellipse_384" data-name="Ellipse 384" cx="1.681" cy="2.203" rx="1.681" ry="2.203" transform="translate(6.41 45.368)" fill="#3f3d56"/>
        <ellipse id="Ellipse_385" data-name="Ellipse 385" cx="1.681" cy="2.203" rx="1.681" ry="2.203" transform="translate(6.41 42.677)" fill="#3f3d56"/>
        <ellipse id="Ellipse_386" data-name="Ellipse 386" cx="1.681" cy="2.203" rx="1.681" ry="2.203" transform="translate(6.41 39.987)" fill="#3f3d56"/>
        <ellipse id="Ellipse_387" data-name="Ellipse 387" cx="1.681" cy="2.203" rx="1.681" ry="2.203" transform="translate(6.41 37.296)" fill="#3f3d56"/>
        <ellipse id="Ellipse_388" data-name="Ellipse 388" cx="1.681" cy="2.203" rx="1.681" ry="2.203" transform="translate(6.41 34.601)" fill="#3f3d56"/>
        <ellipse id="Ellipse_389" data-name="Ellipse 389" cx="1.681" cy="2.203" rx="1.681" ry="2.203" transform="translate(6.41 31.91)" fill="#3f3d56"/>
        <ellipse id="Ellipse_390" data-name="Ellipse 390" cx="1.681" cy="2.203" rx="1.681" ry="2.203" transform="translate(6.41 29.22)" fill="#3f3d56"/>
        <path id="Path_9864" data-name="Path 9864" d="M645.72,609.073a7.905,7.905,0,0,0,.628-.918l-4.42-.729,4.782.039a8.11,8.11,0,0,0,.734-3.381,8.016,8.016,0,0,0-.584-3.014l-6.415,3.328,5.917-4.347a8.057,8.057,0,1,0-13.308,9.023,8.118,8.118,0,0,0-.923,1.449l5.739,2.98-6.115-2.053a8.067,8.067,0,0,0,1.3,7.569,8.057,8.057,0,1,0,12.665,0,8.067,8.067,0,0,0,0-9.97Z" transform="translate(-631.33 -596.059)" fill="#244dc3"/>
        <path id="Path_9865" data-name="Path 9865" d="M631.33,633.163a8.021,8.021,0,0,0,1.725,4.985,8.057,8.057,0,1,0,12.665,0C646.8,636.776,631.33,632.26,631.33,633.163Z" transform="translate(-631.33 -615.179)" opacity="0.1"/>
      </g>
    </g>
    <g id="Mask_Group_1818" data-name="Mask Group 1818" clip-path="url(#clip-path)">
      <g id="Group_2850" data-name="Group 2850">
        <g id="Group_2846" data-name="Group 2846" transform="translate(308 89)">
          <g id="Group_2571" data-name="Group 2571" transform="translate(-29.686 182.178)" opacity="0.6">
            <g id="Group_2570" data-name="Group 2570" transform="translate(0 0)">
              <path id="Path_9398" data-name="Path 9398" d="M234.087,116.561H227.1L215.06,10h31.07Z" transform="translate(-111.69 -10)" fill="url(#linear-gradient)"/>
              <path id="Path_9400" data-name="Path 9400" d="M234.087,0H227.1L215.06,106.561h31.07Z" transform="translate(-111.603 142.24)" fill="url(#linear-gradient-2)"/>
              <path id="Path_9398-2" data-name="Path 9398" d="M19.027,117.769H12.043L0,0H31.07Z" transform="translate(235.264 105.307) rotate(90)" fill="url(#linear-gradient)"/>
              <path id="Path_9398-3" data-name="Path 9398" d="M19.027,117.769H12.044L0,0H31.07Z" transform="translate(210.935 192.022) rotate(135)" fill="url(#linear-gradient)"/>
              <path id="Path_9398-4" data-name="Path 9398" d="M19.027,117.769H12.043L0,0H31.07Z" transform="translate(201.294 16.483) rotate(45)" fill="url(#linear-gradient)"/>
              <path id="Path_9401" data-name="Path 9401" d="M19.027,0H12.044L0,117.769H31.07Z" transform="translate(112.477 102.022) rotate(45)" fill="url(#linear-gradient-2)"/>
              <path id="Path_9402" data-name="Path 9402" d="M19.027,0H12.043L0,117.769H31.07Z" transform="translate(117.769 105.307) rotate(90)" fill="url(#linear-gradient-2)"/>
              <path id="Path_9403" data-name="Path 9403" d="M19.027,0H12.043L0,117.769H31.07Z" transform="translate(126.602 103.122) rotate(135)" fill="url(#linear-gradient-2)"/>
            </g>
          </g>
        </g>
        <g id="Group_2708" data-name="Group 2708" transform="translate(279.494 310.057)">
          <g id="Group_2703" data-name="Group 2703" transform="translate(72.201 22.543)">
            <g id="Group_2705" data-name="Group 2705" transform="translate(0 0)">
              <rect id="Rectangle_2229" data-name="Rectangle 2229" width="86" height="120" rx="10" transform="translate(0.306 0.399)" fill="#8ca4ea"/>
              <rect id="Rectangle_2214" data-name="Rectangle 2214" width="42.804" height="5.707" rx="2.854" transform="translate(8.215 13.385)" fill="#3f67db"/>
              <rect id="Rectangle_2216" data-name="Rectangle 2216" width="42.804" height="5.707" rx="2.854" transform="translate(9.404 11.72)" fill="none" stroke="#c5d1f4" stroke-miterlimit="10" stroke-width="1"/>
              <rect id="Rectangle_2217" data-name="Rectangle 2217" width="60.51" height="2.854" rx="1.427" transform="translate(12.957 32.647)" fill="#3f67db"/>
              <rect id="Rectangle_2218" data-name="Rectangle 2218" width="60.51" height="2.854" rx="1.427" transform="translate(12.957 41.683)" fill="#3f67db"/>
              <rect id="Rectangle_2219" data-name="Rectangle 2219" width="60.51" height="2.854" rx="1.427" transform="translate(12.957 50.719)" fill="#3f67db"/>
              <rect id="Rectangle_2220" data-name="Rectangle 2220" width="60.51" height="2.854" rx="1.427" transform="translate(13.58 31.43)" fill="none" stroke="#c5d1f4" stroke-miterlimit="10" stroke-width="1"/>
              <rect id="Rectangle_2221" data-name="Rectangle 2221" width="60.51" height="2.854" rx="1.427" transform="translate(13.58 40.466)" fill="none" stroke="#c5d1f4" stroke-miterlimit="10" stroke-width="1"/>
              <rect id="Rectangle_2222" data-name="Rectangle 2222" width="60.51" height="2.854" rx="1.427" transform="translate(13.58 49.503)" fill="none" stroke="#c5d1f4" stroke-miterlimit="10" stroke-width="1"/>
              <g id="Group_2702" data-name="Group 2702" transform="translate(38.159 63.666)">
                <path id="Path_9867" data-name="Path 9867" d="M703.072,456.75H670.933a1.279,1.279,0,0,0-1.279,1.279v4.276a1.279,1.279,0,0,0,1.279,1.279h1.744V485.3a1.279,1.279,0,0,0,1.279,1.279h24.253a1.279,1.279,0,0,0,1.279-1.279V463.584h3.584a1.279,1.279,0,0,0,1.279-1.279v-4.276A1.279,1.279,0,0,0,703.072,456.75Z" transform="translate(-669.654 -444.371)" fill="#3f67db"/>
                <path id="Path_9674" data-name="Path 9674" d="M504.057,329.5h26.811v20.78a2.483,2.483,0,0,1-2.483,2.483H506.539a2.483,2.483,0,0,1-2.483-2.483V329.5Z" transform="translate(-499.72 -311.338)" fill="none" stroke="#c5d1f4" stroke-miterlimit="10" stroke-width="1"/>
                <rect id="Rectangle_2223" data-name="Rectangle 2223" width="34.697" height="6.834" rx="3.417" transform="translate(0.526 11.328)" fill="none" stroke="#c5d1f4" stroke-miterlimit="10" stroke-width="1"/>
                <rect id="Rectangle_2228" data-name="Rectangle 2228" width="6.44" height="29.177" transform="translate(14.325 11.985)" fill="#6585e2"/>
                <rect id="Rectangle_2225" data-name="Rectangle 2225" width="5.257" height="23.131" transform="translate(14.983 18.162)" fill="none" stroke="#c5d1f4" stroke-miterlimit="10" stroke-width="1"/>
                <rect id="Rectangle_2227" data-name="Rectangle 2227" width="5.257" height="6.834" transform="translate(14.983 11.328)" fill="none" stroke="#c5d1f4" stroke-miterlimit="10" stroke-width="1"/>
                <path id="Path_9675" data-name="Path 9675" d="M717.5,413.2a11.756,11.756,0,0,1,1.315,6.689,11.755,11.755,0,0,1-5.174-4.437c-1.792-3.072-2.381-6.067-1.315-6.688S715.7,410.132,717.5,413.2Z" transform="translate(-702.029 -408.654)" fill="#3f67db"/>
                <path id="Path_9676" data-name="Path 9676" d="M745.651,413.2a11.756,11.756,0,0,0-1.315,6.689,11.756,11.756,0,0,0,5.174-4.437c1.792-3.072,2.38-6.067,1.315-6.688S747.443,410.132,745.651,413.2Z" transform="translate(-725.977 -408.654)" fill="#3f67db"/>
                <path id="Path_9677" data-name="Path 9677" d="M720.5,413.2a11.756,11.756,0,0,1,1.315,6.689,11.756,11.756,0,0,1-5.175-4.437c-1.792-3.072-2.38-6.067-1.315-6.688S718.7,410.132,720.5,413.2Z" transform="translate(-704.24 -408.654)" fill="none" stroke="#c5d1f4" stroke-miterlimit="10" stroke-width="1"/>
                <path id="Path_9678" data-name="Path 9678" d="M742.651,413.2a11.756,11.756,0,0,0-1.315,6.689,11.756,11.756,0,0,0,5.175-4.437c1.792-3.072,2.38-6.067,1.315-6.688S744.443,410.132,742.651,413.2Z" transform="translate(-723.766 -408.654)" fill="none" stroke="#c5d1f4" stroke-miterlimit="10" stroke-width="1"/>
              </g>
            </g>
          </g>
          <g id="Group_2704" data-name="Group 2704" transform="translate(0 0)">
            <path id="Path_9641" data-name="Path 9641" d="M708.973,314.6a4.527,4.527,0,0,1,1.983-.87c.76-.175,1.536-.284,2.308-.406l10-1.442a11.779,11.779,0,0,1,3.063-.163,3.888,3.888,0,0,1,2.665,1.381,2.076,2.076,0,0,1,.463,1.3,3.429,3.429,0,0,1-.455,1.349,4.522,4.522,0,0,0-.248.6,13.612,13.612,0,0,1-.358,1.361,1.152,1.152,0,0,1-.171.268.483.483,0,0,0,0,.069c.11.561-.244,1.146-.085,1.686.138.463.589.743.874,1.129a1.7,1.7,0,0,1,.04,1.873c-.3.471-.857.792-1.016,1.333-.207.711.353,1.4.853,1.946a30.15,30.15,0,0,1,2.543,3.206,1.988,1.988,0,0,1,.406.955c.045.707-.634,1.329-.516,2.031.093.553.634.89,1.1,1.219a6.852,6.852,0,0,1,3.25,5.034,17.636,17.636,0,0,1,3.933-8.938,6.39,6.39,0,0,0,1.459-2.287c.089-.354.106-.731.227-1.073.406-1.077,1.7-1.54,2.263-2.531.406-.7.406-1.6.91-2.21s1.3-.752,1.731-1.345a8.62,8.62,0,0,0,.553-1.251,2.732,2.732,0,0,1,.752-.9,2.181,2.181,0,0,1,.187-.134.647.647,0,0,1-.215-.479c0-.475.471-.788.882-1.024.528-.3,1.044-.626,1.548-.963a3.621,3.621,0,0,1-1.385-1.134,3.725,3.725,0,0,1-.528-2.438,3.078,3.078,0,0,1,.727-1.865c.256-.272.577-.467.845-.723a5.929,5.929,0,0,0,1.219-2.608,5.308,5.308,0,0,1,2.092-3.145c.536-.313,1.162-.459,1.686-.788a1.472,1.472,0,0,0,.78-1.548c-.122-.406-.5-.687-.756-1.032a2.056,2.056,0,0,1,.516-2.844c.3-.191.671-.358.732-.707a1.292,1.292,0,0,0,.943-1,3.85,3.85,0,0,0,0-1.446q-.158-1.134-.313-2.259a1.47,1.47,0,0,1-1.129,0,9.951,9.951,0,0,1-1.219,1.593,15.914,15.914,0,0,0-2.844,4.936,2.973,2.973,0,0,1-1.069,1.723c-.207.118-.443.179-.646.3a2.415,2.415,0,0,0-.634.65c-.488.646-.975,1.288-1.459,1.934l-.024.1a.571.571,0,0,1-.065.163.54.54,0,0,1-.349.179c-1.5.345-3.173.662-4.469-.154-1.17-.731-1.682-2.178-2.673-3.145-.7-.687-1.7-1.219-1.9-2.186a7.177,7.177,0,0,0,.7-.256c-.2-.2-.406-.439-.682-.707a8.586,8.586,0,0,1-1.081-1.288,8.308,8.308,0,0,1-.813-1.82q-1.174-3.348-2.357-6.7c-.374-1.056-.747-2.121-1.219-3.149-.488-1.113-1.065-2.182-1.6-3.275a43.466,43.466,0,0,1-3.161-8.9,3.251,3.251,0,0,1-.126-1.3,3.417,3.417,0,0,1,1.154-1.755,8.466,8.466,0,0,1,1.731-1.434,2.844,2.844,0,0,1,2.169-.349,3.135,3.135,0,0,1,1.934,2.438,25.522,25.522,0,0,1,.252,3.25c.146,1.564.682,3.076.813,4.644.069.906,0,1.824.11,2.73a9.956,9.956,0,0,0,1.219,3.364,21.772,21.772,0,0,0,5.253,6.476c.248.207.5.406.748.63a3.881,3.881,0,0,0-.053-.528,3.2,3.2,0,0,1,.516.183,1.543,1.543,0,0,1,.061-.609c.325-.971,1.771-1.219,2.031-2.206a4.538,4.538,0,0,0,.069-.739,18.829,18.829,0,0,1,.877-2.438,10.409,10.409,0,0,1,.406-2.344,6.557,6.557,0,0,1,1.081-1.219,4.78,4.78,0,0,0,1.028-1.938c.053-.2.1-.406.159-.605a2.773,2.773,0,0,1,.146-1.337c.37-.918,1.325-1.507,1.67-2.438.268-.723.15-1.625.658-2.186a2.375,2.375,0,0,1,.963-.581,21.423,21.423,0,0,1,5.8-1.369,4.937,4.937,0,0,0,3.136-.943c.93-.91.975-2.547,2.064-3.25a2.466,2.466,0,0,1,3.059.711,3.866,3.866,0,0,1,.309.406,4.347,4.347,0,0,0,.085-1.666c0-.138-.029-.28-.041-.406a8.127,8.127,0,0,1-4.4-3.478v.024l-.049.126c-.118.3-.3.581-.581.613h0a.812.812,0,0,1-.5-.183,4.164,4.164,0,0,1-.675-.585q-.154-.171-.293-.353a4.6,4.6,0,0,1-.479-.813,4.831,4.831,0,0,1-.406-1.361c-.073-.471-.081-.955-.163-1.426a8.72,8.72,0,0,0-.3-1.077c-.041-.118-.081-.236-.118-.353s-.089-.276-.13-.406a9.416,9.416,0,0,1-.406-2.576v-.439a4.286,4.286,0,0,1,1.365-3.027c.7-.573,1.625-.813,2.137-1.589a7.559,7.559,0,0,0,.6-1.8,4.063,4.063,0,0,1,3.194-2.873,3.555,3.555,0,0,1,2.527.695h0l.057.045h0a4.066,4.066,0,0,1,1.008,1.121,3.352,3.352,0,0,0,1.43-.813c.406-.378.719-.853,1.13-1.219a2.9,2.9,0,0,1,2.893-.609,3.458,3.458,0,0,1,2.068,2.369,8.248,8.248,0,0,0,.65,2.5c.362.544.955.813,1.369,1.308a2.464,2.464,0,0,1,.512,1.085h0a2.939,2.939,0,0,1,.069.679h0a1.235,1.235,0,0,1-.024.3v.049a2.139,2.139,0,0,1-.069.329h0a2.843,2.843,0,0,1-.605,1.113,2.673,2.673,0,0,1-.979.707,3.969,3.969,0,0,1-.471.15l-.484.11-.17.041a8.1,8.1,0,0,1,.227,7.155,3.264,3.264,0,0,0,.04.341,28.082,28.082,0,0,1-.211,4.79,2.572,2.572,0,0,0,.3,1.824,3.458,3.458,0,0,0,.589.524c-.219-.284-.443-.565-.67-.845a2.9,2.9,0,0,1,2.292-.593,10.617,10.617,0,0,1,4.469,1.365c.91.524,1.845,1.219,2.885,1.1.613-.069,1.219-.406,1.816-.244a3.681,3.681,0,0,1,.93.553,1.26,1.26,0,0,0,.764.236,16.483,16.483,0,0,1,2.389-1.954,18.817,18.817,0,0,0,2.377-2.547c1.316-1.589,2.629-3.181,3.921-4.786a9.216,9.216,0,0,0,2.4-4.534,4.43,4.43,0,0,0,.029-.516,13.13,13.13,0,0,0-.309-2.438,1.222,1.222,0,0,1,0-.589c.122-.406.589-.557.991-.646h0c-.053-.313-.089-.634-.11-.939-.227-3.494.02-7.045-.719-10.466a7.115,7.115,0,0,0-1.686-3.6c-1.483-1.5-3.965-1.861-5.1-3.636a4.148,4.148,0,0,1,.622-4.876,6.153,6.153,0,0,1,4.786-1.771,2.471,2.471,0,0,1,1.394.374,2.96,2.96,0,0,1,.845,1.284l1.743,4.238a25.615,25.615,0,0,1,1.276,3.4c.488,1.78.6,3.657.983,5.452,0,1.381.89,3.1,1.377,4.376.544,1.43,1.134,2.844,1.625,4.3.122.366.548,1.45.813,2.438a1.475,1.475,0,0,1,.276.207,7.351,7.351,0,0,1,.577.857c.37.488.971.748,1.377,1.219s.492,1.337-.073,1.572a1.66,1.66,0,0,1-.354.077,1.153,1.153,0,0,0-.979,1.609c.089.634.406,1.219.459,1.853a5,5,0,0,1-1.182,3.108,26.788,26.788,0,0,1-2.17,2.921c-.573.642-1.219,1.219-1.8,1.836-2.2,2.259-3.945,4.9-5.92,7.354a16.3,16.3,0,0,1-2.409,2.527,18.141,18.141,0,0,1-1.824,1.255l-3.4,2.153a3.723,3.723,0,0,1-1.284.605,1.7,1.7,0,0,1-.455,0c-.02.1-.037.2-.061.3a17.881,17.881,0,0,0-.91,3.116c-.065,1.085.032,2.194-.045,3.291-.073,1.012-.3,2.031-.354,3.027a19.451,19.451,0,0,0,.813,5.688c.686,2.746,1.1,5.55,2.438,8.041a4.727,4.727,0,0,1,.813,2.17,1.132,1.132,0,0,1-.024.284h0l.609.345c.179.1.357.2.52.309a4.349,4.349,0,0,1,1.914,1.93c.256.7.138,1.507.447,2.19a.907.907,0,0,0,.049.089c.325.634.971,1.105,1.117,1.8h0c.11.532-.1,1.1,0,1.625v.02a5.873,5.873,0,0,1,.219.813.967.967,0,0,1-.024.268,1.547,1.547,0,0,1-.488.792,3.248,3.248,0,0,1-.475.378q-.26.171-.536.317l-.106.057c-.154.081-.309.159-.467.232l-.106.045c-.183.081-.37.154-.557.219l-.13.041c-.146.049-.3.093-.447.13l-.1.033-.093.02-.406.085-.15.028q-.268.045-.549.073h-.162c-.138,0-.272.02-.406.024h-.743a4.547,4.547,0,0,1-.573-.053h-.061c-.171-.024-.341-.053-.512-.089l-.13-.028c-.159-.037-.317-.073-.475-.122l-.085-.024c-.191-.057-.382-.118-.569-.191a14.924,14.924,0,0,1-1.877-.93c-.406-.223-.813-.451-1.219-.658a9.449,9.449,0,0,0-.926-.406,5.229,5.229,0,0,0-2.438-.406,9.546,9.546,0,0,0-1.219.248v.134q-.5,2.925-.979,5.851a11.914,11.914,0,0,0-1.682-1.012,3.74,3.74,0,0,1,.216.914,3.629,3.629,0,0,1,0,.727,1.578,1.578,0,0,0,.114,1.117c.142.187.406.293.484.5a1.719,1.719,0,0,1,.041.662,1.056,1.056,0,0,0,.967.983,1.544,1.544,0,0,0,.614,1.812,2.148,2.148,0,0,1,.471.309,1.407,1.407,0,0,1,.272.613,10.855,10.855,0,0,0,3.181,5.229,10.223,10.223,0,0,1,1.572,1.536,6.991,6.991,0,0,1,.711,1.4q1.625,3.974,3.3,7.951a17.651,17.651,0,0,1,1.414,4.587c.487,4.38,4.388,8.093,3.657,12.441a6.094,6.094,0,0,1-1.268,2.97,7.477,7.477,0,0,1-3.25,1.995,59.17,59.17,0,0,1-9.727,2.556l-5.168,1.06a22.587,22.587,0,0,1-3.08.487,20.156,20.156,0,0,0-3.742.284,11.614,11.614,0,0,1-2.247.6c-.666.037-1.487-.106-1.881.439s-.089,1.264-.463,1.747c-.6.768-2.068,0-2.722.723a3.373,3.373,0,0,0-.406.9,1.625,1.625,0,0,1-.406.512,3.428,3.428,0,0,0-.049.695,11.985,11.985,0,0,0,.585,2.771q.732,2.474,1.459,4.953a10.972,10.972,0,0,1,.406,1.788,4.3,4.3,0,0,1,0,.886,2.433,2.433,0,0,1-1.458,2.117,2.673,2.673,0,0,1-1.975-.244,8.731,8.731,0,0,1-1.625-1.1,11.1,11.1,0,0,1-2.344-2.413c-2.031-3.039-1.373-7.151-2.8-10.511-.947-2.243-2.791-4.063-3.4-6.428a2.569,2.569,0,0,1-.049-1.389,2.879,2.879,0,0,1,1.93-1.568h.037a16.653,16.653,0,0,1,2.032-.581c.17-.037.345-.065.52-.093a3.186,3.186,0,0,0,.9-1.17,2.73,2.73,0,0,1,.191-.7.731.731,0,0,1,.585-.325c.406-.041.951.106,1.394.073.906-.065,1.507-.955,2.32-1.365a4.737,4.737,0,0,1,2.56-.248,2.368,2.368,0,0,0,.926-.057,3.483,3.483,0,0,0,.975-.67,4.087,4.087,0,0,1,3.58-.719,3.9,3.9,0,0,0,1.219.276c.792-.045,1.353-.752,1.938-1.288,1.6-1.467,3.88-1.853,5.822-2.816a1.329,1.329,0,0,0,.7-.6c.223-.553-.28-1.105-.735-1.483l-3.34-2.775c-3.657-3.039-8.227-5.326-9.926-9.783a5.662,5.662,0,0,0-.812-1.67,2.267,2.267,0,0,0-.451-.406,3.413,3.413,0,0,0-2.5-.488,8.44,8.44,0,0,0-2.942,1.284q-2.182,1.32-4.246,2.844a37.572,37.572,0,0,0-3.88,3.185c-2.133,2.031-3.909,4.441-5.9,6.631a18.937,18.937,0,0,1-7.017,5.282c-2.759,1.048-6.095,1-8.463-.756-2.734-2.031-3.612-5.664-4.3-9-1.524-1.471-1.983-3.709-2.726-5.688-.467-1.255-1.065-2.438-1.568-3.689-.6-1.471-1.073-2.99-1.544-4.506a21.653,21.653,0,0,1-1.081-4.7c-.2-2.531.484-5.225-.227-7.6a28,28,0,0,1-2.714-1.044,13.451,13.451,0,0,0-4.3-.37h-.094a2.218,2.218,0,0,1-1.43-.337,2.278,2.278,0,0,1-.589-1.731C707.709,317.353,707.807,315.606,708.973,314.6Zm58.867-69.305a3.018,3.018,0,0,0,1.028.073Z" transform="translate(-707.754 -209.924)" fill="url(#linear-gradient-9)"/>
            <path id="Path_9642" data-name="Path 9642" d="M784.8,319.1a4.468,4.468,0,0,0,1.69.9l2.88,1.032a10.732,10.732,0,0,0,4.847.922c.922-.114,4.876-.695,5.473-1.414.91-1.113-2.279-2.751-3.368-3.689a4.608,4.608,0,0,1-.682-.6,2.449,2.449,0,0,1-.3-1.816,28.024,28.024,0,0,0,.211-4.782,9.626,9.626,0,0,0-.163-1.133c-.406-1.869-2.145-1.186-3.518-.691A27.509,27.509,0,0,0,787.1,309.9a3.425,3.425,0,0,0-1.178,1c-.6.91-.362,2.1-.264,3.25a3.044,3.044,0,0,1-.475,2.389,6.152,6.152,0,0,0-.768.813A1.523,1.523,0,0,0,784.8,319.1Z" transform="translate(-726.312 -258.034)" fill="#fbbebe"/>
            <path id="Path_9643" data-name="Path 9643" d="M725.752,242.86c-.406-1.8-.5-3.657-.983-5.44a25.5,25.5,0,0,0-1.276-3.392l-1.792-4.181a2.95,2.95,0,0,0-.845-1.28,2.5,2.5,0,0,0-1.394-.374,6.209,6.209,0,0,0-4.786,1.767,4.1,4.1,0,0,0-.622,4.847c1.138,1.775,3.62,2.133,5.1,3.628a7.1,7.1,0,0,1,1.686,3.6c.739,3.413.492,6.952.719,10.438.073,1.085.284,2.324,1.219,2.885a3.556,3.556,0,0,0,1.82.353l2.665.045c.447,0,2.068.28,2.365-.057.52-.589-.666-3.523-.882-4.177-.479-1.45-1.069-2.864-1.625-4.29C726.642,245.956,725.752,244.237,725.752,242.86Z" transform="translate(-627.475 -211.071)" fill="#fbbebe"/>
            <path id="Path_9644" data-name="Path 9644" d="M825.4,573.106c.613,2.348,2.458,4.177,3.4,6.415,1.426,3.352.784,7.451,2.8,10.482a11.073,11.073,0,0,0,2.344,2.417,8.706,8.706,0,0,0,1.625,1.093,2.672,2.672,0,0,0,1.974.244A2.432,2.432,0,0,0,839,591.645a4.247,4.247,0,0,0,0-.882,10.917,10.917,0,0,0-.406-1.784q-.732-2.466-1.459-4.941a11.961,11.961,0,0,1-.585-2.763c-.053-1.024.6-2.357.321-3.311-.126-.431-.6-.812-.812-1.174a6.793,6.793,0,0,1-.7-1.662,10.334,10.334,0,0,0-1.26-3.3,7.748,7.748,0,0,0-1.584-1.483,4.2,4.2,0,0,0-1.512-.849,3.7,3.7,0,0,0-1.625.077,15.941,15.941,0,0,0-2.031.577h-.037a2.844,2.844,0,0,0-1.93,1.564A2.555,2.555,0,0,0,825.4,573.106Z" transform="translate(-782.151 -413.677)" fill="#2f2e41"/>
            <path id="Path_9645" data-name="Path 9645" d="M911.844,445.025a2.252,2.252,0,0,0,.589,1.727,2.219,2.219,0,0,0,1.43.337h.11a13.7,13.7,0,0,1,4.3.37,16.251,16.251,0,0,0,3.092,1.105c1.5.171,2.909-.65,4.238-1.365a42.179,42.179,0,0,1,3.848-1.828c.861-.353,2.621-.581,3.035-1.524a13.878,13.878,0,0,0,.357-1.357,4.492,4.492,0,0,1,.248-.6,3.43,3.43,0,0,0,.455-1.345,2.075,2.075,0,0,0-.463-1.3,3.9,3.9,0,0,0-2.661-1.369,11.779,11.779,0,0,0-3.063.162l-10,1.438a23.384,23.384,0,0,0-2.308.406,4.525,4.525,0,0,0-1.983.87C911.881,441.746,911.783,443.489,911.844,445.025Z" transform="translate(-911.828 -335.545)" fill="#2f2e41"/>
            <path id="Path_9646" data-name="Path 9646" d="M746.718,452.74c1.219,2.572.341,5.615.561,8.459a21.569,21.569,0,0,0,1.081,4.689c.471,1.511.943,3.027,1.544,4.494.5,1.219,1.1,2.438,1.568,3.681.743,1.983,1.219,4.213,2.726,5.688.691,3.323,1.568,6.956,4.3,8.971a9.006,9.006,0,0,0,8.463.756,18.937,18.937,0,0,0,7.016-5.282c1.987-2.19,3.762-4.575,5.9-6.614a36.961,36.961,0,0,1,3.888-3.181q2.064-1.5,4.246-2.82a8.507,8.507,0,0,1,2.942-1.28,3.413,3.413,0,0,1,2.5.488,2.262,2.262,0,0,1,.451.406,5.591,5.591,0,0,1,.813,1.666c1.706,4.445,6.285,6.728,9.942,9.759l3.34,2.767c.455.378.959.93.735,1.479a1.328,1.328,0,0,1-.7.6c-1.942.959-4.221,1.345-5.822,2.807-.585.536-1.146,1.243-1.938,1.284a3.9,3.9,0,0,1-1.219-.272,4.1,4.1,0,0,0-3.579.715,3.481,3.481,0,0,1-.975.67,2.369,2.369,0,0,1-.926.057,4.946,4.946,0,0,0-2.56.248c-.776.386-1.414,1.3-2.32,1.361-.443.033-.971-.114-1.394-.073a.732.732,0,0,0-.585.325,2.688,2.688,0,0,0-.191.7c-.167.573-.727.922-1.093,1.394a3.849,3.849,0,0,0-.585,2.621,11.181,11.181,0,0,0,3.559,7.484,4.4,4.4,0,0,0,2.19,1.219,2.031,2.031,0,0,0,2.17-.963,3.332,3.332,0,0,1,.406-.894c.654-.719,2.121.045,2.722-.723.374-.479.106-1.247.463-1.743s1.219-.406,1.881-.435a11.912,11.912,0,0,0,2.247-.6,20.191,20.191,0,0,1,3.742-.284,22.608,22.608,0,0,0,3.08-.487l5.168-1.056a61.256,61.256,0,0,0,9.727-2.547,7.831,7.831,0,0,0,3.25-1.991,6.1,6.1,0,0,0,1.267-2.966c.735-4.335-3.165-8.04-3.657-12.408a17.406,17.406,0,0,0-1.414-4.575q-1.653-3.965-3.3-7.935a7.084,7.084,0,0,0-.691-1.406,10.2,10.2,0,0,0-1.572-1.532,10.82,10.82,0,0,1-3.181-5.217,1.4,1.4,0,0,0-.272-.613,2.287,2.287,0,0,0-.471-.3,1.544,1.544,0,0,1-.614-1.808,1.056,1.056,0,0,1-.967-.983,1.7,1.7,0,0,0-.041-.658c-.1-.211-.341-.317-.484-.5a1.571,1.571,0,0,1-.114-1.113,3.619,3.619,0,0,0,0-.727,3.732,3.732,0,0,0-1.089-2.271c-.971-.955-2.352-.707-3.693-.935a21.142,21.142,0,0,1-3.9-1.247,38.314,38.314,0,0,0-11.015-2.547A24.048,24.048,0,0,0,779.12,448.3a6.33,6.33,0,0,0-1.434.813,2.72,2.72,0,0,0-.752.9,8.36,8.36,0,0,1-.552,1.247c-.435.593-1.255.784-1.731,1.345s-.516,1.507-.91,2.2c-.565.991-1.873,1.451-2.263,2.527-.122.341-.138.715-.228,1.068a6.112,6.112,0,0,1-1.459,2.283,17.556,17.556,0,0,0-3.933,8.938,6.8,6.8,0,0,0-3.25-5.022c-.467-.3-1.008-.642-1.1-1.195-.118-.7.561-1.32.516-2.031a1.992,1.992,0,0,0-.407-.951,30.083,30.083,0,0,0-2.543-3.2c-.5-.549-1.06-1.219-.853-1.942.158-.54.711-.857,1.016-1.329a1.69,1.69,0,0,0-.041-1.869c-.284-.386-.735-.666-.874-1.125-.158-.54.2-1.125.085-1.682a2.081,2.081,0,0,0-.837-1.085,5.119,5.119,0,0,0-5.221-1.292c-1.9.264-4.034.67-5.107,2.263A3.854,3.854,0,0,0,746.718,452.74Z" transform="translate(-737.909 -340.66)" fill="#2f2e41"/>
            <path id="Path_9647" data-name="Path 9647" d="M911.814,445.025a2.252,2.252,0,0,0,.589,1.727,2.218,2.218,0,0,0,1.43.337h.11c-.167-.845-1.195-1.329-1.373-2.186a1.935,1.935,0,0,1,.447-1.475,7.325,7.325,0,0,1,3.657-2.3,24.222,24.222,0,0,1,12.213-.914,12.3,12.3,0,0,1,3.21.987,10.452,10.452,0,0,1,.975.691,3.427,3.427,0,0,0,.455-1.345,2.075,2.075,0,0,0-.463-1.3,3.9,3.9,0,0,0-2.661-1.369,11.788,11.788,0,0,0-3.063.162l-10,1.438c-.772.11-1.548.219-2.308.406a4.525,4.525,0,0,0-1.983.87C911.851,441.746,911.753,443.489,911.814,445.025Z" transform="translate(-911.798 -335.545)" opacity="0.1"/>
            <path id="Path_9648" data-name="Path 9648" d="M825.424,574.162c.614,2.349,2.458,4.177,3.4,6.415,1.426,3.352.784,7.451,2.8,10.482a11.072,11.072,0,0,0,2.344,2.417,8.7,8.7,0,0,0,1.625,1.093,2.672,2.672,0,0,0,1.974.244,2.431,2.431,0,0,0,1.459-2.113,4.239,4.239,0,0,0,0-.882l-.024.065c-.353.853-.93,1.747-1.841,1.9a2.49,2.49,0,0,1-1.877-.662,11.606,11.606,0,0,1-2.864-4.229,17.586,17.586,0,0,1-1.373-3.506c-.162-.691-.24-1.4-.406-2.088-.772-3.356-3.4-6.094-3.981-9.5a2.32,2.32,0,0,1-.033-.711,3.592,3.592,0,0,1,.349-.886,4.388,4.388,0,0,0,.309-.983,2.845,2.845,0,0,0-1.93,1.564A2.558,2.558,0,0,0,825.424,574.162Z" transform="translate(-782.178 -414.734)" opacity="0.1"/>
            <path id="Path_9649" data-name="Path 9649" d="M780.716,529.418a5.887,5.887,0,0,0,1.832,2.5,8.94,8.94,0,0,0,3.945,1.706,3.922,3.922,0,0,0,2.032-.024c.9-.313,1.552-1.158,2.474-1.4a16.876,16.876,0,0,1,2.031-.118,7.208,7.208,0,0,0,3.1-1.812c2.962-2.226,6.85-2.945,9.812-5.172a.909.909,0,0,0,.317-.329.979.979,0,0,0,.061-.459,9.34,9.34,0,0,0-.89-3.9,13.606,13.606,0,0,0-1.674-2.385,72.349,72.349,0,0,0-8.5-9.268,12.874,12.874,0,0,0-4.469-2.742,6.7,6.7,0,0,0-3.917-.073,2.262,2.262,0,0,1,.451.406,5.591,5.591,0,0,1,.813,1.666c1.71,4.449,6.289,6.732,9.946,9.763l3.34,2.767c.455.378.959.93.736,1.479a1.329,1.329,0,0,1-.7.6c-1.942.959-4.221,1.345-5.822,2.807-.585.536-1.146,1.243-1.938,1.284a3.9,3.9,0,0,1-1.219-.272,4.1,4.1,0,0,0-3.58.715,3.477,3.477,0,0,1-.975.671,2.368,2.368,0,0,1-.926.057,4.946,4.946,0,0,0-2.56.248c-.776.386-1.414,1.3-2.32,1.361C781.667,529.524,781.139,529.369,780.716,529.418Z" transform="translate(-731.336 -375.815)" opacity="0.1"/>
            <path id="Path_9650" data-name="Path 9650" d="M758.152,406.688a4.313,4.313,0,0,1,1.91,1.918c.26.7.138,1.507.451,2.19s1.016,1.158,1.17,1.889c.11.532-.106,1.093,0,1.625a6.993,6.993,0,0,1,.224.845c.041.605-.479,1.1-.987,1.434a8.247,8.247,0,0,1-7.382.813,33.344,33.344,0,0,1-3.1-1.589,6.139,6.139,0,0,0-3.344-.813c-.67.073-1.312.317-1.983.406a2.08,2.08,0,0,1-1.857-.553,2.315,2.315,0,0,1-.406-.963,14.389,14.389,0,0,1,.228-6.838c.536-2.243,1.349-4.4,1.922-6.631a30.436,30.436,0,0,1,1.4-4.912,6.446,6.446,0,0,1,3.417-3.616.637.637,0,0,1,.406-.053.689.689,0,0,1,.264.2,12.5,12.5,0,0,1,2.787,4.688c.638,1.946.813,4.01,1.4,5.964a6.111,6.111,0,0,0,1.219,2.523A13.941,13.941,0,0,0,758.152,406.688Z" transform="translate(-671.405 -308.226)" fill="#3f3d56"/>
            <path id="Path_9651" data-name="Path 9651" d="M742.86,413.837a2.37,2.37,0,0,0,.427.963,2.06,2.06,0,0,0,1.857.549c.666-.081,1.308-.329,1.979-.406a6.126,6.126,0,0,1,3.344.813c1.04.52,2.032,1.166,3.108,1.585a8.2,8.2,0,0,0,4.928.28,7.951,7.951,0,0,0,2.438-1.073,1.748,1.748,0,0,0,.987-1.434,6.971,6.971,0,0,0-.224-.841c-.106-.532.106-1.093,0-1.625-.154-.731-.861-1.219-1.17-1.893s-.191-1.483-.447-2.186a4.332,4.332,0,0,0-1.914-1.922,14.6,14.6,0,0,1-2.308-1.487,2.289,2.289,0,0,1-.215-.3,7.315,7.315,0,0,1-.967-2.239c-.6-1.958-.76-4.018-1.393-5.968a12.518,12.518,0,0,0-2.791-4.685.613.613,0,0,0-.26-.2.65.65,0,0,0-.406.049,6.491,6.491,0,0,0-3.417,3.62,32,32,0,0,0-1.4,4.908c-.569,2.231-1.385,4.4-1.922,6.635A14.458,14.458,0,0,0,742.86,413.837Z" transform="translate(-671.435 -308.184)" opacity="0.1"/>
            <path id="Path_9652" data-name="Path 9652" d="M794.99,314.152a8.126,8.126,0,0,0,9.9-4.469,9.654,9.654,0,0,0-.163-1.134c-.406-1.869-2.145-1.186-3.518-.691a27.511,27.511,0,0,0-4.774,2.068,3.426,3.426,0,0,0-1.178,1C794.653,311.824,794.892,313.019,794.99,314.152Z" transform="translate(-735.646 -258.052)" opacity="0.1"/>
            <circle id="Ellipse_343" data-name="Ellipse 343" cx="8.126" cy="8.126" r="8.126" transform="translate(53.671 39.825)" fill="#fbbebe"/>
            <path id="Path_9653" data-name="Path 9653" d="M788,449.351c0,.674.914.89,1.593.853,2.438-.142,4.823-.813,7.236-.609,3.051.276,5.855,1.962,8.914,2.117a27.023,27.023,0,0,1,3.539.1c1.5.28,2.844,1.194,4.376,1.325,1.329.114,2.641-.386,3.969-.333a6.377,6.377,0,0,1,2.653.756,3.735,3.735,0,0,0-1.089-2.271c-.971-.955-2.352-.707-3.693-.934a21.153,21.153,0,0,1-3.9-1.247,38.322,38.322,0,0,0-11.015-2.548,24.05,24.05,0,0,0-11.12,1.759,6.319,6.319,0,0,0-1.434.813A.637.637,0,0,0,788,449.351Z" transform="translate(-748.254 -340.677)" opacity="0.1"/>
            <path id="Path_9654" data-name="Path 9654" d="M797.217,334.914l3.291-1.219,1.39-.512a6.72,6.72,0,0,1,1.771-.471A4.51,4.51,0,0,1,807.61,335a12.381,12.381,0,0,1,1.442,4.538q.561,3.226.951,6.476a42.328,42.328,0,0,1,.427,5.907,69.986,69.986,0,0,1-2.328,14.887,52.381,52.381,0,0,0-1.3,6.6c-.1.918-.142,1.84-.24,2.763-.106,1.036-.276,2.06-.447,3.088l-.979,5.838a7.717,7.717,0,0,0-4.1-1.67c-1.329-.049-2.645.447-3.969.333-1.524-.126-2.872-1.04-4.376-1.32a26.366,26.366,0,0,0-3.543-.1c-3.055-.154-5.863-1.845-8.91-2.117-2.418-.219-4.819.463-7.24.605-.675.041-1.589-.175-1.589-.853,0-.471.471-.784.881-1.02a43.46,43.46,0,0,0,5.505-3.929,18.585,18.585,0,0,0,4.327-4.282c2.653-4.124,1.743-9.7,4.006-14.054,1.841-3.535,0-8.166,0-12.152a18.49,18.49,0,0,1,1.556-9.1l1.581-4a.655.655,0,0,1,.187-.3.622.622,0,0,1,.362-.11,3.811,3.811,0,0,1,2.625.841c.744.605,1.219,1.475,1.95,2.1A2.968,2.968,0,0,0,797.217,334.914Z" transform="translate(-731.662 -272.124)" fill="#e3e8f4"/>
            <path id="Path_9655" data-name="Path 9655" d="M827.005,328.879a7.212,7.212,0,0,0-1.284-3.141,2.469,2.469,0,0,0-3.059-.707c-1.089.707-1.134,2.34-2.064,3.25a5.007,5.007,0,0,1-3.137.943,21.272,21.272,0,0,0-5.8,1.365,2.368,2.368,0,0,0-.963.577c-.508.577-.406,1.463-.658,2.182-.345.926-1.3,1.515-1.67,2.438a4.861,4.861,0,0,0,.341,3.222c.613,1.889,1,3.852,1.6,5.749a12.8,12.8,0,0,0,2.844,5.2c.618.634,1.536,1.219,2.348.841l.313,2.255a3.834,3.834,0,0,1,0,1.442,1.292,1.292,0,0,1-.943,1c-.061.349-.431.516-.731.707a2.031,2.031,0,0,0-.516,2.844c.256.345.634.618.756,1.028a1.46,1.46,0,0,1-.78,1.544c-.528.325-1.15.475-1.686.788a5.243,5.243,0,0,0-2.092,3.132,5.806,5.806,0,0,1-1.219,2.6c-.268.256-.589.451-.845.719a3.084,3.084,0,0,0-.727,1.865,3.7,3.7,0,0,0,.528,2.438c.813,1.162,2.328,1.507,3.657,2.031,2.158.886,3.933,2.47,5.834,3.819a6.225,6.225,0,0,0,2.661,1.251c1.317.175,2.612-.406,3.937-.459a9.777,9.777,0,0,1,2.348.309l2.438.528c-.13-1.889.91-3.783,1.491-5.582a27.744,27.744,0,0,0,1.04-10.564,82.753,82.753,0,0,0-1.7-10.539c-.5-2.438-.451-4.985-1.219-7.354a48.42,48.42,0,0,1-2.125-6.842C825.307,335.92,827.874,332.665,827.005,328.879Z" transform="translate(-766.761 -268.397)" fill="#3f3d56"/>
            <path id="Path_9656" data-name="Path 9656" d="M853.309,352.567a4.472,4.472,0,0,0-.467,1.32,4.763,4.763,0,0,1-1.028,1.934,6.666,6.666,0,0,0-1.081,1.219,9.117,9.117,0,0,0-.406,2.34,18.791,18.791,0,0,0-.878,2.438,4.478,4.478,0,0,1-.069.739c-.264.983-1.711,1.219-2.032,2.2-.215.638.154,1.333.085,2a1.761,1.761,0,0,0-.037.634,1.287,1.287,0,0,0,.463.593,9.346,9.346,0,0,1,2.673,4.758,27.093,27.093,0,0,1,.613,5.5l1.589-2.1a2.417,2.417,0,0,1,.634-.65c.2-.122.439-.183.646-.3a2.939,2.939,0,0,0,1.069-1.715,15.846,15.846,0,0,1,2.844-4.924,5.375,5.375,0,0,0,1.54-2.511,4.628,4.628,0,0,0-.073-1.357,23.142,23.142,0,0,0-2.137-7.748c-.605-1.105-1.389-2.1-1.971-3.226C854.9,352.965,854.349,351.031,853.309,352.567Z" transform="translate(-811.545 -284.574)" fill="#3f3d56"/>
            <path id="Path_9657" data-name="Path 9657" d="M707.856,317.974a1.857,1.857,0,0,0,.252.975,1.284,1.284,0,0,0,1.284.406,3.712,3.712,0,0,0,1.284-.6q1.7-1.073,3.4-2.149a18.8,18.8,0,0,0,1.824-1.251,16.281,16.281,0,0,0,2.409-2.523c1.975-2.438,3.722-5.083,5.92-7.313.6-.609,1.219-1.195,1.8-1.832a26.788,26.788,0,0,0,2.17-2.917,4.97,4.97,0,0,0,1.182-3.1c-.065-.634-.37-1.219-.459-1.849a1.152,1.152,0,0,1,.979-1.6,1.654,1.654,0,0,0,.353-.077c.565-.236.48-1.109.073-1.568s-1.008-.715-1.377-1.219a7.337,7.337,0,0,0-.577-.857,2.2,2.2,0,0,0-.947-.475,14.651,14.651,0,0,0-7.212-.272c-.406.089-.869.252-.991.646a1.187,1.187,0,0,0,0,.585,13.094,13.094,0,0,1,.309,2.438,4.27,4.27,0,0,1-.029.512,9.193,9.193,0,0,1-2.4,4.526c-1.292,1.6-2.6,3.189-3.921,4.774a18.766,18.766,0,0,1-2.377,2.539,13.567,13.567,0,0,0-2.5,2.084,4.562,4.562,0,0,0-.406,2.495A55.4,55.4,0,0,0,707.856,317.974Z" transform="translate(-626.012 -247.426)" fill="#3f3d56"/>
            <path id="Path_9658" data-name="Path 9658" d="M884.556,357.7a8.539,8.539,0,0,1-1.081-1.28,8.437,8.437,0,0,1-.813-1.816l-2.356-6.684c-.374-1.056-.748-2.117-1.219-3.145-.488-1.109-1.065-2.178-1.6-3.25a43.348,43.348,0,0,1-3.157-8.837,3.274,3.274,0,0,1-.126-1.3,3.406,3.406,0,0,1,1.154-1.751,8.451,8.451,0,0,1,1.731-1.43,2.844,2.844,0,0,1,2.17-.349A3.134,3.134,0,0,1,881.2,330.3a25.474,25.474,0,0,1,.252,3.25c.146,1.56.682,3.067.813,4.632.069.906,0,1.82.11,2.722a9.946,9.946,0,0,0,1.219,3.36,21.811,21.811,0,0,0,5.253,6.46,8.454,8.454,0,0,1,1.576,1.516,4.943,4.943,0,0,1,.76,1.893,4.358,4.358,0,0,1-.329,3.076,4.515,4.515,0,0,1-3.149,1.877C886.059,359.429,885.681,358.868,884.556,357.7Z" transform="translate(-854.311 -270.203)" fill="#fbbebe"/>
            <path id="Path_9659" data-name="Path 9659" d="M799.582,270.837a3.791,3.791,0,0,0-3.681-1.995,4.063,4.063,0,0,0-3.193,2.868,7.409,7.409,0,0,1-.6,1.8c-.5.784-1.438,1.012-2.137,1.58a4.278,4.278,0,0,0-1.365,3.023,9.143,9.143,0,0,0,.54,3.417,10.839,10.839,0,0,1,.406,1.43c.081.471.089.951.163,1.422a4.632,4.632,0,0,0,1.865,3.076.813.813,0,0,0,.5.183c.317-.037.512-.406.63-.739.646-1.865.491-4.144,1.682-5.631a6.156,6.156,0,0,1,1.926-1.434,2.485,2.485,0,0,1,.983-.37,2.588,2.588,0,0,1,1.422.52,8.854,8.854,0,0,0,2.812,1.243,3.453,3.453,0,0,0,2.9-.626c.561-.463.971-1.158,1.593-1.52a12.266,12.266,0,0,1,1.885-.589,2.791,2.791,0,0,0,1.13-4.258c-.406-.488-1.008-.764-1.369-1.3a8.237,8.237,0,0,1-.65-2.495,3.433,3.433,0,0,0-2.068-2.361,2.9,2.9,0,0,0-2.893.605c-.406.366-.731.837-1.129,1.219a3.251,3.251,0,0,1-3.007.813" transform="translate(-737.834 -234.66)" fill="#3f3d56"/>
            <path id="Path_9660" data-name="Path 9660" d="M836.783,420.157a1.576,1.576,0,0,1,.431,1.723c-.089.191-4.282-.617-4.725-.678-1.105-.158-3.043-.081-3.787-1.093-1.324-1.792,2.779-1.394,3.531-1.329C833.663,418.9,835.694,419.1,836.783,420.157Z" transform="translate(-781.714 -324.177)" opacity="0.1"/>
            <path id="Path_9661" data-name="Path 9661" d="M707.873,290.992a13.084,13.084,0,0,1,.309,2.438,7.1,7.1,0,0,0,3.657-.565l3.36-1.146a.955.955,0,0,1,1.284.24,28.432,28.432,0,0,0,2.031,2.255,1.663,1.663,0,0,0,.353-.077c.565-.236.479-1.109.073-1.568s-1.008-.715-1.377-1.219a7.365,7.365,0,0,0-.577-.857,2.2,2.2,0,0,0-.947-.475,14.652,14.652,0,0,0-7.212-.272c-.406.089-.869.252-.991.646A1.188,1.188,0,0,0,707.873,290.992Z" transform="translate(-614.662 -247.426)" fill="#3f3d56"/>
            <path id="Path_9662" data-name="Path 9662" d="M707.873,290.992a13.084,13.084,0,0,1,.309,2.438,7.1,7.1,0,0,0,3.657-.565l3.36-1.146a.955.955,0,0,1,1.284.24,28.432,28.432,0,0,0,2.031,2.255,1.663,1.663,0,0,0,.353-.077c.565-.236.479-1.109.073-1.568s-1.008-.715-1.377-1.219a7.365,7.365,0,0,0-.577-.857,2.2,2.2,0,0,0-.947-.475,14.652,14.652,0,0,0-7.212-.272c-.406.089-.869.252-.991.646A1.188,1.188,0,0,0,707.873,290.992Z" transform="translate(-614.662 -247.426)" opacity="0.1"/>
            <path id="Path_9663" data-name="Path 9663" d="M793.1,480.815a2.027,2.027,0,0,0-1.418,1.064l4.7-1.195,2.438-.622c.431-.11,1.974-.236,2.259-.573.406-.5-1.036-.154-1.3-.118-.788.118-1.576.24-2.361.382C795.95,480.019,794.528,480.454,793.1,480.815Z" transform="translate(-730.627 -360.114)" opacity="0.1"/>
            <path id="Path_9664" data-name="Path 9664" d="M791.827,488.6a8.8,8.8,0,0,1,2.072-.358c.731-.175,1.45-.406,2.17-.63,1.458-.475,2.905-1.016,4.4-1.365.276-.061,1.219-.077,1.174-.427s-.943-.471-1.166-.488a11.521,11.521,0,0,0-4.221.967A18.6,18.6,0,0,0,791.827,488.6Z" transform="translate(-731.176 -363.735)" opacity="0.1"/>
            <path id="Path_9665" data-name="Path 9665" d="M794.24,470.336c1.491-.406,2.844-1.333,4.38-1.511a1.779,1.779,0,0,0,1.117-.341,1.316,1.316,0,0,0,.362-.65,7.568,7.568,0,0,0-3.157.792,9.933,9.933,0,0,0-1.479.788C795.122,469.621,794.61,470.219,794.24,470.336Z" transform="translate(-730.607 -353.348)" opacity="0.1"/>
            <path id="Path_9666" data-name="Path 9666" d="M871.206,384.46a7.106,7.106,0,0,1-4.981,7.854c.2.963,1.195,1.5,1.9,2.182.991.963,1.5,2.405,2.673,3.136,1.3.813,2.982.5,4.469.155a.544.544,0,0,0,.349-.183.5.5,0,0,0,.065-.158,10.453,10.453,0,0,0,.309-5.526,18.041,18.041,0,0,0-2.161-4.2C873.046,386.361,872.973,384.907,871.206,384.46Z" transform="translate(-835.997 -303.851)" fill="#3f3d56"/>
            <path id="Path_9667" data-name="Path 9667" d="M744.858,327.1a10.563,10.563,0,0,1,4.469,1.361c.91.52,1.845,1.219,2.885,1.093.614-.069,1.219-.406,1.816-.244a3.563,3.563,0,0,1,.93.552,1.052,1.052,0,0,0,1.024.163l.406,5.623a20.612,20.612,0,0,1-.207,6.4,17.947,17.947,0,0,0-.91,3.112c-.065,1.081.033,2.19-.045,3.283-.073,1.012-.3,2.007-.354,3.019a19.211,19.211,0,0,0,.813,5.66c.686,2.738,1.1,5.538,2.438,8.016a4.73,4.73,0,0,1,.813,2.166,1.111,1.111,0,0,1-.024.284c.406.223.784.435,1.129.654a4.332,4.332,0,0,1,1.914,1.922c.256.7.138,1.507.447,2.186s1.016,1.162,1.17,1.893c.11.532-.1,1.093,0,1.625a6.921,6.921,0,0,1,.223.841,1.764,1.764,0,0,1-.987,1.434,7.952,7.952,0,0,1-2.438,1.073l-2.425-9.629h0a77.616,77.616,0,0,1-5.5-12.786,27.492,27.492,0,0,0-1.589-4.209,19.787,19.787,0,0,1-1.219-2.389,18.005,18.005,0,0,1-.585-3.214,22.48,22.48,0,0,0-.955-3.709,15.931,15.931,0,0,1-1.036-3.974c-.134-1.958.577-4.026-.179-5.838a7.774,7.774,0,0,0-1.239-1.865c-1.048-1.284-2-2.629-3.051-3.913A2.819,2.819,0,0,1,744.858,327.1Z" transform="translate(-673.321 -269.788)" fill="#3f3d56"/>
            <g id="Group_2690" data-name="Group 2690" transform="translate(50.761 34.841)" opacity="0.1">
              <path id="Path_9327" data-name="Path 9327" d="M816,271.81l.508.037.057.041A3,3,0,0,1,816,271.81Z" transform="translate(-806.675 -271.81)"/>
              <path id="Path_9328" data-name="Path 9328" d="M788.66,288.729a10.95,10.95,0,0,0,.52,2.373,10.869,10.869,0,0,1,.406,1.43c.081.471.089.951.163,1.422a4.632,4.632,0,0,0,1.865,3.076.813.813,0,0,0,.5.183c.317-.037.512-.406.63-.739.646-1.865.492-4.144,1.682-5.631a6.157,6.157,0,0,1,1.926-1.434,2.482,2.482,0,0,1,.983-.37,2.588,2.588,0,0,1,1.422.52,8.853,8.853,0,0,0,2.812,1.243,3.454,3.454,0,0,0,2.905-.626c.561-.463.971-1.158,1.593-1.519a12.25,12.25,0,0,1,1.885-.589,2.775,2.775,0,0,0,1.585-1.812,1.149,1.149,0,0,0,.032-.154,2.844,2.844,0,0,1-.033,1.373,2.774,2.774,0,0,1-1.584,1.812,13.688,13.688,0,0,0-1.885.589,15.355,15.355,0,0,0-1.593,1.52,3.454,3.454,0,0,1-2.905.626,8.854,8.854,0,0,1-2.811-1.243,2.588,2.588,0,0,0-1.422-.52,2.482,2.482,0,0,0-.983.37,6.158,6.158,0,0,0-1.9,1.446c-1.19,1.487-1.036,3.766-1.682,5.631-.118.337-.313.7-.63.739a.813.813,0,0,1-.532-.2,4.632,4.632,0,0,1-1.869-3.088c-.073-.471-.081-.951-.163-1.422a10.827,10.827,0,0,0-.406-1.43,9.144,9.144,0,0,1-.54-3.417C788.644,288.843,788.652,288.786,788.66,288.729Z" transform="translate(-788.631 -280.294)"/>
            </g>
            <path id="Path_9668" data-name="Path 9668" d="M840.832,123.785s34.206-2.064,30.183,21.907a5.825,5.825,0,0,1-3.039,6.159s-.061-1.776-3.51-1.17a16.049,16.049,0,0,1-3.718.179,7.744,7.744,0,0,1-4.542-1.877h0s-9.617-3.974-13.355-19.689c0,0-2.767-3.429-2.657-4.311l5.773,2.466s-1.975,4.165-.406,7.626c0,0,.187-7.476,1.3-7.313.223.037,3,1.442,3,1.442s-3.392,7.252-.833,12.526c0,0-.971-8.938,1.893-12l4.063,2.373s-3.965,7.492-1.276,13.607c0,0-.691-9.377,2.133-13.03l3.681,2.872s-3.725,7.386-1.454,12.457c0,0,.3-10.917,2.251-11.742,0,0,3.222,2.844,3.714,4.006,0,0-2.552,5.363-.967,8.191,0,0,.971-7.273,1.767-7.313,0,0,3.21,4.819,3.543,8.126a17.506,17.506,0,0,0-2.767-8.581,9.672,9.672,0,0,1,4.916,2.543s-.5-3.4-5.708-3.7c0,0-2.653-3.657-3.36-3.88,0,0,5.176-.431,8.317.959,0,0-2.763-3.214-9.268-1.751l-3.636-2.97s6.818-.93,9.71.1c0,0-3.328-2.844-10.69-.772l-3.957-2.365s5.814-1.251,9.276-.813c0,0-3.657-1.971-10.438.167l-2.844-1.272s4.258-.837,5.505-.971,1.312-.475,1.312-.475a14.769,14.769,0,0,0-8,.89S840.726,124.163,840.832,123.785Z" transform="translate(-819.116 -123.74)" fill="#6c63ff" opacity="0.1"/>
            <path id="Path_9669" data-name="Path 9669" d="M777.831,138.83s15.439-.934,13.631,9.9a2.649,2.649,0,0,1-1.369,2.787s-.029-.813-1.589-.532a7.115,7.115,0,0,1-1.678.081,3.481,3.481,0,0,1-2.052-.849h0s-4.348-1.792-6.038-8.894c0,0-1.247-1.552-1.2-1.95l2.608,1.113a4.678,4.678,0,0,0-.191,3.449s.085-3.38.585-3.3c.1,0,1.357.65,1.357.65s-1.536,3.279-.378,5.664c0,0-.439-4.039.857-5.424l1.836,1.073s-1.8,3.384-.577,6.147c0,0-.313-4.238.963-5.887l1.662,1.312s-1.682,3.34-.658,5.627c0,0,.134-4.932,1.02-5.3a10.185,10.185,0,0,1,1.678,1.812s-1.154,2.438-.439,3.7c0,0,.439-3.287.813-3.3a11.024,11.024,0,0,1,1.6,3.657,7.945,7.945,0,0,0-1.251-3.88,4.373,4.373,0,0,1,2.222,1.15s-.228-1.536-2.58-1.674a11.106,11.106,0,0,0-1.52-1.751,9.526,9.526,0,0,1,3.758.435s-1.247-1.455-4.189-.813l-1.625-1.341a14.02,14.02,0,0,1,4.388.045s-1.5-1.284-4.831-.349l-1.788-1.069a16.067,16.067,0,0,1,4.193-.362s-1.654-.894-4.717.073l-1.28-.573s1.926-.382,2.491-.439.593-.215.593-.215a6.66,6.66,0,0,0-3.616.406A16.394,16.394,0,0,1,777.831,138.83Z" transform="translate(-713.925 -132.687)" fill="#6c63ff" opacity="0.1"/>
          </g>
        </g>
        <g id="Group_2712" data-name="Group 2712" transform="translate(347.172 488.864)">
          <g id="Group_2711-2" data-name="Group 2711" transform="translate(0)">
            <ellipse id="Ellipse_384-2" data-name="Ellipse 384" cx="1.077" cy="1.411" rx="1.077" ry="1.411" transform="translate(4.106 29.06)" fill="#3f3d56"/>
            <ellipse id="Ellipse_385-2" data-name="Ellipse 385" cx="1.077" cy="1.411" rx="1.077" ry="1.411" transform="translate(4.106 27.336)" fill="#3f3d56"/>
            <ellipse id="Ellipse_386-2" data-name="Ellipse 386" cx="1.077" cy="1.411" rx="1.077" ry="1.411" transform="translate(4.106 25.613)" fill="#3f3d56"/>
            <ellipse id="Ellipse_387-2" data-name="Ellipse 387" cx="1.077" cy="1.411" rx="1.077" ry="1.411" transform="translate(4.106 23.89)" fill="#3f3d56"/>
            <ellipse id="Ellipse_388-2" data-name="Ellipse 388" cx="1.077" cy="1.411" rx="1.077" ry="1.411" transform="translate(4.106 22.163)" fill="#3f3d56"/>
            <ellipse id="Ellipse_389-2" data-name="Ellipse 389" cx="1.077" cy="1.411" rx="1.077" ry="1.411" transform="translate(4.106 20.44)" fill="#3f3d56"/>
            <ellipse id="Ellipse_390-2" data-name="Ellipse 390" cx="1.077" cy="1.411" rx="1.077" ry="1.411" transform="translate(4.106 18.716)" fill="#3f3d56"/>
            <path id="Path_9864-2" data-name="Path 9864" d="M640.547,604.395a5.07,5.07,0,0,0,.4-.588l-2.831-.467,3.063.025a5.2,5.2,0,0,0,.47-2.166,5.135,5.135,0,0,0-.374-1.931l-4.109,2.132,3.79-2.785a5.161,5.161,0,1,0-8.524,5.78,5.2,5.2,0,0,0-.591.928l3.676,1.909-3.917-1.315a5.168,5.168,0,0,0,.832,4.848,5.161,5.161,0,1,0,8.113,0,5.167,5.167,0,0,0,0-6.386Z" transform="translate(-631.33 -596.059)" fill="#244dc3"/>
            <path id="Path_9865-2" data-name="Path 9865" d="M631.33,633.121a5.138,5.138,0,0,0,1.1,3.193,5.161,5.161,0,1,0,8.113,0C641.24,635.435,631.33,632.542,631.33,633.121Z" transform="translate(-631.33 -621.601)" opacity="0.1"/>
          </g>
        </g>
        <g id="Group_2714" data-name="Group 2714" transform="translate(425.576 468.571)">
          <g id="Group_2711-3" data-name="Group 2711" transform="translate(0)">
            <ellipse id="Ellipse_384-3" data-name="Ellipse 384" cx="1.277" cy="1.673" rx="1.277" ry="1.673" transform="translate(4.868 34.455)" fill="#3f3d56"/>
            <ellipse id="Ellipse_385-3" data-name="Ellipse 385" cx="1.277" cy="1.673" rx="1.277" ry="1.673" transform="translate(4.868 32.411)" fill="#3f3d56"/>
            <ellipse id="Ellipse_386-3" data-name="Ellipse 386" cx="1.277" cy="1.673" rx="1.277" ry="1.673" transform="translate(4.868 30.368)" fill="#3f3d56"/>
            <ellipse id="Ellipse_387-3" data-name="Ellipse 387" cx="1.277" cy="1.673" rx="1.277" ry="1.673" transform="translate(4.868 28.325)" fill="#3f3d56"/>
            <ellipse id="Ellipse_388-3" data-name="Ellipse 388" cx="1.277" cy="1.673" rx="1.277" ry="1.673" transform="translate(4.868 26.278)" fill="#3f3d56"/>
            <ellipse id="Ellipse_389-3" data-name="Ellipse 389" cx="1.277" cy="1.673" rx="1.277" ry="1.673" transform="translate(4.868 24.234)" fill="#3f3d56"/>
            <ellipse id="Ellipse_390-3" data-name="Ellipse 390" cx="1.277" cy="1.673" rx="1.277" ry="1.673" transform="translate(4.868 22.191)" fill="#3f3d56"/>
            <path id="Path_9864-3" data-name="Path 9864" d="M642.258,605.942a6.011,6.011,0,0,0,.477-.7l-3.357-.554,3.632.029a6.16,6.16,0,0,0,.558-2.568,6.088,6.088,0,0,0-.444-2.289l-4.872,2.528,4.494-3.3a6.119,6.119,0,1,0-10.107,6.853,6.165,6.165,0,0,0-.7,1.1l4.358,2.263-4.644-1.559a6.127,6.127,0,0,0,.987,5.749,6.119,6.119,0,1,0,9.619,0,6.126,6.126,0,0,0,0-7.572Z" transform="translate(-631.33 -596.059)" fill="#244dc3"/>
            <path id="Path_9865-3" data-name="Path 9865" d="M631.33,633.135a6.092,6.092,0,0,0,1.31,3.786,6.119,6.119,0,1,0,9.619,0C643.08,635.879,631.33,632.449,631.33,633.135Z" transform="translate(-631.33 -619.477)" opacity="0.1"/>
          </g>
        </g>
        <g id="Group_2713" data-name="Group 2713" transform="translate(451.933 441.523)">
          <g id="Group_2711-4" data-name="Group 2711" transform="translate(-6 -9)">
            <ellipse id="Ellipse_384-4" data-name="Ellipse 384" cx="2.394" cy="3.138" rx="2.394" ry="3.138" transform="translate(9.131 64.624)" fill="#3f3d56"/>
            <ellipse id="Ellipse_385-4" data-name="Ellipse 385" cx="2.394" cy="3.138" rx="2.394" ry="3.138" transform="translate(9.131 60.791)" fill="#3f3d56"/>
            <ellipse id="Ellipse_386-4" data-name="Ellipse 386" cx="2.394" cy="3.138" rx="2.394" ry="3.138" transform="translate(9.131 56.959)" fill="#3f3d56"/>
            <ellipse id="Ellipse_387-4" data-name="Ellipse 387" cx="2.394" cy="3.138" rx="2.394" ry="3.138" transform="translate(9.131 53.126)" fill="#3f3d56"/>
            <ellipse id="Ellipse_388-4" data-name="Ellipse 388" cx="2.394" cy="3.138" rx="2.394" ry="3.138" transform="translate(9.131 49.287)" fill="#3f3d56"/>
            <ellipse id="Ellipse_389-4" data-name="Ellipse 389" cx="2.394" cy="3.138" rx="2.394" ry="3.138" transform="translate(9.131 45.454)" fill="#3f3d56"/>
            <ellipse id="Ellipse_390-4" data-name="Ellipse 390" cx="2.394" cy="3.138" rx="2.394" ry="3.138" transform="translate(9.131 41.622)" fill="#3f3d56"/>
            <path id="Path_9864-4" data-name="Path 9864" d="M651.827,614.6a11.26,11.26,0,0,0,.894-1.307l-6.3-1.039,6.812.055a11.553,11.553,0,0,0,1.046-4.816,11.415,11.415,0,0,0-.833-4.294l-9.138,4.741,8.429-6.193A11.477,11.477,0,1,0,633.786,614.6a11.569,11.569,0,0,0-1.314,2.064l8.174,4.245-8.711-2.924a11.492,11.492,0,0,0,1.851,10.782,11.477,11.477,0,1,0,18.041,0,11.491,11.491,0,0,0,0-14.2Z" transform="translate(-631.33 -596.059)" fill="#244dc3"/>
            <path id="Path_9865-4" data-name="Path 9865" d="M631.33,633.213a11.428,11.428,0,0,0,2.456,7.1,11.477,11.477,0,1,0,18.041,0C653.369,638.36,631.33,631.927,631.33,633.213Z" transform="translate(-631.33 -607.596)" opacity="0.1"/>
          </g>
        </g>
      </g>
    </g>
  </g>
</svg>
