<svg xmlns="http://www.w3.org/2000/svg" width="25" height="19.943" viewBox="0 0 25 19.943"><defs><style>.a{fill:#a8a8a8;}</style></defs><g transform="translate(-6 -14.9)"><g transform="translate(6 14.9)"><path class="a" d="M29.438,17.6H27.875V14.9H9.125v2.7H7.562v2.7H6V34.843H31V20.3H29.438Zm.142,15.824H7.42v-11.7H29.58Zm-3.125-17.1V17.6H10.545V16.32Zm1.563,2.7V20.3H8.983V19.019Z" transform="translate(-6 -14.9)"/><path class="a" d="M41.711,49.119l1.733-3.1H42.392a4.9,4.9,0,0,0-2.869-2.9,4.818,4.818,0,0,0-3.352,9.034.829.829,0,0,0,.256.057.674.674,0,0,0,.653-.455.705.705,0,0,0-.426-.909,3.377,3.377,0,0,1-1.989-4.375A3.41,3.41,0,0,1,39.04,44.46a3.5,3.5,0,0,1,1.818,1.563h-.937Z" transform="translate(-25.347 -34.886)"/></g></g></svg>