<svg xmlns="http://www.w3.org/2000/svg" width="23.444" height="25.414" viewBox="0 0 23.444 25.414"><defs><style>.a{fill:#a8a8a8;stroke:#a8a8a8;stroke-width:0.2px;}</style></defs><g transform="translate(-19.9 0.1)"><g transform="translate(20 5.811)"><g transform="translate(0)"><path class="a" d="M41.175,118H38.294a.492.492,0,1,0,0,.985h2.881a1.085,1.085,0,0,1,1.083,1.083v5.62a1.169,1.169,0,0,1-1.167,1.167h-.507V123.22a2.071,2.071,0,0,0-2.068-2.068H31.252v-1.5a.492.492,0,0,0-.985,0v1.5h-8.2a1.083,1.083,0,0,1,0-2.167h3.259a.492.492,0,1,0,0-.985H22.068A2.071,2.071,0,0,0,20,120.068c0,.027,0,.054,0,.082s0,.027,0,.041v15.143a2.071,2.071,0,0,0,2.068,2.068H41.175a2.071,2.071,0,0,0,2.068-2.068V120.068A2.071,2.071,0,0,0,41.175,118ZM39.6,135.334a1.084,1.084,0,0,1-1.061,1.083H22.068a1.085,1.085,0,0,1-1.083-1.083v-13.5a2.056,2.056,0,0,0,1.083.307H38.516A1.085,1.085,0,0,1,39.6,123.22v3.635H35.167a3.053,3.053,0,1,0,0,6.106H39.6Zm2.659,0a1.085,1.085,0,0,1-1.083,1.083h-.9a2.056,2.056,0,0,0,.307-1.083v-2.372h.3a2.35,2.35,0,0,0,1.379-.446Zm0-4.736a1.38,1.38,0,0,1-1.379,1.379H35.167a2.068,2.068,0,1,1,0-4.137h5.924a2.139,2.139,0,0,0,1.167-.345Z" transform="translate(-20 -118)"/></g></g><g transform="translate(31.918 3.209)"><path class="a" d="M264.329,65.168a2.314,2.314,0,1,0,2.314,2.314A2.316,2.316,0,0,0,264.329,65.168Zm0,3.643a1.329,1.329,0,1,1,1.329-1.329A1.33,1.33,0,0,1,264.329,68.811Z" transform="translate(-262.015 -65.168)"/></g><g transform="translate(27.141)"><g transform="translate(0)"><path class="a" d="M167.329,0a2.314,2.314,0,1,0,2.314,2.314A2.316,2.316,0,0,0,167.329,0Zm0,3.643a1.329,1.329,0,1,1,1.329-1.329A1.33,1.33,0,0,1,167.329,3.643Z" transform="translate(-165.015)"/></g></g><g transform="translate(27.37 4.814)"><g transform="translate(0)"><path class="a" d="M170.159,97.75a.492.492,0,0,0-.492.492v1.994a.492.492,0,1,0,.985,0V98.242A.492.492,0,0,0,170.159,97.75Z" transform="translate(-169.667 -97.75)"/></g></g><g transform="translate(34.974 17.288)"><path class="a" d="M324.921,351.214a.492.492,0,1,0,.144.348A.5.5,0,0,0,324.921,351.214Z" transform="translate(-324.08 -351.07)"/></g><g transform="translate(22.774 12.804)"><path class="a" d="M76.826,260a.492.492,0,0,0-.492.492v4.054a.492.492,0,1,0,.985,0v-4.054A.492.492,0,0,0,76.826,260Z" transform="translate(-76.334 -260)"/></g><g transform="translate(22.774 18.557)"><path class="a" d="M77.171,376.984a.492.492,0,1,0,.144.348A.5.5,0,0,0,77.171,376.984Z" transform="translate(-76.33 -376.84)"/></g></g></svg>