<svg xmlns="http://www.w3.org/2000/svg" width="368.314" height="189.742" viewBox="0 0 368.314 189.742"><defs><style>.a{fill:#fcfdff;}</style></defs><g transform="translate(3017.616 -3548.366)"><path class="a" d="M154.746-288.9c-1.4-1.4-2.483-2.6-2.541-4.67-.05-1.792.4-3.567.433-5.36a.889.889,0,0,0-1.776,0c-.041,2.318-.8,4.729-.247,7.031a9.168,9.168,0,0,0,2.876,4.256A.889.889,0,0,0,154.746-288.9Z" transform="translate(-3037.031 3848.936)"/><path class="a" d="M163.827-229.155c-.234.607-1.088,1.092-1.6,1.433-.632.424-1.292.8-1.942,1.194a.889.889,0,0,0,.9,1.534c1.542-.935,3.664-1.9,4.356-3.688C165.953-229.749,164.236-230.211,163.827-229.155Z" transform="translate(-3040.886 3820.368)"/><path class="a" d="M108.746-243.216a2.689,2.689,0,0,0-.6,2.962c.6,1.119,1.493.978,2.483,1.049-.1.92-.773,1.889-.87,2.778a2.5,2.5,0,0,0,.733,2.165c.787.833,2.042-.425,1.257-1.256-.666-.7.252-2.094.463-2.811a3.7,3.7,0,0,0,.118-1.888.868.868,0,0,0-.621-.621c-.807-.172-2.278.2-1.69-1.11.34-.754,2.034-2.157,2.841-1.394.831.785,2.089-.469,1.257-1.256C112.315-246.3,110.039-244.857,108.746-243.216Z" transform="translate(-3019.692 3826.735)"/><path class="a" d="M108.746-243.216a2.689,2.689,0,0,0-.6,2.962c.6,1.119,1.493.978,2.483,1.049-.1.92-.773,1.889-.87,2.778a2.5,2.5,0,0,0,.733,2.165c.787.833,2.042-.425,1.257-1.256-.666-.7.252-2.094.463-2.811a3.7,3.7,0,0,0,.118-1.888.868.868,0,0,0-.621-.621c-.807-.172-2.278.2-1.69-1.11.34-.754,2.034-2.157,2.841-1.394.831.785,2.089-.469,1.257-1.256C112.315-246.3,110.039-244.857,108.746-243.216Z" transform="translate(-2763.692 3865.735)"/><path class="a" d="M113.547-243.216a2.689,2.689,0,0,1,.6,2.962c-.6,1.119-1.493.978-2.483,1.049.1.92.773,1.889.87,2.778a2.5,2.5,0,0,1-.733,2.165c-.787.833-2.042-.425-1.257-1.256.666-.7-.252-2.094-.463-2.811a3.7,3.7,0,0,1-.118-1.888.868.868,0,0,1,.621-.621c.807-.172,2.278.2,1.69-1.11-.34-.754-2.034-2.157-2.841-1.394-.831.785-2.089-.469-1.257-1.256C109.978-246.3,112.254-244.857,113.547-243.216Z" transform="translate(-3125.518 3868.735)"/><path class="a" d="M346.528-279.673l.379.117a.817.817,0,0,0,.543-.028l.091.048c.088.06.1.068.034.024a1.741,1.741,0,0,1,.125.123.9.9,0,0,0,1.256,0,.9.9,0,0,0,0-1.256,2.451,2.451,0,0,0-2.427-.741A.9.9,0,0,0,346.528-279.673Z" transform="translate(-3116.763 3841.467)"/><path class="a" d="M346.838-241.017a24.294,24.294,0,0,1-4.161,1.487,10,10,0,0,1,3.9-2.569.889.889,0,0,0-.472-1.713,10.25,10.25,0,0,0-3.557,2.183,7.015,7.015,0,0,0-2.389,2.506.9.9,0,0,0,.531,1.305,7.7,7.7,0,0,0,4.482-.637,9.989,9.989,0,0,0-1.324,1.506,6.933,6.933,0,0,0-1.159,3.467c.044,1.139,1.821,1.145,1.776,0-.112-2.861,3.546-4.056,3.5-6.679A.9.9,0,0,0,346.838-241.017Z" transform="translate(-3114.378 3826.115)"/><path class="a" d="M372.945-186.593v-4.342a.889.889,0,0,0-1.776,0v4.342A.889.889,0,0,0,372.945-186.593Z" transform="translate(-3114.071 3794.886)"/><path class="a" d="M382.854-158.511a1.848,1.848,0,0,0-1.418.655.914.914,0,0,0,0,1.257.9.9,0,0,0,1.256,0,1.145,1.145,0,0,1,.112-.127l0,0,.012,0,.034,0a.9.9,0,0,0,.888-.888A.9.9,0,0,0,382.854-158.511Z" transform="translate(-3131.156 3791.311)"/><path class="a" d="M100.692-137.518a1.947,1.947,0,0,0-.99-.966,6.4,6.4,0,0,0-1.556-.349,12.179,12.179,0,0,0-2.068-.344.889.889,0,0,0,0,1.776,16.357,16.357,0,0,1,2.1.361c.479.073,1.068.047.974.676-.114.757.858,1.644,1.484.864a8.436,8.436,0,0,0,.555-.762A.829.829,0,0,0,100.692-137.518Z" transform="translate(-3014.519 3783.426)"/><path class="a" d="M100.692-137.518a1.947,1.947,0,0,0-.99-.966,6.4,6.4,0,0,0-1.556-.349,12.179,12.179,0,0,0-2.068-.344.889.889,0,0,0,0,1.776,16.357,16.357,0,0,1,2.1.361c.479.073,1.068.047.974.676-.114.757.858,1.644,1.484.864a8.436,8.436,0,0,0,.555-.762A.829.829,0,0,0,100.692-137.518Z" transform="translate(-2765.519 3819.426)"/><path class="a" d="M95.858-137.518a1.947,1.947,0,0,1,.99-.966,6.4,6.4,0,0,1,1.556-.349,12.179,12.179,0,0,1,2.068-.344.889.889,0,0,1,0,1.776,16.357,16.357,0,0,0-2.1.361c-.479.073-1.068.047-.974.676.114.757-.858,1.644-1.484.864a8.436,8.436,0,0,1-.555-.762A.829.829,0,0,1,95.858-137.518Z" transform="translate(-3097.948 3822.426)"/><path class="a" d="M100.692-137.518a1.947,1.947,0,0,0-.99-.966,6.4,6.4,0,0,0-1.556-.349,12.179,12.179,0,0,0-2.068-.344.889.889,0,0,0,0,1.776,16.357,16.357,0,0,1,2.1.361c.479.073,1.068.047.974.676-.114.757.858,1.644,1.484.864a8.436,8.436,0,0,0,.555-.762A.829.829,0,0,0,100.692-137.518Z" transform="translate(-3047.71 3702.16) rotate(40)"/><path class="a" d="M156.223-171.581l-.789.79a.9.9,0,0,0,0,1.256.9.9,0,0,0,1.256,0l.789-.789a.9.9,0,0,0,0-1.257A.9.9,0,0,0,156.223-171.581Z" transform="translate(-3038.975 3796.746)"/><path class="a" d="M420.216-284.5c-1.93.724-4.169,1.942-4.809,4.079-.624,2.087,1.554,3.175,3.229,3.556,1.113.253,1.589-1.46.473-1.713a4.44,4.44,0,0,1-1.538-.551c-.667-.457-.484-.894-.063-1.5a6.448,6.448,0,0,1,3.18-2.154C421.749-283.184,421.289-284.9,420.216-284.5Z" transform="translate(-3145.07 3842.723)"/><path class="a" d="M430.242-248.386a.9.9,0,0,0-1.215.319q-.2.4-.395.789a.911.911,0,0,0,.319,1.216.9.9,0,0,0,1.216-.319l.394-.79A.91.91,0,0,0,430.242-248.386Z" transform="translate(-3150.464 3828.015)"/><path class="a" d="M418.078-158.511a.889.889,0,0,0,0,1.776A.889.889,0,0,0,418.078-158.511Z" transform="translate(-3145.854 3791.311)"/><path class="a" d="M403.034-96.518c-.132.74-.171,1.492-.276,2.235a3.6,3.6,0,0,1-.68,2.11c-.856.761.4,2.013,1.256,1.256,1.346-1.2,1.126-3.516,1.412-5.129C404.946-97.164,403.235-97.644,403.034-96.518Z" transform="translate(-3114.561 3767.288)"/><path class="a" d="M403.034-91.325c-.132-.74-.171-1.492-.276-2.235a3.6,3.6,0,0,0-.68-2.11c-.856-.761.4-2.013,1.256-1.256,1.346,1.2,1.126,3.516,1.412,5.129C404.946-90.679,403.235-90.2,403.034-91.325Z" transform="translate(-3182.561 3720.071)"/><path class="a" d="M345.881-111.316c.008.005.018.007.027.012l-.019-.017-.006,0Z" transform="translate(-3116.756 3772.063)"/><path class="a" d="M345.557-112.819c-.271-.075-.545-.176-.819-.237a.435.435,0,0,1-.136-.064c.139.139-.413.127-.027-.012a.965.965,0,0,0-.155-.09.7.7,0,0,1,.162.086,7.632,7.632,0,0,0,.785-.57,8.231,8.231,0,0,1,.912-.454c1.048-.447.144-1.978-.9-1.534-1.192.509-3.436,1.8-2.466,3.4a3.02,3.02,0,0,0,1.9,1.118c.648.182,1.41.176,1.306.985-.146,1.13,1.632,1.12,1.776,0C348.107-111.765,346.877-112.455,345.557-112.819Z" transform="translate(-3090.451 3774.88)"/><path class="a" d="M345.557-112.819c-.271-.075-.545-.176-.819-.237a.435.435,0,0,1-.136-.064c.139.139-.413.127-.027-.012a.965.965,0,0,0-.155-.09.7.7,0,0,1,.162.086,7.632,7.632,0,0,0,.785-.57,8.231,8.231,0,0,1,.912-.454c1.048-.447.144-1.978-.9-1.534-1.192.509-3.436,1.8-2.466,3.4a3.02,3.02,0,0,0,1.9,1.118c.648.182,1.41.176,1.306.985-.146,1.13,1.632,1.12,1.776,0C348.107-111.765,346.877-112.455,345.557-112.819Z" transform="matrix(0.788, 0.616, -0.616, 0.788, -3114.55, 3536.428)"/><path class="a" d="M345.557-112.3c-.271.075-.545.176-.819.237a.435.435,0,0,0-.136.064c.139-.139-.413-.127-.027.012a.965.965,0,0,1-.155.09.7.7,0,0,0,.162-.086,7.632,7.632,0,0,1,.785.57,8.231,8.231,0,0,0,.912.454c1.048.447.144,1.978-.9,1.534-1.192-.509-3.436-1.8-2.466-3.4a3.02,3.02,0,0,1,1.9-1.118c.648-.182,1.41-.176,1.306-.985-.146-1.13,1.632-1.12,1.776,0C348.107-113.355,346.877-112.665,345.557-112.3Z" transform="translate(-3192.451 3696.757)"/><path class="a" d="M134.881-62.238c-.48.441-1.546.147-2.135.134a.889.889,0,0,0,0,1.776c1.206.027,2.42.237,3.391-.655C136.98-61.758,135.721-63.012,134.881-62.238Z" transform="translate(-3029.475 3752.143)"/><path class="a" d="M134.881-62.238c-.48.441-1.546.147-2.135.134a.889.889,0,0,0,0,1.776c1.206.027,2.42.237,3.391-.655C136.98-61.758,135.721-63.012,134.881-62.238Z" transform="translate(-2804.475 3696.143)"/><path class="a" d="M133.423-62.238c.48.441,1.546.147,2.135.134a.889.889,0,0,1,0,1.776c-1.206.027-2.42.237-3.391-.655C131.323-61.758,132.582-63.012,133.423-62.238Z" transform="translate(-3130.746 3699.143)"/><path class="a" d="M207.157-191.819a.9.9,0,0,0-.621,1.093.89.89,0,0,0,1.007.624.2.2,0,0,1,.028.013l-.025-.014h0l.068.033a1.731,1.731,0,0,1,.371.252c.256.216.491.456.751.668a.915.915,0,0,0,1.257,0,.9.9,0,0,0,0-1.257C209.148-191.094,208.375-192.069,207.157-191.819Z" transform="translate(-3059.91 3804.913)"/><path class="a" d="M222.831-300.449a.9.9,0,0,0-.857-.652,3.881,3.881,0,0,0-2.364.864.915.915,0,0,0-.319,1.215.9.9,0,0,0,1.215.319,4.049,4.049,0,0,1,.8-.474c.042-.018.073-.023.111-.038a.967.967,0,0,0,.847.207.91.91,0,0,0,.621-1.093Z" transform="translate(-3065.076 3849.471)"/><path class="a" d="M51.64-284c-1.113-.038-2.131.424-3.253.411a7.634,7.634,0,0,1-3.663-.529c-.86-.457-1.844.684-1.076,1.4l.258.24a.848.848,0,0,0,.687.237,8.26,8.26,0,0,0,2.816.416,14.982,14.982,0,0,0,2.212-.032,11.531,11.531,0,0,1,2.019-.361C52.784-282.182,52.782-283.958,51.64-284Z" transform="translate(-2993.371 3842.585)"/><path class="a" d="M51.64-284c-1.113-.038-2.131.424-3.253.411a7.634,7.634,0,0,1-3.663-.529c-.86-.457-1.844.684-1.076,1.4l.258.24a.848.848,0,0,0,.687.237,8.26,8.26,0,0,0,2.816.416,14.982,14.982,0,0,0,2.212-.032,11.531,11.531,0,0,1,2.019-.361C52.784-282.182,52.782-283.958,51.64-284Z" transform="translate(-2737.371 3881.585)"/><path class="a" d="M44.228-284c1.113-.038,2.131.424,3.253.411a7.634,7.634,0,0,0,3.663-.529c.86-.457,1.844.684,1.076,1.4l-.258.24a.848.848,0,0,1-.687.237,8.26,8.26,0,0,1-2.816.416,14.982,14.982,0,0,1-2.212-.032,11.531,11.531,0,0,0-2.019-.361C43.085-282.182,43.087-283.958,44.228-284Z" transform="translate(-3025.414 3884.585)"/><path class="a" d="M.857,2.2c1.113.038,2.131-.424,3.253-.411a7.634,7.634,0,0,1,3.663.529c.86.457,1.844-.684,1.076-1.4L8.591.679A.848.848,0,0,0,7.9.442,8.26,8.26,0,0,0,5.088.026,14.982,14.982,0,0,0,2.876.058,11.532,11.532,0,0,1,.857.419C-.287.379-.285,2.155.857,2.2Z" transform="matrix(0.999, 0.035, -0.035, 0.999, -2937.677, 3569.835)"/><path class="a" d="M48.484-185.08c-1.406.956-3.264,1.617-3.961,3.294a.9.9,0,0,0,.621,1.093.91.91,0,0,0,1.092-.621c.215-.518.977-.91,1.422-1.188.569-.356,1.167-.667,1.723-1.045C50.321-184.185,49.433-185.724,48.484-185.08Z" transform="translate(-2993.822 3802.211)"/><path class="a" d="M48.484-185.08c-1.406.956-3.264,1.617-3.961,3.294a.9.9,0,0,0,.621,1.093.91.91,0,0,0,1.092-.621c.215-.518.977-.91,1.422-1.188.569-.356,1.167-.667,1.723-1.045C50.321-184.185,49.433-185.724,48.484-185.08Z" transform="translate(-2737.822 3841.211)"/><path class="a" d="M45.773-185.08c1.406.956,3.264,1.617,3.961,3.294a.9.9,0,0,1-.621,1.093.91.91,0,0,1-1.092-.621c-.215-.518-.977-.91-1.422-1.188-.569-.356-1.167-.667-1.722-1.045C43.936-184.185,44.823-185.724,45.773-185.08Z" transform="translate(-3023.352 3844.211)"/><path class="a" d="M66.118-77.7c-1.167-.159-2.176-.967-3.394-.821a.917.917,0,0,0-.888.888.892.892,0,0,0,.888.888c1.015-.121,1.931.623,2.922.758a.921.921,0,0,0,1.092-.621A.894.894,0,0,0,66.118-77.7Z" transform="translate(-3000.903 3758.693)"/><path class="a" d="M66.118-77.7c-1.167-.159-2.176-.967-3.394-.821a.917.917,0,0,0-.888.888.892.892,0,0,0,.888.888c1.015-.121,1.931.623,2.922.758a.921.921,0,0,0,1.092-.621A.894.894,0,0,0,66.118-77.7Z" transform="translate(-2757.903 3780.693)"/><path class="a" d="M62.485-77.7c1.167-.159,2.176-.967,3.394-.821a.917.917,0,0,1,.888.888.892.892,0,0,1-.888.888c-1.015-.121-1.931.623-2.922.758a.921.921,0,0,1-1.092-.621A.894.894,0,0,1,62.485-77.7Z" transform="translate(-3037.617 3783.693)"/><path class="a" d="M373.076-35.85c-1.3.174-1.973,1.164-2.823,2.051a8.021,8.021,0,0,0-1.882,2.755c-.951.313-.474,1.875.6,1.676l.321-.059a.878.878,0,0,0,.62-.621,5.208,5.208,0,0,1,1.432-2.328c.405-.417,1.126-1.617,1.733-1.7C374.193-34.224,374.207-36,373.076-35.85Z" transform="translate(-3125.721 3735.285)"/><path class="a" d="M373.076-29.36c-1.3-.174-1.973-1.164-2.823-2.051a8.021,8.021,0,0,1-1.882-2.755c-.951-.313-.474-1.875.6-1.676l.321.059a.878.878,0,0,1,.62.621,5.209,5.209,0,0,0,1.432,2.328c.405.417,1.126,1.617,1.733,1.7C374.193-30.987,374.207-29.209,373.076-29.36Z" transform="translate(-3188.721 3626.442)"/><path class="a" d="M373.076-29.36c-1.3-.174-1.973-1.164-2.823-2.051a8.021,8.021,0,0,1-1.882-2.755c-.951-.313-.474-1.875.6-1.676l.321.059a.878.878,0,0,1,.62.621,5.209,5.209,0,0,0,1.432,2.328c.405.417,1.126,1.617,1.733,1.7C374.193-30.987,374.207-29.209,373.076-29.36Z" transform="translate(-2719.911 3256.539) rotate(109)"/><path class="a" d="M382.089,13.075l-1.579-.789a.91.91,0,0,0-1.215.319.9.9,0,0,0,.319,1.215l1.579.789a.909.909,0,0,0,1.215-.319A.9.9,0,0,0,382.089,13.075Z" transform="translate(-3130.338 3721.692)"/><path class="a" d="M382.089,13.82l-1.579.789a.91.91,0,0,1-1.215-.319.9.9,0,0,1,.319-1.215l1.579-.789a.909.909,0,0,1,1.215.319A.9.9,0,0,1,382.089,13.82Z" transform="translate(-3193.338 3553.929)"/><path class="a" d="M382.089,13.82l-1.579.789a.91.91,0,0,1-1.215-.319.9.9,0,0,1,.319-1.215l1.579-.789a.909.909,0,0,1,1.215.319A.9.9,0,0,1,382.089,13.82Z" transform="translate(-3081.001 3304.248) rotate(39)"/><path class="a" d="M419.414-44.729a26.127,26.127,0,0,1-2.624,3.373c-.73.87.52,2.133,1.256,1.256a28.978,28.978,0,0,0,2.9-3.732A.889.889,0,0,0,419.414-44.729Z" transform="translate(-3145.588 3745.076)"/><path class="a" d="M419.414-40.229A26.127,26.127,0,0,0,416.79-43.6c-.73-.87.52-2.133,1.256-1.256a28.975,28.975,0,0,1,2.9,3.732A.889.889,0,0,1,419.414-40.229Z" transform="translate(-3208.588 3642.397)"/><path class="a" d="M454.461-174.25c-.933.925-.664,2.213-.655,3.391a.889.889,0,0,0,1.776,0c0-.57-.316-1.689.134-2.135A.889.889,0,0,0,454.461-174.25Z" transform="translate(-3160.759 3797.836)"/><path class="a" d="M455.283-174.25c.933.925.664,2.213.655,3.391a.889.889,0,0,1-1.776,0c0-.57.316-1.689-.134-2.135A.889.889,0,0,1,455.283-174.25Z" transform="translate(-3415.902 3800.836)"/><path class="a" d="M63.631,7.489H60.078a.889.889,0,0,0,0,1.776h3.553A.889.889,0,0,0,63.631,7.489Z" transform="translate(-2999.836 3701.604)"/><path class="a" d="M63.631,7.489H60.078a.889.889,0,0,0,0,1.776h3.553A.889.889,0,0,0,63.631,7.489Z" transform="translate(-2767.836 3723.604)"/><path class="a" d="M60.079,7.489h3.553a.889.889,0,0,1,0,1.776H60.079A.889.889,0,0,1,60.079,7.489Z" transform="translate(-3022.791 3726.604)"/><path class="a" d="M110.346,2.4c.014,3.057.59,6.266-1.063,9.026a.889.889,0,0,0,1.534.9c1.839-3.071,1.321-6.506,1.306-9.922A.889.889,0,0,0,110.346,2.4Z" transform="translate(-3020.201 3704.031)"/><path class="a" d="M110.346,2.4c.014,3.057.59,6.266-1.063,9.026a.889.889,0,0,0,1.534.9c1.839-3.071,1.321-6.506,1.306-9.922A.889.889,0,0,0,110.346,2.4Z" transform="translate(-2773.201 3577.031)"/><path class="a" d="M111.006,2.4c-.014,3.057-.59,6.266,1.063,9.026a.889.889,0,0,1-1.534.9C108.7,9.25,109.214,5.814,109.23,2.4A.889.889,0,0,1,111.006,2.4Z" transform="translate(-3115.068 3580.031)"/><path class="a" d="M1.855,10.347c-.014-3.057-.59-6.266,1.063-9.026a.889.889,0,0,0-1.534-.9C-.455,3.5.063,6.931.079,10.347A.889.889,0,0,0,1.855,10.347Z" transform="matrix(0.999, 0.035, -0.035, 0.999, -2961.886, 3579.001)"/><path class="a" d="M106.078,53.489a.889.889,0,0,0,0,1.776A.889.889,0,0,0,106.078,53.489Z" transform="translate(-3018.598 3682.842)"/><path class="a" d="M106.078,53.489a.889.889,0,0,0,0,1.776A.889.889,0,0,0,106.078,53.489Z" transform="translate(-2799.598 3504.842)"/><path class="a" d="M106.079,53.489a.889.889,0,0,1,0,1.776A.889.889,0,0,1,106.079,53.489Z" transform="translate(-3079.476 3507.842)"/></g></svg>