<svg xmlns="http://www.w3.org/2000/svg" width="18.297" height="17.635" viewBox="0 0 18.297 17.635"><defs><style>.a{opacity:0.8;}.b{fill:none;stroke:#000;stroke-linecap:round;stroke-linejoin:round;stroke-width:1.5px;}</style></defs><g class="a" transform="translate(-0.25 0.793)"><path class="b" d="M8,8.087A1.705,1.705,0,0,1,8.5,6.9L13.43,1.8a1.609,1.609,0,0,1,1.779-.318,1.127,1.127,0,0,1,.666,1.423l-1.7,4.5H18.92a2.32,2.32,0,0,1,.368.029,1.853,1.853,0,0,1,1.658,2.12l-1.311,6.382a2.008,2.008,0,0,1-2.027,1.5H10.06A1.952,1.952,0,0,1,8,15.618Z" transform="translate(-3.189 -1.349)"/><path class="b" d="M4,17.27V9" transform="translate(-3 -2.096)"/></g></svg>