<svg xmlns="http://www.w3.org/2000/svg" width="13.619" height="12.765" viewBox="0 0 13.619 12.765"><defs><style>.a{fill:#a8a8a8;stroke:#a8a8a8;stroke-width:0.4px;}</style></defs><path class="a" d="M14.982.933H13.33v-.7A.234.234,0,0,0,13.094,0H11.442a.234.234,0,0,0-.236.233v.7H6.013v-.7A.234.234,0,0,0,5.777,0H4.124a.234.234,0,0,0-.236.233v.7H2.236A.234.234,0,0,0,2,1.167V12.132a.234.234,0,0,0,.236.233H14.982a.234.234,0,0,0,.236-.233V1.167A.234.234,0,0,0,14.982.933Zm-3.3-.467h1.18v1.4h-1.18V.467ZM4.36.467h1.18v1.4H4.36V.467ZM2.472,1.4H3.888v.7a.234.234,0,0,0,.236.233H5.777A.234.234,0,0,0,6.013,2.1V1.4h5.193v.7a.234.234,0,0,0,.236.233h1.652A.234.234,0,0,0,13.33,2.1V1.4h1.416V4.5H2.472Zm0,10.5V4.966H14.746V11.9Z" transform="translate(-1.8 0.2)"/></svg>