<svg xmlns="http://www.w3.org/2000/svg" xmlns:xlink="http://www.w3.org/1999/xlink" width="345" height="366.395" viewBox="0 0 345 366.395"><defs><style>.a{fill:#fff;}.b{fill:#1f46b8;}.c{clip-path:url(#e);}.d,.e{opacity:0.5;}.d{fill:url(#f);}.e{fill:url(#g);}.f{filter:url(#c);}.g{filter:url(#a);}</style><filter id="a" x="6" y="4" width="333" height="354.395" filterUnits="userSpaceOnUse"><feOffset dy="3" input="SourceAlpha"/><feGaussianBlur stdDeviation="3" result="b"/><feFlood flood-opacity="0.161"/><feComposite operator="in" in2="b"/><feComposite in="SourceGraphic"/></filter><filter id="c" x="0" y="0" width="345" height="366.395" filterUnits="userSpaceOnUse"><feOffset dy="5" input="SourceAlpha"/><feGaussianBlur stdDeviation="5" result="d"/><feFlood flood-opacity="0.102"/><feComposite operator="in" in2="d"/><feComposite in="SourceGraphic"/></filter><clipPath id="e"><g class="g" transform="matrix(1, 0, 0, 1, 0, 0)"><rect class="a" width="315" height="336.395" rx="15" transform="translate(-1566 1018)"/></g></clipPath><linearGradient id="f" x1="0.867" y1="0.805" x2="0.141" y2="0.164" gradientUnits="objectBoundingBox"><stop offset="0" stop-color="#2b55cf"/><stop offset="1" stop-color="#0a2980"/></linearGradient><linearGradient id="g" x1="0.134" y1="0.165" x2="0.865" y2="0.84" xlink:href="#f"/></defs><g transform="translate(-252 -219)"><g transform="translate(226 -19)"><g transform="translate(11 -8)"><g class="f" transform="matrix(1, 0, 0, 1, 15, 246)"><rect class="b" width="315" height="336.395" rx="15" transform="translate(15 10)"/></g><g class="c" transform="translate(1596 -762)"><circle class="d" cx="356" cy="356" r="356" transform="translate(-1958 638)"/><path class="e" d="M356,0C552.613,0,712,159.387,712,356S552.613,712,356,712,0,552.613,0,356,159.387,0,356,0Z" transform="translate(-1965 996)"/></g></g></g></g></svg>