<svg xmlns="http://www.w3.org/2000/svg" width="41" height="41" viewBox="0 0 41 41">
  <g id="Group_2989" data-name="Group 2989" transform="translate(-1040 -365.768)">
    <g id="Group_2988" data-name="Group 2988" transform="translate(991 -1.232)">
      <circle id="Ellipse_363" data-name="Ellipse 363" cx="20.5" cy="20.5" r="20.5" transform="translate(49 367)" fill="#dce6fc"/>
    </g>
    <g id="noun_Category_1819506" transform="translate(1048.5 374.068)">
      <path id="Path_10074" data-name="Path 10074" d="M11.658,3.126v8.084a.521.521,0,0,1-.526.526H3.026a.521.521,0,0,1-.526-.526V3.547A.943.943,0,0,1,3.447,2.6h7.684A.521.521,0,0,1,11.658,3.126ZM21.553,2.6H13.868a.521.521,0,0,0-.526.526v8.084a.521.521,0,0,0,.526.526h8.105a.521.521,0,0,0,.526-.526V3.547A.943.943,0,0,0,21.553,2.6ZM11.132,13.421H3.026a.521.521,0,0,0-.526.526v7.705a.943.943,0,0,0,.947.947h7.684a.521.521,0,0,0,.526-.526V13.947A.521.521,0,0,0,11.132,13.421Zm10.842,0H13.868a.521.521,0,0,0-.526.526v8.126a.521.521,0,0,0,.526.526h7.684a.943.943,0,0,0,.947-.947V13.947A.521.521,0,0,0,21.974,13.421Z" transform="translate(0 0)" fill="#90a0dd"/>
    </g>
  </g>
</svg>
