<svg xmlns="http://www.w3.org/2000/svg" width="50" height="50" viewBox="0 0 50 50">
  <g id="Group_2636" data-name="Group 2636" transform="translate(-163 -574)">
    <circle id="Ellipse_309" data-name="Ellipse 309" cx="25" cy="25" r="25" transform="translate(163 574)" fill="#e2e8fa"/>
    <g id="Group_2633" data-name="Group 2633" transform="translate(-148.084 559.999)">
      <g id="Group_4" data-name="Group 4" transform="translate(322.482 25)">
        <g id="Group_2" data-name="Group 2" transform="translate(7.827 0) rotate(20)">
          <path id="Path_18" data-name="Path 18" d="M0,0A3.293,3.293,0,0,0,3.293,3.293,3.293,3.293,0,0,0,6.586,0" transform="translate(6.218 19.592)" fill="none" stroke="#3f67db" stroke-miterlimit="10" stroke-width="1.5"/>
          <path id="Path_19" data-name="Path 19" d="M17.274,15.093a3.179,3.179,0,0,1-.531-1.756V8.266a7.167,7.167,0,0,0-6.013-7.01c0-.02.006-.039.006-.059a1.224,1.224,0,0,0-2.447,0c0,.015,0,.028,0,.043a7.17,7.17,0,0,0-6.11,7.027V13.4a3.179,3.179,0,0,1-.514,1.731L.236,17.336A1.468,1.468,0,0,0,1.5,19.592H17.491a1.468,1.468,0,0,0,1.26-2.267Z" transform="translate(0 0)" fill="none" stroke="#3f67db" stroke-miterlimit="10" stroke-width="1.5"/>
          <path id="Path_20" data-name="Path 20" d="M2.749,0A5.259,5.259,0,0,0,0,3.675" transform="translate(5.079 4.145)" fill="none" stroke="#3f67db" stroke-linecap="round" stroke-miterlimit="10" stroke-width="1.5"/>
        </g>
        <g id="Path_10075" data-name="Path 10075" transform="translate(18.612 4.768)" fill="#1ca4fc">
          <path d="M 2.860622644424438 6.721242427825928 C 0.7318726181983948 6.721242427825928 -0.9999973773956299 4.989372730255127 -0.9999973773956299 2.860622644424438 C -0.9999973773956299 0.7318726181983948 0.7318726181983948 -0.9999973773956299 2.860622644424438 -0.9999973773956299 C 4.989372730255127 -0.9999973773956299 6.721242427825928 0.7318726181983948 6.721242427825928 2.860622644424438 C 6.721242427825928 4.989372730255127 4.989372730255127 6.721242427825928 2.860622644424438 6.721242427825928 Z" stroke="none"/>
          <path d="M 2.860622644424438 2.86102294921875e-06 C 1.280742645263672 2.86102294921875e-06 2.86102294921875e-06 1.280742645263672 2.86102294921875e-06 2.860622644424438 C 2.86102294921875e-06 4.440502643585205 1.280742645263672 5.721242427825928 2.860622644424438 5.721242427825928 C 4.440502643585205 5.721242427825928 5.721242427825928 4.440502643585205 5.721242427825928 2.860622644424438 C 5.721242427825928 1.280742645263672 4.440502643585205 2.86102294921875e-06 2.860622644424438 2.86102294921875e-06 M 2.860622644424438 -1.999997138977051 C 5.540772438049316 -1.999997138977051 7.721242904663086 0.1804728507995605 7.721242904663086 2.860622644424438 C 7.721242904663086 5.540772438049316 5.540772438049316 7.721242904663086 2.860622644424438 7.721242904663086 C 0.1804728507995605 7.721242904663086 -1.999997138977051 5.540772438049316 -1.999997138977051 2.860622644424438 C -1.999997138977051 0.1804728507995605 0.1804728507995605 -1.999997138977051 2.860622644424438 -1.999997138977051 Z" stroke="none" fill="#e2e8fa"/>
        </g>
      </g>
    </g>
  </g>
</svg>
