<svg xmlns="http://www.w3.org/2000/svg" width="17.5" height="17.501" viewBox="0 0 17.5 17.501"><defs><style>.a{fill:#7f7f7f;stroke:#7f7f7f;stroke-width:0.5px;}</style></defs><g transform="translate(0.25 0.082)"><g transform="translate(0 0.168)"><path class="a" d="M16.321,5.358A8.331,8.331,0,0,0,11.8.847,8.35,8.35,0,0,0,8.486.168a8.264,8.264,0,0,0-3.3.679A8.358,8.358,0,0,0,.669,5.358a8.5,8.5,0,0,0,0,6.613,8.376,8.376,0,0,0,4.517,4.52,8.265,8.265,0,0,0,3.3.679,8.353,8.353,0,0,0,3.309-.679,8.349,8.349,0,0,0,4.527-4.52,8.395,8.395,0,0,0,0-6.613Zm-1.357,7.059a7.46,7.46,0,0,1-2.733,2.725,7.317,7.317,0,0,1-3.746,1,7.194,7.194,0,0,1-2.9-.6,7.6,7.6,0,0,1-2.379-1.59,7.559,7.559,0,0,1-1.589-2.39,7.326,7.326,0,0,1-.586-2.911,7.315,7.315,0,0,1,.995-3.739A7.463,7.463,0,0,1,4.75,2.2a7.261,7.261,0,0,1,3.736-1,7.317,7.317,0,0,1,3.746,1,7.482,7.482,0,0,1,2.733,2.725,7.273,7.273,0,0,1,1,3.739A7.343,7.343,0,0,1,14.965,12.417Z" transform="translate(0 -0.168)"/><path class="a" d="M288.083,115.949v-4.537a.5.5,0,0,0-.508-.49.494.494,0,0,0-.482.49v4.607a.4.4,0,0,1,.018.07.458.458,0,0,0,.131.394l2.619,2.619a.5.5,0,0,0,.674,0,.472.472,0,0,0,0-.683Z" transform="translate(-278.986 -107.649)"/></g></g></svg>