<svg xmlns="http://www.w3.org/2000/svg" width="311.087" height="242.543" viewBox="0 0 311.087 242.543"><defs><style>.a{fill:#e8edf9;}.b{fill:#ced9f6;}.c{fill:#aabdf0;}.d{fill:#8fa8eb;}.e{fill:#3f67db;}.f,.h,.p{fill:none;}.f{stroke:#dde4f8;}.g{fill:#3f3d56;}.h{stroke:#3f3d56;stroke-miterlimit:10;}.h,.p{stroke-width:2px;}.i{fill:#1f46b8;}.j{opacity:0.25;}.k{fill:#fff;opacity:0.5;}.l{fill:#535461;}.m{fill:#a0a0a0;}.n{fill:#807d7d;}.o,.p{opacity:0.1;}.p{stroke:#000;}.q{fill:#2f2e41;}.r{fill:#ffb8b8;}.s{fill:#6c63ff;}.t,.u{fill:#575a89;}.t{opacity:0.99;}</style></defs><g transform="translate(-39.334 -290.01)"><path class="a" d="M266.231,87.51c-18.869-.653-36.839-6.746-54-13.411s-34.157-14.047-52.574-17.577c-11.845-2.271-25.393-2.595-34.936,3.749-9.187,6.122-12.154,16.662-13.749,26.449-1.2,7.364-1.907,15.116,1.382,22.011,2.286,4.787,6.338,8.81,9.143,13.4,9.758,15.953,2.86,35.626-7.711,51.2-4.956,7.306-10.714,14.286-14.542,22.055s-5.6,16.7-2.248,24.65c3.318,7.872,11.227,13.772,19.8,17.927,17.4,8.44,37.9,10.854,57.9,12.224,44.265,3.026,88.763,1.717,133.145.4,16.425-.484,32.921-.977,49.078-3.516,8.974-1.411,18.236-3.65,24.752-9.055,8.268-6.86,10.318-18.475,4.776-27.076-9.294-14.431-34.985-18.014-41.489-33.5-3.574-8.525.1-18.017,5.294-25.921,11.149-16.959,29.834-31.836,30.816-51.218.676-13.312-8.306-26.644-22.2-32.944-14.557-6.6-34.746-5.773-45.481,5.157C302.327,83.761,282.893,88.09,266.231,87.51Z" transform="translate(-55.516 242.185)"/><g transform="translate(88.671 290.01)"><g transform="translate(0 0)"><rect class="b" width="92.217" height="113.272" rx="10" transform="matrix(-0.966, 0.259, -0.259, -0.966, 118.392, 109.412)"/><rect class="c" width="92.217" height="113.272" rx="10" transform="translate(29.079 10.004)"/><rect class="d" width="92.217" height="113.272" rx="10" transform="matrix(0.966, 0.259, -0.259, 0.966, 61.3, 0)"/></g><path class="e" d="M11,13.854,6.487,60.584H4.838l-1.1-12.754q-.11-1.539-2.2-20.231Q0,12.974,0,9.786,0,0,5.5,0q5.718,0,5.718,9.126Q11.215,11.105,11,13.854Zm.44,64.322a5.009,5.009,0,0,1-1.869,4.068,6.749,6.749,0,0,1-3.958,1.319,6,6,0,0,1-3.628-1.209A5.012,5.012,0,0,1,0,78.176a6.328,6.328,0,0,1,1.649-4.508,5.02,5.02,0,0,1,3.958-1.759,5.54,5.54,0,0,1,4.068,1.979A5.835,5.835,0,0,1,11.435,78.176Z" transform="matrix(0.966, 0.259, -0.259, 0.966, 97.957, 23.233)"/><path class="f" d="M11,13.854,6.487,60.584H4.838l-1.1-12.754q-.11-1.539-2.2-20.231Q0,12.974,0,9.786,0,0,5.5,0q5.718,0,5.718,9.126Q11.215,11.105,11,13.854Zm.44,64.322a5.009,5.009,0,0,1-1.869,4.068,6.749,6.749,0,0,1-3.958,1.319,6,6,0,0,1-3.628-1.209A5.012,5.012,0,0,1,0,78.176a6.328,6.328,0,0,1,1.649-4.508,5.02,5.02,0,0,1,3.958-1.759,5.54,5.54,0,0,1,4.068,1.979A5.835,5.835,0,0,1,11.435,78.176Z" transform="matrix(0.966, 0.259, -0.259, 0.966, 99.424, 22.854)"/></g><g transform="translate(39.334 390.51)"><g transform="translate(0)"><ellipse class="g" cx="143.033" cy="7.709" rx="143.033" ry="7.709" transform="translate(0 126.624)"/><g transform="translate(8.049)"><path class="h" d="M742.78,584.777s10.036-34.076-1.884-59.145a53.81,53.81,0,0,1-4.353-33.767A90.522,90.522,0,0,1,741.323,476" transform="translate(-717.795 -452.419)"/><path class="i" d="M729.815,425.776c0,4.178,7.563,16.273,7.563,16.273s7.563-12.111,7.563-16.273a7.563,7.563,0,1,0-15.122,0Z" transform="translate(-713.687 -418.037)"/><path class="i" d="M761.514,477.127c2.27,3.507,15.2,9.56,15.2,9.56s-.236-14.276-2.506-17.782a7.563,7.563,0,0,0-12.693,8.218Z" transform="translate(-757.9 -446.256)"/><path class="i" d="M756.463,570.218c3.731,1.88,17.945.582,17.945.582s-7.408-12.2-11.139-14.084a7.562,7.562,0,1,0-6.811,13.5Z" transform="translate(-752.3 -499.815)"/><path class="i" d="M738.666,644.487c3.356,2.482,17.591,3.6,17.591,3.6s-5.24-13.279-8.6-15.764a7.563,7.563,0,1,0-9,12.16Z" transform="translate(-727.355 -544.268)"/><path class="i" d="M732.954,500.671c-2.994,2.909-16.936,5.936-16.936,5.936s3.417-13.861,6.412-16.773a7.563,7.563,0,0,1,10.537,10.846Z" transform="translate(-698.262 -459.43)"/><path class="i" d="M709.621,584.508c-3.731,1.879-17.945.582-17.945.582s7.408-12.2,11.139-14.084a7.562,7.562,0,1,1,6.811,13.5Z" transform="translate(-667.013 -508.292)"/><path class="i" d="M704.515,671.647c-3.356,2.482-17.591,3.6-17.591,3.6s5.24-13.279,8.6-15.765a7.563,7.563,0,1,1,9,12.16Z" transform="translate(-658.876 -560.379)"/><path class="j" d="M729.815,425.776c0,4.178,7.563,16.273,7.563,16.273s7.563-12.111,7.563-16.273a7.563,7.563,0,1,0-15.122,0Z" transform="translate(-713.687 -418.037)"/><path class="j" d="M761.514,477.127c2.27,3.507,15.2,9.56,15.2,9.56s-.236-14.276-2.506-17.782a7.563,7.563,0,0,0-12.693,8.218Z" transform="translate(-757.9 -446.256)"/><path class="j" d="M756.463,570.218c3.731,1.88,17.945.582,17.945.582s-7.408-12.2-11.139-14.084a7.562,7.562,0,1,0-6.811,13.5Z" transform="translate(-752.3 -499.815)"/><path class="j" d="M738.666,644.487c3.356,2.482,17.591,3.6,17.591,3.6s-5.24-13.279-8.6-15.764a7.563,7.563,0,1,0-9,12.16Z" transform="translate(-727.355 -544.268)"/><path class="j" d="M732.954,500.671c-2.994,2.909-16.936,5.936-16.936,5.936s3.417-13.861,6.412-16.773a7.563,7.563,0,0,1,10.537,10.846Z" transform="translate(-698.262 -459.43)"/><path class="j" d="M709.621,584.508c-3.731,1.879-17.945.582-17.945.582s7.408-12.2,11.139-14.084a7.562,7.562,0,1,1,6.811,13.5Z" transform="translate(-667.013 -508.292)"/><path class="j" d="M704.515,671.647c-3.356,2.482-17.591,3.6-17.591,3.6s5.24-13.279,8.6-15.765a7.563,7.563,0,1,1,9,12.16Z" transform="translate(-658.876 -560.379)"/><path class="h" d="M616.6,632s5.435-18.45-1.017-32.025a29.137,29.137,0,0,1-2.356-18.279,49.011,49.011,0,0,1,2.587-8.58" transform="translate(-547.774 -500.095)"/><path class="i" d="M609.624,546.03c0,2.262,4.093,8.816,4.093,8.816s4.093-6.546,4.093-8.816a4.095,4.095,0,0,0-8.19,0Z" transform="translate(-545.602 -481.596)"/><path class="i" d="M626.8,573.6c1.221,1.9,8.23,5.175,8.23,5.175s-.126-7.73-1.355-9.626a4.093,4.093,0,0,0-6.871,4.451Z" transform="translate(-569.552 -496.629)"/><path class="i" d="M624.027,624.111c2.034,1.017,9.715.313,9.715.313s-4.011-6.607-6.029-7.624a4.1,4.1,0,0,0-3.686,7.323Z" transform="translate(-566.478 -525.745)"/><path class="i" d="M614.4,664.3c1.819,1.343,9.524,1.953,9.524,1.953s-2.848-7.189-4.654-8.543a4.1,4.1,0,1,0-4.882,6.582Z" transform="translate(-552.981 -549.795)"/><path class="i" d="M611.315,586.473c-1.627,1.574-9.178,3.206-9.178,3.206s1.855-7.522,3.482-9.08a4.093,4.093,0,0,1,5.7,5.875Z" transform="translate(-537.228 -503.892)"/><path class="i" d="M598.657,631.851c-2.034,1.017-9.715.313-9.715.313s4.011-6.607,6.029-7.624a4.1,4.1,0,0,1,3.686,7.323Z" transform="translate(-520.294 -530.336)"/><path class="i" d="M595.871,679.014c-1.818,1.343-9.524,1.953-9.524,1.953s2.848-7.189,4.654-8.543a4.1,4.1,0,1,1,4.882,6.582Z" transform="translate(-515.865 -558.52)"/><path class="k" d="M609.624,546.03c0,2.262,4.093,8.816,4.093,8.816s4.093-6.546,4.093-8.816a4.095,4.095,0,0,0-8.19,0Z" transform="translate(-545.602 -481.596)"/><path class="k" d="M626.8,573.6c1.221,1.9,8.23,5.175,8.23,5.175s-.126-7.73-1.355-9.626a4.093,4.093,0,0,0-6.871,4.451Z" transform="translate(-569.552 -496.629)"/><path class="k" d="M624.027,624.111c2.034,1.017,9.715.313,9.715.313s-4.011-6.607-6.029-7.624a4.1,4.1,0,0,0-3.686,7.323Z" transform="translate(-566.478 -525.745)"/><path class="k" d="M614.4,664.3c1.819,1.343,9.524,1.953,9.524,1.953s-2.848-7.189-4.654-8.543a4.1,4.1,0,1,0-4.882,6.582Z" transform="translate(-552.981 -549.795)"/><path class="k" d="M611.315,586.473c-1.627,1.574-9.178,3.206-9.178,3.206s1.855-7.522,3.482-9.08a4.093,4.093,0,0,1,5.7,5.875Z" transform="translate(-537.228 -503.892)"/><path class="k" d="M598.657,631.851c-2.034,1.017-9.715.313-9.715.313s4.011-6.607,6.029-7.624a4.1,4.1,0,0,1,3.686,7.323Z" transform="translate(-520.294 -530.336)"/><path class="k" d="M595.871,679.014c-1.818,1.343-9.524,1.953-9.524,1.953s2.848-7.189,4.654-8.543a4.1,4.1,0,1,1,4.882,6.582Z" transform="translate(-515.865 -558.52)"/></g></g></g><g transform="translate(231.41 333.763)"><path class="l" d="M0,0H81.284V186.658H0Z" transform="translate(24.069 4.83)"/><path class="m" d="M0,196.38l48.088-4.83V4.893L0,.063Z" transform="translate(58.446 -0.063)"/><ellipse class="l" cx="1.136" cy="1.136" rx="1.136" ry="1.136" transform="translate(64.98 105.972)"/><path class="l" d="M292.03,377.66l-.788,1.365-.788,1.364h3.151l-.788-1.364Z" transform="translate(-225.914 -270.382)"/><path class="n" d="M317.217,196.38l5.62-.018L322.615.063h-5.4Z" transform="translate(-262.749 -0.063)"/><ellipse class="o" cx="3.693" cy="3.693" rx="3.693" ry="3.693" transform="translate(62.423 95.176)"/><ellipse class="l" cx="3.693" cy="3.693" rx="3.693" ry="3.693" transform="translate(62.423 94.607)"/><path class="p" d="M0,160.535" transform="translate(119.012 32.4)"/><path class="p" d="M-1.947.774l-.5,187.5" transform="translate(102.834 3.612)"/><path class="p" d="M.109,1.385.357,191.369" transform="translate(86.623 1.759)"/><path class="p" d="M.159.544,0,194.586" transform="translate(70.43 0.861)"/><ellipse class="q" cx="11.222" cy="10.512" rx="11.222" ry="10.512" transform="translate(7.387 16.552)"/><path class="r" d="M644.934,425.939l2.841,3.977s13.637,2.841,8.523,7.1-12.5-3.977-12.5-3.977l-3.978-5.114Z" transform="translate(-593.653 -333.389)"/><path class="s" d="M681.2,266.939s3.693,0,4.546,5.114,1.7,22.16,1.7,22.16,11.932,15.626,9.944,17.615-4.262,5.682-5.682,5.114-13.637-17.33-13.637-17.33Z" transform="translate(-644.69 -219.561)"/><path class="t" d="M681.2,266.939s3.693,0,4.546,5.114,1.7,22.16,1.7,22.16,11.932,15.626,9.944,17.615-4.262,5.682-5.682,5.114-13.637-17.33-13.637-17.33Z" transform="translate(-644.69 -219.561)"/><path class="r" d="M768.14,215.939s.284,11.08,3.693,11.648,2.273,4.262,2.273,4.262-11.08,6.534-18.467,0l-1.421-3.409s5.114-3.693,2.841-8.807Z" transform="translate(-742.997 -183.051)"/><path class="q" d="M697.344,455.939s16.762,31.252,10.512,40.911S692.231,526.4,690.81,526.4s-9.375-3.977-8.807-6.534,9.091-21.592,11.364-23.3,1.136-6.25.852-6.534-9.66-15.342-9.66-15.342.284,23.865-.852,27.558.284,30.115-1.136,31.252-7.955,3.125-9.091,1.421-4.546-27.558-2.273-33.525l-4.262-40.911Z" transform="translate(-653.166 -354.865)"/><path class="q" d="M725.411,722.939l7.1,13.069s10.228,7.387,3.125,8.523-11.364-1.7-11.364-1.7l-6.251-4.546V725.212Z" transform="translate(-696.574 -546.009)"/><path class="q" d="M745.053,684.428l-3.693,8.807s-1.42,3.693,0,4.546,5.4,5.966,2.841,6.534a8.33,8.33,0,0,1-1.561.155,15.787,15.787,0,0,1-11.477-4.67l-2.3-2.3s7.89-18.168,7.78-18.033S745.053,684.428,745.053,684.428Z" transform="translate(-706.557 -514.885)"/><ellipse class="r" cx="9.66" cy="9.66" rx="9.66" ry="9.66" transform="translate(8.381 20.387)"/><path class="u" d="M716.373,253.395l2.983,2.983s9.091,3.409,13.353,0a28.608,28.608,0,0,0-1.563-2.983c0,.284,12.359,2.131,13.5,7.245s-.852,13.921-.852,13.921,7.955,37.5,4.83,38.354-32.388,7.955-32.1,2.557-2.273-27.558-2.273-27.558L704.3,268.879s1.421-6.25,4.83-8.239S716.373,253.395,716.373,253.395Z" transform="translate(-703.872 -209.853)"/><path class="r" d="M735.342,448.939l3.693,2.273s14.205,9.66,6.818,11.364-11.648-6.819-11.648-6.819l-2.841-3.409Z" transform="translate(-710.199 -349.854)"/><path class="o" d="M767.291,301.939l-2.557,2.557s-1.7,23.865,1.7,28.695,19.035,17.9,19.887,17.046,6.25-5.114,5.114-5.682S775.194,328.2,775.194,328.2l1.188-22Z" transform="translate(-763.172 -244.618)"/><path class="u" d="M771.291,298.939l-2.557,2.557s-1.7,23.865,1.7,28.695,19.035,17.9,19.887,17.046,6.251-5.114,5.114-5.682S779.194,325.2,779.194,325.2l1.188-22Z" transform="translate(-768.308 -242.47)"/><path class="q" d="M767.781,155.558s3.284-1.194,7.761,1.343l-2.388.6s3.582.3,4.03,5.075h-1.642s1.045,4.179,0,5.373l-.672-1.269-1.94,3.881-.448-1.94-.9.3-.6-3.134s-1.492,2.239-2.686,2.388v-1.941s-3.284,3.731-4.328,3.582l1.493-2.09-2.09.448.9-1.492-5.373,1.492,1.194-1.492-3.731,1.194-1.791.746s-2.537-5.821,1.045-9.851S764.423,153.841,767.781,155.558Z" transform="translate(-745.746 -139.231)"/></g></g></svg>