<svg xmlns="http://www.w3.org/2000/svg" width="147.591" height="155.823" viewBox="0 0 147.591 155.823"><defs><style>.a{fill:#2648aa;}.b{fill:#3f67db;}.c{fill:#a9bbed;}.d{fill:#ff6156;}.e{fill:#37d870;}.f{fill:#3c4bbf;}.g{fill:#e5e3da;}.h{fill:#f9f7ed;}.i,.k{fill:#efca42;}.j{fill:#e9dca9;}.k,.l,.m{stroke:#dd8f2e;}.l,.q{fill:#eac13e;}.m{fill:#f5cd43;}.n,.o{fill:#dd8f2e;}.o{opacity:0.298;}.p{fill:#eebb3d;}.r{fill:#f37751;}.s{fill:#b83226;}.t{fill:#f05724;}</style></defs><g transform="translate(847.873 -1108.627)"><g transform="translate(371 919)"><g transform="translate(-1307.873 86.816)"><g transform="translate(89 102.812)"><g transform="translate(0 0)"><path class="a" d="M152.061-295.656a2.489,2.489,0,0,1-.966-1.775c-.019-.681.152-1.355.164-2.037a.338.338,0,0,0-.675,0,10.667,10.667,0,0,0-.094,2.672,3.484,3.484,0,0,0,1.093,1.617A.338.338,0,0,0,152.061-295.656Z" transform="translate(-111.998 300.088)"/><path class="b" d="M161.371-229.525c-.089.231-.414.415-.607.545-.24.161-.491.3-.738.454a.338.338,0,0,0,.341.583c.586-.355,1.392-.722,1.655-1.4C162.178-229.751,161.526-229.926,161.371-229.525Z" transform="translate(-117.982 245.806)"/><path class="c" d="M108.223-244.547a1.022,1.022,0,0,0-.228,1.125c.227.425.567.371.944.4-.037.349-.294.718-.331,1.055a.948.948,0,0,0,.279.823c.3.316.776-.162.477-.477-.253-.268.1-.8.176-1.068a1.405,1.405,0,0,0,.045-.718.33.33,0,0,0-.236-.236c-.307-.065-.866.074-.642-.422.129-.286.773-.82,1.08-.53s.794-.178.477-.477C109.579-245.719,108.715-245.17,108.223-244.547Z" transform="translate(-93.384 257.904)"/><path class="a" d="M346.137-280.793l.144.045a.311.311,0,0,0,.206-.011l.034.018c.034.023.038.026.013.009a.616.616,0,0,1,.047.047.342.342,0,0,0,.477,0,.342.342,0,0,0,0-.477.931.931,0,0,0-.922-.281A.341.341,0,0,0,346.137-280.793Z" transform="translate(-237.537 285.895)"/><path class="d" d="M342.629-242.768a9.23,9.23,0,0,1-1.581.565,3.8,3.8,0,0,1,1.481-.976.338.338,0,0,0-.179-.651A3.893,3.893,0,0,0,341-243a2.666,2.666,0,0,0-.908.952.342.342,0,0,0,.2.5,2.925,2.925,0,0,0,1.7-.242,3.794,3.794,0,0,0-.5.572,2.634,2.634,0,0,0-.44,1.318c.017.433.692.435.675,0-.043-1.087,1.347-1.541,1.33-2.538A.34.34,0,0,0,342.629-242.768Z" transform="translate(-233.019 256.726)"/><path class="a" d="M371.844-189.817v-1.65a.338.338,0,0,0-.675,0v1.65A.338.338,0,0,0,371.844-189.817Z" transform="translate(-238.064 212.588)"/><path class="a" d="M381.82-158.511a.7.7,0,0,0-.539.249.347.347,0,0,0,0,.477.34.34,0,0,0,.477,0,.436.436,0,0,1,.043-.048h.019a.342.342,0,0,0,.337-.337A.343.343,0,0,0,381.82-158.511Z" transform="translate(-250.767 190.594)"/><path class="a" d="M97.3-138.547a.74.74,0,0,0-.376-.367,2.434,2.434,0,0,0-.591-.133,4.627,4.627,0,0,0-.786-.131.338.338,0,0,0,0,.675,6.216,6.216,0,0,1,.8.137c.182.028.406.018.37.257-.043.288.326.625.564.328a3.2,3.2,0,0,0,.211-.29A.315.315,0,0,0,97.3-138.547Z" transform="translate(-83.555 175.61)"/><path class="a" d="M155.576-171.739l-.3.3a.343.343,0,0,0,0,.477.342.342,0,0,0,.477,0l.3-.3a.343.343,0,0,0,0-.477A.342.342,0,0,0,155.576-171.739Z" transform="translate(-115.178 200.921)"/><path class="a" d="M417.167-284.537a2.77,2.77,0,0,0-1.827,1.55c-.237.793.591,1.206,1.227,1.351.423.1.6-.555.18-.651a1.686,1.686,0,0,1-.585-.209c-.253-.174-.184-.34-.024-.571a2.449,2.449,0,0,1,1.208-.818C417.749-284.037,417.575-284.69,417.167-284.537Z" transform="translate(-277.205 288.282)"/><path class="a" d="M429.176-248.457a.341.341,0,0,0-.462.121l-.15.3a.346.346,0,0,0,.121.462.341.341,0,0,0,.462-.121l.15-.3A.346.346,0,0,0,429.176-248.457Z" transform="translate(-287.454 260.337)"/><path class="a" d="M417.546-158.511a.338.338,0,0,0,0,.675A.338.338,0,0,0,417.546-158.511Z" transform="translate(-278.694 190.594)"/><path class="a" d="M402.264-96.916c-.05.281-.065.567-.105.849a1.366,1.366,0,0,1-.258.8c-.325.289.154.765.477.477.512-.455.428-1.336.537-1.949C402.991-97.162,402.34-97.344,402.264-96.916Z" transform="translate(-257.238 143.427)"/><path class="e" d="M402.264-94.943c-.05-.281-.065-.567-.105-.849a1.366,1.366,0,0,0-.258-.8c-.325-.289.154-.765.477-.477.512.455.428,1.336.537,1.949C402.991-94.7,402.34-94.515,402.264-94.943Z" transform="translate(-299.477 125.486)"/><path class="a" d="M345.881-111.318l.01,0-.007-.006h0Z" transform="translate(-238.068 154.021)"/><path class="b" d="M343.774-114.651c-.1-.028-.207-.067-.311-.09a.164.164,0,0,1-.052-.024c.053.053-.157.048-.01,0a.365.365,0,0,0-.059-.034.267.267,0,0,1,.062.033,2.913,2.913,0,0,0,.3-.217,3.126,3.126,0,0,1,.347-.172c.4-.17.055-.751-.341-.583-.453.193-1.305.683-.937,1.292a1.148,1.148,0,0,0,.724.425c.246.069.536.067.5.374-.055.43.62.425.675,0C344.743-114.251,344.275-114.513,343.774-114.651Z" transform="translate(-211.426 157.852)"/><path class="d" d="M343.774-114.455c-.1.028-.207.067-.311.09a.165.165,0,0,0-.052.024c.053-.053-.157-.048-.01,0a.364.364,0,0,1-.059.034.267.267,0,0,0,.062-.033,2.911,2.911,0,0,1,.3.217,3.128,3.128,0,0,0,.347.172c.4.17.055.751-.341.583-.453-.193-1.305-.683-.937-1.292a1.148,1.148,0,0,1,.724-.425c.246-.069.536-.067.5-.374-.055-.43.62-.425.675,0C344.743-114.855,344.275-114.593,343.774-114.455Z" transform="translate(-281.87 128.168)"/><path class="a" d="M133.025-62.389c-.182.167-.587.056-.811.051a.338.338,0,0,0,0,.675,1.662,1.662,0,0,0,1.289-.249C133.823-62.206,133.344-62.683,133.025-62.389Z" transform="translate(-100.123 116.17)"/><path class="a" d="M206.754-191.844a.341.341,0,0,0-.236.415.338.338,0,0,0,.383.237l.011,0-.009-.005h0l.026.013a.659.659,0,0,1,.141.1c.1.082.187.173.285.254a.348.348,0,0,0,.477,0,.34.34,0,0,0,0-.477C207.511-191.568,207.217-191.939,206.754-191.844Z" transform="translate(-148.036 216.439)"/><path class="a" d="M220.563-300.856a.342.342,0,0,0-.326-.248,1.475,1.475,0,0,0-.9.328.348.348,0,0,0-.121.462.34.34,0,0,0,.462.121,1.543,1.543,0,0,1,.306-.18c.016-.007.028-.009.042-.014a.367.367,0,0,0,.322.078.346.346,0,0,0,.236-.415Z" transform="translate(-156.163 301.105)"/><path class="e" d="M46.513-284.136c-.423-.015-.81.161-1.236.156a2.9,2.9,0,0,1-1.392-.2c-.327-.174-.7.26-.409.53l.1.091a.322.322,0,0,0,.261.09,3.141,3.141,0,0,0,1.07.158,5.7,5.7,0,0,0,.84-.012,4.382,4.382,0,0,1,.767-.137C46.948-283.446,46.947-284.121,46.513-284.136Z" transform="translate(-43.371 288.02)"/><path class="a" d="M46-185.175c-.534.363-1.24.614-1.5,1.252a.34.34,0,0,0,.236.415.346.346,0,0,0,.415-.236c.082-.2.371-.346.54-.451.216-.135.443-.253.655-.4C46.7-184.835,46.359-185.42,46-185.175Z" transform="translate(-44.227 211.304)"/><path class="a" d="M63.463-78.222c-.443-.06-.827-.367-1.29-.312a.348.348,0,0,0-.337.337.339.339,0,0,0,.337.337c.386-.046.734.237,1.11.288a.35.35,0,0,0,.415-.236A.34.34,0,0,0,63.463-78.222Z" transform="translate(-57.681 128.616)"/><path class="a" d="M369.841-35.856c-.493.066-.75.442-1.073.779a3.049,3.049,0,0,0-.715,1.047c-.361.119-.18.713.228.637l.122-.023a.334.334,0,0,0,.236-.236,1.979,1.979,0,0,1,.544-.884c.154-.158.428-.614.659-.645C370.266-35.238,370.271-35.914,369.841-35.856Z" transform="translate(-347.273 65.247)"/><path class="a" d="M369.841-35.856c-.493.066-.75.442-1.073.779a3.049,3.049,0,0,0-.715,1.047c-.361.119-.18.713.228.637l.122-.023a.334.334,0,0,0,.236-.236,1.979,1.979,0,0,1,.544-.884c.154-.158.428-.614.659-.645C370.266-35.238,370.271-35.914,369.841-35.856Z" transform="translate(-295.364 62.134)"/><path class="a" d="M1.982,0C1.489.07,1.232.446.91.783A3.049,3.049,0,0,0,.194,1.83c-.361.119-.18.713.228.637l.122-.023A.334.334,0,0,0,.78,2.208a1.979,1.979,0,0,1,.544-.884c.154-.158.428-.614.659-.645C2.406.622,2.412-.054,1.982,0Z" transform="matrix(0.259, 0.966, -0.966, 0.259, 90.573, 23.589)"/><path class="a" d="M369.842-33.39c-.493-.066-.75-.442-1.073-.779a3.049,3.049,0,0,1-.715-1.047c-.361-.119-.18-.713.228-.637l.122.023a.334.334,0,0,1,.236.236,1.979,1.979,0,0,0,.544.884c.154.158.428.614.659.645C370.266-34.008,370.271-33.332,369.842-33.39Z" transform="translate(-289.409 51.901)"/><path class="a" d="M380.285,12.518l-.6-.3a.346.346,0,0,0-.462.121.341.341,0,0,0,.121.462l.6.3a.346.346,0,0,0,.462-.121A.341.341,0,0,0,380.285,12.518Z" transform="translate(-249.212 58.31)"/><path class="a" d="M380.285,12.8l-.6.3a.346.346,0,0,1-.462-.121.341.341,0,0,1,.121-.462l.6-.3a.346.346,0,0,1,.462.121A.341.341,0,0,1,380.285,12.8Z" transform="translate(-297.004 -5.436)"/><path class="d" d="M417.65-44.993a9.927,9.927,0,0,1-1,1.282c-.277.331.2.811.477.477a11.013,11.013,0,0,0,1.1-1.418A.338.338,0,0,0,417.65-44.993Z" transform="translate(-278.189 102.742)"/><path class="a" d="M417.65-43.283a9.931,9.931,0,0,0-1-1.282c-.277-.331.2-.811.477-.477a11.007,11.007,0,0,1,1.1,1.418A.338.338,0,0,1,417.65-43.283Z" transform="translate(-320.828 63.727)"/><path class="a" d="M454.029-174.411c-.354.351-.252.841-.249,1.289a.338.338,0,0,0,.675,0c0-.217-.12-.642.051-.811A.338.338,0,0,0,454.029-174.411Z" transform="translate(-307.015 202.993)"/><path class="a" d="M60.9,7.489h-1.35a.338.338,0,0,0,0,.675H60.9A.338.338,0,0,0,60.9,7.489Z" transform="translate(-55.654 61.943)"/><path class="f" d="M109.605,1.866c.005,1.162.224,2.381-.4,3.43a.338.338,0,0,0,.583.341c.7-1.167.5-2.472.5-3.77A.338.338,0,0,0,109.605,1.866Z" transform="translate(-94.351 66.553)"/><path class="a" d="M105.546,53.489a.338.338,0,0,0,0,.675A.338.338,0,0,0,105.546,53.489Z" transform="translate(-91.305 26.293)"/></g></g><g transform="translate(12.303 -9.924)"><g transform="translate(92.062 145.87)"><g transform="translate(4.596 0)"><g transform="translate(0 0)"><g transform="translate(0 92.184)"><g transform="translate(0 0)"><g transform="translate(0.141)"><path class="g" d="M-576.208,807.85v14.167c0,4.512,25.037,8.168,55.922,8.168s55.921-3.657,55.921-8.168V807.85Z" transform="translate(576.208 -799.68)"/><path class="h" d="M-464.365,795.856c0,4.511-25.037,8.17-55.921,8.17s-55.922-3.659-55.922-8.17,25.037-8.17,55.922-8.17S-464.365,791.344-464.365,795.856Z" transform="translate(576.208 -787.686)"/></g><g transform="translate(0 7.956)"><path class="i" d="M-520.494,816.509c-20.4,0-35.672-1.047-45.4-3.108-5.986-1.27-9.479-2.577-10.526-4.428a2.593,2.593,0,0,1,.018-1.648c.015-.139,3.009,7.576,55.9,7.576s55.9-7.629,55.914-7.491a1.762,1.762,0,0,1,0,1.357c-1.048,1.851-4.53,3.364-10.517,4.634C-484.822,815.463-500.1,816.509-520.494,816.509Z" transform="translate(576.557 -807.323)"/></g><g transform="translate(0 21.32)"><path class="j" d="M-520.494,849.493c-20.4,0-35.672-1.045-45.4-3.107-5.986-1.269-9.479-2.578-10.526-4.427a2.592,2.592,0,0,1,.018-1.648c.015-.139,3.009,7.576,55.9,7.576s55.9-7.63,55.914-7.492a1.762,1.762,0,0,1,0,1.357c-1.048,1.85-4.53,3.364-10.517,4.634C-484.822,848.448-500.1,849.493-520.494,849.493Z" transform="translate(576.557 -840.308)"/></g></g></g><g transform="translate(18.662)"><g transform="translate(19.563 41.999)"><path class="k" d="M-445.1,674.221a6.509,6.509,0,0,0,1.258-3.849,6.549,6.549,0,0,0-6.55-6.55,6.549,6.549,0,0,0-6.549,6.55,6.512,6.512,0,0,0,1.258,3.849h0a29.534,29.534,0,0,1,0,25.9H-445.1a29.539,29.539,0,0,1,0-25.9Z" transform="translate(467.182 -663.822)"/><rect class="l" width="27.673" height="16.034" transform="translate(2.951 36.296)"/><path class="m" d="M-451.606,792.979h-27.639l-2.968,5.747h33.574Z" transform="translate(482.213 -740.65)"/><rect class="n" width="21.024" height="8.799" transform="translate(6.276 39.913)"/></g><g transform="translate(0)"><g transform="translate(0 11.454)"><path class="m" d="M-528.127,590.586c3.428-3.027,9.266-1.993,9.514-1.948l-.337,1.833c-.049-.011-5.187-.92-7.944,1.513-1.272,1.123-1.851,2.848-1.721,5.126.3,5.191,5.019,8.415,9.183,11.259,2.9,1.976,5.4,3.683,5.755,5.82l-.251.042a1.936,1.936,0,0,1,.11.953,1.964,1.964,0,0,1-2.22,1.671,1.965,1.965,0,0,1-1.671-2.22,1.958,1.958,0,0,1,1.32-1.581,27.438,27.438,0,0,0-4.094-3.146c-4.3-2.934-9.642-6.584-9.993-12.691C-530.641,594.338-529.85,592.107-528.127,590.586Z" transform="translate(530.497 -588.432)"/><path class="m" d="M-377.543,590.586c-3.429-3.027-9.267-1.993-9.515-1.948l.338,1.833c.049-.011,5.187-.92,7.945,1.513,1.272,1.123,1.851,2.848,1.72,5.126-.3,5.191-5.019,8.415-9.182,11.259-2.9,1.976-5.4,3.683-5.755,5.82l.252.042a1.94,1.94,0,0,0-.111.953,1.965,1.965,0,0,0,2.22,1.671,1.966,1.966,0,0,0,1.672-2.22,1.961,1.961,0,0,0-1.322-1.581,27.49,27.49,0,0,1,4.1-3.146c4.3-2.934,9.642-6.584,9.992-12.691C-375.029,594.338-375.821,592.107-377.543,590.586Z" transform="translate(448.109 -588.432)"/></g><g transform="translate(9.138)"><path class="m" d="M-452.93,563.953h-50.7s-2.2,51.661,25.35,51.661h0C-449.8,615.614-452.93,563.953-452.93,563.953Z" transform="translate(505.402 -562.417)"/><g transform="translate(13.871 14.115)"><path class="o" d="M-447.145,608.21a13.28,13.28,0,0,1-13.28,13.28,13.28,13.28,0,0,1-13.281-13.28,13.281,13.281,0,0,1,13.281-13.282A13.282,13.282,0,0,1-447.145,608.21Z" transform="translate(473.706 -594.928)"/><g transform="translate(7.604 4.052)"><g transform="translate(1.056)"><path class="n" d="M890.51,481.494l1.367-3.4a2.1,2.1,0,0,1,1.549-1.124c.035-.056,2.711-.5,3.771,1.115,0,.009,1.788,4.808,1.788,4.808s.6,1.07-.091,1.58l-3.646,3.705c-.242.2-.661.976-1.394.054,0,.01-3.71-3.727-3.71-3.727a1.367,1.367,0,0,1-.128-1.457C890.024,483.044,890.51,481.494,890.51,481.494Z" transform="translate(-889.888 -476.872)"/></g><g transform="translate(0 12.78)"><path class="n" d="M889.031,491.916l2.825-2.947s.325-.4.576.031l1.853,1.853a.36.36,0,0,0,.639,0l1.853-1.883s.21-.352.546,0l2.856,2.885.121.152s.174.37-.243.243l-2.552-.4a.549.549,0,0,0-.546.183l-.577.546s-.245.209.091.455l1.276,1.367s.268.362-.182.273l-2.491-.425a3.024,3.024,0,0,0-.973,0l-2.521.455s-.333,0-.061-.3l1.276-1.428a.3.3,0,0,0,.043-.421.285.285,0,0,0-.074-.065l-.576-.485s-.15-.255-.577-.122l-2.551.4S888.725,492.217,889.031,491.916Z" transform="translate(-888.903 -488.802)"/></g><g transform="translate(2.514 2.222)"><g transform="translate(0.91 0.5)"><path class="p" d="M892.257,479.413a.76.76,0,0,0,.09,1.026.75.75,0,0,0,1.012-.192Z" transform="translate(-892.099 -479.413)"/><g transform="translate(0.283 0.128)"><path class="n" d="M892.459,479.532a.462.462,0,0,0,.053.622.455.455,0,0,0,.613-.116Z" transform="translate(-892.363 -479.532)"/></g><g transform="translate(3.214 0.009)"><path class="p" d="M896.2,479.421a.759.759,0,0,1-.091,1.024.748.748,0,0,1-1.007-.192Z" transform="translate(-895.099 -479.421)"/></g><g transform="translate(3.408 0.103)"><path class="n" d="M895.945,479.509a.462.462,0,0,1-.054.622.453.453,0,0,1-.612-.117Z" transform="translate(-895.28 -479.509)"/></g></g><path class="p" d="M895.9,481.317a1.092,1.092,0,0,1-.692-.227,1.268,1.268,0,0,1-.307-.292,1.632,1.632,0,0,1-.136-.257h0c-.036-.08-.063-.138-.091-.144-.065-.011-.071-.067-.08-.193,0-.033-.005-.07-.009-.11s-.011-.092-.016-.13c-.016-.121-.025-.187.016-.213a.125.125,0,0,0,.054-.1.106.106,0,0,0-.054-.092.369.369,0,0,0-.182-.04.352.352,0,0,0-.183.039.125.125,0,0,0-.042.172.1.1,0,0,0,.016.021.756.756,0,0,1,.026.343,1.35,1.35,0,0,1-.026.245.079.079,0,0,1-.054.054.131.131,0,0,0-.084.082l-.017.042a1.167,1.167,0,0,1-.475.624,1.523,1.523,0,0,1-.7.127,1.667,1.667,0,0,1-.729-.127,1.44,1.44,0,0,1-.539-.924,2.7,2.7,0,0,1-.024-.4c0-.129,0-.206-.045-.214a.237.237,0,0,0-.054-.005h-.1a.128.128,0,0,1-.1-.032.2.2,0,0,1-.02-.181.109.109,0,0,1,.11-.064h.069l.075,0a.486.486,0,0,0,.213-.038.706.706,0,0,0,.081-.05,1.362,1.362,0,0,1,.7-.234,3.108,3.108,0,0,1,.346-.02,2.652,2.652,0,0,1,.772.107.988.988,0,0,1,.23.127.525.525,0,0,0,.2.107h.015a.625.625,0,0,0,.166-.032.91.91,0,0,1,.151-.032h.019a.619.619,0,0,1,.177.04h0a.713.713,0,0,0,.175.04.112.112,0,0,0,.062-.016l.008-.005a2.185,2.185,0,0,1,.861-.346,1.291,1.291,0,0,1,.213-.017,2.258,2.258,0,0,1,.637.107,2.871,2.871,0,0,1,.454.177.978.978,0,0,0,.39.087.439.439,0,0,1,.139.023.157.157,0,0,1,.066.16c-.011.044-.054.1-.184.1a.142.142,0,0,0-.138.107,1.3,1.3,0,0,0-.054.278h0a2.062,2.062,0,0,1-.195.731,1.061,1.061,0,0,1-.479.5,1.29,1.29,0,0,1-.515.1C895.985,481.316,895.944,481.317,895.9,481.317Zm-.043-2.078a1.338,1.338,0,0,0-.8.243.329.329,0,0,0-.14.261h0v.141a1.381,1.381,0,0,0,.289.887.971.971,0,0,0,.71.265,1.425,1.425,0,0,0,.546-.109.6.6,0,0,0,.243-.211,1.3,1.3,0,0,0,.161-.325,1.628,1.628,0,0,0,.088-.648.347.347,0,0,0-.109-.206.808.808,0,0,0-.235-.147,2.112,2.112,0,0,0-.618-.146C895.954,479.24,895.908,479.238,895.862,479.238Zm-3.046,0a1.337,1.337,0,0,0-.8.243.332.332,0,0,0-.14.261v.144a1.384,1.384,0,0,0,.289.887.98.98,0,0,0,.71.265,1.424,1.424,0,0,0,.546-.111.6.6,0,0,0,.243-.211,1.263,1.263,0,0,0,.161-.325,1.645,1.645,0,0,0,.089-.648.349.349,0,0,0-.11-.206.773.773,0,0,0-.235-.147,2.112,2.112,0,0,0-.618-.146C892.907,479.24,892.862,479.238,892.816,479.238Z" transform="translate(-891.249 -478.946)"/><g transform="translate(1.885 1.017)"><path class="p" d="M893.009,480.989l1.276-1.094,1.245,1.124-1.276,4.1Z" transform="translate(-893.009 -479.895)"/></g><g transform="translate(2.327 2.195)"><path class="n" d="M893.435,481.214a.155.155,0,0,1,.08-.206.158.158,0,0,1,.1-.009s.161.018.273.517C893.89,481.518,893.528,481.435,893.435,481.214Z" transform="translate(-893.421 -480.995)"/></g><g transform="translate(3.374 2.169)"><path class="n" d="M894.845,481.185a.156.156,0,0,0-.179-.213s-.158.017-.268.515C894.4,481.488,894.752,481.4,894.845,481.185Z" transform="translate(-894.399 -480.971)"/></g></g></g></g><path class="n" d="M-453.519,561.7c0,.849-.953,1.537-2.126,1.537h-50.171c-1.175,0-2.127-.688-2.127-1.537h0c0-.848.952-1.536,2.127-1.536h50.171c1.174,0,2.126.688,2.126,1.536Z" transform="translate(507.943 -560.162)"/></g></g></g></g></g><g transform="translate(0 4.744)"><g transform="translate(6.581 8.829)"><path class="q" d="M-776.938,524.091a65.658,65.658,0,0,1-23.113-9.438c-10.7-7.009-23.743-20.5-25.118-44.958l.724-.04c1.359,24.156,14.232,37.473,24.792,44.392a64.858,64.858,0,0,0,22.826,9.328Z" transform="translate(825.169 -469.655)"/></g><g transform="translate(46.392 55.41)"><path class="q" d="M-687.227,623.1s-6.779-.837-6.386-7.189C-693.612,615.913-688,615.78-687.227,623.1Z" transform="translate(695.711 -615.912)"/><path class="q" d="M-700.166,644.3s6.666,1.49,8.429-4.626C-691.737,639.675-696.982,637.664-700.166,644.3Z" transform="translate(700.166 -631.912)"/></g><g transform="translate(38.432 52.566)"><path class="q" d="M-706.94,615.254s-6.5-2.109-4.9-8.271C-711.845,606.983-706.307,607.92-706.94,615.254Z" transform="translate(716.257 -606.983)"/><path class="q" d="M-725.161,636.033s6.262,2.728,9.155-2.941C-716.006,633.091-720.776,630.122-725.161,636.033Z" transform="translate(725.161 -624.268)"/></g><g transform="translate(31.14 49.421)"><path class="q" d="M-727.686,605.8s-6.274-2.7-4.117-8.69C-731.8,597.109-726.375,598.555-727.686,605.8Z" transform="translate(737.287 -597.109)"/><path class="q" d="M-748.056,625.924s5.982,3.3,9.388-2.08C-738.668,623.844-743.141,620.445-748.056,625.924Z" transform="translate(748.056 -614.619)"/></g><g transform="translate(24.037 45.343)"><path class="q" d="M-748.219,593.32s-6.012-3.241-3.337-9.017C-751.556,584.3-746.276,586.221-748.219,593.32Z" transform="translate(758.012 -584.304)"/><path class="q" d="M-770.36,612.568s5.671,3.809,9.535-1.248C-760.825,611.32-764.982,607.54-770.36,612.568Z" transform="translate(770.36 -601.787)"/></g><g transform="translate(17.275 40.352)"><path class="q" d="M-767.034,578.053s-5.455-4.113-1.938-9.418C-768.972,568.635-764.042,571.327-767.034,578.053Z" transform="translate(776.981 -568.635)"/><path class="q" d="M-791.591,595.2s5.03,4.621,9.612.2C-781.979,595.4-785.517,591.039-791.591,595.2Z" transform="translate(791.591 -585.513)"/></g><g transform="translate(11.634 34.739)"><path class="q" d="M-783.052,560.618s-4.689-4.968-.336-9.609C-783.388,551.009-778.978,554.487-783.052,560.618Z" transform="translate(792.903 -551.009)"/><path class="q" d="M-809.3,574.593s4.186,5.4,9.443,1.812C-799.861,576.4-802.62,571.511-809.3,574.593Z" transform="translate(809.304 -566.388)"/></g><g transform="translate(6.915 28.267)"><path class="q" d="M-797.31,540.152s-3.544-5.84,1.687-9.465C-795.623,530.687-792.04,535.013-797.31,540.152Z" transform="translate(806.649 -530.687)"/><path class="q" d="M-824.122,548.966s2.961,6.156,8.854,3.752C-815.268,552.718-816.941,547.354-824.122,548.966Z" transform="translate(824.122 -542.938)"/></g><g transform="translate(2.903 20.537)"><path class="q" d="M-810.18,515.715s-3.059-6.107,2.449-9.3C-807.73,506.418-804.511,511.02-810.18,515.715Z" transform="translate(819.209 -506.418)"/><path class="q" d="M-836.717,522.2s2.453,6.376,8.52,4.458C-828.2,526.661-829.428,521.178-836.717,522.2Z" transform="translate(836.717 -517.089)"/></g><g transform="translate(0.711 13.316)"><path class="q" d="M-817.6,492.82s-2.568-6.329,3.173-9.076C-814.422,483.744-811.574,488.584-817.6,492.82Z" transform="translate(826.267 -483.744)"/><path class="q" d="M-843.6,496.866s1.944,6.549,8.144,5.113C-835.456,501.979-836.252,496.417-843.6,496.866Z" transform="translate(843.6 -492.669)"/></g><g transform="translate(0 6.926)"><path class="q" d="M-821.482,472.216s-1.649-6.629,4.424-8.537C-817.058,463.679-814.924,468.873-821.482,472.216Z" transform="translate(829.377 -463.679)"/><path class="q" d="M-845.833,471.465s1,6.759,7.339,6.214C-838.494,477.679-838.5,472.06-845.833,471.465Z" transform="translate(845.833 -468.985)"/></g><path class="q" d="M-826.707,441.933s4.138,5.435-.683,9.59C-827.389,451.523-831.406,447.6-826.707,441.933Z" transform="translate(834.353 -441.933)"/><g transform="translate(60.296)"><g transform="translate(0 8.829)"><path class="q" d="M-656.4,524.091a65.655,65.655,0,0,0,23.113-9.438c10.7-7.009,23.743-20.5,25.118-44.958l-.724-.04c-1.359,24.156-14.232,37.473-24.792,44.392a64.861,64.861,0,0,1-22.826,9.328Z" transform="translate(656.512 -469.655)"/></g><g transform="translate(0.046 55.41)"><path class="q" d="M-656.368,623.1s6.78-.837,6.386-7.189C-649.982,615.913-655.6,615.78-656.368,623.1Z" transform="translate(656.368 -615.912)"/><path class="q" d="M-647.767,644.3s-6.666,1.49-8.429-4.626C-656.2,639.675-650.951,637.664-647.767,644.3Z" transform="translate(656.251 -631.912)"/></g><g transform="translate(7.123 52.566)"><path class="q" d="M-634.1,615.254s6.5-2.109,4.905-8.271C-629.192,606.983-634.73,607.92-634.1,615.254Z" transform="translate(634.147 -606.983)"/><path class="q" d="M-624.323,636.033s-6.262,2.728-9.155-2.941C-633.478,633.091-628.709,630.122-624.323,636.033Z" transform="translate(633.691 -624.268)"/></g><g transform="translate(13.977 49.421)"><path class="q" d="M-612.422,605.8s6.274-2.7,4.117-8.69C-608.3,597.109-613.733,598.555-612.422,605.8Z" transform="translate(612.626 -597.109)"/><path class="q" d="M-601.927,625.924s-5.982,3.3-9.388-2.08C-611.315,623.844-606.842,620.445-601.927,625.924Z" transform="translate(611.732 -614.619)"/></g><g transform="translate(20.663 45.343)"><path class="q" d="M-591.2,593.32s6.012-3.241,3.337-9.017C-587.866,584.3-593.146,586.221-591.2,593.32Z" transform="translate(591.632 -584.304)"/><path class="q" d="M-579.938,612.568s-5.672,3.809-9.535-1.248C-589.473,611.32-585.315,607.54-579.938,612.568Z" transform="translate(590.161 -601.787)"/></g><g transform="translate(26.737 40.352)"><path class="q" d="M-571.6,578.053s5.455-4.113,1.938-9.418C-569.659,568.635-574.589,571.327-571.6,578.053Z" transform="translate(572.561 -568.635)"/><path class="q" d="M-558.873,595.2s-5.03,4.621-9.613.2C-568.486,595.4-564.947,591.039-558.873,595.2Z" transform="translate(569.784 -585.513)"/></g><g transform="translate(31.71 34.739)"><path class="q" d="M-555.22,560.618s4.689-4.968.336-9.609C-554.884,551.009-559.294,554.487-555.22,560.618Z" transform="translate(556.947 -551.009)"/><path class="q" d="M-540.8,574.593s-4.186,5.4-9.443,1.812C-550.241,576.4-547.481,571.511-540.8,574.593Z" transform="translate(552.377 -566.388)"/></g><g transform="translate(35.793 28.267)"><path class="q" d="M-541.25,540.152s3.543-5.84-1.687-9.465C-542.937,530.687-546.52,535.013-541.25,540.152Z" transform="translate(544.126 -530.687)"/><path class="q" d="M-524.719,548.966s-2.962,6.156-8.854,3.752C-533.573,552.718-531.9,547.354-524.719,548.966Z" transform="translate(536.934 -542.938)"/></g><g transform="translate(39.63 20.537)"><path class="q" d="M-528.717,515.715s3.059-6.107-2.449-9.3C-531.167,506.418-534.386,511.02-528.717,515.715Z" transform="translate(532.077 -506.418)"/><path class="q" d="M-511.409,522.2s-2.453,6.376-8.52,4.458C-519.929,526.661-518.7,521.178-511.409,522.2Z" transform="translate(523.798 -517.089)"/></g><g transform="translate(41.693 13.316)"><path class="q" d="M-521.754,492.82s2.568-6.329-3.173-9.076C-524.927,483.744-527.774,488.584-521.754,492.82Z" transform="translate(525.6 -483.744)"/><path class="q" d="M-503.722,496.866s-1.944,6.549-8.144,5.113C-511.866,501.979-511.07,496.417-503.722,496.866Z" transform="translate(516.24 -492.669)"/></g><g transform="translate(42.273 6.926)"><path class="q" d="M-519.026,472.216s1.649-6.629-4.423-8.537C-523.449,463.679-525.584,468.873-519.026,472.216Z" transform="translate(523.781 -463.679)"/><path class="q" d="M-499.766,471.465s-1,6.759-7.339,6.214C-507.106,477.679-507.1,472.06-499.766,471.465Z" transform="translate(512.417 -468.985)"/></g><path class="q" d="M-511.607,441.933s-4.138,5.435.683,9.59C-510.924,451.523-506.907,447.6-511.607,441.933Z" transform="translate(558.883 -441.933)"/></g><g transform="translate(4.664 53.997)"><g transform="translate(0 25.558)"><path class="r" d="M-822.634,691.726l-8.555,6,11.6,3.411-.682,11.769,13.987-10.588-9.722-10.587Z" transform="translate(831.188 -691.726)"/><path class="s" d="M-775.492,714.657l7.164,1.181-3.92-4.267Z" transform="translate(793.23 -705.25)"/><g transform="translate(83.093)"><path class="r" d="M-553.941,691.726l8.556,6-11.6,3.411.682,11.769-13.985-10.588,9.721-10.587Z" transform="translate(570.287 -691.726)"/><path class="s" d="M-563.124,714.657l-7.163,1.181,3.918-4.267Z" transform="translate(570.287 -705.25)"/></g></g><path class="t" d="M-819.4,632.114s19.272-20.637,51.167-20.637,49.292,20.637,49.292,20.637l-13.986,14.327a50.171,50.171,0,0,0-36.244-15.009,50.17,50.17,0,0,0-36.244,15.009Z" transform="translate(823.158 -611.477)"/></g><g transform="translate(17.328 61.297)"><g transform="translate(0 0)"><path class="h" d="M-788.266,680.132a2.645,2.645,0,0,1-1.422-.166,2.748,2.748,0,0,1-1.16-.911,2.727,2.727,0,0,1-.561-1.366,2.674,2.674,0,0,1,.228-1.416,3.038,3.038,0,0,1,.961-1.178,3.078,3.078,0,0,1,1.1-.547,2.465,2.465,0,0,1,1.143-.024l-.148.877a1.89,1.89,0,0,0-1.532.367,2.021,2.021,0,0,0-.646.795,1.75,1.75,0,0,0-.139.953,1.936,1.936,0,0,0,.395.93,1.937,1.937,0,0,0,.789.632,1.746,1.746,0,0,0,.955.123,2.02,2.02,0,0,0,.94-.407,1.878,1.878,0,0,0,.763-1.382l.889.1a2.465,2.465,0,0,1-.335,1.1,3.1,3.1,0,0,1-.828.919A3.035,3.035,0,0,1-788.266,680.132Z" transform="translate(791.427 -661.706)"/><path class="h" d="M-772.82,669.505a2.655,2.655,0,0,1-1.407-.308,2.73,2.73,0,0,1-1.063-1.019,2.732,2.732,0,0,1-.418-1.412,2.657,2.657,0,0,1,.372-1.391,3.081,3.081,0,0,1,1.085-1.081,3.082,3.082,0,0,1,1.458-.468,2.662,2.662,0,0,1,1.4.305,2.729,2.729,0,0,1,1.065,1.022,2.729,2.729,0,0,1,.419,1.415,2.664,2.664,0,0,1-.374,1.388,3.078,3.078,0,0,1-1.085,1.081A3.079,3.079,0,0,1-772.82,669.505Zm1.7-1.932a1.757,1.757,0,0,0,.227-.933,1.943,1.943,0,0,0-.3-.962,1.947,1.947,0,0,0-.718-.7,1.755,1.755,0,0,0-.933-.226,1.946,1.946,0,0,0-.956.3,1.948,1.948,0,0,0-.7.713,1.754,1.754,0,0,0-.226.933,1.946,1.946,0,0,0,.3.962,1.945,1.945,0,0,0,.718.7,1.757,1.757,0,0,0,.933.226,1.943,1.943,0,0,0,.956-.3A1.944,1.944,0,0,0-771.116,667.573Z" transform="translate(780.714 -654.45)"/><path class="h" d="M-753.625,651.533l2.322,4.874-.745.355-4.261-2.02,1.573,3.3-.9.428-2.323-4.874.745-.355,4.26,2.02-1.573-3.3Z" transform="translate(768.616 -646.076)"/><path class="h" d="M-732.6,647.614l.893-.32.725,2.026a3.016,3.016,0,0,1-.743.807,3.727,3.727,0,0,1-1.015.552,3.083,3.083,0,0,1-1.522.164,2.668,2.668,0,0,1-1.315-.582,2.726,2.726,0,0,1-.837-1.216,2.725,2.725,0,0,1-.125-1.471,2.66,2.66,0,0,1,.65-1.285,3.115,3.115,0,0,1,1.291-.843,3.274,3.274,0,0,1,1.237-.205,2.422,2.422,0,0,1,1.1.3l-.388.794a2.03,2.03,0,0,0-1.61-.079,2.1,2.1,0,0,0-.874.567,1.743,1.743,0,0,0-.427.865,1.932,1.932,0,0,0,.1,1.014,1.9,1.9,0,0,0,.564.83,1.793,1.793,0,0,0,.882.405,2.035,2.035,0,0,0,1.031-.107,2.171,2.171,0,0,0,.952-.636Z" transform="translate(754.05 -641.785)"/><path class="h" d="M-712.9,645.008l-1.452-1.268a2.068,2.068,0,0,1-.2.058l-1.183.294.38,1.527-.973.242-1.3-5.24,2.156-.536a2.991,2.991,0,0,1,1.242-.07,1.774,1.774,0,0,1,.935.451,1.854,1.854,0,0,1,.517.928,1.829,1.829,0,0,1-.035,1.09,1.765,1.765,0,0,1-.669.842l1.634,1.422Zm-1.383-4.059a1.542,1.542,0,0,0-1.033-.029l-1.138.283.519,2.089,1.138-.283a1.525,1.525,0,0,0,.9-.513.979.979,0,0,0,.137-.857A.97.97,0,0,0-714.284,640.948Z" transform="translate(741.134 -638.2)"/><path class="h" d="M-693.775,640.252l-2.673.38-.351,1.312-1.024.146,1.646-5.688.977-.139,3.173,5-1.039.148Zm-.439-.732-1.34-2.193-.669,2.479Z" transform="translate(727.633 -635.669)"/><path class="h" d="M-678.636,635.4l-1.787.089-.042-.847,4.576-.228.042.847-1.787.09.226,4.545-1,.05Z" transform="translate(715.804 -634.408)"/><path class="h" d="M-661.574,639.269a2.448,2.448,0,0,1-.538-1.829l.146-3.044,1,.048-.144,3q-.077,1.588,1.3,1.653t1.44-1.522l.144-3,.987.047-.146,3.043a2.456,2.456,0,0,1-.706,1.769,2.335,2.335,0,0,1-1.768.545A2.35,2.35,0,0,1-661.574,639.269Z" transform="translate(703.299 -634.397)"/><path class="h" d="M-641.6,635.9l.992.145-.659,4.5,2.793.409-.123.84-3.786-.554Z" transform="translate(689.853 -635.42)"/><path class="h" d="M-624.975,644.315l-2.623-.636-.812,1.089-1-.243,3.634-4.675.959.233,1.1,5.821-1.019-.247Zm-.137-.842-.433-2.534-1.538,2.056Z" transform="translate(681.013 -638.113)"/><path class="h" d="M-605.354,644.232l-1.7-.566.268-.805,4.347,1.448-.268.805-1.7-.566-1.438,4.318-.952-.317Z" transform="translate(665.772 -640.165)"/><path class="h" d="M-592.909,649.033l.931.373-2.007,5.012-.931-.373Z" transform="translate(657.501 -644.372)"/><path class="h" d="M-584.709,659.249a2.65,2.65,0,0,1-.5-1.35,2.728,2.728,0,0,1,.282-1.445,2.736,2.736,0,0,1,.961-1.115,2.658,2.658,0,0,1,1.371-.44,3.078,3.078,0,0,1,1.5.328,3.081,3.081,0,0,1,1.182.973,2.669,2.669,0,0,1,.5,1.347,2.729,2.729,0,0,1-.283,1.449,2.728,2.728,0,0,1-.963,1.119,2.671,2.671,0,0,1-1.37.437,3.082,3.082,0,0,1-1.5-.328A3.075,3.075,0,0,1-584.709,659.249Zm2.547.388a1.764,1.764,0,0,0,.907-.314,1.948,1.948,0,0,0,.648-.77,1.947,1.947,0,0,0,.2-.985,1.759,1.759,0,0,0-.314-.907,1.944,1.944,0,0,0-.768-.643,1.947,1.947,0,0,0-.98-.206,1.757,1.757,0,0,0-.907.314,1.945,1.945,0,0,0-.648.77,1.94,1.94,0,0,0-.2.985,1.754,1.754,0,0,0,.314.907,1.943,1.943,0,0,0,.768.643A1.945,1.945,0,0,0-582.162,659.637Z" transform="translate(650.893 -648.367)"/><path class="h" d="M-561.01,665.529l-2.82,4.6-.7-.431-.629-4.673-1.91,3.118-.848-.52,2.82-4.6.7.431.63,4.673,1.91-3.118Z" transform="translate(639.104 -653.906)"/><path class="h" d="M-550.244,680.334a2.511,2.511,0,0,1-.458-.928l.744-.417a2.743,2.743,0,0,0,.4.83,2.957,2.957,0,0,0,.677.711,1.67,1.67,0,0,0,.835.383.584.584,0,0,0,.543-.23.493.493,0,0,0,.1-.405,1.16,1.16,0,0,0-.2-.44q-.153-.22-.441-.57a8.062,8.062,0,0,1-.625-.832,1.639,1.639,0,0,1-.251-.76,1.237,1.237,0,0,1,.286-.841,1.44,1.44,0,0,1,.681-.507,1.642,1.642,0,0,1,.935-.029,2.974,2.974,0,0,1,1.091.544,3.868,3.868,0,0,1,.705.681,2.681,2.681,0,0,1,.449.778l-.719.435a3.132,3.132,0,0,0-.4-.7,2.786,2.786,0,0,0-.535-.534,1.565,1.565,0,0,0-.828-.367.618.618,0,0,0-.55.254.48.48,0,0,0-.093.4,1.181,1.181,0,0,0,.2.437q.153.22.441.57a7.311,7.311,0,0,1,.618.823,1.692,1.692,0,0,1,.254.762,1.209,1.209,0,0,1-.279.831,1.424,1.424,0,0,1-.679.5,1.651,1.651,0,0,1-.936.024,3,3,0,0,1-1.094-.547A4.111,4.111,0,0,1-550.244,680.334Z" transform="translate(627.369 -662.918)"/></g></g></g></g></g></g><g transform="translate(-1218.873 189.627)"><g transform="translate(0 0)"><path class="a" d="M152.061-295.656a2.489,2.489,0,0,1-.966-1.775c-.019-.681.152-1.355.164-2.037a.338.338,0,0,0-.675,0,10.667,10.667,0,0,0-.094,2.672,3.484,3.484,0,0,0,1.093,1.617A.338.338,0,0,0,152.061-295.656Z" transform="translate(-111.998 300.088)"/><path class="b" d="M161.371-229.525c-.089.231-.414.415-.607.545-.24.161-.491.3-.738.454a.338.338,0,0,0,.341.583c.586-.355,1.392-.722,1.655-1.4C162.178-229.751,161.526-229.926,161.371-229.525Z" transform="translate(-117.982 245.806)"/><path class="c" d="M108.223-244.547a1.022,1.022,0,0,0-.228,1.125c.227.425.567.371.944.4-.037.349-.294.718-.331,1.055a.948.948,0,0,0,.279.823c.3.316.776-.162.477-.477-.253-.268.1-.8.176-1.068a1.405,1.405,0,0,0,.045-.718.33.33,0,0,0-.236-.236c-.307-.065-.866.074-.642-.422.129-.286.773-.82,1.08-.53s.794-.178.477-.477C109.579-245.719,108.715-245.17,108.223-244.547Z" transform="translate(-93.384 257.904)"/><path class="a" d="M346.137-280.793l.144.045a.311.311,0,0,0,.206-.011l.034.018c.034.023.038.026.013.009a.616.616,0,0,1,.047.047.342.342,0,0,0,.477,0,.342.342,0,0,0,0-.477.931.931,0,0,0-.922-.281A.341.341,0,0,0,346.137-280.793Z" transform="translate(-237.537 285.895)"/><path class="d" d="M342.629-242.768a9.23,9.23,0,0,1-1.581.565,3.8,3.8,0,0,1,1.481-.976.338.338,0,0,0-.179-.651A3.893,3.893,0,0,0,341-243a2.666,2.666,0,0,0-.908.952.342.342,0,0,0,.2.5,2.925,2.925,0,0,0,1.7-.242,3.794,3.794,0,0,0-.5.572,2.634,2.634,0,0,0-.44,1.318c.017.433.692.435.675,0-.043-1.087,1.347-1.541,1.33-2.538A.34.34,0,0,0,342.629-242.768Z" transform="translate(-233.019 256.726)"/><path class="a" d="M371.844-189.817v-1.65a.338.338,0,0,0-.675,0v1.65A.338.338,0,0,0,371.844-189.817Z" transform="translate(-238.064 212.588)"/><path class="a" d="M381.82-158.511a.7.7,0,0,0-.539.249.347.347,0,0,0,0,.477.34.34,0,0,0,.477,0,.436.436,0,0,1,.043-.048h.019a.342.342,0,0,0,.337-.337A.343.343,0,0,0,381.82-158.511Z" transform="translate(-250.767 190.594)"/><path class="a" d="M97.3-138.547a.74.74,0,0,0-.376-.367,2.434,2.434,0,0,0-.591-.133,4.627,4.627,0,0,0-.786-.131.338.338,0,0,0,0,.675,6.216,6.216,0,0,1,.8.137c.182.028.406.018.37.257-.043.288.326.625.564.328a3.2,3.2,0,0,0,.211-.29A.315.315,0,0,0,97.3-138.547Z" transform="translate(-83.555 175.61)"/><path class="a" d="M155.576-171.739l-.3.3a.343.343,0,0,0,0,.477.342.342,0,0,0,.477,0l.3-.3a.343.343,0,0,0,0-.477A.342.342,0,0,0,155.576-171.739Z" transform="translate(-115.178 200.921)"/><path class="a" d="M417.167-284.537a2.77,2.77,0,0,0-1.827,1.55c-.237.793.591,1.206,1.227,1.351.423.1.6-.555.18-.651a1.686,1.686,0,0,1-.585-.209c-.253-.174-.184-.34-.024-.571a2.449,2.449,0,0,1,1.208-.818C417.749-284.037,417.575-284.69,417.167-284.537Z" transform="translate(-277.205 288.282)"/><path class="a" d="M429.176-248.457a.341.341,0,0,0-.462.121l-.15.3a.346.346,0,0,0,.121.462.341.341,0,0,0,.462-.121l.15-.3A.346.346,0,0,0,429.176-248.457Z" transform="translate(-287.454 260.337)"/><path class="a" d="M417.546-158.511a.338.338,0,0,0,0,.675A.338.338,0,0,0,417.546-158.511Z" transform="translate(-278.694 190.594)"/><path class="a" d="M402.264-96.916c-.05.281-.065.567-.105.849a1.366,1.366,0,0,1-.258.8c-.325.289.154.765.477.477.512-.455.428-1.336.537-1.949C402.991-97.162,402.34-97.344,402.264-96.916Z" transform="translate(-257.238 143.427)"/><path class="e" d="M402.264-94.943c-.05-.281-.065-.567-.105-.849a1.366,1.366,0,0,0-.258-.8c-.325-.289.154-.765.477-.477.512.455.428,1.336.537,1.949C402.991-94.7,402.34-94.515,402.264-94.943Z" transform="translate(-299.477 125.486)"/><path class="a" d="M345.881-111.318l.01,0-.007-.006h0Z" transform="translate(-238.068 154.021)"/><path class="b" d="M343.774-114.651c-.1-.028-.207-.067-.311-.09a.164.164,0,0,1-.052-.024c.053.053-.157.048-.01,0a.365.365,0,0,0-.059-.034.267.267,0,0,1,.062.033,2.913,2.913,0,0,0,.3-.217,3.126,3.126,0,0,1,.347-.172c.4-.17.055-.751-.341-.583-.453.193-1.305.683-.937,1.292a1.148,1.148,0,0,0,.724.425c.246.069.536.067.5.374-.055.43.62.425.675,0C344.743-114.251,344.275-114.513,343.774-114.651Z" transform="translate(-211.426 157.852)"/><path class="d" d="M343.774-114.455c-.1.028-.207.067-.311.09a.165.165,0,0,0-.052.024c.053-.053-.157-.048-.01,0a.364.364,0,0,1-.059.034.267.267,0,0,0,.062-.033,2.911,2.911,0,0,1,.3.217,3.128,3.128,0,0,0,.347.172c.4.17.055.751-.341.583-.453-.193-1.305-.683-.937-1.292a1.148,1.148,0,0,1,.724-.425c.246-.069.536-.067.5-.374-.055-.43.62-.425.675,0C344.743-114.855,344.275-114.593,343.774-114.455Z" transform="translate(-281.87 128.168)"/><path class="a" d="M133.025-62.389c-.182.167-.587.056-.811.051a.338.338,0,0,0,0,.675,1.662,1.662,0,0,0,1.289-.249C133.823-62.206,133.344-62.683,133.025-62.389Z" transform="translate(-100.123 116.17)"/><path class="a" d="M206.754-191.844a.341.341,0,0,0-.236.415.338.338,0,0,0,.383.237l.011,0-.009-.005h0l.026.013a.659.659,0,0,1,.141.1c.1.082.187.173.285.254a.348.348,0,0,0,.477,0,.34.34,0,0,0,0-.477C207.511-191.568,207.217-191.939,206.754-191.844Z" transform="translate(-148.036 216.439)"/><path class="a" d="M220.563-300.856a.342.342,0,0,0-.326-.248,1.475,1.475,0,0,0-.9.328.348.348,0,0,0-.121.462.34.34,0,0,0,.462.121,1.543,1.543,0,0,1,.306-.18c.016-.007.028-.009.042-.014a.367.367,0,0,0,.322.078.346.346,0,0,0,.236-.415Z" transform="translate(-156.163 301.105)"/><path class="e" d="M46.513-284.136c-.423-.015-.81.161-1.236.156a2.9,2.9,0,0,1-1.392-.2c-.327-.174-.7.26-.409.53l.1.091a.322.322,0,0,0,.261.09,3.141,3.141,0,0,0,1.07.158,5.7,5.7,0,0,0,.84-.012,4.382,4.382,0,0,1,.767-.137C46.948-283.446,46.947-284.121,46.513-284.136Z" transform="translate(-43.371 288.02)"/><path class="a" d="M46-185.175c-.534.363-1.24.614-1.5,1.252a.34.34,0,0,0,.236.415.346.346,0,0,0,.415-.236c.082-.2.371-.346.54-.451.216-.135.443-.253.655-.4C46.7-184.835,46.359-185.42,46-185.175Z" transform="translate(-44.227 211.304)"/><path class="a" d="M63.463-78.222c-.443-.06-.827-.367-1.29-.312a.348.348,0,0,0-.337.337.339.339,0,0,0,.337.337c.386-.046.734.237,1.11.288a.35.35,0,0,0,.415-.236A.34.34,0,0,0,63.463-78.222Z" transform="translate(-57.681 128.616)"/><path class="a" d="M369.841-35.856c-.493.066-.75.442-1.073.779a3.049,3.049,0,0,0-.715,1.047c-.361.119-.18.713.228.637l.122-.023a.334.334,0,0,0,.236-.236,1.979,1.979,0,0,1,.544-.884c.154-.158.428-.614.659-.645C370.266-35.238,370.271-35.914,369.841-35.856Z" transform="translate(-347.273 65.247)"/><path class="a" d="M369.841-35.856c-.493.066-.75.442-1.073.779a3.049,3.049,0,0,0-.715,1.047c-.361.119-.18.713.228.637l.122-.023a.334.334,0,0,0,.236-.236,1.979,1.979,0,0,1,.544-.884c.154-.158.428-.614.659-.645C370.266-35.238,370.271-35.914,369.841-35.856Z" transform="translate(-295.364 62.134)"/><path class="a" d="M1.982,0C1.489.07,1.232.446.91.783A3.049,3.049,0,0,0,.194,1.83c-.361.119-.18.713.228.637l.122-.023A.334.334,0,0,0,.78,2.208a1.979,1.979,0,0,1,.544-.884c.154-.158.428-.614.659-.645C2.406.622,2.412-.054,1.982,0Z" transform="matrix(0.259, 0.966, -0.966, 0.259, 90.573, 23.589)"/><path class="a" d="M369.842-33.39c-.493-.066-.75-.442-1.073-.779a3.049,3.049,0,0,1-.715-1.047c-.361-.119-.18-.713.228-.637l.122.023a.334.334,0,0,1,.236.236,1.979,1.979,0,0,0,.544.884c.154.158.428.614.659.645C370.266-34.008,370.271-33.332,369.842-33.39Z" transform="translate(-289.409 51.901)"/><path class="a" d="M380.285,12.518l-.6-.3a.346.346,0,0,0-.462.121.341.341,0,0,0,.121.462l.6.3a.346.346,0,0,0,.462-.121A.341.341,0,0,0,380.285,12.518Z" transform="translate(-249.212 58.31)"/><path class="a" d="M380.285,12.8l-.6.3a.346.346,0,0,1-.462-.121.341.341,0,0,1,.121-.462l.6-.3a.346.346,0,0,1,.462.121A.341.341,0,0,1,380.285,12.8Z" transform="translate(-297.004 -5.436)"/><path class="d" d="M417.65-44.993a9.927,9.927,0,0,1-1,1.282c-.277.331.2.811.477.477a11.013,11.013,0,0,0,1.1-1.418A.338.338,0,0,0,417.65-44.993Z" transform="translate(-278.189 102.742)"/><path class="a" d="M417.65-43.283a9.931,9.931,0,0,0-1-1.282c-.277-.331.2-.811.477-.477a11.007,11.007,0,0,1,1.1,1.418A.338.338,0,0,1,417.65-43.283Z" transform="translate(-320.828 63.727)"/><path class="a" d="M454.029-174.411c-.354.351-.252.841-.249,1.289a.338.338,0,0,0,.675,0c0-.217-.12-.642.051-.811A.338.338,0,0,0,454.029-174.411Z" transform="translate(-307.015 202.993)"/><path class="a" d="M60.9,7.489h-1.35a.338.338,0,0,0,0,.675H60.9A.338.338,0,0,0,60.9,7.489Z" transform="translate(-55.654 61.943)"/><path class="f" d="M109.605,1.866c.005,1.162.224,2.381-.4,3.43a.338.338,0,0,0,.583.341c.7-1.167.5-2.472.5-3.77A.338.338,0,0,0,109.605,1.866Z" transform="translate(-94.351 66.553)"/><path class="a" d="M105.546,53.489a.338.338,0,0,0,0,.675A.338.338,0,0,0,105.546,53.489Z" transform="translate(-91.305 26.293)"/></g></g></g></g></svg>