<svg xmlns="http://www.w3.org/2000/svg" width="27.679" height="27.679" viewBox="0 0 27.679 27.679">
  <g id="noun_gamepad_454697" transform="translate(-5.914 -4.41)">
    <g id="Group_3862" data-name="Group 3862" transform="translate(6.014 4.51)">
      <g id="Group_3861" data-name="Group 3861">
        <path id="Path_24406" data-name="Path 24406" d="M19.753,4.511a3.421,3.421,0,0,0-.429,6.816v1.342a.446.446,0,0,0,.429.429h1.717a.787.787,0,0,1,.644.242.892.892,0,0,1,.215.59.966.966,0,0,1-.215.617.787.787,0,0,1-.644.242H18.036a1.689,1.689,0,0,0-1.717,1.717,1.784,1.784,0,0,0,.429,1.181,1.7,1.7,0,0,0,1.288.537h1.288v.832H12.776a.4.4,0,0,0-.134.027c-.064,0-.123-.025-.188-.027h-.027a6.638,6.638,0,0,0-6.413,6.467,6.638,6.638,0,0,0,6.413,6.467,6.511,6.511,0,0,0,5.9-4.025h2.844a6.517,6.517,0,0,0,5.9,4.025,6.638,6.638,0,0,0,6.413-6.467,6.638,6.638,0,0,0-6.413-6.467c-.06,0-.128.024-.188.027h-.054a.418.418,0,0,0-.107-.027H20.183V17.794a.446.446,0,0,0-.429-.429H18.036a.8.8,0,0,1-.644-.268.919.919,0,0,1,0-1.181.8.8,0,0,1,.644-.268h3.435a1.7,1.7,0,0,0,1.288-.537,1.784,1.784,0,0,0,.429-1.181,1.648,1.648,0,0,0-1.717-1.691H20.183v-.912a3.421,3.421,0,0,0-.429-6.816Zm0,.859a2.577,2.577,0,0,1,.107,5.152h-.215a2.577,2.577,0,0,1,.107-5.152Zm.993,1.261L19.324,8.053l-.563-.564-.59.59.859.859.3.322.3-.322,1.717-1.717ZM12.428,19.914c.1,0,.192.018.3.027a.4.4,0,0,0,.134-.027h13.82a.421.421,0,0,0,.107.027c.1-.009.192-.026.3-.027a5.849,5.849,0,0,1,5.555,5.608,5.849,5.849,0,0,1-5.555,5.608,5.735,5.735,0,0,1-5.233-3.73.441.441,0,0,0-.4-.3H18.063a.438.438,0,0,0-.4.3,5.74,5.74,0,0,1-5.233,3.73,5.849,5.849,0,0,1-5.555-5.608A5.849,5.849,0,0,1,12.428,19.914Zm14.678,1.422a1.5,1.5,0,1,0,1.5,1.5A1.509,1.509,0,0,0,27.106,21.336Zm0,.859a.644.644,0,1,1-.644.644A.638.638,0,0,1,27.106,22.195Zm-15,.188a.3.3,0,0,0-.107.027.442.442,0,0,0-.322.429v2.254H9.4a.43.43,0,0,0,.054.859h2.227v2.254a.429.429,0,1,0,.859,0V25.951h2.227a.429.429,0,1,0,0-.859H12.535V22.839A.447.447,0,0,0,12.106,22.382ZM17.848,23.8a.44.44,0,1,0,.188.859h.859a.429.429,0,1,0,0-.859Zm2.576,0a.44.44,0,1,0,.188.859h.859a.429.429,0,1,0,0-.859Zm4.025.215a1.5,1.5,0,1,0,1.5,1.5A1.509,1.509,0,0,0,24.449,24.019Zm5.313,0a1.5,1.5,0,1,0,1.5,1.5A1.509,1.509,0,0,0,29.763,24.019Zm-5.313.859a.644.644,0,1,1-.644.644A.638.638,0,0,1,24.449,24.878Zm5.313,0a.644.644,0,1,1-.644.644A.638.638,0,0,1,29.763,24.878ZM27.106,26.7a1.5,1.5,0,1,0,1.5,1.5A1.509,1.509,0,0,0,27.106,26.7Zm0,.859a.644.644,0,1,1-.644.644A.638.638,0,0,1,27.106,27.561Z" transform="translate(-6.014 -4.511)" fill="#a8a8a8" stroke="#a8a8a8" stroke-width="0.2"/>
      </g>
    </g>
  </g>
</svg>
