<svg xmlns="http://www.w3.org/2000/svg" width="51" height="64" viewBox="0 0 51 64"><defs><style>.a{fill:#fbbb00;}.b{fill:#518ef8;}.c{fill:#28b446;}.d{fill:#f14336;}.e{fill:#4d4e50;font-size:14px;font-family:Poppins-Bold, Poppins;font-weight:700;}</style></defs><g transform="translate(-108 -261)"><g transform="translate(113 261)"><path class="a" d="M8.71,151.405l-1.368,5.107-5,.106a19.686,19.686,0,0,1-.145-18.35h0l4.452.816,1.95,4.425a11.728,11.728,0,0,0,.11,7.9Z" transform="translate(0 -127.654)"/><path class="b" d="M280.5,208.176a19.644,19.644,0,0,1-7.005,19h0l-5.607-.286-.794-4.954a11.712,11.712,0,0,0,5.039-5.981H261.628v-7.774H280.5Z" transform="translate(-241.545 -192.196)"/><path class="c" d="M60.12,320.633h0a19.658,19.658,0,0,1-29.612-6.012l6.368-5.213a11.687,11.687,0,0,0,16.842,5.984Z" transform="translate(-28.167 -285.658)"/><path class="d" d="M58.622,4.524,52.255,9.736a11.686,11.686,0,0,0-17.228,6.119l-6.4-5.241h0a19.656,19.656,0,0,1,30-6.09Z" transform="translate(-26.427)"/></g><text class="e" transform="translate(108 320)"><tspan x="0" y="0">Google</tspan></text></g></svg>