<svg xmlns="http://www.w3.org/2000/svg" width="23" height="23" viewBox="0 0 23 23"><defs><style>.a{fill:#1f46b8;}.b{fill:#fff;}</style></defs><g transform="translate(0 -0.003)"><path class="a" d="M23,11.5A11.5,11.5,0,1,0,11.5,23,11.5,11.5,0,0,0,23,11.5Z" transform="translate(0 0)"/><g transform="translate(8.09 3.205)"><path class="b" d="M181.035,166.8a.232.232,0,0,0-.291-.079,27.056,27.056,0,0,1-2.687,1.16.227.227,0,0,1-.03-.034.3.3,0,0,1-.051-.186,34.275,34.275,0,0,1,1.446-5.828,20.266,20.266,0,0,0,.9-3.454.879.879,0,0,0-.318-.7,1.26,1.26,0,0,0-.821-.246,4.3,4.3,0,0,0-2.046.67,11,11,0,0,0-2.568,2.2.232.232,0,0,0,.259.37c.326-.133,1.966-.8,2.2-.955a1,1,0,0,1,.5-.185h.013a.244.244,0,0,1,0,.043,1.75,1.75,0,0,1-.086.5c-1.4,4.526-2.076,7.3-2.076,8.483a1.411,1.411,0,0,0,.345,1,1.221,1.221,0,0,0,.934.377,3.258,3.258,0,0,0,1.533-.526,17.872,17.872,0,0,0,2.8-2.3A.232.232,0,0,0,181.035,166.8Z" transform="translate(-174.511 -153.339)"/><path class="b" d="M263.889,69.427a1.168,1.168,0,0,0-.868-.352,1.477,1.477,0,0,0-1.121.509,1.73,1.73,0,0,0-.461,1.211,1.28,1.28,0,0,0,.339.917,1.139,1.139,0,0,0,.856.361,1.481,1.481,0,0,0,1.115-.537,1.77,1.77,0,0,0,.48-1.223A1.221,1.221,0,0,0,263.889,69.427Z" transform="translate(-257.409 -69.075)"/></g></g></svg>