<svg xmlns="http://www.w3.org/2000/svg" width="147.591" height="155.557" viewBox="0 0 147.591 155.557"><defs><style>.a{fill:#2648aa;}.b{fill:#3f67db;}.c{fill:#a9bbed;}.d{fill:#ff6156;}.e{fill:#37d870;}.f{fill:#3c4bbf;}.g{fill:#e5e3da;}.h{fill:#f9f7ed;}.i,.k{fill:#b2b1b1;}.j{fill:#d3d3d3;}.j,.k{stroke:#848383;}.l,.m{fill:#848383;}.m{opacity:0.196;}.n{fill:#c4c4c4;}.o{fill:#b2b0b0;}.p{fill:#6a6a6a;}</style></defs><g transform="translate(1218.873 -189.627)"><g transform="translate(-1307.873 86.816)"><g transform="translate(89 102.812)"><g transform="translate(0 0)"><path class="a" d="M152.061-295.656a2.489,2.489,0,0,1-.966-1.775c-.019-.681.152-1.355.164-2.037a.338.338,0,0,0-.675,0,10.667,10.667,0,0,0-.094,2.672,3.484,3.484,0,0,0,1.093,1.617A.338.338,0,0,0,152.061-295.656Z" transform="translate(-111.998 300.088)"/><path class="b" d="M161.371-229.525c-.089.231-.414.415-.607.545-.24.161-.491.3-.738.454a.338.338,0,0,0,.341.583c.586-.355,1.392-.722,1.655-1.4C162.178-229.751,161.526-229.926,161.371-229.525Z" transform="translate(-117.982 245.806)"/><path class="c" d="M108.223-244.547a1.022,1.022,0,0,0-.228,1.125c.227.425.567.371.944.4-.037.349-.294.718-.331,1.055a.948.948,0,0,0,.279.823c.3.316.776-.162.477-.477-.253-.268.1-.8.176-1.068a1.405,1.405,0,0,0,.045-.718.33.33,0,0,0-.236-.236c-.307-.065-.866.074-.642-.422.129-.286.773-.82,1.08-.53s.794-.178.477-.477C109.579-245.719,108.715-245.17,108.223-244.547Z" transform="translate(-93.384 257.904)"/><path class="a" d="M346.137-280.793l.144.045a.311.311,0,0,0,.206-.011l.034.018c.034.023.038.026.013.009a.616.616,0,0,1,.047.047.342.342,0,0,0,.477,0,.342.342,0,0,0,0-.477.931.931,0,0,0-.922-.281A.341.341,0,0,0,346.137-280.793Z" transform="translate(-237.537 285.895)"/><path class="d" d="M342.629-242.768a9.23,9.23,0,0,1-1.581.565,3.8,3.8,0,0,1,1.481-.976.338.338,0,0,0-.179-.651A3.893,3.893,0,0,0,341-243a2.666,2.666,0,0,0-.908.952.342.342,0,0,0,.2.5,2.925,2.925,0,0,0,1.7-.242,3.794,3.794,0,0,0-.5.572,2.634,2.634,0,0,0-.44,1.318c.017.433.692.435.675,0-.043-1.087,1.347-1.541,1.33-2.538A.34.34,0,0,0,342.629-242.768Z" transform="translate(-233.019 256.726)"/><path class="a" d="M371.844-189.817v-1.65a.338.338,0,0,0-.675,0v1.65A.338.338,0,0,0,371.844-189.817Z" transform="translate(-238.064 212.588)"/><path class="a" d="M381.82-158.511a.7.7,0,0,0-.539.249.347.347,0,0,0,0,.477.34.34,0,0,0,.477,0,.436.436,0,0,1,.043-.048h.019a.342.342,0,0,0,.337-.337A.343.343,0,0,0,381.82-158.511Z" transform="translate(-250.767 190.594)"/><path class="a" d="M97.3-138.547a.74.74,0,0,0-.376-.367,2.434,2.434,0,0,0-.591-.133,4.627,4.627,0,0,0-.786-.131.338.338,0,0,0,0,.675,6.216,6.216,0,0,1,.8.137c.182.028.406.018.37.257-.043.288.326.625.564.328a3.2,3.2,0,0,0,.211-.29A.315.315,0,0,0,97.3-138.547Z" transform="translate(-83.555 175.61)"/><path class="a" d="M155.576-171.739l-.3.3a.343.343,0,0,0,0,.477.342.342,0,0,0,.477,0l.3-.3a.343.343,0,0,0,0-.477A.342.342,0,0,0,155.576-171.739Z" transform="translate(-115.178 200.921)"/><path class="a" d="M417.167-284.537a2.77,2.77,0,0,0-1.827,1.55c-.237.793.591,1.206,1.227,1.351.423.1.6-.555.18-.651a1.686,1.686,0,0,1-.585-.209c-.253-.174-.184-.34-.024-.571a2.449,2.449,0,0,1,1.208-.818C417.749-284.037,417.575-284.69,417.167-284.537Z" transform="translate(-277.205 288.282)"/><path class="a" d="M429.176-248.457a.341.341,0,0,0-.462.121l-.15.3a.346.346,0,0,0,.121.462.341.341,0,0,0,.462-.121l.15-.3A.346.346,0,0,0,429.176-248.457Z" transform="translate(-287.454 260.337)"/><path class="a" d="M417.546-158.511a.338.338,0,0,0,0,.675A.338.338,0,0,0,417.546-158.511Z" transform="translate(-278.694 190.594)"/><path class="a" d="M402.264-96.916c-.05.281-.065.567-.105.849a1.366,1.366,0,0,1-.258.8c-.325.289.154.765.477.477.512-.455.428-1.336.537-1.949C402.991-97.162,402.34-97.344,402.264-96.916Z" transform="translate(-257.238 143.427)"/><path class="e" d="M402.264-94.943c-.05-.281-.065-.567-.105-.849a1.366,1.366,0,0,0-.258-.8c-.325-.289.154-.765.477-.477.512.455.428,1.336.537,1.949C402.991-94.7,402.34-94.515,402.264-94.943Z" transform="translate(-299.477 125.486)"/><path class="a" d="M345.881-111.318l.01,0-.007-.006h0Z" transform="translate(-238.068 154.021)"/><path class="b" d="M343.774-114.651c-.1-.028-.207-.067-.311-.09a.164.164,0,0,1-.052-.024c.053.053-.157.048-.01,0a.365.365,0,0,0-.059-.034.267.267,0,0,1,.062.033,2.913,2.913,0,0,0,.3-.217,3.126,3.126,0,0,1,.347-.172c.4-.17.055-.751-.341-.583-.453.193-1.305.683-.937,1.292a1.148,1.148,0,0,0,.724.425c.246.069.536.067.5.374-.055.43.62.425.675,0C344.743-114.251,344.275-114.513,343.774-114.651Z" transform="translate(-211.426 157.852)"/><path class="d" d="M343.774-114.455c-.1.028-.207.067-.311.09a.165.165,0,0,0-.052.024c.053-.053-.157-.048-.01,0a.364.364,0,0,1-.059.034.267.267,0,0,0,.062-.033,2.911,2.911,0,0,1,.3.217,3.128,3.128,0,0,0,.347.172c.4.17.055.751-.341.583-.453-.193-1.305-.683-.937-1.292a1.148,1.148,0,0,1,.724-.425c.246-.069.536-.067.5-.374-.055-.43.62-.425.675,0C344.743-114.855,344.275-114.593,343.774-114.455Z" transform="translate(-281.87 128.168)"/><path class="a" d="M133.025-62.389c-.182.167-.587.056-.811.051a.338.338,0,0,0,0,.675,1.662,1.662,0,0,0,1.289-.249C133.823-62.206,133.344-62.683,133.025-62.389Z" transform="translate(-100.123 116.17)"/><path class="a" d="M206.754-191.844a.341.341,0,0,0-.236.415.338.338,0,0,0,.383.237l.011,0-.009-.005h0l.026.013a.659.659,0,0,1,.141.1c.1.082.187.173.285.254a.348.348,0,0,0,.477,0,.34.34,0,0,0,0-.477C207.511-191.568,207.217-191.939,206.754-191.844Z" transform="translate(-148.036 216.439)"/><path class="a" d="M220.563-300.856a.342.342,0,0,0-.326-.248,1.475,1.475,0,0,0-.9.328.348.348,0,0,0-.121.462.34.34,0,0,0,.462.121,1.543,1.543,0,0,1,.306-.18c.016-.007.028-.009.042-.014a.367.367,0,0,0,.322.078.346.346,0,0,0,.236-.415Z" transform="translate(-156.163 301.105)"/><path class="e" d="M46.513-284.136c-.423-.015-.81.161-1.236.156a2.9,2.9,0,0,1-1.392-.2c-.327-.174-.7.26-.409.53l.1.091a.322.322,0,0,0,.261.09,3.141,3.141,0,0,0,1.07.158,5.7,5.7,0,0,0,.84-.012,4.382,4.382,0,0,1,.767-.137C46.948-283.446,46.947-284.121,46.513-284.136Z" transform="translate(-43.371 288.02)"/><path class="a" d="M46-185.175c-.534.363-1.24.614-1.5,1.252a.34.34,0,0,0,.236.415.346.346,0,0,0,.415-.236c.082-.2.371-.346.54-.451.216-.135.443-.253.655-.4C46.7-184.835,46.359-185.42,46-185.175Z" transform="translate(-44.227 211.304)"/><path class="a" d="M63.463-78.222c-.443-.06-.827-.367-1.29-.312a.348.348,0,0,0-.337.337.339.339,0,0,0,.337.337c.386-.046.734.237,1.11.288a.35.35,0,0,0,.415-.236A.34.34,0,0,0,63.463-78.222Z" transform="translate(-57.681 128.616)"/><path class="a" d="M369.841-35.856c-.493.066-.75.442-1.073.779a3.049,3.049,0,0,0-.715,1.047c-.361.119-.18.713.228.637l.122-.023a.334.334,0,0,0,.236-.236,1.979,1.979,0,0,1,.544-.884c.154-.158.428-.614.659-.645C370.266-35.238,370.271-35.914,369.841-35.856Z" transform="translate(-347.273 65.247)"/><path class="a" d="M369.841-35.856c-.493.066-.75.442-1.073.779a3.049,3.049,0,0,0-.715,1.047c-.361.119-.18.713.228.637l.122-.023a.334.334,0,0,0,.236-.236,1.979,1.979,0,0,1,.544-.884c.154-.158.428-.614.659-.645C370.266-35.238,370.271-35.914,369.841-35.856Z" transform="translate(-295.364 62.134)"/><path class="a" d="M1.982,0C1.489.07,1.232.446.91.783A3.049,3.049,0,0,0,.194,1.83c-.361.119-.18.713.228.637l.122-.023A.334.334,0,0,0,.78,2.208a1.979,1.979,0,0,1,.544-.884c.154-.158.428-.614.659-.645C2.406.622,2.412-.054,1.982,0Z" transform="matrix(0.259, 0.966, -0.966, 0.259, 90.573, 23.589)"/><path class="a" d="M369.842-33.39c-.493-.066-.75-.442-1.073-.779a3.049,3.049,0,0,1-.715-1.047c-.361-.119-.18-.713.228-.637l.122.023a.334.334,0,0,1,.236.236,1.979,1.979,0,0,0,.544.884c.154.158.428.614.659.645C370.266-34.008,370.271-33.332,369.842-33.39Z" transform="translate(-289.409 51.901)"/><path class="a" d="M380.285,12.518l-.6-.3a.346.346,0,0,0-.462.121.341.341,0,0,0,.121.462l.6.3a.346.346,0,0,0,.462-.121A.341.341,0,0,0,380.285,12.518Z" transform="translate(-249.212 58.31)"/><path class="a" d="M380.285,12.8l-.6.3a.346.346,0,0,1-.462-.121.341.341,0,0,1,.121-.462l.6-.3a.346.346,0,0,1,.462.121A.341.341,0,0,1,380.285,12.8Z" transform="translate(-297.004 -5.436)"/><path class="d" d="M417.65-44.993a9.927,9.927,0,0,1-1,1.282c-.277.331.2.811.477.477a11.013,11.013,0,0,0,1.1-1.418A.338.338,0,0,0,417.65-44.993Z" transform="translate(-278.189 102.742)"/><path class="a" d="M417.65-43.283a9.931,9.931,0,0,0-1-1.282c-.277-.331.2-.811.477-.477a11.007,11.007,0,0,1,1.1,1.418A.338.338,0,0,1,417.65-43.283Z" transform="translate(-320.828 63.727)"/><path class="a" d="M454.029-174.411c-.354.351-.252.841-.249,1.289a.338.338,0,0,0,.675,0c0-.217-.12-.642.051-.811A.338.338,0,0,0,454.029-174.411Z" transform="translate(-307.015 202.993)"/><path class="a" d="M60.9,7.489h-1.35a.338.338,0,0,0,0,.675H60.9A.338.338,0,0,0,60.9,7.489Z" transform="translate(-55.654 61.943)"/><path class="f" d="M109.605,1.866c.005,1.162.224,2.381-.4,3.43a.338.338,0,0,0,.583.341c.7-1.167.5-2.472.5-3.77A.338.338,0,0,0,109.605,1.866Z" transform="translate(-94.351 66.553)"/><path class="a" d="M105.546,53.489a.338.338,0,0,0,0,.675A.338.338,0,0,0,105.546,53.489Z" transform="translate(-91.305 26.293)"/></g></g><g transform="translate(12.577 -9.421)"><g transform="translate(92.023 145.692)"><g transform="translate(4.574 0)"><g transform="translate(0 0)"><g transform="translate(0 91.74)"><g transform="translate(0 0)"><g transform="translate(0.141)"><path class="g" d="M-576.208,807.85v14.1c0,4.49,24.917,8.129,55.652,8.129s55.652-3.639,55.652-8.129v-14.1Z" transform="translate(576.208 -799.72)"/><path class="h" d="M-464.9,795.816c0,4.489-24.916,8.13-55.652,8.13s-55.652-3.641-55.652-8.13,24.917-8.13,55.652-8.13S-464.9,791.326-464.9,795.816Z" transform="translate(576.208 -787.686)"/></g><g transform="translate(0 7.918)"><path class="i" d="M-520.764,816.465c-20.3,0-35.5-1.041-45.177-3.093-5.957-1.264-9.433-2.564-10.476-4.406a2.581,2.581,0,0,1,.018-1.64c.015-.138,2.995,7.54,55.634,7.54s55.631-7.592,55.645-7.455a1.753,1.753,0,0,1,0,1.351c-1.043,1.842-4.509,3.347-10.467,4.612C-485.264,815.424-500.463,816.465-520.764,816.465Z" transform="translate(576.557 -807.323)"/></g><g transform="translate(0 21.218)"><path class="i" d="M-520.764,849.449c-20.3,0-35.5-1.04-45.177-3.093-5.957-1.263-9.433-2.565-10.476-4.406a2.58,2.58,0,0,1,.018-1.64c.015-.139,2.995,7.539,55.634,7.539s55.631-7.593,55.645-7.455a1.754,1.754,0,0,1,0,1.351c-1.043,1.842-4.509,3.348-10.467,4.612C-485.264,848.409-500.463,849.449-520.764,849.449Z" transform="translate(576.557 -840.308)"/></g></g></g><g transform="translate(18.572)"><g transform="translate(19.468 41.797)"><path class="j" d="M-445.161,674.171a6.479,6.479,0,0,0,1.252-3.831,6.518,6.518,0,0,0-6.518-6.518,6.518,6.518,0,0,0-6.518,6.518,6.481,6.481,0,0,0,1.252,3.831h0a29.392,29.392,0,0,1,0,25.772h10.532a29.4,29.4,0,0,1,0-25.772Z" transform="translate(467.133 -663.822)"/><rect class="k" width="27.54" height="15.957" transform="translate(2.937 36.121)"/><path class="j" d="M-451.754,792.979H-479.26l-2.954,5.719H-448.8Z" transform="translate(482.213 -740.902)"/><rect class="l" width="20.923" height="8.756" transform="translate(6.245 39.721)"/></g><g transform="translate(0)"><g transform="translate(0 11.399)"><path class="k" d="M-528.138,590.575c3.412-3.013,9.221-1.983,9.468-1.939l-.335,1.824c-.049-.01-5.162-.916-7.906,1.506-1.266,1.118-1.842,2.834-1.713,5.1.3,5.166,4.995,8.374,9.138,11.2,2.881,1.967,5.369,3.665,5.728,5.792l-.25.041a1.926,1.926,0,0,1,.11.948,1.955,1.955,0,0,1-2.209,1.663,1.955,1.955,0,0,1-1.663-2.209,1.949,1.949,0,0,1,1.314-1.573,27.3,27.3,0,0,0-4.075-3.131c-4.275-2.919-9.6-6.552-9.945-12.63C-530.64,594.31-529.853,592.09-528.138,590.575Z" transform="translate(530.497 -588.432)"/><path class="k" d="M-377.613,590.575c-3.413-3.013-9.222-1.983-9.469-1.939l.336,1.824c.049-.01,5.162-.916,7.906,1.506,1.266,1.118,1.842,2.834,1.712,5.1-.3,5.166-4.995,8.374-9.138,11.2-2.882,1.967-5.369,3.665-5.728,5.792l.25.041a1.932,1.932,0,0,0-.111.948,1.956,1.956,0,0,0,2.209,1.663,1.956,1.956,0,0,0,1.664-2.209,1.951,1.951,0,0,0-1.315-1.573,27.358,27.358,0,0,1,4.076-3.131c4.275-2.919,9.6-6.552,9.944-12.63C-375.111,594.31-375.9,592.09-377.613,590.575Z" transform="translate(447.839 -588.432)"/></g><g transform="translate(9.094)"><path class="j" d="M-453.174,563.953h-50.455s-2.194,51.413,25.228,51.413h0C-450.061,615.366-453.174,563.953-453.174,563.953Z" transform="translate(505.393 -562.424)"/><g transform="translate(13.805 14.047)"><path class="m" d="M-447.273,608.146a13.216,13.216,0,0,1-13.216,13.216,13.216,13.216,0,0,1-13.217-13.216,13.217,13.217,0,0,1,13.217-13.218A13.218,13.218,0,0,1-447.273,608.146Z" transform="translate(473.706 -594.928)"/><g transform="translate(7.567 4.032)"><g transform="translate(1.051)"><path class="l" d="M890.507,481.472l1.36-3.386a2.085,2.085,0,0,1,1.542-1.118c.035-.055,2.7-.494,3.753,1.11,0,.009,1.779,4.785,1.779,4.785s.594,1.065-.091,1.573l-3.628,3.688c-.241.2-.658.971-1.387.053,0,.01-3.692-3.709-3.692-3.709a1.361,1.361,0,0,1-.128-1.45C890.023,483.014,890.507,481.472,890.507,481.472Z" transform="translate(-889.888 -476.872)"/></g><g transform="translate(0 12.719)"><path class="l" d="M889.031,491.9l2.811-2.933s.323-.394.574.031l1.844,1.844a.358.358,0,0,0,.636,0l1.844-1.874s.209-.351.544,0l2.842,2.871.121.151s.174.368-.242.242l-2.54-.393a.546.546,0,0,0-.544.182l-.575.544s-.244.208.091.453l1.27,1.36s.267.36-.181.272l-2.479-.423a3.009,3.009,0,0,0-.968,0l-2.509.453s-.332,0-.061-.3l1.27-1.421a.3.3,0,0,0,.043-.419.286.286,0,0,0-.073-.065l-.574-.483s-.149-.254-.575-.122l-2.539.393S888.726,492.2,889.031,491.9Z" transform="translate(-888.903 -488.802)"/></g><g transform="translate(2.502 2.211)"><g transform="translate(0.906 0.498)"><path class="n" d="M892.257,479.413a.756.756,0,0,0,.089,1.021.747.747,0,0,0,1.008-.191Z" transform="translate(-892.099 -479.413)"/><g transform="translate(0.281 0.127)"><path class="l" d="M892.459,479.532a.459.459,0,0,0,.053.619.452.452,0,0,0,.61-.115Z" transform="translate(-892.363 -479.532)"/></g><g transform="translate(3.198 0.009)"><path class="n" d="M896.192,479.421a.755.755,0,0,1-.091,1.019.744.744,0,0,1-1-.191Z" transform="translate(-895.099 -479.421)"/></g><g transform="translate(3.391 0.102)"><path class="l" d="M895.942,479.509a.459.459,0,0,1-.053.619.451.451,0,0,1-.609-.116Z" transform="translate(-895.28 -479.509)"/></g></g><path class="n" d="M895.882,481.305a1.088,1.088,0,0,1-.689-.226,1.261,1.261,0,0,1-.306-.291,1.621,1.621,0,0,1-.135-.256h0c-.036-.08-.063-.138-.091-.143-.065-.011-.07-.067-.08-.192,0-.033-.005-.069-.01-.11s-.011-.092-.016-.129c-.016-.12-.025-.187.016-.212a.125.125,0,0,0,.053-.1.105.105,0,0,0-.053-.092.367.367,0,0,0-.181-.039.35.35,0,0,0-.182.038.125.125,0,0,0-.041.172.1.1,0,0,0,.016.021.754.754,0,0,1,.026.341,1.333,1.333,0,0,1-.026.244.079.079,0,0,1-.053.053.13.13,0,0,0-.083.082l-.017.042a1.161,1.161,0,0,1-.472.622,1.516,1.516,0,0,1-.693.127,1.66,1.66,0,0,1-.726-.127,1.434,1.434,0,0,1-.536-.92,2.674,2.674,0,0,1-.023-.4c0-.128,0-.2-.045-.213a.233.233,0,0,0-.053-.005h-.1a.127.127,0,0,1-.1-.032.193.193,0,0,1-.02-.18.109.109,0,0,1,.11-.064h.068l.075,0a.485.485,0,0,0,.212-.038.7.7,0,0,0,.081-.05,1.355,1.355,0,0,1,.693-.232,3.093,3.093,0,0,1,.344-.02,2.642,2.642,0,0,1,.769.107.983.983,0,0,1,.229.127.521.521,0,0,0,.2.107h.015a.618.618,0,0,0,.165-.032.9.9,0,0,1,.15-.032h.019a.62.62,0,0,1,.176.039h0a.7.7,0,0,0,.174.039.112.112,0,0,0,.062-.016l.007-.005a2.172,2.172,0,0,1,.857-.344,1.288,1.288,0,0,1,.212-.017,2.248,2.248,0,0,1,.634.107,2.842,2.842,0,0,1,.452.176.974.974,0,0,0,.388.086.436.436,0,0,1,.138.022.156.156,0,0,1,.066.159c-.011.044-.053.1-.183.1a.142.142,0,0,0-.138.107,1.3,1.3,0,0,0-.053.277h0a2.052,2.052,0,0,1-.194.727,1.055,1.055,0,0,1-.477.5,1.282,1.282,0,0,1-.513.1C895.962,481.3,895.922,481.305,895.882,481.305Zm-.043-2.068a1.332,1.332,0,0,0-.794.242.327.327,0,0,0-.14.26h0v.141a1.374,1.374,0,0,0,.288.883.966.966,0,0,0,.707.263,1.418,1.418,0,0,0,.544-.109.6.6,0,0,0,.242-.21,1.284,1.284,0,0,0,.16-.323,1.618,1.618,0,0,0,.087-.645.345.345,0,0,0-.109-.2.8.8,0,0,0-.233-.146,2.1,2.1,0,0,0-.615-.145C895.931,479.239,895.885,479.237,895.839,479.237Zm-3.031,0a1.331,1.331,0,0,0-.794.242.33.33,0,0,0-.14.26v.143a1.377,1.377,0,0,0,.288.883.975.975,0,0,0,.707.263,1.416,1.416,0,0,0,.544-.111.6.6,0,0,0,.242-.21,1.252,1.252,0,0,0,.16-.323,1.638,1.638,0,0,0,.089-.645.347.347,0,0,0-.11-.2.769.769,0,0,0-.233-.146,2.1,2.1,0,0,0-.615-.145C892.9,479.239,892.854,479.237,892.809,479.237Z" transform="translate(-891.249 -478.946)"/><g transform="translate(1.876 1.012)"><path class="n" d="M893.009,480.983l1.27-1.089,1.239,1.118-1.27,4.081Z" transform="translate(-893.009 -479.895)"/></g><g transform="translate(2.316 2.184)"><path class="l" d="M893.435,481.213a.155.155,0,0,1,.08-.2.158.158,0,0,1,.1-.009s.16.018.272.515C893.888,481.515,893.528,481.433,893.435,481.213Z" transform="translate(-893.421 -480.995)"/></g><g transform="translate(3.358 2.159)"><path class="l" d="M894.843,481.184a.155.155,0,0,0-.178-.212s-.157.017-.266.513C894.4,481.486,894.751,481.4,894.843,481.184Z" transform="translate(-894.399 -480.971)"/></g></g></g></g><path class="l" d="M-453.782,561.691c0,.845-.948,1.529-2.116,1.529h-49.929c-1.169,0-2.116-.685-2.116-1.529h0c0-.844.948-1.529,2.116-1.529H-455.9c1.168,0,2.116.685,2.116,1.529Z" transform="translate(507.943 -560.162)"/></g></g></g></g></g><g transform="translate(0 4.721)"><g transform="translate(6.549 8.786)"><path class="i" d="M-777.17,523.829a65.342,65.342,0,0,1-23-9.392c-10.648-6.976-23.628-20.4-25-44.742l.721-.04c1.352,24.04,14.164,37.293,24.672,44.178a64.545,64.545,0,0,0,22.716,9.283Z" transform="translate(825.169 -469.655)"/></g><g transform="translate(46.169 55.143)"><path class="i" d="M-687.258,623.067s-6.747-.833-6.355-7.154C-693.612,615.913-688.024,615.781-687.258,623.067Z" transform="translate(695.701 -615.913)"/><path class="i" d="M-700.166,644.278s6.634,1.482,8.389-4.6C-691.777,639.674-697,637.672-700.166,644.278Z" transform="translate(700.166 -631.948)"/></g><g transform="translate(38.247 52.312)"><path class="i" d="M-706.965,615.214s-6.466-2.1-4.881-8.231C-711.846,606.983-706.335,607.915-706.965,615.214Z" transform="translate(716.237 -606.983)"/><path class="i" d="M-725.161,636.015s6.232,2.715,9.111-2.927C-716.05,633.088-720.8,630.132-725.161,636.015Z" transform="translate(725.161 -624.307)"/></g><g transform="translate(30.99 49.183)"><path class="i" d="M-727.709,605.757s-6.243-2.689-4.1-8.648C-731.806,597.109-726.4,598.548-727.709,605.757Z" transform="translate(737.263 -597.109)"/><path class="i" d="M-748.056,625.91s5.953,3.281,9.343-2.07C-738.713,623.84-743.165,620.456-748.056,625.91Z" transform="translate(748.056 -614.659)"/></g><g transform="translate(23.921 45.124)"><path class="i" d="M-748.238,593.277s-5.983-3.226-3.321-8.973C-751.559,584.3-746.3,586.212-748.238,593.277Z" transform="translate(757.984 -584.304)"/><path class="i" d="M-770.36,612.555s5.644,3.791,9.489-1.242C-760.871,611.314-765.008,607.552-770.36,612.555Z" transform="translate(770.36 -601.826)"/></g><g transform="translate(17.192 40.158)"><path class="i" d="M-767.049,578.008s-5.429-4.093-1.929-9.373C-768.978,568.635-764.072,571.314-767.049,578.008Z" transform="translate(776.948 -568.635)"/><path class="i" d="M-791.591,595.189s5.006,4.6,9.566.2C-782.025,595.393-785.546,591.05-791.591,595.189Z" transform="translate(791.591 -585.551)"/></g><g transform="translate(11.578 34.572)"><path class="i" d="M-783.062,560.572s-4.667-4.944-.335-9.563C-783.4,551.009-779.008,554.471-783.062,560.572Z" transform="translate(792.867 -551.009)"/><path class="i" d="M-809.3,574.588s4.166,5.372,9.4,1.8C-799.907,576.391-802.653,571.521-809.3,574.588Z" transform="translate(809.304 -566.422)"/></g><g transform="translate(6.881 28.131)"><path class="i" d="M-797.316,540.107s-3.526-5.812,1.679-9.42C-795.637,530.687-792.071,534.992-797.316,540.107Z" transform="translate(806.609 -530.687)"/><path class="i" d="M-824.122,548.964s2.947,6.126,8.811,3.734C-815.311,552.7-816.976,547.36-824.122,548.964Z" transform="translate(824.122 -542.966)"/></g><g transform="translate(2.889 20.438)"><path class="i" d="M-810.184,515.67s-3.044-6.078,2.438-9.252C-807.746,506.418-804.542,511-810.184,515.67Z" transform="translate(819.169 -506.418)"/><path class="i" d="M-836.717,522.2s2.441,6.345,8.479,4.436C-828.238,526.639-829.463,521.182-836.717,522.2Z" transform="translate(836.717 -517.113)"/></g><g transform="translate(0.708 13.252)"><path class="i" d="M-817.6,492.776s-2.556-6.3,3.158-9.032C-814.44,483.744-811.606,488.561-817.6,492.776Z" transform="translate(826.229 -483.744)"/><path class="i" d="M-843.6,496.866s1.935,6.518,8.1,5.089C-835.495,501.954-836.288,496.419-843.6,496.866Z" transform="translate(843.6 -492.689)"/></g><g transform="translate(0 6.892)"><path class="i" d="M-821.483,472.175s-1.641-6.6,4.4-8.5C-817.081,463.679-814.956,468.848-821.483,472.175Z" transform="translate(829.34 -463.679)"/><path class="i" d="M-845.833,471.465s.994,6.727,7.3,6.184C-838.529,477.649-838.532,472.057-845.833,471.465Z" transform="translate(845.833 -468.997)"/></g><path class="i" d="M-826.718,441.933s4.118,5.409-.679,9.544C-827.4,451.477-831.395,447.571-826.718,441.933Z" transform="translate(834.327 -441.933)"/><g transform="translate(60.005)"><g transform="translate(0 8.786)"><path class="i" d="M-656.4,523.829a65.339,65.339,0,0,0,23-9.392c10.648-6.976,23.629-20.4,25-44.742l-.721-.04c-1.352,24.04-14.164,37.293-24.672,44.178a64.549,64.549,0,0,1-22.716,9.283Z" transform="translate(656.512 -469.655)"/></g><g transform="translate(0.046 55.143)"><path class="i" d="M-656.368,623.067s6.747-.833,6.355-7.154C-650.013,615.913-655.6,615.781-656.368,623.067Z" transform="translate(656.368 -615.913)"/><path class="i" d="M-647.807,644.278s-6.634,1.482-8.389-4.6C-656.2,639.674-650.976,637.672-647.807,644.278Z" transform="translate(656.251 -631.948)"/></g><g transform="translate(7.089 52.312)"><path class="i" d="M-634.1,615.214s6.467-2.1,4.881-8.231C-629.216,606.983-634.727,607.915-634.1,615.214Z" transform="translate(634.147 -606.983)"/><path class="i" d="M-624.368,636.015s-6.232,2.715-9.11-2.927C-633.478,633.088-628.732,630.132-624.368,636.015Z" transform="translate(633.69 -624.307)"/></g><g transform="translate(13.91 49.183)"><path class="i" d="M-612.423,605.757s6.243-2.689,4.1-8.648C-608.325,597.109-613.728,598.548-612.423,605.757Z" transform="translate(612.626 -597.109)"/><path class="i" d="M-601.972,625.91s-5.953,3.281-9.343-2.07C-611.315,623.84-606.863,620.456-601.972,625.91Z" transform="translate(611.73 -614.659)"/></g><g transform="translate(20.564 45.124)"><path class="i" d="M-591.2,593.277s5.983-3.226,3.321-8.973C-587.884,584.3-593.138,586.212-591.2,593.277Z" transform="translate(591.632 -584.304)"/><path class="i" d="M-579.984,612.555s-5.644,3.791-9.489-1.242C-589.473,611.314-585.335,607.552-579.984,612.555Z" transform="translate(590.157 -601.826)"/></g><g transform="translate(26.608 40.158)"><path class="i" d="M-571.6,578.008s5.429-4.093,1.929-9.373C-569.673,568.635-574.58,571.314-571.6,578.008Z" transform="translate(572.561 -568.635)"/><path class="i" d="M-558.92,595.189s-5.006,4.6-9.566.2C-568.486,595.393-564.964,591.05-558.92,595.189Z" transform="translate(569.778 -585.551)"/></g><g transform="translate(31.557 34.572)"><path class="i" d="M-555.228,560.572s4.667-4.944.334-9.563C-554.894,551.009-559.283,554.471-555.228,560.572Z" transform="translate(556.947 -551.009)"/><path class="i" d="M-540.843,574.588s-4.166,5.372-9.4,1.8C-550.241,576.391-547.495,571.521-540.843,574.588Z" transform="translate(552.367 -566.422)"/></g><g transform="translate(35.621 28.131)"><path class="i" d="M-541.264,540.107s3.526-5.812-1.679-9.42C-542.943,530.687-546.508,534.992-541.264,540.107Z" transform="translate(544.127 -530.687)"/><path class="i" d="M-524.761,548.964s-2.947,6.126-8.812,3.734C-533.573,552.7-531.908,547.36-524.761,548.964Z" transform="translate(536.918 -542.966)"/></g><g transform="translate(39.44 20.438)"><path class="i" d="M-528.734,515.67s3.045-6.078-2.437-9.252C-531.171,506.418-534.375,511-528.734,515.67Z" transform="translate(532.077 -506.418)"/><path class="i" d="M-511.45,522.2s-2.441,6.345-8.479,4.436C-519.929,526.639-518.7,521.182-511.45,522.2Z" transform="translate(523.779 -517.113)"/></g><g transform="translate(41.493 13.252)"><path class="i" d="M-521.773,492.776s2.556-6.3-3.158-9.032C-524.93,483.744-527.764,488.561-521.773,492.776Z" transform="translate(525.6 -483.744)"/><path class="i" d="M-503.761,496.866s-1.935,6.518-8.105,5.089C-511.866,501.954-511.074,496.419-503.761,496.866Z" transform="translate(516.219 -492.689)"/></g><g transform="translate(42.069 6.892)"><path class="i" d="M-519.049,472.175s1.641-6.6-4.4-8.5C-523.451,463.679-525.576,468.848-519.049,472.175Z" transform="translate(523.781 -463.679)"/><path class="i" d="M-499.8,471.465s-.994,6.727-7.3,6.184C-507.106,477.649-507.1,472.057-499.8,471.465Z" transform="translate(512.391 -468.997)"/></g><path class="i" d="M-511.615,441.933s-4.118,5.409.68,9.544C-510.935,451.477-506.937,447.571-511.615,441.933Z" transform="translate(558.663 -441.933)"/></g><g transform="translate(4.642 53.737)"><g transform="translate(0 25.435)"><path class="o" d="M-822.675,691.727l-8.513,5.967,11.542,3.394-.679,11.712,13.919-10.537-9.675-10.536Z" transform="translate(831.188 -691.727)"/><path class="p" d="M-775.492,714.642l7.13,1.175-3.9-4.247Z" transform="translate(793.145 -705.281)"/><g transform="translate(82.692)"><path class="o" d="M-554.02,691.727l8.515,5.967-11.543,3.394.678,11.712-13.918-10.537,9.674-10.536Z" transform="translate(570.287 -691.727)"/><path class="p" d="M-563.159,714.642l-7.129,1.175,3.9-4.247Z" transform="translate(570.287 -705.281)"/></g></g><path class="l" d="M-819.405,632.015s19.18-20.538,50.921-20.538,49.055,20.538,49.055,20.538l-13.919,14.258a49.929,49.929,0,0,0-36.069-14.937,49.929,49.929,0,0,0-36.07,14.937Z" transform="translate(823.14 -611.477)"/></g><g transform="translate(17.244 61.001)"><g transform="translate(0 0)"><path class="h" d="M-788.282,680.1a2.631,2.631,0,0,1-1.415-.165,2.734,2.734,0,0,1-1.155-.906,2.713,2.713,0,0,1-.558-1.359,2.66,2.66,0,0,1,.227-1.409,3.024,3.024,0,0,1,.956-1.172,3.062,3.062,0,0,1,1.1-.545,2.453,2.453,0,0,1,1.137-.024l-.147.872a1.881,1.881,0,0,0-1.524.366,2.011,2.011,0,0,0-.643.791,1.741,1.741,0,0,0-.139.948,1.93,1.93,0,0,0,.393.925,1.928,1.928,0,0,0,.785.628,1.737,1.737,0,0,0,.95.122,2.009,2.009,0,0,0,.935-.405,1.869,1.869,0,0,0,.759-1.375l.885.1a2.454,2.454,0,0,1-.334,1.091,3.089,3.089,0,0,1-.824.914A3.022,3.022,0,0,1-788.282,680.1Z" transform="translate(791.427 -661.768)"/><path class="h" d="M-772.834,669.478a2.643,2.643,0,0,1-1.4-.307,2.72,2.72,0,0,1-1.058-1.014,2.718,2.718,0,0,1-.415-1.405,2.645,2.645,0,0,1,.37-1.385,3.066,3.066,0,0,1,1.08-1.075,3.068,3.068,0,0,1,1.451-.466,2.649,2.649,0,0,1,1.4.3,2.715,2.715,0,0,1,1.06,1.017,2.716,2.716,0,0,1,.417,1.409,2.651,2.651,0,0,1-.372,1.382,3.063,3.063,0,0,1-1.08,1.075A3.062,3.062,0,0,1-772.834,669.478Zm1.7-1.923a1.749,1.749,0,0,0,.226-.928,1.936,1.936,0,0,0-.3-.957,1.937,1.937,0,0,0-.715-.7,1.746,1.746,0,0,0-.928-.225,1.937,1.937,0,0,0-.952.3,1.937,1.937,0,0,0-.7.71,1.745,1.745,0,0,0-.225.928,1.937,1.937,0,0,0,.3.957,1.935,1.935,0,0,0,.715.7,1.747,1.747,0,0,0,.928.225,1.934,1.934,0,0,0,.952-.3A1.936,1.936,0,0,0-771.138,667.555Z" transform="translate(780.69 -654.496)"/><path class="h" d="M-753.646,651.533l2.311,4.851-.741.353-4.24-2.01,1.565,3.285-.894.426-2.312-4.851.742-.353,4.24,2.01-1.565-3.284Z" transform="translate(768.565 -646.102)"/><path class="h" d="M-732.615,647.6l.889-.318L-731,649.3a3,3,0,0,1-.74.8,3.715,3.715,0,0,1-1.01.549,3.068,3.068,0,0,1-1.515.163,2.655,2.655,0,0,1-1.309-.579,2.714,2.714,0,0,1-.833-1.21,2.713,2.713,0,0,1-.125-1.464,2.648,2.648,0,0,1,.647-1.279,3.1,3.1,0,0,1,1.285-.839,3.259,3.259,0,0,1,1.231-.2,2.41,2.41,0,0,1,1.095.3l-.386.79a2.02,2.02,0,0,0-1.6-.079,2.094,2.094,0,0,0-.87.564,1.735,1.735,0,0,0-.425.861,1.922,1.922,0,0,0,.1,1.009,1.888,1.888,0,0,0,.561.826,1.784,1.784,0,0,0,.878.4,2.023,2.023,0,0,0,1.026-.106,2.161,2.161,0,0,0,.948-.633Z" transform="translate(753.966 -641.802)"/><path class="h" d="M-712.924,644.984l-1.445-1.262a2,2,0,0,1-.2.057l-1.177.293.378,1.519-.968.241-1.3-5.214,2.145-.534a2.98,2.98,0,0,1,1.236-.07,1.767,1.767,0,0,1,.93.449,1.846,1.846,0,0,1,.515.924,1.82,1.82,0,0,1-.035,1.085,1.756,1.756,0,0,1-.666.838l1.626,1.415Zm-1.376-4.04a1.535,1.535,0,0,0-1.028-.029l-1.132.281.517,2.079,1.132-.282a1.517,1.517,0,0,0,.893-.511.974.974,0,0,0,.136-.853A.965.965,0,0,0-714.3,640.944Z" transform="translate(741.021 -638.209)"/><path class="h" d="M-693.794,640.233l-2.66.378-.349,1.306-1.019.145,1.638-5.661.973-.138,3.158,4.979-1.034.147Zm-.437-.729-1.334-2.183-.665,2.467Z" transform="translate(727.49 -635.672)"/><path class="h" d="M-678.645,635.395l-1.779.088-.042-.843,4.554-.227.042.843-1.779.089.225,4.523-1,.049Z" transform="translate(715.634 -634.408)"/><path class="h" d="M-661.576,639.246a2.436,2.436,0,0,1-.535-1.82l.145-3.029,1,.048-.143,2.99q-.076,1.58,1.289,1.645t1.433-1.514l.143-2.99.982.047-.145,3.029a2.445,2.445,0,0,1-.7,1.761,2.323,2.323,0,0,1-1.759.542A2.338,2.338,0,0,1-661.576,639.246Z" transform="translate(703.101 -634.397)"/><path class="h" d="M-641.608,635.9l.987.145-.656,4.481,2.78.407-.122.835-3.767-.551Z" transform="translate(689.624 -635.423)"/><path class="h" d="M-625,644.294l-2.611-.633-.808,1.084-1-.242,3.616-4.653.955.231,1.092,5.793-1.015-.246Zm-.136-.838-.431-2.522-1.531,2.046Z" transform="translate(680.765 -638.122)"/><path class="h" d="M-605.362,644.225l-1.69-.563.267-.8,4.326,1.441-.267.8-1.69-.563-1.431,4.3-.947-.315Z" transform="translate(665.489 -640.178)"/><path class="h" d="M-592.919,649.033l.926.371-2,4.988-.926-.371Z" transform="translate(657.2 -644.394)"/><path class="h" d="M-584.711,659.228a2.638,2.638,0,0,1-.5-1.343,2.715,2.715,0,0,1,.28-1.438,2.722,2.722,0,0,1,.957-1.11,2.645,2.645,0,0,1,1.365-.438,3.061,3.061,0,0,1,1.488.326,3.065,3.065,0,0,1,1.177.968,2.656,2.656,0,0,1,.5,1.34,2.716,2.716,0,0,1-.282,1.442,2.716,2.716,0,0,1-.959,1.113,2.66,2.66,0,0,1-1.363.435,3.066,3.066,0,0,1-1.488-.326A3.061,3.061,0,0,1-584.711,659.228Zm2.535.386a1.755,1.755,0,0,0,.9-.312,1.937,1.937,0,0,0,.645-.767,1.938,1.938,0,0,0,.2-.981,1.751,1.751,0,0,0-.313-.9,1.934,1.934,0,0,0-.765-.64,1.938,1.938,0,0,0-.976-.2,1.748,1.748,0,0,0-.9.313,1.936,1.936,0,0,0-.645.766,1.932,1.932,0,0,0-.2.981,1.746,1.746,0,0,0,.313.9,1.934,1.934,0,0,0,.765.64A1.935,1.935,0,0,0-582.177,659.614Z" transform="translate(650.577 -648.398)"/><path class="h" d="M-561.044,665.517l-2.807,4.582-.7-.429-.626-4.651-1.9,3.1-.844-.517,2.807-4.582.7.429.627,4.65,1.9-3.1Z" transform="translate(638.762 -653.95)"/><path class="h" d="M-550.247,680.315a2.5,2.5,0,0,1-.455-.924l.741-.415a2.73,2.73,0,0,0,.394.826,2.949,2.949,0,0,0,.674.708,1.664,1.664,0,0,0,.831.381.582.582,0,0,0,.54-.229.491.491,0,0,0,.095-.4,1.152,1.152,0,0,0-.2-.438q-.152-.219-.439-.567a8.01,8.01,0,0,1-.622-.828,1.632,1.632,0,0,1-.25-.757,1.231,1.231,0,0,1,.284-.836,1.433,1.433,0,0,1,.678-.5,1.634,1.634,0,0,1,.931-.029,2.958,2.958,0,0,1,1.085.542,3.847,3.847,0,0,1,.7.677,2.668,2.668,0,0,1,.447.774l-.716.433a3.116,3.116,0,0,0-.4-.693,2.776,2.776,0,0,0-.533-.531,1.557,1.557,0,0,0-.824-.366.615.615,0,0,0-.547.253.477.477,0,0,0-.093.4,1.176,1.176,0,0,0,.2.435q.152.219.439.567a7.3,7.3,0,0,1,.615.819,1.685,1.685,0,0,1,.253.758,1.2,1.2,0,0,1-.277.827,1.416,1.416,0,0,1-.676.5,1.644,1.644,0,0,1-.932.023,2.986,2.986,0,0,1-1.088-.544A4.091,4.091,0,0,1-550.247,680.315Z" transform="translate(627 -662.983)"/></g></g></g></g></g></g><g transform="translate(-1218.873 189.627)"><g transform="translate(0 0)"><path class="a" d="M152.061-295.656a2.489,2.489,0,0,1-.966-1.775c-.019-.681.152-1.355.164-2.037a.338.338,0,0,0-.675,0,10.667,10.667,0,0,0-.094,2.672,3.484,3.484,0,0,0,1.093,1.617A.338.338,0,0,0,152.061-295.656Z" transform="translate(-111.998 300.088)"/><path class="b" d="M161.371-229.525c-.089.231-.414.415-.607.545-.24.161-.491.3-.738.454a.338.338,0,0,0,.341.583c.586-.355,1.392-.722,1.655-1.4C162.178-229.751,161.526-229.926,161.371-229.525Z" transform="translate(-117.982 245.806)"/><path class="c" d="M108.223-244.547a1.022,1.022,0,0,0-.228,1.125c.227.425.567.371.944.4-.037.349-.294.718-.331,1.055a.948.948,0,0,0,.279.823c.3.316.776-.162.477-.477-.253-.268.1-.8.176-1.068a1.405,1.405,0,0,0,.045-.718.33.33,0,0,0-.236-.236c-.307-.065-.866.074-.642-.422.129-.286.773-.82,1.08-.53s.794-.178.477-.477C109.579-245.719,108.715-245.17,108.223-244.547Z" transform="translate(-93.384 257.904)"/><path class="a" d="M346.137-280.793l.144.045a.311.311,0,0,0,.206-.011l.034.018c.034.023.038.026.013.009a.616.616,0,0,1,.047.047.342.342,0,0,0,.477,0,.342.342,0,0,0,0-.477.931.931,0,0,0-.922-.281A.341.341,0,0,0,346.137-280.793Z" transform="translate(-237.537 285.895)"/><path class="d" d="M342.629-242.768a9.23,9.23,0,0,1-1.581.565,3.8,3.8,0,0,1,1.481-.976.338.338,0,0,0-.179-.651A3.893,3.893,0,0,0,341-243a2.666,2.666,0,0,0-.908.952.342.342,0,0,0,.2.5,2.925,2.925,0,0,0,1.7-.242,3.794,3.794,0,0,0-.5.572,2.634,2.634,0,0,0-.44,1.318c.017.433.692.435.675,0-.043-1.087,1.347-1.541,1.33-2.538A.34.34,0,0,0,342.629-242.768Z" transform="translate(-233.019 256.726)"/><path class="a" d="M371.844-189.817v-1.65a.338.338,0,0,0-.675,0v1.65A.338.338,0,0,0,371.844-189.817Z" transform="translate(-238.064 212.588)"/><path class="a" d="M381.82-158.511a.7.7,0,0,0-.539.249.347.347,0,0,0,0,.477.34.34,0,0,0,.477,0,.436.436,0,0,1,.043-.048h.019a.342.342,0,0,0,.337-.337A.343.343,0,0,0,381.82-158.511Z" transform="translate(-250.767 190.594)"/><path class="a" d="M97.3-138.547a.74.74,0,0,0-.376-.367,2.434,2.434,0,0,0-.591-.133,4.627,4.627,0,0,0-.786-.131.338.338,0,0,0,0,.675,6.216,6.216,0,0,1,.8.137c.182.028.406.018.37.257-.043.288.326.625.564.328a3.2,3.2,0,0,0,.211-.29A.315.315,0,0,0,97.3-138.547Z" transform="translate(-83.555 175.61)"/><path class="a" d="M155.576-171.739l-.3.3a.343.343,0,0,0,0,.477.342.342,0,0,0,.477,0l.3-.3a.343.343,0,0,0,0-.477A.342.342,0,0,0,155.576-171.739Z" transform="translate(-115.178 200.921)"/><path class="a" d="M417.167-284.537a2.77,2.77,0,0,0-1.827,1.55c-.237.793.591,1.206,1.227,1.351.423.1.6-.555.18-.651a1.686,1.686,0,0,1-.585-.209c-.253-.174-.184-.34-.024-.571a2.449,2.449,0,0,1,1.208-.818C417.749-284.037,417.575-284.69,417.167-284.537Z" transform="translate(-277.205 288.282)"/><path class="a" d="M429.176-248.457a.341.341,0,0,0-.462.121l-.15.3a.346.346,0,0,0,.121.462.341.341,0,0,0,.462-.121l.15-.3A.346.346,0,0,0,429.176-248.457Z" transform="translate(-287.454 260.337)"/><path class="a" d="M417.546-158.511a.338.338,0,0,0,0,.675A.338.338,0,0,0,417.546-158.511Z" transform="translate(-278.694 190.594)"/><path class="a" d="M402.264-96.916c-.05.281-.065.567-.105.849a1.366,1.366,0,0,1-.258.8c-.325.289.154.765.477.477.512-.455.428-1.336.537-1.949C402.991-97.162,402.34-97.344,402.264-96.916Z" transform="translate(-257.238 143.427)"/><path class="e" d="M402.264-94.943c-.05-.281-.065-.567-.105-.849a1.366,1.366,0,0,0-.258-.8c-.325-.289.154-.765.477-.477.512.455.428,1.336.537,1.949C402.991-94.7,402.34-94.515,402.264-94.943Z" transform="translate(-299.477 125.486)"/><path class="a" d="M345.881-111.318l.01,0-.007-.006h0Z" transform="translate(-238.068 154.021)"/><path class="b" d="M343.774-114.651c-.1-.028-.207-.067-.311-.09a.164.164,0,0,1-.052-.024c.053.053-.157.048-.01,0a.365.365,0,0,0-.059-.034.267.267,0,0,1,.062.033,2.913,2.913,0,0,0,.3-.217,3.126,3.126,0,0,1,.347-.172c.4-.17.055-.751-.341-.583-.453.193-1.305.683-.937,1.292a1.148,1.148,0,0,0,.724.425c.246.069.536.067.5.374-.055.43.62.425.675,0C344.743-114.251,344.275-114.513,343.774-114.651Z" transform="translate(-211.426 157.852)"/><path class="d" d="M343.774-114.455c-.1.028-.207.067-.311.09a.165.165,0,0,0-.052.024c.053-.053-.157-.048-.01,0a.364.364,0,0,1-.059.034.267.267,0,0,0,.062-.033,2.911,2.911,0,0,1,.3.217,3.128,3.128,0,0,0,.347.172c.4.17.055.751-.341.583-.453-.193-1.305-.683-.937-1.292a1.148,1.148,0,0,1,.724-.425c.246-.069.536-.067.5-.374-.055-.43.62-.425.675,0C344.743-114.855,344.275-114.593,343.774-114.455Z" transform="translate(-281.87 128.168)"/><path class="a" d="M133.025-62.389c-.182.167-.587.056-.811.051a.338.338,0,0,0,0,.675,1.662,1.662,0,0,0,1.289-.249C133.823-62.206,133.344-62.683,133.025-62.389Z" transform="translate(-100.123 116.17)"/><path class="a" d="M206.754-191.844a.341.341,0,0,0-.236.415.338.338,0,0,0,.383.237l.011,0-.009-.005h0l.026.013a.659.659,0,0,1,.141.1c.1.082.187.173.285.254a.348.348,0,0,0,.477,0,.34.34,0,0,0,0-.477C207.511-191.568,207.217-191.939,206.754-191.844Z" transform="translate(-148.036 216.439)"/><path class="a" d="M220.563-300.856a.342.342,0,0,0-.326-.248,1.475,1.475,0,0,0-.9.328.348.348,0,0,0-.121.462.34.34,0,0,0,.462.121,1.543,1.543,0,0,1,.306-.18c.016-.007.028-.009.042-.014a.367.367,0,0,0,.322.078.346.346,0,0,0,.236-.415Z" transform="translate(-156.163 301.105)"/><path class="e" d="M46.513-284.136c-.423-.015-.81.161-1.236.156a2.9,2.9,0,0,1-1.392-.2c-.327-.174-.7.26-.409.53l.1.091a.322.322,0,0,0,.261.09,3.141,3.141,0,0,0,1.07.158,5.7,5.7,0,0,0,.84-.012,4.382,4.382,0,0,1,.767-.137C46.948-283.446,46.947-284.121,46.513-284.136Z" transform="translate(-43.371 288.02)"/><path class="a" d="M46-185.175c-.534.363-1.24.614-1.5,1.252a.34.34,0,0,0,.236.415.346.346,0,0,0,.415-.236c.082-.2.371-.346.54-.451.216-.135.443-.253.655-.4C46.7-184.835,46.359-185.42,46-185.175Z" transform="translate(-44.227 211.304)"/><path class="a" d="M63.463-78.222c-.443-.06-.827-.367-1.29-.312a.348.348,0,0,0-.337.337.339.339,0,0,0,.337.337c.386-.046.734.237,1.11.288a.35.35,0,0,0,.415-.236A.34.34,0,0,0,63.463-78.222Z" transform="translate(-57.681 128.616)"/><path class="a" d="M369.841-35.856c-.493.066-.75.442-1.073.779a3.049,3.049,0,0,0-.715,1.047c-.361.119-.18.713.228.637l.122-.023a.334.334,0,0,0,.236-.236,1.979,1.979,0,0,1,.544-.884c.154-.158.428-.614.659-.645C370.266-35.238,370.271-35.914,369.841-35.856Z" transform="translate(-347.273 65.247)"/><path class="a" d="M369.841-35.856c-.493.066-.75.442-1.073.779a3.049,3.049,0,0,0-.715,1.047c-.361.119-.18.713.228.637l.122-.023a.334.334,0,0,0,.236-.236,1.979,1.979,0,0,1,.544-.884c.154-.158.428-.614.659-.645C370.266-35.238,370.271-35.914,369.841-35.856Z" transform="translate(-295.364 62.134)"/><path class="a" d="M1.982,0C1.489.07,1.232.446.91.783A3.049,3.049,0,0,0,.194,1.83c-.361.119-.18.713.228.637l.122-.023A.334.334,0,0,0,.78,2.208a1.979,1.979,0,0,1,.544-.884c.154-.158.428-.614.659-.645C2.406.622,2.412-.054,1.982,0Z" transform="matrix(0.259, 0.966, -0.966, 0.259, 90.573, 23.589)"/><path class="a" d="M369.842-33.39c-.493-.066-.75-.442-1.073-.779a3.049,3.049,0,0,1-.715-1.047c-.361-.119-.18-.713.228-.637l.122.023a.334.334,0,0,1,.236.236,1.979,1.979,0,0,0,.544.884c.154.158.428.614.659.645C370.266-34.008,370.271-33.332,369.842-33.39Z" transform="translate(-289.409 51.901)"/><path class="a" d="M380.285,12.518l-.6-.3a.346.346,0,0,0-.462.121.341.341,0,0,0,.121.462l.6.3a.346.346,0,0,0,.462-.121A.341.341,0,0,0,380.285,12.518Z" transform="translate(-249.212 58.31)"/><path class="a" d="M380.285,12.8l-.6.3a.346.346,0,0,1-.462-.121.341.341,0,0,1,.121-.462l.6-.3a.346.346,0,0,1,.462.121A.341.341,0,0,1,380.285,12.8Z" transform="translate(-297.004 -5.436)"/><path class="d" d="M417.65-44.993a9.927,9.927,0,0,1-1,1.282c-.277.331.2.811.477.477a11.013,11.013,0,0,0,1.1-1.418A.338.338,0,0,0,417.65-44.993Z" transform="translate(-278.189 102.742)"/><path class="a" d="M417.65-43.283a9.931,9.931,0,0,0-1-1.282c-.277-.331.2-.811.477-.477a11.007,11.007,0,0,1,1.1,1.418A.338.338,0,0,1,417.65-43.283Z" transform="translate(-320.828 63.727)"/><path class="a" d="M454.029-174.411c-.354.351-.252.841-.249,1.289a.338.338,0,0,0,.675,0c0-.217-.12-.642.051-.811A.338.338,0,0,0,454.029-174.411Z" transform="translate(-307.015 202.993)"/><path class="a" d="M60.9,7.489h-1.35a.338.338,0,0,0,0,.675H60.9A.338.338,0,0,0,60.9,7.489Z" transform="translate(-55.654 61.943)"/><path class="f" d="M109.605,1.866c.005,1.162.224,2.381-.4,3.43a.338.338,0,0,0,.583.341c.7-1.167.5-2.472.5-3.77A.338.338,0,0,0,109.605,1.866Z" transform="translate(-94.351 66.553)"/><path class="a" d="M105.546,53.489a.338.338,0,0,0,0,.675A.338.338,0,0,0,105.546,53.489Z" transform="translate(-91.305 26.293)"/></g></g></g></svg>