<svg xmlns="http://www.w3.org/2000/svg" width="147.591" height="155.557" viewBox="0 0 147.591 155.557"><defs><style>.a{fill:#2648aa;}.b{fill:#3f67db;}.c{fill:#a9bbed;}.d{fill:#ff6156;}.e{fill:#37d870;}.f{fill:#3c4bbf;}.g{fill:#e5e3da;}.h{fill:#f9f7ed;}.i,.j{fill:#ed9647;}.j,.k{stroke:#bf5e1e;}.k{fill:#e07e2d;}.l{fill:#bf5e16;}.m{fill:#e08b40;opacity:0.642;}.n{fill:#bf5e1e;}.o{fill:#d37f39;}.p{fill:#ac5720;}.q{fill:#e48e42;}</style></defs><g transform="translate(-89 -102.812)"><g transform="translate(89 102.812)"><g transform="translate(0 0)"><path class="a" d="M152.061-295.656a2.489,2.489,0,0,1-.966-1.775c-.019-.681.152-1.355.164-2.037a.338.338,0,0,0-.675,0,10.667,10.667,0,0,0-.094,2.672,3.484,3.484,0,0,0,1.093,1.617A.338.338,0,0,0,152.061-295.656Z" transform="translate(-111.998 300.088)"/><path class="b" d="M161.371-229.525c-.089.231-.414.415-.607.545-.24.161-.491.3-.738.454a.338.338,0,0,0,.341.583c.586-.355,1.392-.722,1.655-1.4C162.178-229.751,161.526-229.926,161.371-229.525Z" transform="translate(-117.982 245.806)"/><path class="c" d="M108.223-244.547a1.022,1.022,0,0,0-.228,1.125c.227.425.567.371.944.4-.037.349-.294.718-.331,1.055a.948.948,0,0,0,.279.823c.3.316.776-.162.477-.477-.253-.268.1-.8.176-1.068a1.405,1.405,0,0,0,.045-.718.33.33,0,0,0-.236-.236c-.307-.065-.866.074-.642-.422.129-.286.773-.82,1.08-.53s.794-.178.477-.477C109.579-245.719,108.715-245.17,108.223-244.547Z" transform="translate(-93.384 257.904)"/><path class="a" d="M346.137-280.793l.144.045a.311.311,0,0,0,.206-.011l.034.018c.034.023.038.026.013.009a.616.616,0,0,1,.047.047.342.342,0,0,0,.477,0,.342.342,0,0,0,0-.477.931.931,0,0,0-.922-.281A.341.341,0,0,0,346.137-280.793Z" transform="translate(-237.537 285.895)"/><path class="d" d="M342.629-242.768a9.23,9.23,0,0,1-1.581.565,3.8,3.8,0,0,1,1.481-.976.338.338,0,0,0-.179-.651A3.893,3.893,0,0,0,341-243a2.666,2.666,0,0,0-.908.952.342.342,0,0,0,.2.5,2.925,2.925,0,0,0,1.7-.242,3.794,3.794,0,0,0-.5.572,2.634,2.634,0,0,0-.44,1.318c.017.433.692.435.675,0-.043-1.087,1.347-1.541,1.33-2.538A.34.34,0,0,0,342.629-242.768Z" transform="translate(-233.019 256.726)"/><path class="a" d="M371.844-189.817v-1.65a.338.338,0,0,0-.675,0v1.65A.338.338,0,0,0,371.844-189.817Z" transform="translate(-238.064 212.588)"/><path class="a" d="M381.82-158.511a.7.7,0,0,0-.539.249.347.347,0,0,0,0,.477.34.34,0,0,0,.477,0,.436.436,0,0,1,.043-.048h.019a.342.342,0,0,0,.337-.337A.343.343,0,0,0,381.82-158.511Z" transform="translate(-250.767 190.594)"/><path class="a" d="M97.3-138.547a.74.74,0,0,0-.376-.367,2.434,2.434,0,0,0-.591-.133,4.627,4.627,0,0,0-.786-.131.338.338,0,0,0,0,.675,6.216,6.216,0,0,1,.8.137c.182.028.406.018.37.257-.043.288.326.625.564.328a3.2,3.2,0,0,0,.211-.29A.315.315,0,0,0,97.3-138.547Z" transform="translate(-83.555 175.61)"/><path class="a" d="M155.576-171.739l-.3.3a.343.343,0,0,0,0,.477.342.342,0,0,0,.477,0l.3-.3a.343.343,0,0,0,0-.477A.342.342,0,0,0,155.576-171.739Z" transform="translate(-115.178 200.921)"/><path class="a" d="M417.167-284.537a2.77,2.77,0,0,0-1.827,1.55c-.237.793.591,1.206,1.227,1.351.423.1.6-.555.18-.651a1.686,1.686,0,0,1-.585-.209c-.253-.174-.184-.34-.024-.571a2.449,2.449,0,0,1,1.208-.818C417.749-284.037,417.575-284.69,417.167-284.537Z" transform="translate(-277.205 288.282)"/><path class="a" d="M429.176-248.457a.341.341,0,0,0-.462.121l-.15.3a.346.346,0,0,0,.121.462.341.341,0,0,0,.462-.121l.15-.3A.346.346,0,0,0,429.176-248.457Z" transform="translate(-287.454 260.337)"/><path class="a" d="M417.546-158.511a.338.338,0,0,0,0,.675A.338.338,0,0,0,417.546-158.511Z" transform="translate(-278.694 190.594)"/><path class="a" d="M402.264-96.916c-.05.281-.065.567-.105.849a1.366,1.366,0,0,1-.258.8c-.325.289.154.765.477.477.512-.455.428-1.336.537-1.949C402.991-97.162,402.34-97.344,402.264-96.916Z" transform="translate(-257.238 143.427)"/><path class="e" d="M402.264-94.943c-.05-.281-.065-.567-.105-.849a1.366,1.366,0,0,0-.258-.8c-.325-.289.154-.765.477-.477.512.455.428,1.336.537,1.949C402.991-94.7,402.34-94.515,402.264-94.943Z" transform="translate(-299.477 125.486)"/><path class="a" d="M345.881-111.318l.01,0-.007-.006h0Z" transform="translate(-238.068 154.021)"/><path class="b" d="M343.774-114.651c-.1-.028-.207-.067-.311-.09a.164.164,0,0,1-.052-.024c.053.053-.157.048-.01,0a.365.365,0,0,0-.059-.034.267.267,0,0,1,.062.033,2.913,2.913,0,0,0,.3-.217,3.126,3.126,0,0,1,.347-.172c.4-.17.055-.751-.341-.583-.453.193-1.305.683-.937,1.292a1.148,1.148,0,0,0,.724.425c.246.069.536.067.5.374-.055.43.62.425.675,0C344.743-114.251,344.275-114.513,343.774-114.651Z" transform="translate(-211.426 157.852)"/><path class="d" d="M343.774-114.455c-.1.028-.207.067-.311.09a.165.165,0,0,0-.052.024c.053-.053-.157-.048-.01,0a.364.364,0,0,1-.059.034.267.267,0,0,0,.062-.033,2.911,2.911,0,0,1,.3.217,3.128,3.128,0,0,0,.347.172c.4.17.055.751-.341.583-.453-.193-1.305-.683-.937-1.292a1.148,1.148,0,0,1,.724-.425c.246-.069.536-.067.5-.374-.055-.43.62-.425.675,0C344.743-114.855,344.275-114.593,343.774-114.455Z" transform="translate(-281.87 128.168)"/><path class="a" d="M133.025-62.389c-.182.167-.587.056-.811.051a.338.338,0,0,0,0,.675,1.662,1.662,0,0,0,1.289-.249C133.823-62.206,133.344-62.683,133.025-62.389Z" transform="translate(-100.123 116.17)"/><path class="a" d="M206.754-191.844a.341.341,0,0,0-.236.415.338.338,0,0,0,.383.237l.011,0-.009-.005h0l.026.013a.659.659,0,0,1,.141.1c.1.082.187.173.285.254a.348.348,0,0,0,.477,0,.34.34,0,0,0,0-.477C207.511-191.568,207.217-191.939,206.754-191.844Z" transform="translate(-148.036 216.439)"/><path class="a" d="M220.563-300.856a.342.342,0,0,0-.326-.248,1.475,1.475,0,0,0-.9.328.348.348,0,0,0-.121.462.34.34,0,0,0,.462.121,1.543,1.543,0,0,1,.306-.18c.016-.007.028-.009.042-.014a.367.367,0,0,0,.322.078.346.346,0,0,0,.236-.415Z" transform="translate(-156.163 301.105)"/><path class="e" d="M46.513-284.136c-.423-.015-.81.161-1.236.156a2.9,2.9,0,0,1-1.392-.2c-.327-.174-.7.26-.409.53l.1.091a.322.322,0,0,0,.261.09,3.141,3.141,0,0,0,1.07.158,5.7,5.7,0,0,0,.84-.012,4.382,4.382,0,0,1,.767-.137C46.948-283.446,46.947-284.121,46.513-284.136Z" transform="translate(-43.371 288.02)"/><path class="a" d="M46-185.175c-.534.363-1.24.614-1.5,1.252a.34.34,0,0,0,.236.415.346.346,0,0,0,.415-.236c.082-.2.371-.346.54-.451.216-.135.443-.253.655-.4C46.7-184.835,46.359-185.42,46-185.175Z" transform="translate(-44.227 211.304)"/><path class="a" d="M63.463-78.222c-.443-.06-.827-.367-1.29-.312a.348.348,0,0,0-.337.337.339.339,0,0,0,.337.337c.386-.046.734.237,1.11.288a.35.35,0,0,0,.415-.236A.34.34,0,0,0,63.463-78.222Z" transform="translate(-57.681 128.616)"/><path class="a" d="M369.841-35.856c-.493.066-.75.442-1.073.779a3.049,3.049,0,0,0-.715,1.047c-.361.119-.18.713.228.637l.122-.023a.334.334,0,0,0,.236-.236,1.979,1.979,0,0,1,.544-.884c.154-.158.428-.614.659-.645C370.266-35.238,370.271-35.914,369.841-35.856Z" transform="translate(-347.273 65.247)"/><path class="a" d="M369.841-35.856c-.493.066-.75.442-1.073.779a3.049,3.049,0,0,0-.715,1.047c-.361.119-.18.713.228.637l.122-.023a.334.334,0,0,0,.236-.236,1.979,1.979,0,0,1,.544-.884c.154-.158.428-.614.659-.645C370.266-35.238,370.271-35.914,369.841-35.856Z" transform="translate(-295.364 62.134)"/><path class="a" d="M1.982,0C1.489.07,1.232.446.91.783A3.049,3.049,0,0,0,.194,1.83c-.361.119-.18.713.228.637l.122-.023A.334.334,0,0,0,.78,2.208a1.979,1.979,0,0,1,.544-.884c.154-.158.428-.614.659-.645C2.406.622,2.412-.054,1.982,0Z" transform="matrix(0.259, 0.966, -0.966, 0.259, 90.573, 23.589)"/><path class="a" d="M369.842-33.39c-.493-.066-.75-.442-1.073-.779a3.049,3.049,0,0,1-.715-1.047c-.361-.119-.18-.713.228-.637l.122.023a.334.334,0,0,1,.236.236,1.979,1.979,0,0,0,.544.884c.154.158.428.614.659.645C370.266-34.008,370.271-33.332,369.842-33.39Z" transform="translate(-289.409 51.901)"/><path class="a" d="M380.285,12.518l-.6-.3a.346.346,0,0,0-.462.121.341.341,0,0,0,.121.462l.6.3a.346.346,0,0,0,.462-.121A.341.341,0,0,0,380.285,12.518Z" transform="translate(-249.212 58.31)"/><path class="a" d="M380.285,12.8l-.6.3a.346.346,0,0,1-.462-.121.341.341,0,0,1,.121-.462l.6-.3a.346.346,0,0,1,.462.121A.341.341,0,0,1,380.285,12.8Z" transform="translate(-297.004 -5.436)"/><path class="d" d="M417.65-44.993a9.927,9.927,0,0,1-1,1.282c-.277.331.2.811.477.477a11.013,11.013,0,0,0,1.1-1.418A.338.338,0,0,0,417.65-44.993Z" transform="translate(-278.189 102.742)"/><path class="a" d="M417.65-43.283a9.931,9.931,0,0,0-1-1.282c-.277-.331.2-.811.477-.477a11.007,11.007,0,0,1,1.1,1.418A.338.338,0,0,1,417.65-43.283Z" transform="translate(-320.828 63.727)"/><path class="a" d="M454.029-174.411c-.354.351-.252.841-.249,1.289a.338.338,0,0,0,.675,0c0-.217-.12-.642.051-.811A.338.338,0,0,0,454.029-174.411Z" transform="translate(-307.015 202.993)"/><path class="a" d="M60.9,7.489h-1.35a.338.338,0,0,0,0,.675H60.9A.338.338,0,0,0,60.9,7.489Z" transform="translate(-55.654 61.943)"/><path class="f" d="M109.605,1.866c.005,1.162.224,2.381-.4,3.43a.338.338,0,0,0,.583.341c.7-1.167.5-2.472.5-3.77A.338.338,0,0,0,109.605,1.866Z" transform="translate(-94.351 66.553)"/><path class="a" d="M105.546,53.489a.338.338,0,0,0,0,.675A.338.338,0,0,0,105.546,53.489Z" transform="translate(-91.305 26.293)"/></g></g><g transform="translate(104.447 136.305)"><g transform="translate(4.573 0)"><g transform="translate(0 0)"><g transform="translate(0 91.713)"><g transform="translate(0 0)"><g transform="translate(0.141)"><path class="g" d="M-576.208,807.85v14.1c0,4.489,24.91,8.127,55.637,8.127s55.636-3.638,55.636-8.127v-14.1Z" transform="translate(576.208 -799.722)"/><path class="h" d="M-464.935,795.814c0,4.488-24.909,8.128-55.636,8.128s-55.637-3.64-55.637-8.128,24.91-8.128,55.637-8.128S-464.935,791.325-464.935,795.814Z" transform="translate(576.208 -787.686)"/></g><g transform="translate(0 7.916)"><path class="i" d="M-520.78,816.463c-20.3,0-35.49-1.041-45.164-3.093-5.956-1.264-9.431-2.564-10.473-4.405a2.58,2.58,0,0,1,.018-1.64c.015-.138,2.994,7.537,55.619,7.537s55.615-7.59,55.629-7.453a1.753,1.753,0,0,1,0,1.35c-1.042,1.841-4.507,3.346-10.464,4.61C-485.29,815.422-500.485,816.463-520.78,816.463Z" transform="translate(576.557 -807.323)"/></g><g transform="translate(0 21.212)"><path class="i" d="M-520.78,849.446c-20.3,0-35.49-1.04-45.164-3.092-5.956-1.263-9.431-2.564-10.473-4.4a2.579,2.579,0,0,1,.018-1.64c.015-.139,2.994,7.537,55.619,7.537s55.615-7.591,55.629-7.453a1.754,1.754,0,0,1,0,1.35c-1.042,1.841-4.507,3.347-10.464,4.61C-485.29,848.407-500.485,849.446-520.78,849.446Z" transform="translate(576.557 -840.308)"/></g></g></g><g transform="translate(18.566)"><g transform="translate(19.463 41.785)"><path class="j" d="M-445.164,674.168a6.477,6.477,0,0,0,1.252-3.83,6.516,6.516,0,0,0-6.516-6.516,6.516,6.516,0,0,0-6.516,6.516,6.479,6.479,0,0,0,1.251,3.83h0a29.384,29.384,0,0,1,0,25.764h10.529a29.388,29.388,0,0,1,0-25.764Z" transform="translate(467.13 -663.822)"/><rect class="k" width="27.532" height="15.952" transform="translate(2.936 36.11)"/><path class="j" d="M-451.762,792.979h-27.5l-2.953,5.718h33.4Z" transform="translate(482.213 -740.917)"/><rect class="l" width="20.917" height="8.754" transform="translate(6.244 39.709)"/></g><g transform="translate(0)"><g transform="translate(0 11.395)"><path class="j" d="M-528.139,590.575c3.411-3.012,9.218-1.982,9.465-1.938l-.335,1.824c-.049-.01-5.16-.916-7.9,1.505-1.266,1.117-1.842,2.833-1.712,5.1.3,5.165,4.993,8.372,9.136,11.2,2.88,1.966,5.367,3.664,5.726,5.79l-.249.042a1.926,1.926,0,0,1,.11.948,1.954,1.954,0,0,1-2.208,1.662,1.955,1.955,0,0,1-1.662-2.208,1.948,1.948,0,0,1,1.313-1.573,27.285,27.285,0,0,0-4.074-3.13c-4.274-2.919-9.593-6.551-9.942-12.626C-530.64,594.308-529.853,592.089-528.139,590.575Z" transform="translate(530.497 -588.432)"/><path class="j" d="M-377.617,590.575c-3.412-3.012-9.22-1.982-9.467-1.938l.336,1.824c.049-.01,5.161-.916,7.9,1.505,1.265,1.117,1.841,2.833,1.711,5.1-.3,5.165-4.993,8.372-9.135,11.2-2.881,1.966-5.368,3.664-5.726,5.79l.25.042a1.93,1.93,0,0,0-.111.948,1.955,1.955,0,0,0,2.209,1.662,1.956,1.956,0,0,0,1.663-2.208,1.951,1.951,0,0,0-1.315-1.573,27.345,27.345,0,0,1,4.074-3.13c4.274-2.919,9.593-6.551,9.941-12.626C-375.116,594.308-375.9,592.089-377.617,590.575Z" transform="translate(447.823 -588.432)"/></g><g transform="translate(9.091)"><path class="j" d="M-453.188,563.953h-50.44s-2.194,51.4,25.22,51.4h0C-450.076,615.351-453.188,563.953-453.188,563.953Z" transform="translate(505.393 -562.425)"/><g transform="translate(13.801 14.043)"><path class="m" d="M-447.28,608.142a13.212,13.212,0,0,1-13.213,13.212,13.212,13.212,0,0,1-13.213-13.212,13.213,13.213,0,0,1,13.213-13.214A13.214,13.214,0,0,1-447.28,608.142Z" transform="translate(473.706 -594.928)"/><g transform="translate(7.565 4.031)"><g transform="translate(1.05)"><path class="n" d="M890.507,481.471l1.36-3.385a2.084,2.084,0,0,1,1.541-1.118c.035-.055,2.7-.494,3.752,1.109,0,.009,1.779,4.783,1.779,4.783s.594,1.065-.091,1.572l-3.627,3.687c-.241.2-.658.971-1.387.053,0,.01-3.691-3.708-3.691-3.708a1.36,1.36,0,0,1-.128-1.45C890.023,483.012,890.507,481.471,890.507,481.471Z" transform="translate(-889.888 -476.872)"/></g><g transform="translate(0 12.715)"><path class="n" d="M889.031,491.9l2.811-2.932s.323-.394.574.031l1.844,1.844a.358.358,0,0,0,.635,0l1.844-1.874s.209-.351.543,0l2.841,2.87.121.151s.174.368-.242.242l-2.539-.393a.546.546,0,0,0-.544.182l-.575.544s-.244.208.091.453l1.27,1.36s.266.36-.181.272l-2.478-.423a3.007,3.007,0,0,0-.968,0l-2.508.453s-.331,0-.061-.3l1.269-1.421a.3.3,0,0,0,.042-.419.281.281,0,0,0-.073-.065l-.573-.483s-.149-.254-.574-.122l-2.538.393S888.726,492.2,889.031,491.9Z" transform="translate(-888.903 -488.802)"/></g><g transform="translate(2.501 2.211)"><g transform="translate(0.906 0.498)"><path class="o" d="M892.257,479.413a.756.756,0,0,0,.089,1.021.746.746,0,0,0,1.007-.191Z" transform="translate(-892.099 -479.413)"/><g transform="translate(0.281 0.127)"><path class="n" d="M892.459,479.532a.459.459,0,0,0,.053.619.452.452,0,0,0,.61-.115Z" transform="translate(-892.363 -479.532)"/></g><g transform="translate(3.197 0.009)"><path class="o" d="M896.191,479.421a.755.755,0,0,1-.091,1.019.744.744,0,0,1-1-.191Z" transform="translate(-895.099 -479.421)"/></g><g transform="translate(3.39 0.102)"><path class="n" d="M895.942,479.509a.459.459,0,0,1-.053.619.451.451,0,0,1-.609-.116Z" transform="translate(-895.28 -479.509)"/></g></g><path class="o" d="M895.881,481.3a1.087,1.087,0,0,1-.689-.226,1.265,1.265,0,0,1-.306-.291,1.623,1.623,0,0,1-.135-.256h0c-.036-.08-.063-.138-.091-.143-.065-.011-.07-.067-.08-.192,0-.033-.005-.069-.01-.11s-.011-.092-.016-.129c-.016-.12-.025-.186.016-.212a.125.125,0,0,0,.053-.1.106.106,0,0,0-.053-.092.367.367,0,0,0-.181-.039.351.351,0,0,0-.182.038.125.125,0,0,0-.041.172.107.107,0,0,0,.016.021.751.751,0,0,1,.026.341,1.327,1.327,0,0,1-.026.244.078.078,0,0,1-.053.053.13.13,0,0,0-.083.082l-.017.042a1.161,1.161,0,0,1-.472.621,1.516,1.516,0,0,1-.693.127,1.66,1.66,0,0,1-.726-.127,1.434,1.434,0,0,1-.536-.92,2.649,2.649,0,0,1-.023-.4c0-.128,0-.2-.045-.213a.232.232,0,0,0-.053-.005h-.1a.127.127,0,0,1-.1-.032.192.192,0,0,1-.02-.18.109.109,0,0,1,.109-.064h.069l.074,0a.486.486,0,0,0,.212-.038.706.706,0,0,0,.081-.05,1.354,1.354,0,0,1,.693-.232,3.088,3.088,0,0,1,.344-.02,2.642,2.642,0,0,1,.768.107.982.982,0,0,1,.229.127.522.522,0,0,0,.2.107h.015a.621.621,0,0,0,.165-.032.9.9,0,0,1,.15-.032h.019a.614.614,0,0,1,.176.039h0a.707.707,0,0,0,.174.039.112.112,0,0,0,.062-.016l.008-.005a2.171,2.171,0,0,1,.857-.344,1.282,1.282,0,0,1,.212-.017,2.248,2.248,0,0,1,.634.107,2.844,2.844,0,0,1,.452.176.974.974,0,0,0,.388.086.437.437,0,0,1,.138.022.156.156,0,0,1,.066.159c-.011.044-.053.1-.183.1a.142.142,0,0,0-.138.107,1.288,1.288,0,0,0-.053.277h0a2.053,2.053,0,0,1-.194.727,1.057,1.057,0,0,1-.477.5,1.282,1.282,0,0,1-.513.1C895.961,481.3,895.92,481.3,895.881,481.3Zm-.043-2.068a1.331,1.331,0,0,0-.794.242.327.327,0,0,0-.139.26h0v.141a1.373,1.373,0,0,0,.288.882.967.967,0,0,0,.707.263,1.417,1.417,0,0,0,.544-.109.6.6,0,0,0,.242-.21,1.293,1.293,0,0,0,.16-.323,1.622,1.622,0,0,0,.087-.645.347.347,0,0,0-.109-.2.8.8,0,0,0-.233-.146,2.1,2.1,0,0,0-.615-.145C895.93,479.239,895.884,479.237,895.838,479.237Zm-3.03,0a1.331,1.331,0,0,0-.794.242.33.33,0,0,0-.14.26v.143a1.377,1.377,0,0,0,.288.883.975.975,0,0,0,.707.263,1.416,1.416,0,0,0,.544-.111.6.6,0,0,0,.242-.21,1.248,1.248,0,0,0,.16-.323,1.637,1.637,0,0,0,.089-.645.347.347,0,0,0-.11-.2.768.768,0,0,0-.233-.146,2.1,2.1,0,0,0-.615-.145C892.9,479.239,892.854,479.237,892.808,479.237Z" transform="translate(-891.249 -478.946)"/><g transform="translate(1.875 1.011)"><path class="o" d="M893.009,480.983l1.269-1.088,1.239,1.118-1.269,4.08Z" transform="translate(-893.009 -479.895)"/></g><g transform="translate(2.315 2.183)"><path class="n" d="M893.435,481.212a.155.155,0,0,1,.08-.2.158.158,0,0,1,.1-.009s.16.018.272.515C893.888,481.515,893.527,481.433,893.435,481.212Z" transform="translate(-893.421 -480.995)"/></g><g transform="translate(3.357 2.158)"><path class="n" d="M894.843,481.184a.155.155,0,0,0-.178-.212s-.157.017-.266.513C894.4,481.486,894.75,481.4,894.843,481.184Z" transform="translate(-894.399 -480.971)"/></g></g></g></g><path class="n" d="M-453.8,561.69c0,.844-.948,1.529-2.115,1.529h-49.915c-1.169,0-2.116-.684-2.116-1.529h0c0-.844.947-1.528,2.116-1.528h49.915c1.168,0,2.115.684,2.115,1.528Z" transform="translate(507.943 -560.162)"/></g></g></g></g></g><g transform="translate(0 4.72)"><g transform="translate(0 0)"><g transform="translate(6.548 8.784)"><path class="i" d="M-777.184,523.814a65.323,65.323,0,0,1-23-9.39c-10.645-6.974-23.622-20.4-24.99-44.729l.721-.04c1.352,24.033,14.159,37.282,24.665,44.166a64.53,64.53,0,0,0,22.709,9.281Z" transform="translate(825.169 -469.655)"/></g><g transform="translate(46.156 55.127)"><path class="i" d="M-687.259,623.065s-6.745-.833-6.353-7.152C-693.612,615.913-688.026,615.781-687.259,623.065Z" transform="translate(695.7 -615.913)"/><path class="i" d="M-700.166,644.276s6.632,1.482,8.386-4.6C-691.78,639.674-697,637.673-700.166,644.276Z" transform="translate(700.166 -631.95)"/></g><g transform="translate(38.236 52.298)"><path class="i" d="M-706.966,615.211s-6.465-2.1-4.88-8.229C-711.846,606.983-706.336,607.915-706.966,615.211Z" transform="translate(716.236 -606.983)"/><path class="i" d="M-725.161,636.014s6.23,2.714,9.108-2.926C-716.053,633.088-720.8,630.133-725.161,636.014Z" transform="translate(725.161 -624.309)"/></g><g transform="translate(30.981 49.169)"><path class="i" d="M-727.71,605.754s-6.242-2.688-4.1-8.645C-731.806,597.109-726.4,598.547-727.71,605.754Z" transform="translate(737.262 -597.109)"/><path class="i" d="M-748.056,625.909s5.952,3.28,9.34-2.069C-738.716,623.839-743.166,620.457-748.056,625.909Z" transform="translate(748.056 -614.661)"/></g><g transform="translate(23.914 45.112)"><path class="i" d="M-748.24,593.275s-5.981-3.225-3.32-8.971C-751.559,584.3-746.306,586.211-748.24,593.275Z" transform="translate(757.983 -584.304)"/><path class="i" d="M-770.36,612.554s5.642,3.79,9.486-1.241C-760.874,611.313-765.01,607.552-770.36,612.554Z" transform="translate(770.36 -601.828)"/></g><g transform="translate(17.187 40.147)"><path class="i" d="M-767.05,578.005s-5.427-4.092-1.928-9.37C-768.978,568.635-764.074,571.313-767.05,578.005Z" transform="translate(776.946 -568.635)"/><path class="i" d="M-791.591,595.188s5,4.6,9.563.2C-782.028,595.392-785.548,591.051-791.591,595.188Z" transform="translate(791.591 -585.554)"/></g><g transform="translate(11.575 34.562)"><path class="i" d="M-783.063,560.569s-4.665-4.942-.334-9.56C-783.4,551.009-779.01,554.47-783.063,560.569Z" transform="translate(792.864 -551.009)"/><path class="i" d="M-809.3,574.588s4.165,5.371,9.395,1.8C-799.909,576.39-802.655,571.522-809.3,574.588Z" transform="translate(809.304 -566.424)"/></g><g transform="translate(6.879 28.122)"><path class="i" d="M-797.316,540.1s-3.525-5.81,1.678-9.417C-795.638,530.687-792.073,534.991-797.316,540.1Z" transform="translate(806.607 -530.687)"/><path class="i" d="M-824.122,548.964s2.946,6.124,8.809,3.733C-815.313,552.7-816.977,547.36-824.122,548.964Z" transform="translate(824.122 -542.968)"/></g><g transform="translate(2.888 20.433)"><path class="i" d="M-810.184,515.668s-3.043-6.076,2.437-9.25C-807.747,506.418-804.544,511-810.184,515.668Z" transform="translate(819.167 -506.418)"/><path class="i" d="M-836.717,522.2s2.44,6.343,8.477,4.435C-828.24,526.637-829.465,521.182-836.717,522.2Z" transform="translate(836.717 -517.114)"/></g><g transform="translate(0.708 13.248)"><path class="i" d="M-817.6,492.774s-2.555-6.3,3.157-9.03C-814.441,483.744-811.608,488.56-817.6,492.774Z" transform="translate(826.226 -483.744)"/><path class="i" d="M-843.6,496.866s1.934,6.516,8.1,5.087C-835.5,501.953-836.29,496.419-843.6,496.866Z" transform="translate(843.6 -492.691)"/></g><g transform="translate(0 6.89)"><path class="i" d="M-821.483,472.172s-1.641-6.595,4.4-8.493C-817.082,463.679-814.958,468.847-821.483,472.172Z" transform="translate(829.338 -463.679)"/><path class="i" d="M-845.833,471.465s.994,6.725,7.3,6.182C-838.531,477.647-838.534,472.057-845.833,471.465Z" transform="translate(845.833 -468.998)"/></g><path class="i" d="M-826.718,441.933s4.117,5.407-.679,9.542C-827.4,451.475-831.394,447.57-826.718,441.933Z" transform="translate(834.326 -441.933)"/><g transform="translate(59.988)"><g transform="translate(0 8.784)"><path class="i" d="M-656.4,523.814a65.321,65.321,0,0,0,23-9.39c10.645-6.974,23.622-20.4,24.99-44.729l-.721-.04c-1.352,24.033-14.159,37.282-24.665,44.166a64.532,64.532,0,0,1-22.709,9.281Z" transform="translate(656.512 -469.655)"/></g><g transform="translate(0.046 55.127)"><path class="i" d="M-656.368,623.065s6.745-.833,6.353-7.152C-650.015,615.913-655.6,615.781-656.368,623.065Z" transform="translate(656.368 -615.913)"/><path class="i" d="M-647.81,644.276s-6.632,1.482-8.386-4.6C-656.2,639.674-650.978,637.673-647.81,644.276Z" transform="translate(656.25 -631.95)"/></g><g transform="translate(7.086 52.298)"><path class="i" d="M-634.1,615.211s6.465-2.1,4.88-8.229C-629.217,606.983-634.727,607.915-634.1,615.211Z" transform="translate(634.147 -606.983)"/><path class="i" d="M-624.37,636.014s-6.23,2.714-9.108-2.926C-633.478,633.088-628.733,630.133-624.37,636.014Z" transform="translate(633.69 -624.309)"/></g><g transform="translate(13.906 49.169)"><path class="i" d="M-612.422,605.754s6.242-2.688,4.1-8.645C-608.326,597.109-613.727,598.547-612.422,605.754Z" transform="translate(612.626 -597.109)"/><path class="i" d="M-601.975,625.909s-5.952,3.28-9.34-2.069C-611.315,623.839-606.865,620.457-601.975,625.909Z" transform="translate(611.73 -614.661)"/></g><g transform="translate(20.558 45.112)"><path class="i" d="M-591.2,593.275s5.981-3.225,3.32-8.971C-587.885,584.3-593.138,586.211-591.2,593.275Z" transform="translate(591.632 -584.304)"/><path class="i" d="M-579.987,612.554s-5.643,3.79-9.486-1.241C-589.473,611.313-585.336,607.552-579.987,612.554Z" transform="translate(590.157 -601.828)"/></g><g transform="translate(26.601 40.147)"><path class="i" d="M-571.6,578.005s5.427-4.092,1.928-9.37C-569.674,568.635-574.579,571.313-571.6,578.005Z" transform="translate(572.561 -568.635)"/><path class="i" d="M-558.922,595.188s-5,4.6-9.564.2C-568.486,595.392-564.965,591.051-558.922,595.188Z" transform="translate(569.777 -585.554)"/></g><g transform="translate(31.548 34.562)"><path class="i" d="M-555.229,560.569s4.665-4.942.334-9.56C-554.895,551.009-559.282,554.47-555.229,560.569Z" transform="translate(556.947 -551.009)"/><path class="i" d="M-540.846,574.588s-4.165,5.371-9.4,1.8C-550.241,576.39-547.5,571.522-540.846,574.588Z" transform="translate(552.366 -566.424)"/></g><g transform="translate(35.61 28.122)"><path class="i" d="M-541.264,540.1s3.525-5.81-1.678-9.417C-542.943,530.687-546.507,534.991-541.264,540.1Z" transform="translate(544.126 -530.687)"/><path class="i" d="M-524.764,548.964s-2.946,6.124-8.809,3.733C-533.573,552.7-531.909,547.36-524.764,548.964Z" transform="translate(536.917 -542.968)"/></g><g transform="translate(39.428 20.433)"><path class="i" d="M-528.734,515.668s3.044-6.076-2.437-9.25C-531.171,506.418-534.374,511-528.734,515.668Z" transform="translate(532.077 -506.418)"/><path class="i" d="M-511.452,522.2s-2.44,6.343-8.477,4.435C-519.929,526.637-518.7,521.182-511.452,522.2Z" transform="translate(523.778 -517.114)"/></g><g transform="translate(41.481 13.248)"><path class="i" d="M-521.774,492.774s2.555-6.3-3.157-9.03C-524.93,483.744-527.763,488.56-521.774,492.774Z" transform="translate(525.6 -483.744)"/><path class="i" d="M-503.763,496.866s-1.934,6.516-8.1,5.087C-511.866,501.953-511.074,496.419-503.763,496.866Z" transform="translate(516.218 -492.691)"/></g><g transform="translate(42.057 6.89)"><path class="i" d="M-519.05,472.172s1.641-6.595-4.4-8.493C-523.451,463.679-525.575,468.847-519.05,472.172Z" transform="translate(523.781 -463.679)"/><path class="i" d="M-499.8,471.465s-.994,6.725-7.3,6.182C-507.106,477.647-507.1,472.057-499.8,471.465Z" transform="translate(512.39 -468.998)"/></g><path class="i" d="M-511.615,441.933s-4.117,5.407.679,9.542C-510.936,451.475-506.939,447.57-511.615,441.933Z" transform="translate(558.65 -441.933)"/></g><g transform="translate(4.64 53.721)"><g transform="translate(0 25.428)"><path class="i" d="M-822.677,691.727l-8.511,5.965,11.538,3.393-.679,11.709,13.916-10.534-9.672-10.533Z" transform="translate(831.188 -691.727)"/><path class="p" d="M-775.492,714.641l7.128,1.175-3.9-4.245Z" transform="translate(793.14 -705.283)"/><g transform="translate(82.669)"><path class="q" d="M-554.025,691.727l8.512,5.965-11.539,3.393.678,11.709-13.914-10.534,9.671-10.533Z" transform="translate(570.287 -691.727)"/><path class="p" d="M-563.161,714.641l-7.127,1.175,3.9-4.245Z" transform="translate(570.287 -705.283)"/></g></g><path class="n" d="M-819.405,632.009s19.174-20.532,50.906-20.532,49.04,20.532,49.04,20.532l-13.914,14.254a49.915,49.915,0,0,0-36.059-14.933,49.915,49.915,0,0,0-36.059,14.933Z" transform="translate(823.139 -611.477)"/></g></g><g transform="translate(17.239 60.984)"><g transform="translate(0 0)"><path class="h" d="M-788.283,680.1a2.631,2.631,0,0,1-1.415-.165,2.735,2.735,0,0,1-1.154-.906,2.713,2.713,0,0,1-.558-1.359,2.659,2.659,0,0,1,.227-1.409,3.023,3.023,0,0,1,.956-1.172,3.062,3.062,0,0,1,1.1-.545,2.452,2.452,0,0,1,1.137-.024l-.147.872a1.881,1.881,0,0,0-1.524.366,2.011,2.011,0,0,0-.643.791,1.741,1.741,0,0,0-.138.948,1.928,1.928,0,0,0,.393.925,1.928,1.928,0,0,0,.785.628,1.736,1.736,0,0,0,.95.122,2.009,2.009,0,0,0,.935-.405,1.869,1.869,0,0,0,.759-1.375l.885.1a2.455,2.455,0,0,1-.334,1.091,3.09,3.09,0,0,1-.824.914A3.021,3.021,0,0,1-788.283,680.1Z" transform="translate(791.427 -661.771)"/><path class="h" d="M-772.835,669.476a2.643,2.643,0,0,1-1.4-.307,2.717,2.717,0,0,1-1.058-1.014,2.716,2.716,0,0,1-.415-1.4,2.643,2.643,0,0,1,.37-1.384,3.065,3.065,0,0,1,1.079-1.075,3.066,3.066,0,0,1,1.45-.466,2.649,2.649,0,0,1,1.4.3,2.714,2.714,0,0,1,1.06,1.017,2.715,2.715,0,0,1,.417,1.408,2.649,2.649,0,0,1-.372,1.381,3.062,3.062,0,0,1-1.079,1.075A3.062,3.062,0,0,1-772.835,669.476Zm1.7-1.922a1.748,1.748,0,0,0,.226-.928,1.935,1.935,0,0,0-.3-.957,1.936,1.936,0,0,0-.715-.7,1.746,1.746,0,0,0-.928-.225,1.936,1.936,0,0,0-.952.3,1.936,1.936,0,0,0-.7.709,1.745,1.745,0,0,0-.225.928,1.936,1.936,0,0,0,.295.957,1.934,1.934,0,0,0,.715.7,1.747,1.747,0,0,0,.928.225,1.934,1.934,0,0,0,.952-.3A1.936,1.936,0,0,0-771.139,667.554Z" transform="translate(780.688 -654.498)"/><path class="h" d="M-753.647,651.533l2.311,4.849-.741.353-4.239-2.01,1.565,3.284-.894.426-2.311-4.849.741-.353,4.239,2.01-1.565-3.284Z" transform="translate(768.561 -646.103)"/><path class="h" d="M-732.616,647.6l.889-.318.721,2.016a3,3,0,0,1-.74.8,3.708,3.708,0,0,1-1.01.549,3.067,3.067,0,0,1-1.515.163,2.653,2.653,0,0,1-1.308-.579,2.713,2.713,0,0,1-.832-1.21,2.711,2.711,0,0,1-.125-1.463,2.647,2.647,0,0,1,.647-1.279,3.1,3.1,0,0,1,1.285-.839,3.255,3.255,0,0,1,1.231-.2,2.408,2.408,0,0,1,1.094.3l-.386.79a2.02,2.02,0,0,0-1.6-.079,2.1,2.1,0,0,0-.87.564,1.736,1.736,0,0,0-.425.861,1.922,1.922,0,0,0,.1,1.009,1.887,1.887,0,0,0,.561.826,1.784,1.784,0,0,0,.878.4A2.024,2.024,0,0,0-733,649.81a2.162,2.162,0,0,0,.947-.633Z" transform="translate(753.961 -641.803)"/><path class="h" d="M-712.925,644.982l-1.445-1.262a1.989,1.989,0,0,1-.2.057l-1.177.293.378,1.519-.968.241-1.3-5.213,2.145-.534a2.978,2.978,0,0,1,1.236-.07,1.766,1.766,0,0,1,.93.449,1.844,1.844,0,0,1,.515.924,1.821,1.821,0,0,1-.035,1.084,1.755,1.755,0,0,1-.666.837l1.625,1.415Zm-1.376-4.039a1.534,1.534,0,0,0-1.027-.029l-1.132.281.517,2.078,1.132-.282a1.516,1.516,0,0,0,.893-.51.974.974,0,0,0,.136-.853A.965.965,0,0,0-714.3,640.943Z" transform="translate(741.015 -638.209)"/><path class="h" d="M-693.8,640.232l-2.659.378-.349,1.306-1.018.145,1.638-5.659.972-.138,3.157,4.977-1.033.147Zm-.437-.728-1.333-2.182-.665,2.466Z" transform="translate(727.482 -635.672)"/><path class="h" d="M-678.645,635.394l-1.778.088-.042-.843,4.553-.227.042.843-1.778.089.225,4.522-1,.049Z" transform="translate(715.624 -634.408)"/><path class="h" d="M-661.576,639.244a2.436,2.436,0,0,1-.535-1.819l.145-3.028,1,.048-.143,2.989q-.076,1.58,1.289,1.645t1.433-1.514l.143-2.99.982.047-.145,3.028a2.444,2.444,0,0,1-.7,1.76,2.322,2.322,0,0,1-1.759.542A2.338,2.338,0,0,1-661.576,639.244Z" transform="translate(703.089 -634.397)"/><path class="h" d="M-641.608,635.9l.987.144-.656,4.48,2.779.407-.122.835-3.766-.551Z" transform="translate(689.611 -635.423)"/><path class="h" d="M-625,644.292l-2.61-.633-.808,1.083-1-.242,3.615-4.651.954.231,1.092,5.792-1.014-.245Zm-.136-.838-.431-2.521-1.53,2.045Z" transform="translate(680.75 -638.122)"/><path class="h" d="M-605.363,644.225l-1.689-.563.267-.8,4.324,1.441-.267.8-1.689-.563-1.431,4.3-.947-.315Z" transform="translate(665.473 -640.179)"/><path class="h" d="M-592.919,649.033l.926.371-2,4.987-.926-.371Z" transform="translate(657.182 -644.395)"/><path class="h" d="M-584.711,659.226a2.636,2.636,0,0,1-.5-1.343,2.714,2.714,0,0,1,.28-1.438,2.722,2.722,0,0,1,.957-1.11,2.644,2.644,0,0,1,1.364-.438,3.06,3.06,0,0,1,1.488.326,3.064,3.064,0,0,1,1.177.968,2.656,2.656,0,0,1,.5,1.34,2.716,2.716,0,0,1-.282,1.441,2.715,2.715,0,0,1-.958,1.113,2.658,2.658,0,0,1-1.363.434,3.065,3.065,0,0,1-1.488-.326A3.058,3.058,0,0,1-584.711,659.226Zm2.534.386a1.755,1.755,0,0,0,.9-.312,1.937,1.937,0,0,0,.645-.766,1.937,1.937,0,0,0,.2-.98,1.749,1.749,0,0,0-.313-.9,1.933,1.933,0,0,0-.764-.64,1.937,1.937,0,0,0-.975-.2,1.748,1.748,0,0,0-.9.312,1.936,1.936,0,0,0-.645.766,1.93,1.93,0,0,0-.2.98,1.745,1.745,0,0,0,.312.9,1.932,1.932,0,0,0,.764.64A1.936,1.936,0,0,0-582.177,659.613Z" transform="translate(650.558 -648.4)"/><path class="h" d="M-561.046,665.516l-2.806,4.581-.7-.429-.626-4.649-1.9,3.1-.844-.517,2.806-4.581.7.429.627,4.649,1.9-3.1Z" transform="translate(638.741 -653.953)"/><path class="h" d="M-550.247,680.313a2.5,2.5,0,0,1-.455-.924l.741-.414a2.731,2.731,0,0,0,.394.826,2.946,2.946,0,0,0,.673.708,1.663,1.663,0,0,0,.831.381.582.582,0,0,0,.54-.229.491.491,0,0,0,.095-.4,1.154,1.154,0,0,0-.2-.438q-.152-.219-.439-.567a8.013,8.013,0,0,1-.622-.828,1.633,1.633,0,0,1-.25-.756,1.23,1.23,0,0,1,.284-.836,1.432,1.432,0,0,1,.678-.5,1.633,1.633,0,0,1,.931-.029,2.959,2.959,0,0,1,1.085.542,3.847,3.847,0,0,1,.7.677,2.667,2.667,0,0,1,.447.774l-.716.433a3.118,3.118,0,0,0-.4-.693,2.774,2.774,0,0,0-.533-.531,1.556,1.556,0,0,0-.824-.366.615.615,0,0,0-.547.253.477.477,0,0,0-.092.4,1.176,1.176,0,0,0,.2.435q.152.219.439.567a7.279,7.279,0,0,1,.615.819,1.685,1.685,0,0,1,.253.758,1.2,1.2,0,0,1-.277.827,1.417,1.417,0,0,1-.676.5,1.642,1.642,0,0,1-.931.023,2.984,2.984,0,0,1-1.088-.544A4.088,4.088,0,0,1-550.247,680.313Z" transform="translate(626.978 -662.986)"/></g></g></g></g></g></svg>