<svg xmlns="http://www.w3.org/2000/svg" width="22.274" height="20.536" viewBox="0 0 22.274 20.536"><defs><style>.a,.b,.c{stroke:#a1a6ae;stroke-miterlimit:10;}.a,.b{stroke-linecap:round;}.b,.c{fill:none;}</style></defs><g transform="translate(-292.5 -123.5)"><g transform="translate(293 124)"><g transform="translate(10.422 3.064)"><line class="a" x2="3.176" y2="3.176"/><line class="a" y1="3.045" x2="3.045" transform="translate(0.121 0.131)"/></g><path class="b" d="M7.152,7.011a.948.948,0,0,1,.931,1.032V20a1.85,1.85,0,0,0,1.85,1.85H23.9" transform="translate(-4.717 -5.712)"/><g transform="translate(3.366 0)"><path class="c" d="M22.937,16a4.625,4.625,0,1,1-9.25,0H9.668v8.905H26.835a.74.74,0,0,0,.74-.74V16.74a.74.74,0,0,0-.74-.74Z" transform="translate(-9.668 -11.375)"/><path class="c" d="M29.782,8.125h0a4.625,4.625,0,0,0-9.25,0h0" transform="translate(-16.512 -3.5)"/></g><circle class="c" cx="1.218" cy="1.218" r="1.218" transform="translate(0 0.082)"/><circle class="c" cx="1.592" cy="1.592" r="1.592" transform="translate(5.74 16.277)"/><circle class="c" cx="1.592" cy="1.592" r="1.592" transform="translate(14.477 16.353)"/></g></g></svg>