<svg xmlns="http://www.w3.org/2000/svg" xmlns:xlink="http://www.w3.org/1999/xlink" width="405" height="546" viewBox="0 0 405 546"><defs><style>.a{fill:#fff;}.b{fill:#3f67db;}.c{clip-path:url(#e);}.d,.e{opacity:0.5;}.d{fill:url(#f);}.e{fill:url(#g);}.f{filter:url(#c);}.g{filter:url(#a);}</style><filter id="a" x="6" y="4" width="393" height="534.47" filterUnits="userSpaceOnUse"><feOffset dy="3" input="SourceAlpha"/><feGaussianBlur stdDeviation="3" result="b"/><feFlood flood-opacity="0.161"/><feComposite operator="in" in2="b"/><feComposite in="SourceGraphic"/></filter><filter id="c" x="0" y="0" width="405" height="546" filterUnits="userSpaceOnUse"><feOffset dy="5" input="SourceAlpha"/><feGaussianBlur stdDeviation="5" result="d"/><feFlood flood-opacity="0.102"/><feComposite operator="in" in2="d"/><feComposite in="SourceGraphic"/></filter><clipPath id="e"><g class="g" transform="matrix(1, 0, 0, 1, 0, 0)"><path class="a" d="M0,0H375V499.47s-79.3,17-187.875,17S0,499.47,0,499.47Z" transform="translate(-1566 1018)"/></g></clipPath><linearGradient id="f" x1="0.867" y1="0.805" x2="0.141" y2="0.164" gradientUnits="objectBoundingBox"><stop offset="0" stop-color="#2b55cf"/><stop offset="1" stop-color="#0a2980"/></linearGradient><linearGradient id="g" x1="0.134" y1="0.165" x2="0.865" y2="0.84" xlink:href="#f"/></defs><g transform="translate(15 10)"><g class="f" transform="matrix(1, 0, 0, 1, -15, -10)"><path class="b" d="M0,0H375V499s-73.148,17-187.2,17S0,499,0,499Z" transform="translate(15 10)"/></g><g class="c" transform="translate(1566 -1018)"><circle class="d" cx="424" cy="424" r="424" transform="translate(-2036 640)"/><path class="e" d="M423.81,0c234.064,0,423.81,189.746,423.81,423.81s-189.746,423.81-423.81,423.81S0,657.873,0,423.81,189.746,0,423.81,0Z" transform="translate(-2036 1066.333)"/></g></g></svg>