<svg xmlns="http://www.w3.org/2000/svg" width="333.833" height="285.364" viewBox="0 0 333.833 285.364"><defs><style>.a{fill:#e8edf9;}.b{fill:#ced9f6;}.c{fill:#aabdf0;}.d{fill:#8fa8eb;}.e{fill:#3f67db;}.f{fill:none;stroke:#dde4f8;}.g{fill:#3f3d56;}.h,.k{opacity:0.1;}.i{fill:#e6e6e6;}.j,.k{fill:#1f46b8;}.l{fill:#2f2e41;}.m{fill:#444053;}.n{fill:#ffb8b8;}.o{fill:#721d48;}</style></defs><g transform="translate(-30 -265.686)"><path class="a" d="M277.664,89.681c-20.13-.7-39.3-7.2-57.61-14.308s-36.441-14.986-56.089-18.752c-12.637-2.423-27.091-2.768-37.271,4-9.8,6.532-12.967,17.776-14.668,28.217-1.281,7.857-2.034,16.127,1.474,23.483,2.438,5.107,6.762,9.4,9.754,14.292,10.41,17.02,3.051,38.008-8.227,54.627-5.288,7.795-11.43,15.241-15.514,23.53s-5.972,17.819-2.4,26.3c3.54,8.4,11.978,14.693,21.119,19.125,18.566,9,40.434,11.58,61.774,13.042,47.224,3.229,94.7,1.832,142.046.429,17.524-.516,35.122-1.042,52.359-3.751,9.574-1.505,19.455-3.894,26.407-9.661,8.821-7.319,11.007-19.71,5.095-28.886-9.916-15.4-37.324-19.219-44.263-35.738-3.813-9.095.1-19.222,5.648-27.654,11.894-18.093,31.828-33.965,32.876-54.642.722-14.2-8.861-28.425-23.679-35.147-15.53-7.045-37.069-6.158-48.521,5.5C316.173,85.682,295.439,90.3,277.664,89.681Z" transform="translate(-45.394 241.769)"/><g transform="translate(127.9 297.479)"><g transform="translate(0 0)"><rect class="b" width="100.086" height="122.939" rx="10" transform="matrix(-0.966, 0.259, -0.259, -0.966, 128.495, 118.749)"/><rect class="c" width="100.086" height="122.939" rx="10" transform="translate(31.56 10.858)"/><rect class="d" width="100.086" height="122.939" rx="10" transform="matrix(0.966, 0.259, -0.259, 0.966, 66.531, 0)"/></g><path class="e" d="M11.934,15.036,7.041,65.754H5.251L4.057,51.911Q3.938,50.24,1.671,29.953,0,14.082,0,10.621,0,0,5.967,0q6.205,0,6.205,9.9Q12.172,12.053,11.934,15.036Zm.477,69.811a5.437,5.437,0,0,1-2.029,4.415,7.325,7.325,0,0,1-4.3,1.432,6.511,6.511,0,0,1-3.938-1.313A5.439,5.439,0,0,1,0,84.848a6.868,6.868,0,0,1,1.79-4.893,5.448,5.448,0,0,1,4.3-1.909A6.013,6.013,0,0,1,10.5,80.193,6.333,6.333,0,0,1,12.411,84.848Z" transform="matrix(0.966, 0.259, -0.259, 0.966, 106.317, 25.216)"/><path class="f" d="M11.934,15.036,7.041,65.754H5.251L4.057,51.911Q3.938,50.24,1.671,29.953,0,14.082,0,10.621,0,0,5.967,0q6.205,0,6.205,9.9Q12.172,12.053,11.934,15.036Zm.477,69.811a5.437,5.437,0,0,1-2.029,4.415,7.325,7.325,0,0,1-4.3,1.432,6.511,6.511,0,0,1-3.938-1.313A5.439,5.439,0,0,1,0,84.848a6.868,6.868,0,0,1,1.79-4.893,5.448,5.448,0,0,1,4.3-1.909A6.013,6.013,0,0,1,10.5,80.193,6.333,6.333,0,0,1,12.411,84.848Z" transform="matrix(0.966, 0.259, -0.259, 0.966, 107.909, 24.804)"/></g><g transform="translate(30 265.686)"><ellipse class="g" cx="152.595" cy="8.225" rx="152.595" ry="8.225" transform="translate(19.43 268.915)"/><ellipse class="h" cx="36.819" cy="6.215" rx="36.819" ry="6.215" transform="translate(29.513 269.759)"/><path class="i" d="M164.244,448.394c2.663,3.552,5.537,7.617,8.373,12.048l.4-20.436.223.143a39.889,39.889,0,0,0-9.867-5.274l.223.124Z" transform="translate(-133.514 -291.93)"/><path class="i" d="M147.186,432.769a21.011,21.011,0,0,0-10.435-1.081c-.169.03-.334.065-.5.1.823.883,5.619,6.1,11.557,13.957Z" transform="translate(-117.547 -289.904)"/><path class="i" d="M214.781,517.444q.655,1.564,1.246,3.107l7.5-22.133.216.206q-1.328-2.5-2.815-4.856l-6.04,23.766Z" transform="translate(-163.771 -326.596)"/><path class="i" d="M194,481.228l3.917-23.2.222.178A62.7,62.7,0,0,0,187.324,448.1l-.413,20.825Q190.87,475.168,194,481.228Z" transform="translate(-147.367 -299.713)"/><path class="i" d="M107.249,488.315l-.092-.283a52.353,52.353,0,0,0,2.069,10.348l36.019,3.715c-1.88-3.467-3.821-6.721-5.706-9.685Z" transform="translate(-100.422 -323.22)"/><path class="i" d="M112.488,514.157l-.1-.283q.547,1.782,1.225,3.6l-.1-.283,36.454,3.24q-.661-1.292-1.336-2.55Z" transform="translate(-103.504 -338.43)"/><path class="i" d="M208.8,504.771l5.99-23.568.219.193a74.884,74.884,0,0,0-5.978-8.134l-3.97,23.518Q207.129,500.833,208.8,504.771Z" transform="translate(-158.052 -314.526)"/><path class="i" d="M167.1,556.861l-35.475-3.416a72.434,72.434,0,0,0,6.288,7.382l-.088-.314,32.427,6.671A90.052,90.052,0,0,0,167.1,556.861Z" transform="translate(-114.826 -361.722)"/><path class="i" d="M121.045,432.586l.084-.179c-4.877,1.107-8.32,4.425-10.214,9.228l21.7,4.9C126.189,438.037,121.118,432.663,121.045,432.586Z" transform="translate(-102.634 -290.478)"/><path class="i" d="M218.9,529.725a89.489,89.489,0,0,1,2.836,9.314l8.448-21.187.206.207a35.471,35.471,0,0,0-2.7-8.537q-.747-1.6-1.565-3.152l-7.585,22.4C218.659,529.086,218.78,529.406,218.9,529.725Z" transform="translate(-165.983 -334.013)"/><path class="i" d="M138.924,472.626c-2.807-4.378-5.648-8.394-8.281-11.9l-22.2-5.016-.075-.28a30.2,30.2,0,0,0-1.473,13.14Z" transform="translate(-100.185 -304.026)"/><path class="i" d="M121.78,535.128l35.677,3.435.007-.021a121.529,121.529,0,0,0-5.291-11.965l-36.544-3.248q.931,2.464,2.1,4.982a43.555,43.555,0,0,0,4.047,6.818Z" transform="translate(-105.409 -343.996)"/><path class="i" d="M321.078,554.377l.081.252a39.889,39.889,0,0,0-4.235-10.355l.093.238-8.049,10.727c-.214,4.435-.594,9.4-1.236,14.619Z" transform="translate(-218.483 -356.324)"/><path class="i" d="M318.621,532.718a21.012,21.012,0,0,0-7.348-7.489c-.149-.084-.3-.163-.448-.242.071,1.205.439,8.281,0,18.121Z" transform="translate(-220.303 -344.972)"/><path class="i" d="M293.933,646.259q-.493,1.622-1.022,3.187l19.89-12.265.035.3q.57-2.77.929-5.535l-19.81,14.452Z" transform="translate(-209.759 -407.927)"/><path class="i" d="M301.671,599.882l17.817-15.373.058.279a62.707,62.707,0,0,0-1.884-14.681l-13.6,15.776Q303.125,593.219,301.671,599.882Z" transform="translate(-214.915 -371.53)"/><path class="i" d="M316.122,606.584l-18.058,15.581q-.995,4.437-2.217,8.539l19.645-14.332.046.289A74.87,74.87,0,0,0,316.122,606.584Z" transform="translate(-211.488 -393.001)"/><path class="i" d="M186.364,617.692q.024-.365.046-.749a62.318,62.318,0,0,0,8.174-12.532l-10.906-13.591q-.214-.7-.449-1.388L194.838,603.9a90.052,90.052,0,0,0,4.156-9.961l-22.959-23.063c.072-.181.144-.367.218-.555l22.93,23.034.019-.012a121.545,121.545,0,0,0,3.556-12.59l-22.77-22.54q.072-.314.141-.631l22.771,22.54q.315-1.417.6-2.816l-22.7-23.118q.057-.331.111-.664l22.721,23.136c.763-3.87,1.343-7.613,1.783-11.1L183.15,541.81l.11-.277c-.527.768-1.04,1.574-1.539,2.408a45.886,45.886,0,0,0-.641-7.877l-8.529,21.39a68.867,68.867,0,0,1,1.478,8.955c-.052.51-.1,1.023-.135,1.54l.28.282c.018.275.034.549.048.822l-.373-.375c-.018.3-.031.6-.044.9a64.839,64.839,0,0,0-1.665-12.074l-32.19-6.622c1.621,1.665,3.321,3.282,5.058,4.842a39.35,39.35,0,0,0-10.4-1.777l.251.049,4.752,12.541c3.631,2.555,7.62,5.533,11.687,8.87l-5.85-19.29q.325.289.652.576l5.834,19.241q5.7,4.718,10.545,9.513L159.8,567.344l.561.39,2.71,18.3q3.215,3.216,6.026,6.444l-1.3-19.852.543.339,1.313,20.062-.125-.054q1.106,1.285,2.145,2.569l.251-20.412.536.313L172.2,596.21c.213.267.428.534.636.8a89.472,89.472,0,0,1,5.576,7.981l.121-1.857q.224.826.448,1.624l-.069,1.056c.25.415.492.83.731,1.245q.279.949.553,1.845-.793-1.47-1.657-2.911l-32.66,3.652c17.173,9.033,38.483,13.316,39.841,13.583-.322-1.425-.714-2.837-1.165-4.236.117-.123.233-.247.349-.371.055.167.113.334.166.5-.061.065-.12.131-.181.2l.211-.1q.471,1.475.844,2.941c.1-.794.232-2,.349-3.524,5.882-2.945,21.115-11.55,28.849-25.041L194.935,604.63A62.934,62.934,0,0,1,186.364,617.692Zm-6.7-31.87.05-.766.513.639-.05.766Z" transform="translate(-116.581 -351.492)"/><path class="i" d="M290.51,522.683l.179-.085c-4.462-2.258-9.23-1.9-13.752.592l13.586,17.618C290.995,530.161,290.517,522.789,290.51,522.683Z" transform="translate(-200.356 -342.682)"/><path class="i" d="M286.043,659.659a89.46,89.46,0,0,1-3.756,8.982l20.02-10.93.027.291a35.478,35.478,0,0,0,3.368-8.3q.445-1.709.8-3.426L286.38,658.693C286.268,659.015,286.157,659.34,286.043,659.659Z" transform="translate(-203.506 -416.367)"/><path class="i" d="M276.545,544.777l-13.9-18.022.121-.264a30.2,30.2,0,0,0-9.515,9.181l22.077,23.555C275.96,554.065,276.334,549.16,276.545,544.777Z" transform="translate(-186.416 -345.857)"/><path class="i" d="M118.717,579.529a21.012,21.012,0,0,0-10.259,2.2c-.151.081-.3.165-.444.249,1.056.585,7.229,4.062,15.305,9.7Z" transform="translate(-100.927 -377.074)"/><path class="i" d="M129.722,633.268l-31.974,6.087-.175-.241a52.36,52.36,0,0,0,5.166,9.2l35.4-7.6C135.282,638,132.43,635.506,129.722,633.268Z" transform="translate(-94.781 -408.708)"/><path class="i" d="M148.31,654.489q-1.028-1.025-2.059-2.012L110.717,660.1l-.178-.24q1.071,1.526,2.279,3.049l-.18-.239Z" transform="translate(-102.413 -420.014)"/><path class="i" d="M182.045,692.21a90.022,90.022,0,0,0-6.189-8.843l-34.793,7.716a72.469,72.469,0,0,0,8.262,5.077l-.181-.272Z" transform="translate(-120.38 -438.197)"/><path class="i" d="M97.723,585.938l.024-.2c-4.3,2.56-6.545,6.78-6.862,11.933l22.154-2.044C104.3,589.531,97.816,585.988,97.723,585.938Z" transform="translate(-90.844 -380.733)"/><path class="i" d="M113.63,610.886l-22.662,2.091-.158-.243a30.2,30.2,0,0,0,2.661,12.952l31.714-6.037C121.163,616.352,117.22,613.411,113.63,610.886Z" transform="translate(-90.786 -395.533)"/><path class="i" d="M161.029,668.224a121.529,121.529,0,0,0-8.731-9.744l-35.758,8.206q1.647,2.056,3.54,4.088a43.556,43.556,0,0,0,5.956,5.233l34.992-7.76Z" transform="translate(-105.945 -423.548)"/><path class="j" d="M164.244,448.394c2.663,3.552,5.537,7.617,8.373,12.048l.4-20.436.223.143a39.889,39.889,0,0,0-9.867-5.274l.223.124Z" transform="translate(-133.514 -291.93)"/><path class="j" d="M147.186,432.769a21.011,21.011,0,0,0-10.435-1.081c-.169.03-.334.065-.5.1.823.883,5.619,6.1,11.557,13.957Z" transform="translate(-117.547 -289.904)"/><path class="j" d="M214.781,517.444q.655,1.564,1.246,3.107l7.5-22.133.216.206q-1.328-2.5-2.815-4.856l-6.04,23.766Z" transform="translate(-163.771 -326.596)"/><path class="j" d="M194,481.228l3.917-23.2.222.178A62.7,62.7,0,0,0,187.324,448.1l-.413,20.825Q190.87,475.168,194,481.228Z" transform="translate(-147.367 -299.713)"/><path class="j" d="M107.249,488.315l-.092-.283a52.353,52.353,0,0,0,2.069,10.348l36.019,3.715c-1.88-3.467-3.821-6.721-5.706-9.685Z" transform="translate(-100.422 -323.22)"/><path class="j" d="M112.488,514.157l-.1-.283q.547,1.782,1.225,3.6l-.1-.283,36.454,3.24q-.661-1.292-1.336-2.55Z" transform="translate(-103.504 -338.43)"/><path class="j" d="M208.8,504.771l5.99-23.568.219.193a74.884,74.884,0,0,0-5.978-8.134l-3.97,23.518Q207.129,500.833,208.8,504.771Z" transform="translate(-158.052 -314.526)"/><path class="j" d="M167.1,556.861l-35.475-3.416a72.434,72.434,0,0,0,6.288,7.382l-.088-.314,32.427,6.671A90.052,90.052,0,0,0,167.1,556.861Z" transform="translate(-114.826 -361.722)"/><path class="j" d="M121.045,432.586l.084-.179c-4.877,1.107-8.32,4.425-10.214,9.228l21.7,4.9C126.189,438.037,121.118,432.663,121.045,432.586Z" transform="translate(-102.634 -290.478)"/><path class="j" d="M218.9,529.725a89.489,89.489,0,0,1,2.836,9.314l8.448-21.187.206.207a35.471,35.471,0,0,0-2.7-8.537q-.747-1.6-1.565-3.152l-7.585,22.4C218.659,529.086,218.78,529.406,218.9,529.725Z" transform="translate(-165.983 -334.013)"/><path class="j" d="M138.924,472.626c-2.807-4.378-5.648-8.394-8.281-11.9l-22.2-5.016-.075-.28a30.2,30.2,0,0,0-1.473,13.14Z" transform="translate(-100.185 -304.026)"/><path class="j" d="M121.78,535.128l35.677,3.435.007-.021a121.529,121.529,0,0,0-5.291-11.965l-36.544-3.248q.931,2.464,2.1,4.982a43.555,43.555,0,0,0,4.047,6.818Z" transform="translate(-105.409 -343.996)"/><path class="j" d="M321.078,554.377l.081.252a39.889,39.889,0,0,0-4.235-10.355l.093.238-8.049,10.727c-.214,4.435-.594,9.4-1.236,14.619Z" transform="translate(-218.483 -356.324)"/><path class="j" d="M318.621,532.718a21.012,21.012,0,0,0-7.348-7.489c-.149-.084-.3-.163-.448-.242.071,1.205.439,8.281,0,18.121Z" transform="translate(-220.303 -344.972)"/><path class="j" d="M293.933,646.259q-.493,1.622-1.022,3.187l19.89-12.265.035.3q.57-2.77.929-5.535l-19.81,14.452Z" transform="translate(-209.759 -407.927)"/><path class="j" d="M301.671,599.882l17.817-15.373.058.279a62.707,62.707,0,0,0-1.884-14.681l-13.6,15.776Q303.125,593.219,301.671,599.882Z" transform="translate(-214.915 -371.53)"/><path class="j" d="M316.122,606.584l-18.058,15.581q-.995,4.437-2.217,8.539l19.645-14.332.046.289A74.87,74.87,0,0,0,316.122,606.584Z" transform="translate(-211.488 -393.001)"/><path class="j" d="M186.364,617.692q.024-.365.046-.749a62.318,62.318,0,0,0,8.174-12.532l-10.906-13.591q-.214-.7-.449-1.388L194.838,603.9a90.052,90.052,0,0,0,4.156-9.961l-22.959-23.063c.072-.181.144-.367.218-.555l22.93,23.034.019-.012a121.545,121.545,0,0,0,3.556-12.59l-22.77-22.54q.072-.314.141-.631l22.771,22.54q.315-1.417.6-2.816l-22.7-23.118q.057-.331.111-.664l22.721,23.136c.763-3.87,1.343-7.613,1.783-11.1L183.15,541.81l.11-.277c-.527.768-1.04,1.574-1.539,2.408a45.886,45.886,0,0,0-.641-7.877l-8.529,21.39a68.867,68.867,0,0,1,1.478,8.955c-.052.51-.1,1.023-.135,1.54l.28.282c.018.275.034.549.048.822l-.373-.375c-.018.3-.031.6-.044.9a64.839,64.839,0,0,0-1.665-12.074l-32.19-6.622c1.621,1.665,3.321,3.282,5.058,4.842a39.35,39.35,0,0,0-10.4-1.777l.251.049,4.752,12.541c3.631,2.555,7.62,5.533,11.687,8.87l-5.85-19.29q.325.289.652.576l5.834,19.241q5.7,4.718,10.545,9.513L159.8,567.344l.561.39,2.71,18.3q3.215,3.216,6.026,6.444l-1.3-19.852.543.339,1.313,20.062-.125-.054q1.106,1.285,2.145,2.569l.251-20.412.536.313L172.2,596.21c.213.267.428.534.636.8a89.472,89.472,0,0,1,5.576,7.981l.121-1.857q.224.826.448,1.624l-.069,1.056c.25.415.492.83.731,1.245q.279.949.553,1.845-.793-1.47-1.657-2.911l-32.66,3.652c17.173,9.033,38.483,13.316,39.841,13.583-.322-1.425-.714-2.837-1.165-4.236.117-.123.233-.247.349-.371.055.167.113.334.166.5-.061.065-.12.131-.181.2l.211-.1q.471,1.475.844,2.941c.1-.794.232-2,.349-3.524,5.882-2.945,21.115-11.55,28.849-25.041L194.935,604.63A62.934,62.934,0,0,1,186.364,617.692Zm-6.7-31.87.05-.766.513.639-.05.766Z" transform="translate(-116.581 -351.492)"/><path class="j" d="M290.51,522.683l.179-.085c-4.462-2.258-9.23-1.9-13.752.592l13.586,17.618C290.995,530.161,290.517,522.789,290.51,522.683Z" transform="translate(-200.356 -342.682)"/><path class="j" d="M286.043,659.659a89.46,89.46,0,0,1-3.756,8.982l20.02-10.93.027.291a35.478,35.478,0,0,0,3.368-8.3q.445-1.709.8-3.426L286.38,658.693C286.268,659.015,286.157,659.34,286.043,659.659Z" transform="translate(-203.506 -416.367)"/><path class="j" d="M276.545,544.777l-13.9-18.022.121-.264a30.2,30.2,0,0,0-9.515,9.181l22.077,23.555C275.96,554.065,276.334,549.16,276.545,544.777Z" transform="translate(-186.416 -345.857)"/><path class="j" d="M118.717,579.529a21.012,21.012,0,0,0-10.259,2.2c-.151.081-.3.165-.444.249,1.056.585,7.229,4.062,15.305,9.7Z" transform="translate(-100.927 -377.074)"/><path class="j" d="M129.722,633.268l-31.974,6.087-.175-.241a52.36,52.36,0,0,0,5.166,9.2l35.4-7.6C135.282,638,132.43,635.506,129.722,633.268Z" transform="translate(-94.781 -408.708)"/><path class="j" d="M148.31,654.489q-1.028-1.025-2.059-2.012L110.717,660.1l-.178-.24q1.071,1.526,2.279,3.049l-.18-.239Z" transform="translate(-102.413 -420.014)"/><path class="j" d="M182.045,692.21a90.022,90.022,0,0,0-6.189-8.843l-34.793,7.716a72.469,72.469,0,0,0,8.262,5.077l-.181-.272Z" transform="translate(-120.38 -438.197)"/><path class="j" d="M97.723,585.938l.024-.2c-4.3,2.56-6.545,6.78-6.862,11.933l22.154-2.044C104.3,589.531,97.816,585.988,97.723,585.938Z" transform="translate(-90.844 -380.733)"/><path class="j" d="M113.63,610.886l-22.662,2.091-.158-.243a30.2,30.2,0,0,0,2.661,12.952l31.714-6.037C121.163,616.352,117.22,613.411,113.63,610.886Z" transform="translate(-90.786 -395.533)"/><path class="j" d="M161.029,668.224a121.529,121.529,0,0,0-8.731-9.744l-35.758,8.206q1.647,2.056,3.54,4.088a43.556,43.556,0,0,0,5.956,5.233l34.992-7.76Z" transform="translate(-105.945 -423.548)"/><path class="k" d="M245.9,110.051l-.053-.3-5.064-2.682h-.795l-.3-.583H229.243l-2.42.583h-8.914l-2.415,2.818-.025.173c-.156,1.008-3.649,24.708,5.566,32.249l3.842,1.785h2.485l-.486-.97,2.16.97h6.994l.124-.186,4.15-1.554.107-.123C240.786,141.789,249.606,131.073,245.9,110.051Z" transform="translate(-163.718 -98.639)"/><rect class="i" width="4.114" height="10.696" transform="translate(65.524 34.968)"/><rect class="g" width="7.405" height="205.694" transform="translate(63.673 59.445)"/><rect class="g" width="11.107" height="6.994" transform="translate(61.822 55.949)"/><path class="g" d="M140.276,105l6.994,7.4-2.88,5.348,5.759,1.234,5.348-1.234-3.291-5.759L158.788,105Z" transform="translate(-82.568 -61.804)"/><path class="g" d="M213.353,107.165l-3.291-3.291,2.468-2.468H243.8l2.468,2.88-3.7,2.88S222.815,106.343,213.353,107.165Z" transform="translate(-160.993 -95.647)"/><path class="g" d="M245.9,107.935l-.053-.3-5.064-2.682-2.312-1.226-12.979-.835-7.277,1.711-.3.35-2.415,2.818-.025.173c-.156,1.008-3.649,24.708,5.566,32.249l3.842,1.785,3.234,1.5-.749-1.5-1.23-2.456c-1.288-7.5-4.118-27.189-2.312-31.3l7.463-2.407,6.623,2.46c.457,2.958,3.41,23.7-1.765,31.089l-.111.16v2.316l4.274-1.6.107-.123C240.786,139.674,249.606,128.957,245.9,107.935ZM239.56,139.2l-2.3.864v-.156c5.677-8.47,1.966-31.216,1.806-32.187l-.058-.354-6.492-2.411-1.205-.448-1.391.448-6.961,2.246-.119.21c-2.645,4.743,1.892,31.282,2.086,32.409l.016.09.49.979-3.682-1.7c-8.207-6.833-5.393-28.715-5.093-30.883l2.222-2.592,3.233-.761,3.476-.819,5.722.37,6.8.44.016.008,6.595,3.489C248,127.513,240.5,137.983,239.56,139.2Z" transform="translate(-163.718 -96.524)"/><ellipse class="g" cx="11.107" cy="5.759" rx="11.107" ry="5.759" transform="translate(56.474)"/><path class="g" d="M231.644,706.406l-6.582,20.981s10.285,5.759,24.272,0l-6.582-20.981Z" transform="translate(-169.822 -451.757)"/><circle class="j" cx="3.291" cy="3.291" r="3.291" transform="translate(64.29 29.62)"/><g transform="translate(224.151 55.532)"><g transform="translate(0 0)"><g transform="translate(0 0)"><path class="l" d="M685.257,332.211c-2.18,6.452-5.521,12.332-12.332,12.332s-11.948-5.532-12.331-12.332c-.49-8.689,5.364-12.367,12.331-12.331C681.157,319.922,687.843,324.553,685.257,332.211Z" transform="translate(-616.21 -310.144)"/><rect class="l" width="20.17" height="29.395" transform="translate(46.542 20.426)"/><path class="m" d="M529.774,415.251l1.025,7.684L554.62,421.4l-1.281-6.916Z" transform="translate(-489.114 -332.259)"/><path class="n" d="M673.678,412.74s3.074,8.453-2.818,9.734,1.025,6.916,1.025,6.916l9.221-.512,6.4-1.793,2.049-3.586s-7.941-4.1-5.635-10.5Z" transform="translate(-621.747 -375.086)"/><path class="h" d="M673.678,412.74s3.074,8.453-2.818,9.734,1.025,6.916,1.025,6.916l9.221-.512,6.4-1.793,2.049-3.586s-7.941-4.1-5.635-10.5Z" transform="translate(-621.747 -375.086)"/><path class="n" d="M745.4,522.132l.512,19.467a18.39,18.39,0,0,0,5.379,6.4c3.586,2.562,13.576,6.148,13.576,6.148s9.221,11.271,10.5,3.586-7.941-8.709-7.941-8.709-11.527-9.221-12.3-11.014-1.537-13.064-1.281-15.625S745.4,522.132,745.4,522.132Z" transform="translate(-675.538 -450.922)"/><path class="n" d="M544.531,508.846l-1.793,16.906-21,19.467s-14.088,8.709-6.4,10.5,11.271-7.172,11.271-7.172l22.8-15.369s2.986-23.576,1.961-24.6S544.531,508.846,544.531,508.846Z" transform="translate(-513.036 -441.835)"/><path class="m" d="M666.834,444.18s-6.147,3.586-12.3,2.305-7.172-3.074-7.172-3.074-7.941,1.281-8.709,4.355,0,7.685,0,7.685-6.916,7.428-1.025,16.394l1.281,10.5s17.418-2.562,21.517,0,5.379.512,5.379.512l2.818-12.551,8.965-19.724s0-2.561-4.867-4.1S666.834,444.18,666.834,444.18Z" transform="translate(-598.51 -396.535)"/><path class="m" d="M745.928,459.6l3.33,2.562s3.33,18.187.512,18.7-12.039,1.793-12.039,0S745.928,459.6,745.928,459.6Z" transform="translate(-670.175 -407.856)"/><path class="m" d="M626.05,454.486h-1.793s-6.148,4.355-7.172,9.221-3.842,9.99-1.537,10.5,9.222,2.561,10.246,1.793S626.05,454.486,626.05,454.486Z" transform="translate(-584.109 -404.281)"/><ellipse class="l" cx="4.868" cy="4.868" rx="4.868" ry="4.868" transform="translate(51.848 2.596)"/><path class="l" d="M679.984,292.368a4.868,4.868,0,0,1,4.38-4.843c-.16-.016-.322-.025-.486-.025a4.868,4.868,0,0,0,0,9.735c.164,0,.327-.009.487-.025A4.868,4.868,0,0,1,679.984,292.368Z" transform="translate(-629.109 -287.5)"/><ellipse class="n" cx="10.758" cy="10.758" rx="10.758" ry="10.758" transform="translate(46.295 21.26)"/><path class="l" d="M662.845,347.509s-.1-.566-4.077.925-6.358,12.491-4.37,18.951a5.919,5.919,0,0,1-.914,5.793,9.571,9.571,0,0,0,3.393,14.864q.246.107.5.212l2.484,1.491a11.363,11.363,0,0,1-1.582-9.5,27.333,27.333,0,0,0,.493-13.992c-.182-.781-.389-1.585-.623-2.407-1.988-6.957-1.021-6.153,5.936-13.11a44.22,44.22,0,0,0,7.454,4.472c3.478,1.491,6.46,2.981,3.975,7.95s-8.447,9.441-4.472,15.9,4.472,3.975,3.975,6.46h0l-.5,2.485,2.981-2.981L675.516,389s6.46,0,8.447-4.969l.994.994s3.975-6.957-3.478-13.416c0,0-2.484-1.491.994-6.46s.807-15.652-3.665-17.64S662.845,347.509,662.845,347.509Z" transform="translate(-609.709 -328.849)"/></g></g><g transform="translate(29.529 86.901)"><path class="n" d="M956.51,730.385l5.035,1.043,3.724-3.3v-9.292l.082-1.27v-.037h0l.019-.268.678-10.316s5.035-17.194,5.817-20.483c.555-2.342.324-9.407.142-13.31-.075-1.6-.142-2.67-.142-2.67l-11.113-2.693-.234,8.566-.812,29.942a16.522,16.522,0,0,1-1.14,5.568l-.037.1a24.311,24.311,0,0,0-1.613,7.847l-.372,9.515v.264Z" transform="translate(-926.982 -596.015)"/><path class="o" d="M961.836,812.176l.052-.03a1.055,1.055,0,0,0,.54-.924l.082-10s1.087-.771.827,2.745-.436,8.77-.436,8.77-.041,5.731-5.511,5.731c0,0-5.471,1.039-5.43-2.085s2.26-3.255,2.26-3.255l1.963.172A10.055,10.055,0,0,0,961.836,812.176Z" transform="translate(-924.127 -679.708)"/><path class="n" d="M886.09,733.756c.13,2.257,6.771.954,6.771.954l4.469-8.681s3.724-2.868,1.862-5.385a3.827,3.827,0,0,1-.275-.428v-.022h0c-.041-.067-.075-.134-.112-.2h0c-1.341-2.659-.682-7.02-.682-7.02s1.735-12.662,2.346-16.014c.428-2.365.253-10.107.108-14.442-.056-1.8-.108-3.013-.108-3.013l-11.031-2.95v3.288c-.022,2.719-.1,6.525-.372,9-.477,4.212,1.218,18.148,1.218,18.148l.585,12.684a11.77,11.77,0,0,1-1.464,6.156c-1.385,2.532-3.188,6.1-3.315,7.675A1.529,1.529,0,0,0,886.09,733.756Z" transform="translate(-882.785 -601.513)"/><path class="o" d="M893.236,793.151s2.182-.507,1.534,5.18h0a3.669,3.669,0,0,1-1.731,3.251,12.424,12.424,0,0,0-5.192,7.2h0a3.932,3.932,0,0,1-3.031,3.832c-1.97.458-4.428.864-5.851.466-2.648-.745-1.49-2.559-1.49-2.559l3.039-3.6s5.3,2.085,6.469.391,4.841-9.076,4.841-9.076S893.9,793.627,893.236,793.151Z" transform="translate(-877.223 -674.683)"/><path class="m" d="M889.728,555.561s1.3-3.527,2.473-4.175,1.047,4.167,1.047,4.167,28.653.261,30.087-1.955,9.768-2.082,9.768-2.082-.261-27.615-.912-38.035-1.694-19.928-4.3-22.792c-1.687-1.862-4.1-7.854-5.564-11.854-.808-2.186-1.341-3.776-1.341-3.776l-27.35,1.564-.223,2.212-2.9,29.048s-.373,32.028-1.564,39.334S889.728,555.561,889.728,555.561Z" transform="translate(-884.34 -475.06)"/></g></g></g></g></svg>