<svg xmlns="http://www.w3.org/2000/svg" width="27.715" height="29.076" viewBox="0 0 27.715 29.076"><defs><style>.a,.b,.e{fill:none;}.a,.b{stroke:#2f2f2f;stroke-miterlimit:10;stroke-width:1.5px;}.b{stroke-linecap:round;}.c{fill:#1ca4fc;stroke:#fff;stroke-width:2px;}.d{stroke:none;}</style></defs><g transform="translate(-1239.679 -21.03)"><g transform="translate(1197.036 -7.889) rotate(20)"><path class="a" d="M80,77.463a3.453,3.453,0,0,0,6.907,0" transform="translate(-15.651 -46.154)"/><path class="a" d="M75.938,26.59a3.334,3.334,0,0,1-.557-1.841V19.431a7.517,7.517,0,0,0-6.306-7.352c0-.021.006-.041.006-.062a1.283,1.283,0,0,0-2.566,0c0,.015,0,.03,0,.045a7.52,7.52,0,0,0-6.407,7.37v5.379a3.334,3.334,0,0,1-.539,1.815l-1.5,2.317A1.54,1.54,0,0,0,59.4,31.308H76.165a1.54,1.54,0,0,0,1.322-2.377Z"/><path class="b" d="M74.472,23.271a5.515,5.515,0,0,0-2.883,3.854" transform="translate(-8.44 -8.162)"/></g><g class="c" transform="translate(1259 27)"><circle class="d" cx="3" cy="3" r="3"/><circle class="e" cx="3" cy="3" r="4"/></g></g></svg>