<svg xmlns="http://www.w3.org/2000/svg" width="37.094" height="35.004" viewBox="0 0 37.094 35.004"><defs><style>.a,.b,.e{fill:none;}.a,.b{stroke:#2f2f2f;}.a{stroke-width:1.2px;}.b{stroke-width:1.5px;}.c{fill:#1ca4fc;stroke:#fff;stroke-width:2px;}.d{stroke:none;}</style></defs><g transform="translate(-1290.906 -19.966)"><g transform="translate(980.906 -2.034)"><path class="a" d="M-5.994-37.206a5.6,5.6,0,0,0,4.075-5.374A5.576,5.576,0,0,0-7.489-48.15a5.576,5.576,0,0,0-5.571,5.571,5.6,5.6,0,0,0,4.075,5.374,9.051,9.051,0,0,0-7.576,8.94h.329a8.718,8.718,0,0,1,8.742-8.742,8.718,8.718,0,0,1,8.742,8.742h.329A9.051,9.051,0,0,0-5.994-37.206Zm-6.738-5.374a5.225,5.225,0,0,1,5.242-5.242,5.225,5.225,0,0,1,5.242,5.242,5.246,5.246,0,0,1-5.242,5.242A5.246,5.246,0,0,1-12.731-42.579Z" transform="translate(334.686 81.601)"/><g transform="translate(310 22)"><g class="b" transform="translate(0)"><circle class="d" cx="17.502" cy="17.502" r="17.502"/><circle class="e" cx="17.502" cy="17.502" r="16.752"/></g></g></g><g class="c" transform="translate(1320 27)"><circle class="d" cx="3" cy="3" r="3"/><circle class="e" cx="3" cy="3" r="4"/></g></g></svg>