<svg xmlns="http://www.w3.org/2000/svg" xmlns:xlink="http://www.w3.org/1999/xlink" width="447.482" height="352.302" viewBox="0 0 447.482 352.302"><defs><style>.a{fill:#3f3d56;}.b{fill:#c8d3f6;}.c{fill:#8ca4ea;}.d{fill:#3f67db;}.e{fill:none;stroke:#c5d1f4;}.f{fill:#fff;}.g{fill:#1f46b8;}.h{fill:#444053;}.i{fill:url(#a);}.j,.l{opacity:0.1;}.k{fill:#ffb8b8;}.m{fill:#4c4981;}.n{fill:#122967;}.o{fill:#a8a8a8;}.p{opacity:0.2;}</style><linearGradient id="a" x1="0.5" y1="1" x2="0.5" gradientUnits="objectBoundingBox"><stop offset="0" stop-color="gray" stop-opacity="0.251"/><stop offset="0.54" stop-color="gray" stop-opacity="0.122"/><stop offset="1" stop-color="gray" stop-opacity="0.102"/></linearGradient></defs><g transform="translate(-56.048 13.354)"><ellipse class="a" cx="199.992" cy="10.761" rx="199.992" ry="10.761" transform="translate(103.546 317.426)"/><g transform="translate(235.592 45.715)"><rect class="b" width="145.577" height="50.37" rx="5" transform="translate(0 0)"/><ellipse class="c" cx="15.046" cy="15.046" rx="15.046" ry="15.046" transform="translate(11.775 10.467)"/><rect class="c" width="72.788" height="3.271" transform="translate(55.52 19.625)"/><rect class="c" width="72.788" height="3.271" transform="translate(55.52 28.129)"/></g><g transform="translate(235.592 104.021)"><rect class="b" width="145.577" height="50.37" rx="5" transform="translate(0)"/><ellipse class="c" cx="15.046" cy="15.046" rx="15.046" ry="15.046" transform="translate(11.775 10.467)"/><rect class="c" width="72.788" height="3.271" transform="translate(55.52 19.625)"/><rect class="c" width="72.788" height="3.271" transform="translate(55.52 28.129)"/></g><g transform="translate(235.592 162.21)"><rect class="b" width="145.577" height="50.37" rx="5" transform="translate(0)"/><ellipse class="c" cx="15.046" cy="15.046" rx="15.046" ry="15.046" transform="translate(11.775 10.467)"/><rect class="c" width="72.788" height="3.271" transform="translate(55.52 19.625)"/><rect class="c" width="72.788" height="3.271" transform="translate(55.52 28.129)"/></g><g transform="translate(235.592 -13.117)"><rect class="c" width="145.577" height="50.37" rx="5" transform="translate(0)"/><ellipse class="d" cx="15.046" cy="15.046" rx="15.046" ry="15.046" transform="translate(11.775 9.812)"/><rect class="d" width="72.788" height="3.271" transform="translate(55.52 18.971)"/><rect class="d" width="72.788" height="3.271" transform="translate(55.52 27.475)"/><ellipse class="e" cx="15.046" cy="15.046" rx="15.046" ry="15.046" transform="translate(11.775 9.812)"/><path class="f" d="M448.934,204.087l-5.389-7.185,1.277-.957,4.39,5.853,17.283-14.141,1.01,1.235Z" transform="translate(-423.484 -173.54)"/></g><g transform="translate(56.048 158.665)"><path class="g" d="M0,1.636S4.558-1.371,9.076.768c0,0-1.392,2.681-7.109,2.425Z" transform="translate(64.358 148.831)"/><path class="g" d="M.273,0S-1.113,5.282,2.362,8.875c0,0,2.093-2.178.017-7.512Z" transform="translate(63.526 150.628)"/><path class="g" d="M0,3.3S.336-1.187,10.478.3c0,0,.048,2.9-3.513,4.271S1.776,4.79,0,3.3Z" transform="translate(58.114 142.253)"/><path class="g" d="M2.051,0s-4.288,1.379-.464,10.89c0,0,2.828-.632,3.33-4.416S3.911,1.379,2.051,0Z" transform="translate(55.439 145.527)"/><path class="g" d="M.006,6.687S-.574-.7,9.789.055c0,0,.736,6.689-7.955,8.409Z" transform="translate(51.743 132.468)"/><path class="g" d="M0,6.343S1.421-2.032,11.781.465c0,0,.039,7.242-10.09,7.876Z" transform="translate(44.899 124.468)"/><path class="g" d="M0,6.178S2.379-2,12.644.462c0,0-2.443,7.337-11.963,7.223Z" transform="translate(39.894 116.007)"/><path class="g" d="M0,6.4S2.326-2.067,12.234.476c0,0-3.307,8.044-11.582,7.367Z" transform="translate(35.139 107.36)"/><path class="g" d="M0,8.4S1.788-1.961,11.03.331c0,0-2.685,9.42-10.349,9.571Z" transform="translate(32.073 97.364)"/><path class="g" d="M0,7.956S2.145-2.482,11.487.554c0,0-3.668,9.864-10.835,8.844Z" transform="translate(29.201 88.134)"/><path class="g" d="M0,10.16S3.407-.277,10.636.006c0,0-3.485,11.025-10.033,12.249Z" transform="translate(27.421 76.931)"/><path class="g" d="M0,11.649S3.709-.916,9.591.053c0,0-2.567,9.6-9.383,13.552Z" transform="translate(26.291 66.662)"/><path class="g" d="M0,10.887S3.475.417,9.284,0c0,0-2.365,10.3-9.155,13.607Z" transform="translate(25.649 56.936)"/><path class="g" d="M0,10.718S4.335.236,8.174,0c0,0-1.883,10.32-7.79,12.438Z" transform="translate(24.946 47.34)"/><path class="g" d="M0,12.328S2.665.944,6.5,0c0,0-.525,9.311-6.114,13.179Z" transform="translate(24.465 36.637)"/><path class="g" d="M0,10.456S2.8,1.384,5.907,0c0,0-.613,10.7-5.187,12.675Z" transform="translate(23.024 26.61)"/><path class="g" d="M.566,16,0,0S5.793,12.074.992,18.821Z" transform="translate(21.259 13.251)"/><path class="g" d="M5.181,12.333S1,.651,0,0C0,0,8.194,7.578,7.395,17.329Z" transform="translate(12.161 1.017)"/><path class="g" d="M7.135.023S-.216-.939,0,9.45c0,0,6.642,1.082,8.81-7.508Z" transform="translate(44.331 139.078)"/><path class="g" d="M7.842,0S-.652-.028.04,10.606c0,0,7.129,1.274,9.481-8.6Z" transform="translate(36.709 130.532)"/><path class="g" d="M12.644.689S4.934-2.927,0,6.405c0,0,7.122,3.013,13.325-4.21Z" transform="translate(27.167 122.185)"/><path class="g" d="M12.53.806S4.636-3.042,0,6.077c0,0,8.223,2.831,13.182-3.829Z" transform="translate(22.437 113.034)"/><path class="g" d="M13.663,3.2S6.064-4.057,0,3.284c0,0,7.763,5.973,14.013,1.534Z" transform="translate(18.511 102.781)"/><path class="g" d="M13.661,3.2S6.016-4.223,0,3.542c0,0,8.581,6.092,13.933,1.216Z" transform="translate(15.97 92.641)"/><path class="g" d="M12.823,7.5S6.933-1.766,0,.3c0,0,6.11,9.816,12.757,9.378Z" transform="translate(15.379 79.294)"/><path class="g" d="M11.546,9.886S5.607-1.791,0,.236c0,0,4.277,8.973,11.7,11.612Z" transform="translate(14.92 68.366)"/><path class="g" d="M11.816,8.164S5.714-1.027,0,.1c0,0,4.986,9.319,12.405,10.728Z" transform="translate(14.242 59.063)"/><path class="g" d="M8.572,10.4S3.845.091,0,0C0,0,2.271,10.241,8.254,12.135Z" transform="translate(17.02 47.451)"/><path class="g" d="M9.2,10.464S3.948.021,0,0C0,0,2.689,8.93,9.028,11.383Z" transform="translate(15.451 38.276)"/><path class="g" d="M7.186,9.622S3.254.979,0,0C0,0,1.966,10.532,6.753,11.914Z" transform="translate(16.678 28.085)"/><path class="g" d="M8.785,13.383,0,0S2.251,13.2,10.068,15.932Z" transform="translate(12.572 15.565)"/><path class="g" d="M10.58,8.187S.37,1.138,0,0C0,0,5.209,9.872,14.836,11.614Z" transform="translate(4.746 6.24)"/><path class="g" d="M14.716,11.258S2.993-.012,0,0C0,0,9.668.442,15,10.657Z" transform="translate(0 0)"/><path class="h" d="M9.471,29.047l-.428.055C6.841,11.859,3.629,1.668,0,.407L.142,0C3.988,1.336,7.215,11.38,9.471,29.047Z" transform="translate(14.279 10.332)"/><path class="h" d="M3.779,42.508l-.645.054c-.135-1.61-.24-3.258-.311-4.9C2.209,23.391,1.255,10.287,0,.462L.374,0c1.257,9.843,2.481,23.346,3.1,37.636C3.54,39.268,3.644,40.907,3.779,42.508Z" transform="translate(23.209 38.1)"/><path class="h" d="M50.153,79.3c-.113-.05-11.472-5.121-23.261-17.221a93.585,93.585,0,0,1-17-24.089C4.437,26.892,1.115,13.25,0,0L.672.316c2.5,29.741,16.043,50.074,26.81,61.133C39.157,73.441,50.388,78.461,50.5,78.511Z" transform="translate(26.243 79.376)"/></g><g transform="translate(99.731 -13.354)"><path class="i" d="M851.341,331.421c7.664-.152,14.429-5.585,18.261-12.174a12.272,12.272,0,0,0,1.846-5.211,6.157,6.157,0,0,0-.21-1.25,12.266,12.266,0,0,1-.584-1.9,3.187,3.187,0,0,1,0-.783v-.035a4.58,4.58,0,0,1,1.682-3.75c1.04-.975,2.307-1.682,3.377-2.623,3.295-2.892,4.293-7.53,4.358-11.946v-.234c-.035-1.887-.187-3.785-.169-5.678a23.683,23.683,0,0,1,.14-3.219,10.6,10.6,0,0,1,3.435-7.1c5.485-4.445,14.709.181,20.381-4.025,1.384-1.022,2.5-2.547,4.171-2.921a7.078,7.078,0,0,1,3.815.514c4.183,1.379,8.844,3.2,10.48,7.261.935,2.337.672,4.96,1.53,7.308a41.986,41.986,0,0,0,2.39,4.416,6.911,6.911,0,0,1,.894,3.686,4.242,4.242,0,0,1-.274,1.963,4.943,4.943,0,0,1-1.355,1.934,6.449,6.449,0,0,0,.818,1.3c1.069,1.309,2.711,2.243,3.82,3.5,2.057,2.383,1.98,5.625.964,8.429s-2.839,5.357-4.089,8.085a4.372,4.372,0,0,0-.415,3.692,10.368,10.368,0,0,0,1.846,2.144,6.753,6.753,0,0,1,1.671,3.75c12.518,2.857,12.524,12.91,12.524,12.91h0l6.753,17.022s1.081,2.862,2.337,6.642l8-1.431L954.211,371c1.057,3.791,1.8,7.308,1.554,9.072,0,0,2.483,11.683-1.934,13.722l-9.755,4.387a5.376,5.376,0,0,1-1.349.584l-.4.175a1.035,1.035,0,0,1-.912,0h-.158a1.238,1.238,0,0,1-.584-.082,1.053,1.053,0,0,1-.485-.532.205.205,0,0,1,0-.053l-2.921-.847-2.477,2.921c-1.116.783-2.208,1.466-3.277,2.08l3.809,38.087s.619,50.623,2.483,62.149a32.052,32.052,0,0,1,.438,9.16l.07.128c-.461,3.254-1.659,3.9-1.659,3.9v-.047l-.07.047a33.045,33.045,0,0,0-2-4.294v.83c.035,4.3.169,10.311.584,14.218.76,6.648-1.933,28.671-1.933,28.671l-.929,20.037a18.53,18.53,0,0,0,2.279,9.755c2.2,4,5.07,9.627,5.257,12.121a3.267,3.267,0,0,1,0,.409h0l4.883,5.684s1.869,2.88-2.336,4.042c-2.261.631-6.169,0-9.3-.742a6.215,6.215,0,0,1-4.825-6.046,21.374,21.374,0,0,0-3.984-7.553l-.788,4.609-5.257,1.3-.672-12.635a5.525,5.525,0,0,1-.362-2.232h0c-1.034-8.984,2.436-8.178,2.436-8.178a.587.587,0,0,0-.17.315c.059-.1.117-.2.17-.31h0c2.132-4.206,1.086-11.1,1.086-11.1s-2.763-20.025-3.732-25.312c-.683-3.733-.4-15.965-.175-22.817a7.369,7.369,0,0,1,.029-.823c-8.137-.105-18.109-.385-25.119-1.063v.829l1.3,47.317a26,26,0,0,0,1.8,8.8c0,.053.047.1.064.158a38.386,38.386,0,0,1,2.617,12.378l.584,15.036v.415h0c1.046.4,2.693,1.565,2.74,4.936.07,4.936-8.628,3.289-8.628,3.289-8.7,0-8.762-9.054-8.762-9.054s-.281-8.3-.69-13.856,1.309-4.329,1.309-4.329l.129,15.772V582.7l-.134-2.01v-.058h0l-.029-.426-1.081-16.3s-8.009-27.164-9.253-32.374c-.882-3.7-.514-14.855-.222-21.03a6.264,6.264,0,0,1,.035-.818c-2.476-.222-4.673-.245-5.555-.245h-.4s.415-43.625,1.449-60.087,2.693-31.486,6.84-36.014c2.5-2.734,5.988-11.181,8.359-17.437a87.724,87.724,0,0,1-15.334,5.024c-13.12,2.745-11.327-8.646-11.327-8.646l1.332-21.538h-.088a109.411,109.411,0,0,1,1.449-16.841,49.941,49.941,0,0,1,3.377-12.267c-1.425-.543-2.828-1.168-4.206-1.752-3.563-1.571-7.594-3.8-8.1-7.647h.175A5.343,5.343,0,0,1,851.341,331.421Zm81.327,31.159h0c-.035,2.226.052,6.081.181,10.351l4.165-5.561-4.177-6.776ZM876.845,373.86Zm-1.752,8.412,6.94-2.232a31.322,31.322,0,0,0-4.288-5.3l-.584-.584.216.047-.339-.3-.2-.047.321.3-.38-.076a11.865,11.865,0,0,1-2.366,4.755c-2.477,2.757.7,3.441.7,3.441Z" transform="translate(-851.3 -268.459)"/><path class="h" d="M823.59,774.95l.818,15.387,5.176-1.291,1.092-6.4Z" transform="translate(-757.615 -460.922)"/><path class="j" d="M823.59,774.95l.818,15.387,5.176-1.291,1.092-6.4Z" transform="translate(-757.615 -460.922)"/><path class="k" d="M981.141,765.976l-7.9,1.636-5.842-5.176V747.861l-.129-1.992v-.058h0l-.029-.421-1.063-16.181s-7.9-26.971-9.125-32.129c-.87-3.675-.508-14.756-.222-20.878.117-2.512.222-4.188.222-4.188l17.431-4.223.368,13.435,1.273,46.967a25.908,25.908,0,0,0,1.787,8.733l.058.158a38.134,38.134,0,0,1,2.529,12.308l.584,14.925v.415Z" transform="translate(-934.163 -434.517)"/><path class="j" d="M980.319,800.636v.415h0l-.029-.42Z" transform="translate(-947.233 -489.757)"/><path class="j" d="M970.25,832.468l-7.9,1.636-5.842-5.176V827.69a1.659,1.659,0,0,0,.841,1.338l.082.047a15.7,15.7,0,0,0,8.868,1.752l3.084-.263a3.224,3.224,0,0,1,.812.2v.415Z" transform="translate(-923.272 -501.009)"/><path class="h" d="M954.377,818.446l-.082-.047a1.653,1.653,0,0,1-.847-1.449l-.128-15.69s-1.706-1.209-1.3,4.305.684,13.757.684,13.757.064,8.99,8.645,8.99c0,0,8.582,1.63,8.517-3.271s-3.546-5.105-3.546-5.105l-3.078.269A15.773,15.773,0,0,1,954.377,818.446Z" transform="translate(-920.233 -489.972)"/><path class="k" d="M909.063,766.283c-.2,3.54-10.62,1.5-10.62,1.5l-7.01-13.617s-5.842-4.5-2.921-8.447a5.988,5.988,0,0,0,.432-.672v-.035h0c.064-.105.117-.211.175-.321h0c2.1-4.171,1.069-11.011,1.069-11.011s-2.722-19.861-3.68-25.119c-.672-3.709-.4-15.854-.17-22.654.088-2.822.17-4.726.17-4.726l17.3-4.627v5.158c.035,4.264.163,10.234.584,14.113.748,6.607-1.91,28.466-1.91,28.466l-.917,19.9a18.463,18.463,0,0,0,2.3,9.656c2.173,3.972,5,9.563,5.2,12.04A2.385,2.385,0,0,1,909.063,766.283Z" transform="translate(-820.954 -438.159)"/><path class="j" d="M907.469,815.04c-.2,3.54-10.62,1.5-10.62,1.5l-7.009-13.617s-5.842-4.5-2.921-8.447a6.052,6.052,0,0,0,.432-.672c.094,2.062,2.337,7.208,2.337,7.208s5.789,11.584,7.594,14.236,9.843-.49,10.141-.584A2.355,2.355,0,0,1,907.469,815.04Z" transform="translate(-819.36 -486.917)"/><path class="h" d="M879.818,793.157s-3.423-.794-2.406,8.126h0a5.754,5.754,0,0,0,2.716,5.1,19.487,19.487,0,0,1,8.144,11.3h0a6.168,6.168,0,0,0,4.755,6.011c3.09.719,6.946,1.355,9.177.73,4.153-1.168,2.337-4.013,2.337-4.013l-4.767-5.655s-8.307,3.271-10.147.614-7.594-14.236-7.594-14.236S878.779,793.905,879.818,793.157Z" transform="translate(-811.641 -486.642)"/><path class="j" d="M984.964,670.56,985.332,684c-4.673-.45-7.968-1.081-8.541-1.963-1.221-1.9-5.684-2.7-9.481-3.032.117-2.512.222-4.188.222-4.188Z" transform="translate(-944.662 -435.669)"/><path class="j" d="M912.538,684.468a6.466,6.466,0,0,0-1.91-2.3c-1.84-1.022-1.641,6.537-1.641,6.537s-6.1.059-13.927-.041c.088-2.827.169-4.726.169-4.726l17.3-4.627S912.509,681.465,912.538,684.468Z" transform="translate(-829.664 -439.307)"/><path class="h" d="M956.6,601.332s-2.044-5.532-3.879-6.549-1.641,6.536-1.641,6.536-44.945.409-47.194-3.067-15.322-3.265-15.322-3.265.409-43.316,1.431-59.661,2.658-31.258,6.741-35.751c2.646-2.921,6.426-12.32,8.727-18.594,1.268-3.429,2.1-5.924,2.1-5.924l42.9,2.454.35,3.47,4.556,45.564s.585,50.238,2.454,61.7S956.6,601.332,956.6,601.332Z" transform="translate(-871.757 -354.372)"/><g class="l" transform="translate(16.9 120.717)"><path d="M924.124,598.3c-2.243-3.47-15.323-3.265-15.323-3.265s.409-43.316,1.431-59.661,2.658-31.258,6.741-35.751c2.646-2.921,6.426-12.32,8.727-18.594,1.063-2.88,1.823-5.1,2.039-5.737l-3.329-.187s-.835,2.494-2.1,5.924c-2.337,6.274-6.081,15.685-8.728,18.594-4.089,4.492-5.719,19.406-6.741,35.751s-1.408,59.631-1.408,59.631,13.074-.21,15.317,3.295c1.922,2.968,35,3.1,44.6,3.079C953.033,601.324,925.876,600.956,924.124,598.3Z" transform="translate(-905.43 -475.11)"/><path d="M890.189,679.932c-.829-.461-1.244.818-1.449,2.337a33.1,33.1,0,0,1,1.934,4.182s1.168-.637,1.635-3.867A7.365,7.365,0,0,0,890.189,679.932Z" transform="translate(-822.643 -560.243)"/></g><path class="h" d="M915.171,291.277c2.967,4.054-.035,9.808,3.148,13.745,1.052,1.3,2.67,2.231,3.768,3.5,2.033,2.372,1.951,5.584.952,8.371s-2.8,5.316-4.043,8.026a4.374,4.374,0,0,0-.415,3.663,9.67,9.67,0,0,0,1.822,2.132,7.686,7.686,0,0,1,1.005,8.149c-1.1,2.687-3.207,5.018-5.257,7.284a3.593,3.593,0,0,1-5.234,1.2,21.286,21.286,0,0,1-10.263-12.063,21.515,21.515,0,0,1,.876-14.809c1.752-4.13,4.6-8.09,4.626-12.46,0-3.464-1.782-6.77-2.1-10.223-.386-4.189,2.1-10.848,7.156-12.676C910.883,287.825,913.64,289.221,915.171,291.277Z" transform="translate(-843.582 -275.388)"/><path class="j" d="M915.171,291.277c2.967,4.054-.035,9.808,3.148,13.745,1.052,1.3,2.67,2.231,3.768,3.5,2.033,2.372,1.951,5.584.952,8.371s-2.8,5.316-4.043,8.026a4.374,4.374,0,0,0-.415,3.663,9.67,9.67,0,0,0,1.822,2.132,7.686,7.686,0,0,1,1.005,8.149c-1.1,2.687-3.207,5.018-5.257,7.284a3.593,3.593,0,0,1-5.234,1.2,21.286,21.286,0,0,1-10.263-12.063,21.515,21.515,0,0,1,.876-14.809c1.752-4.13,4.6-8.09,4.626-12.46,0-3.464-1.782-6.77-2.1-10.223-.386-4.189,2.1-10.848,7.156-12.676C910.883,287.825,913.64,289.221,915.171,291.277Z" transform="translate(-843.582 -275.388)"/><path class="j" d="M914.98,547.78c5.947.316,11.543,2.868,16.748,5.76s10.241,6.192,15.843,8.225" transform="translate(-876.332 -384.612)"/><path class="j" d="M916.65,571.76a24.586,24.586,0,0,1,15.445,7.506c1.443,1.53,2.687,3.248,4.194,4.714a18.69,18.69,0,0,0,8.277,4.673" transform="translate(-874.304 -394.584)"/><path class="j" d="M908.92,590a27,27,0,0,1,12.413,7.483c.911.982,1.753,2.039,2.652,3.015,4.925,5.257,11.876,8.09,18.588,10.742" transform="translate(-867.795 -402.169)"/><path class="k" d="M929.324,336.706a122.4,122.4,0,0,1-1.227,14.2c-.549,3.353-1.332,6.338-2.453,7.664-3.266,3.885,15.936,9.1,15.936,9.1l11.339-8.763s-8.99-8.278-4.8-16.356S929.324,336.706,929.324,336.706Z" transform="translate(-887.691 -296.72)"/><path class="j" d="M946.944,480.983H901.59c1.268-3.429,2.1-5.923,2.1-5.923l42.9,2.453Z" transform="translate(-867.884 -354.372)"/><path class="m" d="M955.132,434.269H906.647a16.8,16.8,0,0,0-1.946-12.852,28.379,28.379,0,0,0-5.076-6.589l-.333-.3-16.94-3.756-.911-.2s-.135-30.779,10.76-35a63.893,63.893,0,0,0,17.437-9.931l14.978,4.627,11.035-5.579c3.54,3.815,12.94,2.337,12.94,2.337,15.392,1.752,15.392,13.348,15.392,13.348s-8.99,20.977-9.674,20.977S955.132,434.269,955.132,434.269Z" transform="translate(-873.151 -308.476)"/><path class="j" d="M902.56,446.013s9.89-2.191,13.255-6.023" transform="translate(-837.321 -339.789)"/><path class="j" d="M997.2,430.64l11.449,9.4a18.948,18.948,0,0,1-.38,2.208l-.333-.3L991,438.193Z" transform="translate(-981.823 -335.9)"/><path class="j" d="M972.33,468.7s-2.512,1.414-6.355,3.266h-6.589a16.8,16.8,0,0,0-1.945-12.852l11.642-3.768C965.111,459.03,972.33,468.7,972.33,468.7Z" transform="translate(-925.896 -346.176)"/><path class="m" d="M864.909,385.18l6.811,3.674,6.677,16.888s6.946,18.524,6.268,23.431c0,0,2.448,11.572-1.91,13.617l-11.368,5.141a1.051,1.051,0,0,1-1.361-1.455c1.618-3.067,3.394-7.857.584-10.515l3.271-6.806L862.04,409.832l-3.943-6.648Z" transform="translate(-780.883 -316.996)"/><path class="j" d="M947.464,440.376c-.584,2.407-2.582,6.1-9.171,7.5l-7.255,5.924-7.693,3.5-3.131,1.419-1.332-9.6,3.02-1.653,3.505-1.922s7.939-14.394,20.516-8.313A2.786,2.786,0,0,1,947.464,440.376Z" transform="translate(-878.574 -338.019)"/><path class="k" d="M948.176,438.982c-.584,2.407-2.582,6.1-9.172,7.5l-7.255,5.929-7.693,3.5-3.131,1.419-1.332-9.6,3.02-1.647,3.505-1.928s7.939-14.388,20.516-8.313a2.786,2.786,0,0,1,1.542,3.137Z" transform="translate(-879.701 -337.443)"/><ellipse class="j" cx="17.572" cy="17.572" rx="17.572" ry="17.572" transform="translate(36.732 17.309)"/><ellipse class="k" cx="17.572" cy="17.572" rx="17.572" ry="17.572" transform="translate(36.732 16.9)"/><path class="j" d="M962.771,378.954l5.257-10.27s-7.734-3.119-8.3-6.741-7.407,4.241-5.923,6.846S962.771,378.954,962.771,378.954Z" transform="translate(-919.35 -306.944)"/><path class="m" d="M962.771,377.554l5.257-10.269s-7.734-3.119-8.3-6.741-7.407,4.247-5.923,6.846S962.771,377.554,962.771,377.554Z" transform="translate(-919.35 -306.362)"/><path class="n" d="M880.282,433.031,853.5,472.281s9.957-2.312,23.183-4.633l6.425-7.623,18.255-30.785Z" transform="translate(-793.628 -335.318)"/><path class="k" d="M901.121,465.058l-2.658-.07s-16.24-15.772-20.224-7.793,10.112,15.422,10.112,15.422l4.288,2.337,5.62,1.636,3.575-4.8Z" transform="translate(-808.719 -346.006)"/><path class="j" d="M871.531,479.6a3.976,3.976,0,0,0-.07,2.746,1.041,1.041,0,0,0,.485.526,1.17,1.17,0,0,0,.584.082,5.579,5.579,0,0,0,3.663-1.817,16.537,16.537,0,0,0,2.377-3.435c.724-1.256,1.478-2.658,1.215-4.089-.286-1.565-1.682-2.652-3.014-3.505-2.693-1.782-2.757.292-3.371,2.582Z" transform="translate(-783.049 -352.035)"/><path class="m" d="M870.831,479.6a3.978,3.978,0,0,0-.07,2.746,1.041,1.041,0,0,0,.485.526,1.168,1.168,0,0,0,.584.082,5.578,5.578,0,0,0,3.663-1.817,16.509,16.509,0,0,0,2.378-3.435c.724-1.256,1.478-2.658,1.215-4.089-.286-1.565-1.682-2.652-3.014-3.505-2.693-1.782-2.757.292-3.371,2.582Z" transform="translate(-781.94 -352.035)"/><path class="j" d="M811.081,394.666l-1.361-2.3,1.192,4.265Z" transform="translate(-729.918 -301.831)"/><path class="j" d="M965.463,464.231l-3.131,1.42-1.332-9.6,3.02-1.647C961.958,456.772,963.763,461.176,965.463,464.231Z" transform="translate(-921.108 -345.781)"/><path class="j" d="M957.86,450.624s10.112.613,14.4-2.144" transform="translate(-926.07 -343.319)"/><g class="l" transform="translate(8.137 57.032)"><path d="M997.579,423.477a28.522,28.522,0,0,0-5.083-6.589,13.984,13.984,0,0,0-1.5-.818l-15.772-3.236-.911-.2s-.14-30.78,10.76-35a65.815,65.815,0,0,0,16.993-9.574l-1.2-.368a63.439,63.439,0,0,1-17.432,9.931c-10.894,4.212-10.771,35.015-10.771,35.015h1.635l16.146,3.09.911.87a31.161,31.161,0,0,1,5.158,6.817,17.112,17.112,0,0,1,1.349,12.922h1.671A17,17,0,0,0,997.579,423.477Z" transform="translate(-972.67 -366.755)"/><path d="M910.789,370.125c-.263-.035-.514-.076-.783-.105a28.817,28.817,0,0,1-3.336.275A30.087,30.087,0,0,0,910.789,370.125Z" transform="translate(-842.833 -367.724)"/><path d="M930.186,371.651l9.978-5.03a5.67,5.67,0,0,1-.584-.532l-10.409,5.257Z" transform="translate(-885.352 -366.09)"/></g><path class="m" d="M966.258,429.24l-6.677,8.178-1.361,22.2s-1.752,11.3,11.169,8.581,27.923-11.169,27.923-11.169-7.22-9.674-3.271-13.348l-18.524,5.993s-3.131-.683-.677-3.406,2.886-7.629,2.886-7.629Z" transform="translate(-951.286 -335.318)"/><path class="j" d="M1020.11,469.35l-3.68,4.218A5.3,5.3,0,0,0,1020.11,469.35Z" transform="translate(-1008.135 -351.997)"/><path class="j" d="M923.159,437.1l-5.719,7.355,2.857.683Z" transform="translate(-904.922 -320.431)"/><path class="j" d="M981.958,296.4a5.944,5.944,0,0,0-.584-4.79,38.942,38.942,0,0,1-2.337-4.387c-.847-2.337-.584-4.954-1.507-7.255-1.618-4.031-6.215-5.842-10.339-7.2a7,7,0,0,0-3.762-.514c-1.647.4-2.751,1.91-4.089,2.921-5.6,4.171-14.692-.421-20.1,4a10.537,10.537,0,0,0-3.388,7.051,63.359,63.359,0,0,0,.029,8.021c.088,4.673-.783,9.8-4.293,12.9-1.057.935-2.3,1.641-3.33,2.605a4.575,4.575,0,0,0-1.659,3.721,12.676,12.676,0,0,0,.584,1.887c.7,2.442-.339,5.03-1.606,7.232-3.785,6.543-10.451,11.934-18.016,12.086.508,3.815,4.469,6.029,7.986,7.594,4.48,1.992,9.189,3.949,14.084,3.7s10-3.382,10.872-8.178c.3-1.653.257-3.68,1.694-4.551.864-.526,1.986-.391,2.921-.789,1.349-.584,2.021-2.068,2.465-3.47a31.3,31.3,0,0,0,1.455-8.9c.058-3.581-.421-7.489,1.612-10.439,1.881-2.728,5.222-4.089,7.39-6.624,2-2.337,4.177-5.129,7.454-5.573C969.895,296.8,979.276,302.962,981.958,296.4Z" transform="translate(-906.677 -269.992)"/><path class="h" d="M981.958,295a5.944,5.944,0,0,0-.584-4.79,38.957,38.957,0,0,1-2.337-4.387c-.847-2.337-.584-4.954-1.507-7.255-1.618-4.031-6.215-5.841-10.339-7.2a7,7,0,0,0-3.762-.514c-1.647.4-2.751,1.91-4.089,2.921-5.6,4.177-14.692-.421-20.1,4a10.549,10.549,0,0,0-3.388,7.051,63.358,63.358,0,0,0,.029,8.021c.088,4.673-.783,9.8-4.293,12.9-1.057.935-2.3,1.641-3.33,2.605a4.575,4.575,0,0,0-1.659,3.721,12.944,12.944,0,0,0,.584,1.893c.7,2.436-.339,5.03-1.606,7.226-3.785,6.543-10.451,11.934-18.016,12.086.508,3.815,4.469,6.028,7.986,7.594,4.48,2,9.189,3.949,14.084,3.7s10-3.382,10.872-8.208c.3-1.653.257-3.68,1.694-4.551.864-.526,1.986-.391,2.921-.789,1.349-.584,2.021-2.068,2.465-3.47a31.3,31.3,0,0,0,1.455-8.9c.058-3.581-.421-7.489,1.612-10.439,1.881-2.728,5.222-4.089,7.39-6.624,2-2.337,4.177-5.129,7.454-5.573C969.895,295.429,979.276,301.562,981.958,295Z" transform="translate(-906.677 -269.41)"/><path class="j" d="M933.523,378.037l-10.071-8.178s6.893-3.739,7.717-6.928,6.338,1.513,5.777,4.375S933.523,378.037,933.523,378.037Z" transform="translate(-870.696 -307.3)"/><path class="m" d="M934.222,375.936l-10.071-8.178s6.893-3.739,7.717-6.928,6.338,1.513,5.777,4.375S934.222,375.936,934.222,375.936Z" transform="translate(-871.805 -306.427)"/><ellipse class="j" cx="0.8" cy="0.8" rx="0.8" ry="0.8" transform="translate(51.155 67.377)"/><ellipse class="j" cx="0.8" cy="0.8" rx="0.8" ry="0.8" transform="translate(51.155 71.829)"/><ellipse class="j" cx="0.8" cy="0.8" rx="0.8" ry="0.8" transform="translate(51.155 76.274)"/><g class="l" transform="translate(0.865 7.39)"><path d="M914.577,287.956c-.794-2.191-.625-4.644-1.367-6.846a7.932,7.932,0,0,1,.847,1.565c.923,2.3.666,4.93,1.507,7.261,0,.041.041.088.059.134a12.9,12.9,0,0,1-1.046-2.115Z" transform="translate(-844.215 -281.11)"/><path d="M914.564,351.693c4.48,2,9.189,3.949,14.09,3.7s9.995-3.382,10.865-8.208c.3-1.653.257-3.68,1.694-4.551.865-.526,1.986-.391,2.921-.789,1.355-.584,2.021-2.068,2.465-3.47a31.315,31.315,0,0,0,1.454-8.914c.058-3.581-.414-7.489,1.613-10.439,1.881-2.728,5.222-4.089,7.389-6.624,2-2.337,4.177-5.129,7.46-5.573,4.5-.584,13.885,5.549,16.561-1.017a5.159,5.159,0,0,0-.17-3.8c.193.327.38.654.549.987a5.768,5.768,0,0,1,.584,4.79c-2.682,6.566-12.063.4-16.567,1.016-3.277.444-5.456,3.254-7.46,5.573-2.167,2.512-5.5,3.9-7.383,6.63-2.033,2.921-1.56,6.858-1.618,10.433a31.18,31.18,0,0,1-1.449,8.908c-.444,1.4-1.116,2.921-2.465,3.47-.935.391-2.056.263-2.921.789-1.431.865-1.4,2.921-1.688,4.545-.871,4.825-5.976,7.962-10.872,8.213s-9.61-1.706-14.084-3.7c-3.225-1.431-6.817-3.423-7.781-6.683C909.318,349.122,912.052,350.577,914.564,351.693Z" transform="translate(-907.753 -289.801)"/></g></g><g transform="translate(115.537 309.508)"><path class="o" d="M929.3,735.242s9.525-1.905,12.066-4.446,13.971-6.984,15.24-3.8,17.145,13.97,6.35,15.875-25.4,2.533-28.575,1.266S929.3,735.242,929.3,735.242Z" transform="translate(-929.297 -725.89)"/><path class="p" d="M962.96,769.05c-10.8,1.9-25.4,2.533-28.575,1.267-2.419-.968-4.1-5.613-4.762-7.777l-.317.066s1.905,7.62,5.079,8.889,17.781.636,28.575-1.267c3.116-.55,4.008-1.842,3.671-3.475C966.367,767.819,965.28,768.64,962.96,769.05Z" transform="translate(-929.303 -753.256)"/></g></g></svg>