<svg xmlns="http://www.w3.org/2000/svg" width="22.796" height="20.59" viewBox="0 0 22.796 20.59"><defs><style>.a{opacity:0.4;}.b{fill:none;stroke:#162237;stroke-miterlimit:10;}</style></defs><g class="a" transform="translate(-173.681 -763.5)"><g transform="translate(174.181 764)"><path class="b" d="M36.2,16.842H49.552a.632.632,0,0,1,.632.632v5.572a7.306,7.306,0,0,1-7.305,7.305h0a7.306,7.306,0,0,1-7.305-7.305V17.474A.632.632,0,0,1,36.2,16.842Z" transform="translate(-31.987 -16.842)"/><path class="b" d="M2.71,0h4.7a2.71,2.71,0,0,1,2.71,2.71v0A1.008,1.008,0,0,1,9.108,3.718h-8.1A1.008,1.008,0,0,1,0,2.71v0A2.71,2.71,0,0,1,2.71,0Z" transform="translate(5.833 15.872)"/><line class="b" y2="2.363" transform="translate(10.891 13.509)"/><path class="b" d="M0,0H2.967A.632.632,0,0,1,3.6.632v.5A3.6,3.6,0,0,1,0,4.725H0a0,0,0,0,1,0,0V0A0,0,0,0,1,0,0Z" transform="translate(18.198 1.795)"/><path class="b" d="M0,0H0A3.6,3.6,0,0,1,3.6,3.6v.5a.632.632,0,0,1-.632.632H0a0,0,0,0,1,0,0V0A0,0,0,0,1,0,0Z" transform="translate(3.598 6.52) rotate(180)"/><path class="b" d="M66.822,42.045a5.084,5.084,0,0,1-3.162,2.581" transform="translate(-51.204 -34.086)"/></g></g></svg>