<svg xmlns="http://www.w3.org/2000/svg" width="20.126" height="20.132" viewBox="0 0 20.126 20.132"><defs><style>.a{fill:#91959e;stroke:#91959e;stroke-width:0.2px;fill-rule:evenodd;}</style></defs><g transform="translate(-7.9 -9.894)"><g transform="translate(8 10)"><g transform="translate(0)"><path class="a" d="M10.076,29.1H25.851V18.3H10.076ZM26.681,18.3V29.1a.83.83,0,0,1-.83.83H10.076a.83.83,0,0,1-.83-.83V18.3h-.83A.415.415,0,0,1,8,17.887V14.566a.415.415,0,0,1,.415-.415h4.706a2.283,2.283,0,0,1,2.455-3.845,8.223,8.223,0,0,1,2.248,3.014,8.223,8.223,0,0,1,2.248-3.014,2.283,2.283,0,0,1,2.455,3.845h4.984a.415.415,0,0,1,.415.415v3.321a.415.415,0,0,1-.415.415ZM15.161,11.025a1.453,1.453,0,0,0-1.453,2.517,8.474,8.474,0,0,0,3.467.324A8.475,8.475,0,0,0,15.161,11.025Zm6.779,2.517a1.453,1.453,0,0,0-1.453-2.517,8.475,8.475,0,0,0-2.014,2.841A8.474,8.474,0,0,0,21.941,13.542ZM8.83,14.982v2.491H27.1V14.982Z" transform="translate(-8 -10)"/></g></g></g></svg>