<svg xmlns="http://www.w3.org/2000/svg" width="19.257" height="20.59" viewBox="0 0 19.257 20.59">
  <g id="Group_2874" data-name="Group 2874" transform="translate(-49.253 -30.417)">
    <path id="Path_10050" data-name="Path 10050" d="M63.847,129.744H51.11a1.357,1.357,0,0,1-1.357-1.357v-1.029a1.015,1.015,0,0,1,1.015-1.015H61.56a1.015,1.015,0,0,1,1.015,1.015v1.029a1.357,1.357,0,0,0,1.357,1.357h0a1.357,1.357,0,0,0,1.357-1.357V113.944a1.015,1.015,0,0,0-1.015-1.015H53.435a1.015,1.015,0,0,0-1.015,1.015v12.388" transform="translate(0 -79.237)" fill="none" stroke="#3c4bbf" stroke-linecap="round" stroke-miterlimit="10" stroke-width="1"/>
    <path id="Path_10051" data-name="Path 10051" d="M217.548,47.841h1.706a1.015,1.015,0,0,0,1.015-1.015V31.932a1.015,1.015,0,0,0-1.015-1.015H208.36a1.015,1.015,0,0,0-1.015,1.015v1.762" transform="translate(-152.259 0)" fill="none" stroke="#3c4bbf" stroke-linecap="round" stroke-miterlimit="10" stroke-width="1"/>
    <path id="Path_10054" data-name="Path 10054" d="M1,0H5.3" transform="translate(56.378 37.417)" fill="none" stroke="#3c4bbf" stroke-linecap="round" stroke-width="1"/>
    <path id="Path_10053" data-name="Path 10053" d="M7,0H1" transform="translate(54.686 40.471)" fill="none" stroke="#3c4bbf" stroke-linecap="round" stroke-width="1"/>
    <path id="Path_10052" data-name="Path 10052" d="M7,0H1" transform="translate(54.686 43.524)" fill="none" stroke="#3c4bbf" stroke-linecap="round" stroke-width="1"/>
  </g>
</svg>
