<svg xmlns="http://www.w3.org/2000/svg" xmlns:xlink="http://www.w3.org/1999/xlink" width="375" height="444" viewBox="0 0 375 444">
  <defs>
    <clipPath id="clip-path">
      <rect id="Rectangle_2312" data-name="Rectangle 2312" width="375" height="444" transform="translate(2528 4863)" fill="#fff"/>
    </clipPath>
    <linearGradient id="linear-gradient" x1="0.5" y1="1" x2="0.5" gradientUnits="objectBoundingBox">
      <stop offset="0" stop-color="gray" stop-opacity="0.251"/>
      <stop offset="0.54" stop-color="gray" stop-opacity="0.122"/>
      <stop offset="1" stop-color="gray" stop-opacity="0.102"/>
    </linearGradient>
  </defs>
  <g id="Mask_Group_1819" data-name="Mask Group 1819" transform="translate(-2528 -4863)" clip-path="url(#clip-path)">
    <path id="Path_10032" data-name="Path 10032" d="M0,0H375V812H0Z" transform="translate(2528 4863)" fill="none"/>
    <g id="Group_2835" data-name="Group 2835" transform="translate(2517.242 4792.497)">
      <path id="Path_9914" data-name="Path 9914" d="M0-26S74.253-56.4,182.52-56.4,375-26,375-26V406H0Z" transform="translate(10.758 476.503)" fill="#3f3d56"/>
      <g id="Group_2834" data-name="Group 2834" transform="translate(58.825 159.182)">
        <g id="Group_2820" data-name="Group 2820" transform="translate(-11.549 173.512)">
          <g id="Group_2816" data-name="Group 2816" transform="translate(0)">
            <path id="Path_9915" data-name="Path 9915" d="M0,1.019S2.838-.854,5.651.478c0,0-.867,1.669-4.427,1.51Z" transform="translate(40.071 92.666)" fill="#1f46b8"/>
            <path id="Path_9916" data-name="Path 9916" d="M.17,0s-.863,3.289,1.3,5.526c0,0,1.3-1.356.01-4.677Z" transform="translate(39.553 93.785)" fill="#1f46b8"/>
            <path id="Path_9917" data-name="Path 9917" d="M0,2.057S.209-.739,6.524.189A3.015,3.015,0,0,1,4.337,2.848,3.641,3.641,0,0,1,0,2.057Z" transform="translate(36.183 88.571)" fill="#1f46b8"/>
            <path id="Path_9918" data-name="Path 9918" d="M1.277,0S-1.393.858.988,6.78A3.015,3.015,0,0,0,3.061,4.031,3.641,3.641,0,0,0,1.277,0Z" transform="translate(34.518 90.609)" fill="#1f46b8"/>
            <path id="Path_9919" data-name="Path 9919" d="M0,4.164S-.358-.438,6.1.034c0,0,.458,4.165-4.953,5.236Z" transform="translate(32.216 82.478)" fill="#1f46b8"/>
            <path id="Path_9920" data-name="Path 9920" d="M0,3.95S.885-1.265,7.335.289c0,0,.024,4.509-6.282,4.9Z" transform="translate(27.955 77.497)" fill="#1f46b8"/>
            <path id="Path_9921" data-name="Path 9921" d="M0,3.846S1.481-1.245,7.872.287c0,0-1.521,4.569-7.448,4.5Z" transform="translate(24.839 72.229)" fill="#1f46b8"/>
            <path id="Path_9922" data-name="Path 9922" d="M0,3.986S1.448-1.287,7.617.3C7.617.3,5.558,5.3.406,4.883Z" transform="translate(21.879 66.845)" fill="#1f46b8"/>
            <path id="Path_9923" data-name="Path 9923" d="M0,5.227S1.113-1.221,6.868.206c0,0-1.672,5.865-6.443,5.959Z" transform="translate(19.97 60.621)" fill="#1f46b8"/>
            <path id="Path_9924" data-name="Path 9924" d="M0,4.954S1.336-1.545,7.152.345c0,0-2.284,6.141-6.746,5.506Z" transform="translate(18.181 54.874)" fill="#1f46b8"/>
            <path id="Path_9925" data-name="Path 9925" d="M0,6.326S2.122-.172,6.622,0c0,0-2.17,6.864-6.247,7.627Z" transform="translate(17.073 47.899)" fill="#1f46b8"/>
            <path id="Path_9926" data-name="Path 9926" d="M0,7.253S2.309-.571,5.972.033c0,0-1.6,5.979-5.842,8.438Z" transform="translate(16.37 41.505)" fill="#1f46b8"/>
            <path id="Path_9927" data-name="Path 9927" d="M0,6.778S2.164.259,5.78,0c0,0-1.473,6.414-5.7,8.472Z" transform="translate(15.97 35.45)" fill="#1f46b8"/>
            <path id="Path_9928" data-name="Path 9928" d="M0,6.673S2.7.147,5.089,0c0,0-1.173,6.425-4.85,7.744Z" transform="translate(15.532 29.475)" fill="#1f46b8"/>
            <path id="Path_9929" data-name="Path 9929" d="M0,7.675S1.659.588,4.046,0c0,0-.327,5.8-3.807,8.206Z" transform="translate(15.232 22.811)" fill="#1f46b8"/>
            <path id="Path_9930" data-name="Path 9930" d="M0,6.51S1.745.862,3.678,0c0,0-.382,6.66-3.23,7.892Z" transform="translate(14.335 16.568)" fill="#1f46b8"/>
            <path id="Path_9931" data-name="Path 9931" d="M.352,9.961,0,0S3.607,7.517.618,11.718Z" transform="translate(13.236 8.25)" fill="#1f46b8"/>
            <path id="Path_9932" data-name="Path 9932" d="M3.226,7.679S.625.405,0,0C0,0,5.1,4.718,4.6,10.79Z" transform="translate(7.572 0.633)" fill="#1f46b8"/>
            <path id="Path_9933" data-name="Path 9933" d="M4.443.015S-.134-.584,0,5.884c0,0,4.136.674,5.485-4.675Z" transform="translate(27.602 86.594)" fill="#1f46b8"/>
            <path id="Path_9934" data-name="Path 9934" d="M4.883,0S-.406-.018.025,6.6c0,0,4.439.793,5.9-5.354Z" transform="translate(22.856 81.273)" fill="#1f46b8"/>
            <path id="Path_9935" data-name="Path 9935" d="M7.872.429S3.072-1.822,0,3.988c0,0,4.435,1.876,8.3-2.621Z" transform="translate(16.915 76.076)" fill="#1f46b8"/>
            <path id="Path_9936" data-name="Path 9936" d="M7.8.5S2.886-1.894,0,3.783c0,0,5.12,1.763,8.207-2.384Z" transform="translate(13.97 70.378)" fill="#1f46b8"/>
            <path id="Path_9937" data-name="Path 9937" d="M8.507,1.994S3.776-2.526,0,2.045c0,0,4.833,3.719,8.725.955Z" transform="translate(11.525 63.994)" fill="#1f46b8"/>
            <path id="Path_9938" data-name="Path 9938" d="M8.506,1.992S3.745-2.629,0,2.205c0,0,5.343,3.793,8.675.757Z" transform="translate(9.944 57.681)" fill="#1f46b8"/>
            <path id="Path_9939" data-name="Path 9939" d="M7.984,4.67S4.317-1.1,0,.187c0,0,3.8,6.112,7.943,5.839Z" transform="translate(9.575 49.371)" fill="#1f46b8"/>
            <path id="Path_9940" data-name="Path 9940" d="M7.189,6.156S3.491-1.115,0,.147c0,0,2.663,5.587,7.284,7.23Z" transform="translate(9.289 42.566)" fill="#1f46b8"/>
            <path id="Path_9941" data-name="Path 9941" d="M7.357,5.083S3.558-.64,0,.059c0,0,3.1,5.8,7.724,6.679Z" transform="translate(8.867 36.774)" fill="#1f46b8"/>
            <path id="Path_9942" data-name="Path 9942" d="M5.337,6.476S2.394.057,0,0C0,0,1.414,6.377,5.139,7.556Z" transform="translate(10.597 29.544)" fill="#1f46b8"/>
            <path id="Path_9943" data-name="Path 9943" d="M5.73,6.515S2.458.013,0,0C0,0,1.674,5.56,5.621,7.087Z" transform="translate(9.62 23.832)" fill="#1f46b8"/>
            <path id="Path_9944" data-name="Path 9944" d="M4.474,5.991S2.026.61,0,0C0,0,1.224,6.558,4.2,7.418Z" transform="translate(10.384 17.486)" fill="#1f46b8"/>
            <path id="Path_9945" data-name="Path 9945" d="M5.47,8.332,0,0S1.4,8.219,6.268,9.92Z" transform="translate(7.827 9.691)" fill="#1f46b8"/>
            <path id="Path_9946" data-name="Path 9946" d="M6.587,5.1S.23.709,0,0C0,0,3.243,6.146,9.237,7.231Z" transform="translate(2.955 3.885)" fill="#1f46b8"/>
            <path id="Path_9947" data-name="Path 9947" d="M9.162,7.009S1.863-.007,0,0A11.917,11.917,0,0,1,9.337,6.636Z" fill="#1f46b8"/>
            <path id="Path_9948" data-name="Path 9948" d="M5.9,18.086l-.266.034C4.259,7.383,2.26,1.039,0,.254L.088,0C2.483.832,4.492,7.086,5.9,18.086Z" transform="translate(8.891 6.433)" fill="#3f3d56"/>
            <path id="Path_9949" data-name="Path 9949" d="M2.353,26.467l-.4.034c-.084-1-.149-2.029-.193-3.05C1.375,14.564.781,6.405,0,.288L.233,0c.783,6.128,1.545,14.536,1.928,23.433C2.2,24.449,2.269,25.47,2.353,26.467Z" transform="translate(14.451 23.722)" fill="#3f3d56"/>
            <path id="Path_9950" data-name="Path 9950" d="M31.227,49.374A52.287,52.287,0,0,1,16.744,38.652a58.269,58.269,0,0,1-10.587-15A68.041,68.041,0,0,1,0,0L.419.2C1.977,18.714,10.408,31.374,17.112,38.26A51.756,51.756,0,0,0,31.443,48.883Z" transform="translate(16.34 49.421)" fill="#3f3d56"/>
          </g>
          <g id="Group_2819" data-name="Group 2819" transform="translate(30.989 41.525)">
            <path id="Path_9951" data-name="Path 9951" d="M994.85,508.14a20.756,20.756,0,0,1,3.786,21.591c-4.908,12.9,8.41,34.348,8.41,34.348s-.143-.021-.416-.067a25.308,25.308,0,0,1-16.8-38.737C993.535,519.634,996.564,513.018,994.85,508.14Z" transform="translate(-979.367 -508.14)" fill="#1f46b8"/>
            <path id="Path_9952" data-name="Path 9952" d="M994.85,508.84a20.756,20.756,0,0,1,3.786,21.591c-4.908,12.9,8.41,34.346,8.41,34.346s-.143-.021-.416-.067a25.308,25.308,0,0,1-16.8-38.738C993.535,520.334,996.564,513.718,994.85,508.84Z" transform="translate(-979.367 -508.695)" opacity="0.1"/>
            <path id="Path_9953" data-name="Path 9953" d="M987.7,508.14s4.907,10.654,0,19.347-.831,33.086,12.2,36.591" transform="translate(-972.219 -508.14)" fill="none" stroke="#3f3d56" stroke-linecap="round" stroke-miterlimit="10" stroke-width="0.7"/>
            <path id="Path_9954" data-name="Path 9954" d="M975,676.947s9.919-1.579,10.822,7.309,19.079,10.12,19.079,10.12l-.341.226c-15,9.848-29.343,6.272-27.18-6.8C978.179,682.938,978.112,678.056,975,676.947Z" transform="translate(-975 -641.789)" fill="#1f46b8"/>
            <path id="Path_9955" data-name="Path 9955" d="M975.04,677.36s7.7,1.689,7.064,8.691,11.427,15.393,22.829,8.741" transform="translate(-975.04 -642.202)" fill="none" stroke="#3f3d56" stroke-linecap="round" stroke-miterlimit="10" stroke-width="0.7"/>
            <g id="Group_2817" data-name="Group 2817" transform="translate(32.631 34.021)">
              <path id="Path_9956" data-name="Path 9956" d="M605.144,699.8c-1.654,6.114-7.319,9.9-7.319,9.9s-2.983-6.126-1.33-12.24,7.319-9.9,7.319-9.9S606.8,693.686,605.144,699.8Z" transform="translate(-595.997 -687.56)" fill="#3f3d56"/>
              <path id="Path_9957" data-name="Path 9957" d="M577.184,709.788c-4.538,4.418-5.093,11.209-5.093,11.209s6.8-.371,11.342-4.789S588.526,705,588.526,705,581.722,705.37,577.184,709.788Z" transform="translate(-570.466 -698.862)" fill="#1f46b8"/>
            </g>
            <g id="Group_2818" data-name="Group 2818" transform="translate(8.726 45.241)">
              <path id="Path_9958" data-name="Path 9958" d="M929.3,733.56s7.812-1.562,9.9-3.646,11.458-5.728,12.5-3.116,14.061,11.458,5.208,13.021-20.832,2.078-23.436,1.039S929.3,733.56,929.3,733.56Z" transform="translate(-929.297 -725.89)" fill="#a8a8a8"/>
              <path id="Path_9959" data-name="Path 9959" d="M956.908,767.88c-8.855,1.563-20.833,2.078-23.436,1.039-1.984-.794-3.362-4.6-3.906-6.378l-.26.054s1.562,6.249,4.166,7.29,14.583.521,23.436-1.039c2.555-.451,3.287-1.51,3.01-2.851C959.7,766.87,958.811,767.543,956.908,767.88Z" transform="translate(-929.304 -754.926)" opacity="0.2"/>
            </g>
          </g>
        </g>
        <g id="Group_2824" data-name="Group 2824" transform="translate(258.261 208.26)">
          <g id="Group_2821" data-name="Group 2821" transform="translate(0.505)">
            <path id="Path_9960" data-name="Path 9960" d="M310.416,562.977s5.317-18.051-1-31.341a28.508,28.508,0,0,1-2.306-17.889,47.958,47.958,0,0,1,2.533-8.406" transform="translate(-297.177 -492.854)" fill="none" stroke="#3f3d56" stroke-linecap="round" stroke-miterlimit="10" stroke-width="1"/>
            <path id="Path_9961" data-name="Path 9961" d="M300.905,451.509c0,2.214,4.007,8.621,4.007,8.621s4.007-6.417,4.007-8.621a4.007,4.007,0,1,0-8.012,0Z" transform="translate(-292.367 -447.41)" fill="#1f46b8"/>
            <path id="Path_9962" data-name="Path 9962" d="M332.149,500.468c1.2,1.858,8.052,5.065,8.052,5.065s-.125-7.563-1.328-9.421a4.007,4.007,0,1,0-6.725,4.354Z" transform="translate(-330.232 -484.113)" fill="#1f46b8"/>
            <path id="Path_9963" data-name="Path 9963" d="M325.566,592.856c1.977,1,9.507.308,9.507.308s-3.925-6.466-5.9-7.462a4.006,4.006,0,1,0-3.608,7.154Z" transform="translate(-323.36 -555.558)" fill="#1f46b8"/>
            <path id="Path_9964" data-name="Path 9964" d="M308.284,667.442c1.778,1.315,9.32,1.91,9.32,1.91s-2.776-7.035-4.554-8.352a4.007,4.007,0,0,0-4.766,6.443Z" transform="translate(-302.292 -614.347)" fill="#1f46b8"/>
            <path id="Path_9965" data-name="Path 9965" d="M296.09,523.975c-1.586,1.541-8.981,3.138-8.981,3.138s1.811-7.343,3.4-8.887a4.007,4.007,0,0,1,5.582,5.746Z" transform="translate(-277.708 -502.126)" fill="#1f46b8"/>
            <path id="Path_9966" data-name="Path 9966" d="M272.7,607.311c-1.976,1-9.507.308-9.507.308s3.925-6.466,5.9-7.462a4.007,4.007,0,0,1,3.606,7.154Z" transform="translate(-250.131 -566.933)" fill="#1f46b8"/>
            <path id="Path_9967" data-name="Path 9967" d="M267.294,694.587c-1.778,1.315-9.32,1.91-9.32,1.91s2.776-7.035,4.554-8.356a4.007,4.007,0,1,1,4.766,6.443Z" transform="translate(-243.112 -635.637)" fill="#1f46b8"/>
            <path id="Path_9968" data-name="Path 9968" d="M300.905,451.509c0,2.214,4.007,8.621,4.007,8.621s4.007-6.417,4.007-8.621a4.007,4.007,0,1,0-8.012,0Z" transform="translate(-292.367 -447.41)" opacity="0.25"/>
            <path id="Path_9969" data-name="Path 9969" d="M332.149,500.468c1.2,1.858,8.052,5.065,8.052,5.065s-.125-7.563-1.328-9.421a4.007,4.007,0,1,0-6.725,4.354Z" transform="translate(-330.232 -484.113)" opacity="0.25"/>
            <path id="Path_9970" data-name="Path 9970" d="M325.566,592.856c1.977,1,9.507.308,9.507.308s-3.925-6.466-5.9-7.462a4.006,4.006,0,1,0-3.608,7.154Z" transform="translate(-323.36 -555.558)" opacity="0.25"/>
            <path id="Path_9971" data-name="Path 9971" d="M308.284,667.442c1.778,1.315,9.32,1.91,9.32,1.91s-2.776-7.035-4.554-8.352a4.007,4.007,0,0,0-4.766,6.443Z" transform="translate(-302.292 -614.347)" opacity="0.25"/>
            <path id="Path_9972" data-name="Path 9972" d="M296.09,523.975c-1.586,1.541-8.981,3.138-8.981,3.138s1.811-7.343,3.4-8.887a4.007,4.007,0,0,1,5.582,5.746Z" transform="translate(-277.708 -502.126)" opacity="0.25"/>
            <path id="Path_9973" data-name="Path 9973" d="M272.7,607.311c-1.976,1-9.507.308-9.507.308s3.925-6.466,5.9-7.462a4.007,4.007,0,0,1,3.606,7.154Z" transform="translate(-250.131 -566.933)" opacity="0.25"/>
            <path id="Path_9974" data-name="Path 9974" d="M267.294,694.587c-1.778,1.315-9.32,1.91-9.32,1.91s2.776-7.035,4.554-8.356a4.007,4.007,0,1,1,4.766,6.443Z" transform="translate(-243.112 -635.637)" opacity="0.25"/>
          </g>
          <g id="Group_2822" data-name="Group 2822" transform="translate(0 56.094)">
            <path id="Path_9975" data-name="Path 9975" d="M596.265,694.136a10.558,10.558,0,0,0,3.932,5.319,9.09,9.09,0,0,0-3.218-11.895A10.557,10.557,0,0,0,596.265,694.136Z" transform="translate(-591.477 -687.56)" fill="#3f3d56"/>
            <path id="Path_9976" data-name="Path 9976" d="M578.185,707.571a10.557,10.557,0,0,1,2.736,6.022,9.09,9.09,0,0,1-8.83-8.6A10.557,10.557,0,0,1,578.185,707.571Z" transform="translate(-572.091 -701.702)" fill="#1f46b8"/>
          </g>
          <g id="Group_2823" data-name="Group 2823" transform="translate(5.375 63.089)">
            <path id="Path_9977" data-name="Path 9977" d="M946.86,730.282s-4.473-.895-5.667-2.088-6.562-3.28-7.158-1.785-8.052,6.561-2.983,7.456,11.93,1.19,13.421.595S946.86,730.282,946.86,730.282Z" transform="translate(-929.297 -725.89)" fill="#a8a8a8"/>
            <path id="Path_9978" data-name="Path 9978" d="M931.061,765.6c5.071.895,11.93,1.19,13.421.595,1.136-.454,1.925-2.636,2.237-3.653l.149.031s-.895,3.579-2.385,4.175-8.351.3-13.421-.595c-1.463-.258-1.882-.865-1.724-1.632C929.461,765.02,929.972,765.4,931.061,765.6Z" transform="translate(-929.305 -758.18)" opacity="0.2"/>
          </g>
        </g>
        <g id="Group_2833" data-name="Group 2833" transform="translate(0 0)">
          <g id="Group_2826" data-name="Group 2826" transform="translate(160.056 18.687)" opacity="0.3">
            <rect id="Rectangle_2291" data-name="Rectangle 2291" width="102" height="132" rx="10" transform="translate(-0.123 -0.366)" fill="#fff"/>
            <g id="Group_2825" data-name="Group 2825" transform="translate(27.624 93.434)">
              <rect id="Rectangle_2292" data-name="Rectangle 2292" width="41" height="14" rx="5" transform="translate(0.253 0.2)" fill="#3f67db"/>
              <text id="Subscribe" transform="translate(8.253 6.2)" fill="#fff" font-size="2" font-family="Poppins-Medium, Poppins" font-weight="500"><tspan x="0" y="0">SUBSCRIBE</tspan></text>
            </g>
            <rect id="Rectangle_2293" data-name="Rectangle 2293" width="45" height="4" rx="2" transform="translate(13.877 51.634)" fill="#3f67db"/>
            <rect id="Rectangle_2294" data-name="Rectangle 2294" width="45" height="2" rx="1" transform="translate(13.877 72.634)" fill="#3f67db"/>
            <rect id="Rectangle_2295" data-name="Rectangle 2295" width="26" height="5" rx="2.5" transform="translate(13.877 61.634)" fill="#3f67db"/>
            <rect id="Rectangle_2296" data-name="Rectangle 2296" width="14" height="4" rx="2" transform="translate(73.877 51.634)" fill="#3f67db"/>
            <rect id="Rectangle_2297" data-name="Rectangle 2297" width="14" height="2" rx="1" transform="translate(73.877 72.634)" fill="#3f67db"/>
          </g>
          <g id="Group_2828" data-name="Group 2828" transform="translate(0 18.687)" opacity="0.3">
            <rect id="Rectangle_2298" data-name="Rectangle 2298" width="101" height="132" rx="10" transform="translate(-0.067 -0.366)" fill="#fff"/>
            <g id="Group_2827" data-name="Group 2827" transform="translate(27.624 93.434)">
              <rect id="Rectangle_2299" data-name="Rectangle 2299" width="43" height="14" rx="5" transform="translate(0.309 0.2)" fill="#3f67db"/>
              <text id="Subscribe-2" data-name="Subscribe" transform="translate(6.309 9.2)" fill="#fff" font-size="6" font-family="Poppins-Medium, Poppins" font-weight="500"><tspan x="0" y="0">SUBSCRIBE</tspan></text>
            </g>
            <rect id="Rectangle_2300" data-name="Rectangle 2300" width="43" height="3" rx="1.5" transform="translate(15.933 51.634)" fill="#3f67db"/>
            <rect id="Rectangle_2301" data-name="Rectangle 2301" width="43" height="3" rx="1.5" transform="translate(15.933 72.634)" fill="#3f67db"/>
            <rect id="Rectangle_2302" data-name="Rectangle 2302" width="24" height="3" rx="1.5" transform="translate(15.933 61.634)" fill="#3f67db"/>
            <rect id="Rectangle_2303" data-name="Rectangle 2303" width="13" height="4" rx="2" transform="translate(73.933 51.634)" fill="#3f67db"/>
            <rect id="Rectangle_2304" data-name="Rectangle 2304" width="13" height="2" rx="1" transform="translate(73.933 72.634)" fill="#3f67db"/>
            <path id="Path_9979" data-name="Path 9979" d="M12.531-6.5H9.406a5.169,5.169,0,0,1,1.072,2.55h2.661l-.609,2.035H10.518A4.584,4.584,0,0,1,8.652,1.541,7.7,7.7,0,0,1,4.125,2.7l6.526,7.368v.155h-3L.63,2.276.617.665h3.3A4.827,4.827,0,0,0,6.6-.037,3.01,3.01,0,0,0,7.911-1.911H.246L.855-3.946H7.884Q7.249-6.393,3.992-6.5H.273L.895-8.531H13.139Z" transform="translate(14.603 29.598)" fill="#3f67db"/>
          </g>
          <g id="Group_2830" data-name="Group 2830" transform="translate(73.935 0)">
            <rect id="Rectangle_2305" data-name="Rectangle 2305" width="119" height="170" rx="15" transform="translate(-0.001 0.321)" fill="#b2c2f0"/>
            <g id="Group_2829" data-name="Group 2829" transform="translate(33.311 122.683)">
              <rect id="Rectangle_2306" data-name="Rectangle 2306" width="52" height="17" rx="5" transform="translate(-0.312 -0.362)" fill="#3f67db"/>
              <text id="Subscribe-3" data-name="Subscribe" transform="translate(6.688 10.638)" fill="#fff" font-size="7" font-family="Poppins-Medium, Poppins" font-weight="500"><tspan x="0" y="0">SUBSCRIBE</tspan></text>
            </g>
            <rect id="Rectangle_2307" data-name="Rectangle 2307" width="52" height="5" rx="2.5" transform="translate(16.999 70.321)" fill="#3f67db"/>
            <rect id="Rectangle_2308" data-name="Rectangle 2308" width="52" height="5" rx="2.5" transform="translate(16.999 93.321)" fill="#3f67db"/>
            <rect id="Rectangle_2309" data-name="Rectangle 2309" width="20" height="5" rx="2.5" transform="translate(16.999 82.321)" fill="#3f67db"/>
            <rect id="Rectangle_2310" data-name="Rectangle 2310" width="16" height="5" rx="2.5" transform="translate(85.999 70.321)" fill="#3f67db"/>
            <rect id="Rectangle_2311" data-name="Rectangle 2311" width="16" height="5" rx="2.5" transform="translate(85.999 93.321)" fill="#3f67db"/>
            <path id="Path_9980" data-name="Path 9980" d="M19.9-5.275h-5a8.271,8.271,0,0,1,1.716,4.081h4.257L19.9,2.062H16.682A7.334,7.334,0,0,1,13.7,7.585,12.318,12.318,0,0,1,6.452,9.44L16.894,21.228v.247H12.086L.86,8.76.839,6.183H6.113a7.723,7.723,0,0,0,4.3-1.123,4.816,4.816,0,0,0,2.1-3H.246L1.22-1.195H12.467Q11.45-5.11,6.24-5.275H.288l1-3.256H20.876Z" transform="translate(16.739 33.165)" fill="#3f67db"/>
          </g>
          <g id="Group_2832" data-name="Group 2832" transform="translate(128.428 38.515)">
            <ellipse id="Ellipse_396" data-name="Ellipse 396" cx="34.113" cy="9.995" rx="34.113" ry="9.995" transform="translate(43.529 231.389)" fill="#3f3d56" opacity="0.1"/>
            <ellipse id="Ellipse_397" data-name="Ellipse 397" cx="4.138" cy="4.138" rx="4.138" ry="4.138" transform="translate(128.229 71.877)" fill="#e6e8ec"/>
            <path id="Path_9981" data-name="Path 9981" d="M416.894,415h23.6a2.72,2.72,0,0,1,2.72,2.724V434.07a2.724,2.724,0,0,1-2.72,2.724h-23.6a2.729,2.729,0,0,1-2.724-2.724V417.728A2.724,2.724,0,0,1,416.894,415Zm0,2.724v2.316c1.277,1.034,3.3,2.648,7.637,6.04.958.753,2.848,2.554,4.167,2.554s3.21-1.784,4.163-2.554c4.338-3.405,6.385-5.006,7.641-6.04v-2.316Zm23.6,16.346V423.539c-1.3,1.034-3.146,2.486-5.959,4.682-1.243.979-3.405,3.133-5.849,3.12s-4.567-2.128-5.849-3.116c-2.809-2.2-4.653-3.656-5.959-4.682V434.07Z" transform="translate(-356.372 -345.997)" fill="#6c63ff" opacity="0.1"/>
            <path id="Path_9982" data-name="Path 9982" d="M292.182,315.761l.4-.162a9.986,9.986,0,0,1,1.23-1.447s10.842-3.635,13.047-4.976a8.884,8.884,0,0,1,4.512-1.243l3.933-.668s2.209-.477,3.265-.851,2.98-1.145,2.98-1.145a10.212,10.212,0,0,0,2.69-1.532c.387-.575,2.3-1.051,2.3-1.051l3.933-2.98s3.167-1.915,3.648-3.733,2.3-6.887,8.441-3.635c0,0,3.073-.851,3.831-1.818s7.96.094,7.96.094l2.243-3.831a32.874,32.874,0,0,0,.179-6.466,5.723,5.723,0,0,0-.055-.617A11.408,11.408,0,0,1,353.241,266c.064-.145.136-.29.2-.426a3.832,3.832,0,0,1-.37-1.06,2.127,2.127,0,0,0-.043-.281,5.028,5.028,0,0,1-.021-.656,4.971,4.971,0,0,1,.162-1.226l.089-.3a4.963,4.963,0,0,1,1.558-2.286,10.652,10.652,0,0,0,2.128-1.7c.77-1.1.57-2.652,1.277-3.78a3.142,3.142,0,0,1,.23-.3l.064-.068c.072-.077.149-.145.226-.213l.047-.038a4.717,4.717,0,0,1,4.027-.579c1.639.426,3.158,1.277,4.836,1.524a20.519,20.519,0,0,0,4.018-.157,5.975,5.975,0,0,1,3.878.783c1.358.949,1.911,2.7,3.1,3.857s3.082,1.7,4.12,3.069a3.759,3.759,0,0,1,.507,3.554c-.426,1.094-1.358,1.975-1.571,3.129-.238,1.277.426,2.69-.021,3.852h0a2.156,2.156,0,0,1-.119.243h0a1.157,1.157,0,0,0-.17,0h-.166l-.162.03h0a1.08,1.08,0,0,0-.157.043,2.341,2.341,0,0,0-1.422,1.541,6.728,6.728,0,0,0,0,2.826,5.813,5.813,0,0,1-.077,2.814.874.874,0,0,1-.055.128h0a1.006,1.006,0,0,1-.106.187l-.026.034a.827.827,0,0,1-.145.153h0a1.724,1.724,0,0,1-.822.234h0a1.335,1.335,0,0,0-.289.055c-.094.021-.128.034-.187.051l-.089.026c-.081.026-.158.051-.238.085h-.021c-.085.038-.17.072-.251.115h0a3.657,3.657,0,0,0-1.158.851c-.132.145-.255.3-.383.451h0l-.183.192a2.008,2.008,0,0,1-.209.17,1.767,1.767,0,0,1-1.056.277,5.531,5.531,0,0,1-1.4-.272l-.038.358c-.077.681-.145,1.354-.2,2.009a1.159,1.159,0,0,1-.021.272,13.825,13.825,0,0,1,3.405,4.257l-.128.426a1.361,1.361,0,0,1,.128.166v1.911s10.174,1.818,11.327,2.682a7.046,7.046,0,0,0,3.261.953s5.759-.285,5.759,5.07c0,0,.192,2.486,1.341,2.584s1.728,1.626,1.728,1.626l5.853,6.313,8.543,6.887a49.919,49.919,0,0,1,4.763,5.048,1.127,1.127,0,0,1,.226.5s10.352,11.523-.979,16.359l-.353.145L407.5,347.92,395.152,354.9l-.37-.524-.2.132-1.486.979-1.9-3.061-.251.055a2.838,2.838,0,0,0-1.916,1.209c-.566,1.047-3.984,3.265-6.066,3.482l.077.23,1.166,3.716s2.3,2.677,1.822,3.635.851,8.037.851,8.037-2.128.851-3.167,1.435a3.116,3.116,0,0,1-.621.17,4.919,4.919,0,0,0,.06.562,3.4,3.4,0,0,0,.66,1.852c1.154,1.145,1.056,3.444,1.056,3.444s.579,3.346,0,3.729.26,1.243.26,1.243-.894,2.869,0,4.018,2.737,16.644-.677,24.2c0,0-3.044,6.5-1.409,8.8s3.708,9.663,3.405,11,.447,4.593.447,4.593-1.247,6.811-.383,8.224,3.167,23.246.383,28.52c0,0,2.784,3.542,4.223,3.542s-1.247,5.534-2.4,6.6-1.669,6.215-1.669,6.215l-.166.077c-.047.2-.1.426-.158.643-.609,2.371-1.652,5.627-2.809,5.691-1.822.094-8.828-.383-9.114-2.107s.1-4.593-1.341-5.453-6.432-3.346-3.363-9.275a6.981,6.981,0,0,1,1.128-.034h.026l-.575-12.77-2.3-18.653s-2.018-6.411-2.307-7.27a3.833,3.833,0,0,1,.481-2.294l-.541-5.168s.349-5.738-.8-6.5-.481-3.631-.481-3.631a31.912,31.912,0,0,1-1.056-5.168,22.243,22.243,0,0,0-.673-3.925s-.383-1.7-1.056-4.014a28.523,28.523,0,0,1-.851-5.168s-2.588-3.252-2.3-5.836-.192-6.7-1.149-5.836-1.537,3.831-1.537,3.831l-1.439,8.037s-2.495,7.939-2.205,9.088-.771,5.355-.771,5.355.192,4.878-.383,6.027,0,3.444,0,3.444-1.92,4.878-1.63,5.836-.03,6.6-.03,6.6l-.549,4.21s-.575,3.35,0,5.168-2.511,25.54-3.367,27.456.49,5.832.49,5.832,1.056,3.158-3.452,5.534l-1.345,5.453-.1.03a3.978,3.978,0,0,1-.06.587c-.379,2.52-2.29,5.108-9.343,2.924,0,0-2.128-.741-2.686-2.281s-4.989-3.171-4.989-3.171-3.882-4.431-.481-7.556a3.159,3.159,0,0,1,3.571-.7,6.754,6.754,0,0,0-.6-3.61c-1.056-2.2,1.056-6.887,1.724-7.662s-.851-4.3-.851-4.3a23.367,23.367,0,0,1,1.056-2.869c.383-.673.766-18.083.766-18.083s.766-9.565,2.784-13.583c0,0-.481-2.869-.673-4.112s.192-21.905.192-21.905-4.125-6.811-1.247-16.933a28.481,28.481,0,0,0-.383-4.4c-.383-2.1.575-5.836.575-5.836s-1.056-5.261.958-6.811c.851-.63,1.209-2.073,1.362-3.554,0-.187.03-.375.043-.558-2.69-.711-4.657-1.5-4.857-2.294-.672-2.677,3.742-15.324,3.742-15.324l5.325-15.469s-2.018-7.079-1.154-9.28-1.92-7.751-1.92-7.751,1.251-3.631.387-4.589a1.014,1.014,0,0,1-.153-.268l-2.056,1.511s-3.456.958-4.291,1.911-4.538.673-4.538.673a33.542,33.542,0,0,0-5.959.358,3.405,3.405,0,0,0-1.7.694c-1.154,1.247-4.993,1.7-5.759,1.149a2.219,2.219,0,0,0-1.486-.132,13.144,13.144,0,0,0-2.064.515l-12.77,1.626a10.39,10.39,0,0,1-.826-.762l-.166.128c-10.331,7.522-10.718.157-10.718.157s-3.644.953-3.644-1.277C278.454,321.529,288.028,317.447,292.182,315.761ZM387.107,346.3l.272-.021-.183-.294,1.017-.477.217-.1-.383-.549,10.084-6.032a3.707,3.707,0,0,0,1.537-1.7c.575-1.243,3.069-1.528,3.069-1.528l2.831-2.49s-3.312-4.018-4.257-4.018a6.616,6.616,0,0,1-2.592-1.188l-4.048-2.733-.077.1a59.212,59.212,0,0,0-3.831,5.163c-.281.766-3.452,4.112-3.452,4.112a32.913,32.913,0,0,0-4.9,8.9,12.5,12.5,0,0,1-1.933,2.107c2.631.289,5.772.851,5.772.851Z" transform="translate(-278.442 -252.896)" fill="url(#linear-gradient)"/>
            <path id="Path_9983" data-name="Path 9983" d="M397.849,307.533a39.465,39.465,0,0,1-1.256,12.144s18.432,1.141,17.1-1.328a3.58,3.58,0,0,1-.3-1.277,27.057,27.057,0,0,1,.094-4.568c.055-.651.123-1.32.2-2,.247-2.226.575-4.516.851-6.317.047-.277.089-.545.128-.8.26-1.588.451-2.635.451-2.635s-14.171-4.167-18.457-2.746c-1.209.4-1.635,1.239-.736,2.746a15.1,15.1,0,0,1,1.86,6.147A2.994,2.994,0,0,1,397.849,307.533Z" transform="translate(-320.3 -278.637)" fill="#ffb9b9"/>
            <path id="Path_9984" data-name="Path 9984" d="M581.85,409.978c0,2.23,3.61,1.277,3.61,1.277s.383,7.317,10.612-.157c.26-.192.528-.392.8-.6l.426-8.267v-.477s-.724.285-1.86.745C591.33,404.176,581.85,408.241,581.85,409.978Z" transform="translate(-581.837 -338.387)" fill="#ffb9b9"/>
            <path id="Path_9985" data-name="Path 9985" d="M369.327,797.073c1.426.851,1.043,3.708,1.328,5.415s7.236,2.188,9.029,2.094c1.145-.064,2.179-3.3,2.78-5.653.345-1.354.549-2.418.549-2.418s-11.493-4.568-12.451-6.849c-.6-1.456-2.3-1.788-3.444-1.835a7.163,7.163,0,0,0-1.115.03C362.959,793.748,367.9,796.217,369.327,797.073Z" transform="translate(-275.253 -560.116)" fill="#464a5f"/>
            <path id="Path_9986" data-name="Path 9986" d="M473.791,808.4s4.367,1.613,4.938,3.15a4.8,4.8,0,0,0,2.661,2.269c6.985,2.175,8.875-.4,9.25-2.907a9.273,9.273,0,0,0-.221-3.461l-10.263-4.291a8.772,8.772,0,0,0-3.269-2.946,3.12,3.12,0,0,0-3.571.681C469.947,803.995,473.791,808.4,473.791,808.4Z" transform="translate(-428.457 -567.068)" fill="#464a5f"/>
            <path id="Path_9987" data-name="Path 9987" d="M365.06,787.84l.217,4.785c3.035,2.086,3.405,6.172,3.405,6.172a15.005,15.005,0,0,0,11.71.145c.345-1.354.549-2.418.549-2.418s-11.493-4.567-12.451-6.849C367.9,788.219,366.2,787.908,365.06,787.84Z" transform="translate(-273.196 -560.129)" opacity="0.1"/>
            <path id="Path_9988" data-name="Path 9988" d="M471.932,801.851c3.61,11.536,12.6,9.765,13.9,9.446a9.271,9.271,0,0,0-.221-3.461l-10.263-4.291a8.775,8.775,0,0,0-3.269-2.946,5.836,5.836,0,0,1-.149,1.251Z" transform="translate(-423.652 -567.457)" opacity="0.1"/>
            <path id="Path_9989" data-name="Path 9989" d="M355.465,630.523a6.708,6.708,0,0,1,.477,4.278c3.895,12.447,14.047,9.4,14.047,9.4l1.332-5.415c4.465-2.375,3.405-5.508,3.405-5.508s-1.332-3.9-.485-5.8,3.908-25.464,3.337-27.269,0-5.129,0-5.129l.541-4.184s.315-5.6.03-6.555,1.613-5.793,1.613-5.793-.57-2.282,0-3.405.379-5.985.379-5.985,1.047-4.18.762-5.321,2.184-9.024,2.184-9.024l1.426-7.981s.57-2.946,1.524-3.8,1.422,3.231,1.137,5.8,2.294,5.776,2.294,5.776a28.168,28.168,0,0,0,.851,5.134c.664,2.277,1.043,3.989,1.043,3.989a22.091,22.091,0,0,1,.668,3.9,32.012,32.012,0,0,0,1.043,5.134s-.664,2.848.477,3.605.792,6.462.792,6.462l.536,5.134a3.834,3.834,0,0,0-.473,2.277c.285.851,2.277,7.236,2.277,7.236l2.3,18.512.762,16.916c3.035,2.086,3.405,6.172,3.405,6.172a14.9,14.9,0,0,0,12.034,0s.511-5.108,1.647-6.172,3.8-6.555,2.375-6.555-4.18-3.52-4.18-3.52c2.754-5.223.477-26.885-.379-28.312s.379-8.173.379-8.173-.758-3.231-.447-4.559-1.737-8.645-3.354-10.927,1.392-8.743,1.392-8.743c3.384-7.5,1.554-22.9.668-24.038s0-3.988,0-3.988-.826-.851-.251-1.234,0-3.7,0-3.7.1-2.282-1.043-3.405a3.337,3.337,0,0,1-.651-1.839,21.811,21.811,0,0,1,0-4.146l-13.111-7.7-16.435-1.332L361.65,517a23.9,23.9,0,0,1,0,4.257c-.149,1.469-.519,2.9-1.345,3.529-2,1.524-.949,6.747-.949,6.747s-.949,3.708-.57,5.8a28.381,28.381,0,0,1,.379,4.372c-2.848,10.071,1.239,16.818,1.239,16.818s-.383,20.522-.192,21.756.664,4.082.664,4.082c-2,3.993-2.754,13.494-2.754,13.494s-.379,17.291-.762,17.959a23.25,23.25,0,0,0-1.043,2.852s1.52,3.512.851,4.257S354.422,628.33,355.465,630.523Z" transform="translate(-307.662 -400.977)" fill="#2f2e41"/>
            <path id="Path_9990" data-name="Path 9990" d="M395.871,300.8a15.1,15.1,0,0,1,1.86,6.147c.026.2.043.426.06.613,1.907,1.456,4.848.719,7.436.719.911,0,.694-1.341,1.545-1.541,3.052-.736,6.176.136,7.713-2.507.047-.277.089-.545.128-.8.26-1.588.451-2.635.451-2.635s-14.171-4.167-18.457-2.746C395.4,298.451,394.973,299.29,395.871,300.8Z" transform="translate(-320.229 -278.66)" opacity="0.1"/>
            <path id="Path_9991" data-name="Path 9991" d="M393.107,282.889a11.357,11.357,0,0,0,11.357,11.357,11.662,11.662,0,0,0,2.656-.311,11.361,11.361,0,1,0-14.013-11.046Z" transform="translate(-320.023 -263.596)" fill="#ffb9b9"/>
            <path id="Path_9992" data-name="Path 9992" d="M399.23,331.168c4.393-1.349,10.433.919,14.171,2.707a27.057,27.057,0,0,1,.094-4.568c-2.511-2.1-6.474-3.648-12.008-.851q-.76.389-1.562.881Z" transform="translate(-320.293 -295.423)" opacity="0.1"/>
            <path id="Path_9993" data-name="Path 9993" d="M391.45,331.837c5.891-1.813,14.75,2.895,17.027,4.206l.426-1.447.123-.4s-4.84-10.382-15.35-5.065c-.507.26-1.026.553-1.562.881Z" transform="translate(-312.513 -295.806)" fill="#534f91"/>
            <path id="Path_9994" data-name="Path 9994" d="M374.6,521.221a121.48,121.48,0,0,0,17.278,2.865c.851-.094,8.458,1.618,8.458,1.618-.285-.953,2.277-11.212,2.277-11.212l1.809,11.783s16.49-1.7,19.87-2.409a21.8,21.8,0,0,1,0-4.146l-13.111-7.7-16.435-1.332L374.6,516.96a23.9,23.9,0,0,1,0,4.261Z" transform="translate(-320.608 -400.954)" opacity="0.1"/>
            <path id="Path_9995" data-name="Path 9995" d="M323.369,414.847c.651,2.652,21.19,5.206,22.041,5.129s8.458,1.618,8.458,1.618c-.285-.954,2.277-11.212,2.277-11.212l1.809,11.8s19.381-2,20.432-2.554,3.137-1.422,3.137-1.422-1.328-7.032-.851-7.981-1.8-3.614-1.8-3.614l-1.158-3.686-3.495-11.136a5.352,5.352,0,0,0,.587-.387,11.87,11.87,0,0,0,2.26-2.367,32.239,32.239,0,0,1,4.848-8.867s3.133-3.325,3.405-4.086a57.429,57.429,0,0,1,3.8-5.129l10.544-13.587-5.793-6.27s-.57-1.52-1.7-1.613-1.332-2.554-1.332-2.554c0-5.321-5.7-5.036-5.7-5.036a6.987,6.987,0,0,1-3.227-.949c-1.137-.856-11.217-2.665-11.217-2.665v-1.613c-8.454-11.212-19.155-3.925-19.155-3.925l-2.226,3.831s-7.122-1.043-7.879-.094-3.8,1.8-3.8,1.8c-6.083-3.227-7.883,1.809-8.36,3.614s-3.614,3.7-3.614,3.7,3.235,16.248,4.091,17.2-.383,4.563-.383,4.563,2.746,5.5,1.894,7.679,1.141,9.22,1.141,9.22l-5.321,15.392S322.7,412.186,323.369,414.847Z" transform="translate(-274.14 -297.415)" fill="#4c4981"/>
            <path id="Path_9996" data-name="Path 9996" d="M391.38,337.874c5.317-8.173,21.381,1.7,21.381,1.7v-1.613c-8.454-11.212-19.155-3.925-19.155-3.925Z" transform="translate(-316.219 -298.161)" opacity="0.1"/>
            <path id="Path_9997" data-name="Path 9997" d="M391.42,333.045c5.891-1.813,14.75,2.895,17.027,4.206l.562.328v-1.613l-.123-.162c-5.27-6.858-11.382-6.615-15.226-5.47-.507.26-1.026.553-1.562.881Z" transform="translate(-312.483 -297.014)" opacity="0.1"/>
            <path id="Path_9998" data-name="Path 9998" d="M391.38,336.534c5.317-8.169,21.381,1.7,21.381,1.7v-1.613c-8.454-11.212-19.155-3.925-19.155-3.925Z" transform="translate(-316.219 -297.392)" fill="#444173"/>
            <path id="Path_9999" data-name="Path 9999" d="M425.651,489.26,428.5,501.6l-.545,2.235S424.893,490.971,425.651,489.26Z" transform="translate(-346.493 -388.646)" opacity="0.1"/>
            <path id="Path_10000" data-name="Path 10000" d="M455.43,441.05s1.426,11.493,10.74,14.822C466.17,455.872,458.474,448.938,455.43,441.05Z" transform="translate(-396.892 -360.958)" opacity="0.1"/>
            <path id="Path_10001" data-name="Path 10001" d="M401.306,460.661S390,455.813,390,457.809,401.306,460.661,401.306,460.661Z" transform="translate(-304.176 -370.306)" opacity="0.1"/>
            <path id="Path_10002" data-name="Path 10002" d="M456.5,436.217s-7.888-5.606-9.595-4.18S456.5,436.217,456.5,436.217Z" transform="translate(-383.519 -355.648)" opacity="0.1"/>
            <path id="Path_10003" data-name="Path 10003" d="M583.9,411.108c.26-.192.528-.392.8-.6l.426-8.267v-.477s-.724.285-1.86.745C581.967,404.437,580.6,407.822,583.9,411.108Z" transform="translate(-569.665 -338.393)" opacity="0.1"/>
            <path id="Path_10004" data-name="Path 10004" d="M486.94,390.206l12.638-1.613a13.237,13.237,0,0,1,2.043-.511,2.236,2.236,0,0,1,1.473.128c.758.57,4.559.1,5.7-1.141a3.405,3.405,0,0,1,1.7-.69,33.648,33.648,0,0,1,5.9-.353s3.665.285,4.5-.664,4.257-1.9,4.257-1.9l3.61-2.665-2.277-16.529-3.235.758-3.891,2.946s-1.9.477-2.282,1.047a10.011,10.011,0,0,1-2.661,1.52s-1.9.758-2.946,1.141-3.231.851-3.231.851l-3.895.668a8.774,8.774,0,0,0-4.47,1.234c-2.179,1.332-12.919,4.942-12.919,4.942S480.742,385.077,486.94,390.206Z" transform="translate(-471.727 -316.861)" fill="#4c4981"/>
            <path id="Path_10005" data-name="Path 10005" d="M527.7,400.932a5.89,5.89,0,0,0,1.7,2.422,2.235,2.235,0,0,1,1.473.128c.758.57,4.559.1,5.7-1.137a3.368,3.368,0,0,1,1.7-.694c.294-2.128,1.068-10.833-6.27-10.267C523.69,392.023,527.7,400.932,527.7,400.932Z" transform="translate(-499.533 -332.418)" opacity="0.1"/>
            <path id="Path_10006" data-name="Path 10006" d="M527.7,401.6a5.89,5.89,0,0,0,1.7,2.422,2.235,2.235,0,0,1,1.473.128c.758.57,4.559.1,5.7-1.141a3.405,3.405,0,0,1,1.7-.69c.294-2.107,1.068-10.833-6.27-10.267C523.69,392.693,527.7,401.6,527.7,401.6Z" transform="translate(-499.533 -332.803)" fill="#444173"/>
            <ellipse id="Ellipse_398" data-name="Ellipse 398" cx="0.426" cy="0.711" rx="0.426" ry="0.711" transform="translate(16.75 67.054)" fill="#6c63ff"/>
            <ellipse id="Ellipse_399" data-name="Ellipse 399" cx="0.426" cy="0.711" rx="0.426" ry="0.711" transform="translate(15.895 67.339)" fill="#6c63ff"/>
            <ellipse id="Ellipse_400" data-name="Ellipse 400" cx="0.426" cy="0.711" rx="0.426" ry="0.711" transform="translate(15.039 67.607)" fill="#6c63ff"/>
            <path id="Path_10007" data-name="Path 10007" d="M505.05,375.85s-.711.5.6,2.03S505.05,375.85,505.05,375.85Z" transform="translate(-457.877 -323.512)" opacity="0.1"/>
            <path id="Path_10008" data-name="Path 10008" d="M523.062,384.64s-1.924,7.015-.285,8.228S523.062,384.64,523.062,384.64Z" transform="translate(-482.696 -328.56)" opacity="0.1"/>
            <ellipse id="Ellipse_401" data-name="Ellipse 401" cx="0.711" cy="0.711" rx="0.711" ry="0.711" transform="translate(94.882 124.796)" fill="#444173"/>
            <ellipse id="Ellipse_402" data-name="Ellipse 402" cx="0.711" cy="0.711" rx="0.711" ry="0.711" transform="translate(60.939 124.038)" fill="#444173"/>
            <path id="Path_10009" data-name="Path 10009" d="M399.615,587s-7.236,6.649-16.725,0C382.89,587,393.408,589.128,399.615,587Z" transform="translate(-299.458 -444.781)" opacity="0.1"/>
            <path id="Path_10010" data-name="Path 10010" d="M461.249,587.863s-12.259.762-15.3-1.992S461.249,587.863,461.249,587.863Z" transform="translate(-387.79 -443.639)" opacity="0.1"/>
            <path id="Path_10011" data-name="Path 10011" d="M386.711,627.87c-.192.477-4.278,12.544-10.071,12.638Z" transform="translate(-283.895 -468.254)" opacity="0.1"/>
            <path id="Path_10012" data-name="Path 10012" d="M466.37,599.08s5.227,22.526,11.119,25.464Z" transform="translate(-412.867 -451.719)" opacity="0.1"/>
            <path id="Path_10013" data-name="Path 10013" d="M370.8,786.8s-11.021,2.277-9.693,3.324,7.99.758,7.99.758Z" transform="translate(-261.329 -559.532)" opacity="0.1"/>
            <path id="Path_10014" data-name="Path 10014" d="M490.3,775.811s-3.895,4.465-5.223,2S490.3,775.811,490.3,775.811Z" transform="translate(-433.567 -553.2)" opacity="0.1"/>
            <path id="Path_10015" data-name="Path 10015" d="M473.867,797.166c-.851-.094-4.278.477-7.032,0s6.385-1.515,7.509.191S473.867,797.166,473.867,797.166Z" transform="translate(-410.101 -565.054)" opacity="0.1"/>
            <path id="Path_10016" data-name="Path 10016" d="M393.084,278.24a2.725,2.725,0,0,0,.426.545c.379.375.851.634,1.209,1.039.724.83.66,1.984.69,3.129a6.588,6.588,0,0,0,.14,1.371,3.831,3.831,0,0,0,2.724,2.78,5.572,5.572,0,0,1,2.337-2.388.983.983,0,0,1,.587-.162,1.018,1.018,0,0,1,.588.426,7.45,7.45,0,0,1,1.63,3.891,7.615,7.615,0,0,1-.051,2.086c-.085.477-.638,1.511-.426,1.954.332.664,1.988.851,3.184,1,.426.047.77.089,1,.141q2.524.562,5,1.32l.307.085c.281-2.554.681-5.223.988-7.113a11.357,11.357,0,1,0-20.322-10.093Z" transform="translate(-319.022 -263.561)" opacity="0.1"/>
            <path id="Path_10017" data-name="Path 10017" d="M382.971,276.281a1,1,0,0,0-.587-.426.979.979,0,0,0-.587.158,5.632,5.632,0,0,0-2.341,2.388,3.831,3.831,0,0,1-2.712-2.78c-.353-1.511.187-3.324-.83-4.5-.345-.4-.83-.66-1.209-1.034a3.469,3.469,0,0,1-.911-2.018,4.955,4.955,0,0,1,1.754-4.4,11.126,11.126,0,0,0,2.128-1.7c.766-1.09.562-2.635,1.277-3.754.907-1.409,2.924-1.609,4.55-1.192s3.124,1.277,4.785,1.511a20.121,20.121,0,0,0,3.98-.153,5.877,5.877,0,0,1,3.831.775c1.345.945,1.89,2.682,3.065,3.831s3.056,1.7,4.086,3.048a3.75,3.75,0,0,1,.5,3.533c-.426,1.085-1.345,1.962-1.554,3.107-.255,1.358.549,2.89-.145,4.086a2.1,2.1,0,0,0-2.056,1.6,6.7,6.7,0,0,0,0,2.805,5.8,5.8,0,0,1-.077,2.8,1.135,1.135,0,0,1-.328.5,1.655,1.655,0,0,1-.813.23,3.712,3.712,0,0,0-2.214,1.192,4.608,4.608,0,0,1-.77.817,3,3,0,0,1-2.494,0q-2.473-.753-5-1.32c-.881-.2-3.737-.247-4.184-1.137-.221-.426.332-1.477.426-1.954a7.522,7.522,0,0,0-1.575-5.959Z" transform="translate(-299.939 -255.154)" fill="#464a5f"/>
            <path id="Path_10018" data-name="Path 10018" d="M379.64,484.659a1.728,1.728,0,0,0,1.656.268L377.8,473.792a5.35,5.35,0,0,0,.587-.387,9.747,9.747,0,0,0-3.312-.038C373.975,473.9,378.321,483.272,379.64,484.659Z" transform="translate(-277.739 -379.449)" opacity="0.1"/>
            <path id="Path_10019" data-name="Path 10019" d="M358.724,483.979c1.332,1.392,6.594-1.818,7.292-3.146a2.807,2.807,0,0,1,1.894-1.2,5.8,5.8,0,0,1,1.1-.149l-3.708-6.1-1.192.1-.873.077s-7.981-1.426-9.088-.89S357.408,482.591,358.724,483.979Z" transform="translate(-256.541 -379.053)" fill="#ffb9b9"/>
            <path id="Path_10020" data-name="Path 10020" d="M353.93,474.632l3.8,6.142a5.81,5.81,0,0,1,1.1-.149l-3.708-6.1Z" transform="translate(-246.346 -380.186)" opacity="0.1"/>
            <path id="Path_10021" data-name="Path 10021" d="M199.72,423.008l5.844,9.441,1.469-.975.847-.558-5.2-9.3-1.95.911Z" transform="translate(-92.046 -328.877)" fill="#6c63ff"/>
            <path id="Path_10022" data-name="Path 10022" d="M199.72,422.531l6.3,8.943.847-.558-5.2-9.3Z" transform="translate(-91.037 -328.877)" opacity="0.1"/>
            <path id="Path_10023" data-name="Path 10023" d="M281.774,425.385l7.032,9.978,12.255-6.934,9.79-7.368.349-.145c11.221-4.793.983-16.239.983-16.239a1.149,1.149,0,0,0-.221-.5,49.389,49.389,0,0,0-4.721-5.014l-8.458-6.841-3.405-1.043-7.888,13.966,4.844,3.282a6.446,6.446,0,0,0,2.554,1.183c.936,0,4.231,3.989,4.231,3.989l-2.805,2.473s-2.469.285-3.039,1.515a3.678,3.678,0,0,1-1.524,1.7Z" transform="translate(-173.258 -332.374)" fill="#4c4981"/>
            <path id="Path_10024" data-name="Path 10024" d="M316.939,432.336s-7.317-1.222-7.7-.707S316.939,432.336,316.939,432.336Z" transform="translate(-185.428 -355.474)" opacity="0.1"/>
            <path id="Path_10025" data-name="Path 10025" d="M312.676,442.17a11.432,11.432,0,0,1-3.044.379C307.828,442.549,312.676,442.17,312.676,442.17Z" transform="translate(-181.165 -361.601)" opacity="0.1"/>
            <path id="Path_10026" data-name="Path 10026" d="M287.411,438.232c11.221-4.793.983-16.239.983-16.239a1.15,1.15,0,0,0-.221-.5c-2.073-.345-5.223.481-5.7,8.467C282.2,434.737,284.512,437.108,287.411,438.232Z" transform="translate(-149.757 -349.69)" opacity="0.1"/>
            <path id="Path_10027" data-name="Path 10027" d="M286.741,438.232c11.221-4.793.983-16.239.983-16.239a1.149,1.149,0,0,0-.221-.5c-2.073-.345-5.223.481-5.7,8.467C281.526,434.737,283.842,437.108,286.741,438.232Z" transform="translate(-148.802 -349.69)" fill="#444173"/>
            <g id="Group_2831" data-name="Group 2831" transform="translate(73.827 2.041)" opacity="0.1">
              <path id="Path_10028" data-name="Path 10028" d="M378.666,302.46a2.042,2.042,0,0,1-.2.5,1.523,1.523,0,0,0-.651.068A2.077,2.077,0,0,1,378.666,302.46Z" transform="translate(-350.174 -283.403)"/>
              <path id="Path_10029" data-name="Path 10029" d="M385.324,320.89l.23-.03a.945.945,0,0,1-.272.37,1.656,1.656,0,0,1-.813.23,3.635,3.635,0,0,0-1.068.336,3.724,3.724,0,0,1,1.924-.907Z" transform="translate(-359.441 -293.97)"/>
              <path id="Path_10030" data-name="Path 10030" d="M431.451,264.173a11.124,11.124,0,0,0,2.128-1.7c.766-1.09.562-2.635,1.277-3.754a2.772,2.772,0,0,1,1.23-1.026,2.6,2.6,0,0,0-.375.455c-.724,1.12-.519,2.665-1.277,3.754a9.6,9.6,0,0,1-2.128,1.7,4.955,4.955,0,0,0-1.754,4.4,3.47,3.47,0,0,0,.911,2.018c.379.375.851.634,1.209,1.034,1.013,1.179.477,2.98.83,4.5a3.831,3.831,0,0,0,2.29,2.639,5.764,5.764,0,0,0-.426.711,3.831,3.831,0,0,1-2.712-2.78c-.353-1.511.187-3.325-.83-4.5-.345-.4-.83-.66-1.209-1.034a3.469,3.469,0,0,1-.911-2.018A4.955,4.955,0,0,1,431.451,264.173Z" transform="translate(-429.67 -257.69)"/>
              <path id="Path_10031" data-name="Path 10031" d="M392.921,300.366a.98.98,0,0,1,.588-.158,1,1,0,0,1,.587.426,7.522,7.522,0,0,1,1.575,5.959c-.081.481-.634,1.515-.426,1.954.447.89,3.3.936,4.184,1.137q2.524.562,5,1.32a3.87,3.87,0,0,0,2.03.226,2.084,2.084,0,0,1-.392.358,3,3,0,0,1-2.494,0q-2.473-.753-5-1.32c-.881-.2-3.737-.247-4.184-1.137-.221-.426.332-1.477.426-1.954a7.522,7.522,0,0,0-1.575-5.959,1,1,0,0,0-.587-.426.958.958,0,0,0-.583.153,5.687,5.687,0,0,1,.851-.579Z" transform="translate(-384.036 -282.108)"/>
            </g>
          </g>
        </g>
      </g>
    </g>
  </g>
</svg>
