<svg xmlns="http://www.w3.org/2000/svg" xmlns:xlink="http://www.w3.org/1999/xlink" width="1366" height="703" viewBox="0 0 1366 703">
  <defs>
    <clipPath id="clip-path">
      <rect id="Rectangle_2242" data-name="Rectangle 2242" width="1366" height="703" transform="translate(0 65)" fill="#fff"/>
    </clipPath>
    <linearGradient id="linear-gradient" x1="0.5" y1="1" x2="0.5" gradientUnits="objectBoundingBox">
      <stop offset="0" stop-color="gray" stop-opacity="0.251"/>
      <stop offset="0.54" stop-color="gray" stop-opacity="0.122"/>
      <stop offset="1" stop-color="gray" stop-opacity="0.102"/>
    </linearGradient>
  </defs>
  <g id="Mask_Group_1816" data-name="Mask Group 1816" transform="translate(0 -65)" clip-path="url(#clip-path)">
    <g id="Group_2826" data-name="Group 2826">
      <rect id="Rectangle_2220" data-name="Rectangle 2220" width="1366" height="703" transform="translate(0 65)" fill="none"/>
      <g id="Group_2825" data-name="Group 2825" transform="translate(0 61)">
        <g id="Group_2805" data-name="Group 2805" transform="translate(0 0)">
          <path id="Path_9907" data-name="Path 9907" d="M454.215,611.706c-1,77.884-35.8,108.768,20.344,111.186S1488.374,827.4,1353,720.341,1025.923,535.553,805.655,534.974,478.637,597.952,454.215,611.706Z" transform="translate(-458.226 0)" fill="#3f3d56"/>
        </g>
        <g id="Group_2824" data-name="Group 2824" transform="translate(86 159)">
          <g id="Group_2810" data-name="Group 2810" transform="translate(0.385 263.789)">
            <g id="Group_2806" data-name="Group 2806" transform="translate(0)">
              <path id="Path_9908" data-name="Path 9908" d="M0,1.388S3.866-1.163,7.7.652c0,0-1.18,2.273-6.029,2.057Z" transform="translate(54.582 126.223)" fill="#1f46b8"/>
              <path id="Path_9909" data-name="Path 9909" d="M.232,0S-.944,4.48,2,7.527c0,0,1.775-1.847.014-6.371Z" transform="translate(53.876 127.747)" fill="#1f46b8"/>
              <path id="Path_9910" data-name="Path 9910" d="M0,2.8S.285-1.007,8.887.257a4.107,4.107,0,0,1-2.98,3.622C2.887,5.044,1.506,4.062,0,2.8Z" transform="translate(49.286 120.644)" fill="#1f46b8"/>
              <path id="Path_9911" data-name="Path 9911" d="M1.74,0S-1.9,1.169,1.346,9.236A4.107,4.107,0,0,0,4.17,5.491C4.595,2.282,3.317,1.169,1.74,0Z" transform="translate(47.017 123.421)" fill="#1f46b8"/>
              <path id="Path_9912" data-name="Path 9912" d="M0,5.671S-.487-.6,8.3.046c0,0,.624,5.673-6.746,7.132Z" transform="translate(43.883 112.346)" fill="#1f46b8"/>
              <path id="Path_9913" data-name="Path 9913" d="M0,5.38S1.205-1.723,9.992.394c0,0,.033,6.141-8.557,6.679Z" transform="translate(38.078 105.561)" fill="#1f46b8"/>
              <path id="Path_9914" data-name="Path 9914" d="M0,5.239S2.018-1.7,10.723.392c0,0-2.072,6.223-10.145,6.126Z" transform="translate(33.834 98.385)" fill="#1f46b8"/>
              <path id="Path_9915" data-name="Path 9915" d="M0,5.429S1.972-1.753,10.375.4c0,0-2.8,6.822-9.823,6.248Z" transform="translate(29.801 91.052)" fill="#1f46b8"/>
              <path id="Path_9916" data-name="Path 9916" d="M0,7.12S1.517-1.663,9.355.281c0,0-2.277,7.989-8.777,8.117Z" transform="translate(27.201 82.574)" fill="#1f46b8"/>
              <path id="Path_9917" data-name="Path 9917" d="M0,6.748S1.819-2.105,9.742.47c0,0-3.11,8.366-9.189,7.5Z" transform="translate(24.765 74.746)" fill="#1f46b8"/>
              <path id="Path_9918" data-name="Path 9918" d="M0,8.617S2.89-.235,9.021,0c0,0-2.955,9.35-8.509,10.388Z" transform="translate(23.256 65.245)" fill="#1f46b8"/>
              <path id="Path_9919" data-name="Path 9919" d="M0,9.879S3.145-.777,8.134.045c0,0-2.177,8.145-7.957,11.494Z" transform="translate(22.298 56.536)" fill="#1f46b8"/>
              <path id="Path_9920" data-name="Path 9920" d="M0,9.233S2.948.353,7.874,0c0,0-2.006,8.736-7.765,11.54Z" transform="translate(21.753 48.287)" fill="#1f46b8"/>
              <path id="Path_9921" data-name="Path 9921" d="M0,9.09S3.677.2,6.932,0c0,0-1.6,8.752-6.607,10.549Z" transform="translate(21.157 40.149)" fill="#1f46b8"/>
              <path id="Path_9922" data-name="Path 9922" d="M0,10.455S2.26.8,5.512,0c0,0-.445,7.9-5.185,11.177Z" transform="translate(20.749 31.072)" fill="#1f46b8"/>
              <path id="Path_9923" data-name="Path 9923" d="M0,8.867S2.377,1.174,5.009,0c0,0-.52,9.072-4.4,10.75Z" transform="translate(19.526 22.568)" fill="#1f46b8"/>
              <path id="Path_9924" data-name="Path 9924" d="M.48,13.568,0,0S4.913,10.24.842,15.962Z" transform="translate(18.029 11.238)" fill="#1f46b8"/>
              <path id="Path_9925" data-name="Path 9925" d="M4.394,10.46S.852.552,0,0C0,0,6.95,6.427,6.271,14.7Z" transform="translate(10.314 0.863)" fill="#1f46b8"/>
              <path id="Path_9926" data-name="Path 9926" d="M6.051.02S-.183-.8,0,8.015c0,0,5.633.918,7.472-6.368Z" transform="translate(37.597 117.952)" fill="#1f46b8"/>
              <path id="Path_9927" data-name="Path 9927" d="M6.651,0S-.553-.024.034,8.995c0,0,6.046,1.08,8.041-7.292Z" transform="translate(31.133 110.704)" fill="#1f46b8"/>
              <path id="Path_9928" data-name="Path 9928" d="M10.723.585S4.184-2.482,0,5.432c0,0,6.04,2.556,11.3-3.57Z" transform="translate(23.04 103.625)" fill="#1f46b8"/>
              <path id="Path_9929" data-name="Path 9929" d="M10.627.684S3.932-2.58,0,5.154c0,0,6.974,2.4,11.179-3.247Z" transform="translate(19.029 95.864)" fill="#1f46b8"/>
              <path id="Path_9930" data-name="Path 9930" d="M11.588,2.716S5.143-3.441,0,2.785c0,0,6.584,5.066,11.884,1.3Z" transform="translate(15.699 87.168)" fill="#1f46b8"/>
              <path id="Path_9931" data-name="Path 9931" d="M11.586,2.714S5.1-3.581,0,3C0,3,7.278,8.17,11.817,4.035Z" transform="translate(13.544 78.569)" fill="#1f46b8"/>
              <path id="Path_9932" data-name="Path 9932" d="M10.875,6.361S5.88-1.5,0,.255c0,0,5.182,8.325,10.819,7.953Z" transform="translate(13.043 67.249)" fill="#1f46b8"/>
              <path id="Path_9933" data-name="Path 9933" d="M9.792,8.385S4.755-1.519,0,.2c0,0,3.627,7.61,9.921,9.848Z" transform="translate(12.653 57.981)" fill="#1f46b8"/>
              <path id="Path_9934" data-name="Path 9934" d="M10.021,6.923S4.846-.871,0,.081c0,0,4.228,7.9,10.521,9.1Z" transform="translate(12.078 50.091)" fill="#1f46b8"/>
              <path id="Path_9935" data-name="Path 9935" d="M7.27,8.822S3.261.077,0,0C0,0,1.926,8.686,7,10.292Z" transform="translate(14.435 40.243)" fill="#1f46b8"/>
              <path id="Path_9936" data-name="Path 9936" d="M7.805,8.875S3.349.018,0,0C0,0,2.281,7.573,7.657,9.654Z" transform="translate(13.104 32.462)" fill="#1f46b8"/>
              <path id="Path_9937" data-name="Path 9937" d="M6.094,8.16S2.76.83,0,0C0,0,1.667,8.932,5.728,10.1Z" transform="translate(14.145 23.819)" fill="#1f46b8"/>
              <path id="Path_9938" data-name="Path 9938" d="M7.45,11.35,0,0S1.909,11.2,8.538,13.512Z" transform="translate(10.662 13.201)" fill="#1f46b8"/>
              <path id="Path_9939" data-name="Path 9939" d="M8.973,6.943S.313.965,0,0C0,0,4.417,8.372,12.582,9.85Z" transform="translate(4.025 5.292)" fill="#1f46b8"/>
              <path id="Path_9940" data-name="Path 9940" d="M12.48,9.548S2.538-.01,0,0A16.232,16.232,0,0,1,12.719,9.039Z" transform="translate(0 0)" fill="#1f46b8"/>
              <path id="Path_9941" data-name="Path 9941" d="M8.032,24.635l-.363.046C5.8,10.057,3.078,1.415,0,.346L.12,0C3.382,1.133,6.119,9.652,8.032,24.635Z" transform="translate(12.11 8.762)" fill="#3f3d56"/>
              <path id="Path_9942" data-name="Path 9942" d="M3.205,36.051l-.547.046c-.115-1.366-.2-2.763-.263-4.155C1.873,19.838,1.064,8.725,0,.392L.317,0c1.066,8.348,2.1,19.8,2.626,31.919C3,33.3,3.091,34.693,3.205,36.051Z" transform="translate(19.684 32.312)" fill="#3f3d56"/>
              <path id="Path_9943" data-name="Path 9943" d="M42.535,67.254c-.1-.042-9.729-4.343-19.728-14.605A79.369,79.369,0,0,1,8.385,32.219C3.763,22.807.946,11.237,0,0L.57.268C2.693,25.491,14.177,42.736,23.308,52.115c9.9,10.17,19.426,14.428,19.521,14.469Z" transform="translate(22.257 67.318)" fill="#3f3d56"/>
            </g>
            <g id="Group_2809" data-name="Group 2809" transform="translate(42.212 56.562)">
              <path id="Path_9944" data-name="Path 9944" d="M998.163,508.14a28.272,28.272,0,0,1,5.156,29.409c-6.685,17.569,11.456,46.786,11.456,46.786s-.2-.028-.566-.091a34.472,34.472,0,0,1-22.878-52.765C996.372,523.8,1000.5,514.785,998.163,508.14Z" transform="translate(-977.074 -508.14)" fill="#1f46b8"/>
              <path id="Path_9945" data-name="Path 9945" d="M998.163,508.84a28.272,28.272,0,0,1,5.156,29.409c-6.685,17.569,11.456,46.783,11.456,46.783s-.2-.028-.566-.091a34.472,34.472,0,0,1-22.878-52.765C996.372,524.5,1000.5,515.485,998.163,508.84Z" transform="translate(-977.074 -508.642)" opacity="0.1"/>
              <path id="Path_9946" data-name="Path 9946" d="M988.43,508.14s6.684,14.512,0,26.353-1.132,45.068,16.615,49.842" transform="translate(-967.34 -508.14)" fill="none" stroke="#3f3d56" stroke-linecap="round" stroke-miterlimit="10" stroke-width="0.7"/>
              <path id="Path_9947" data-name="Path 9947" d="M975,676.986s13.51-2.151,14.742,9.956,25.988,13.785,25.988,13.785l-.464.308c-20.433,13.414-39.968,8.544-37.022-9.268C979.33,685.147,979.24,678.5,975,676.986Z" transform="translate(-975 -629.096)" fill="#1f46b8"/>
              <path id="Path_9948" data-name="Path 9948" d="M975.04,677.36s10.488,2.3,9.622,11.838,15.565,20.968,31.1,11.906" transform="translate(-975.04 -629.471)" fill="none" stroke="#3f3d56" stroke-linecap="round" stroke-miterlimit="10" stroke-width="0.7"/>
              <g id="Group_2807" data-name="Group 2807" transform="translate(44.447 46.341)">
                <path id="Path_9949" data-name="Path 9949" d="M608.457,704.232c-2.253,8.328-9.969,13.485-9.969,13.485s-4.064-8.344-1.811-16.672,9.969-13.485,9.969-13.485S610.71,695.9,608.457,704.232Z" transform="translate(-595.997 -687.56)" fill="#3f3d56"/>
                <path id="Path_9950" data-name="Path 9950" d="M579.028,711.522c-6.182,6.018-6.937,15.268-6.937,15.268s9.268-.506,15.449-6.524S594.477,705,594.477,705,585.21,705.5,579.028,711.522Z" transform="translate(-569.878 -696.64)" fill="#1f46b8"/>
              </g>
              <g id="Group_2808" data-name="Group 2808" transform="translate(11.886 61.623)">
                <path id="Path_9951" data-name="Path 9951" d="M929.3,736.338s10.641-2.128,13.479-4.967,15.608-7.8,17.026-4.245,19.153,15.607,7.095,17.736-28.376,2.83-31.922,1.415S929.3,736.338,929.3,736.338Z" transform="translate(-929.297 -725.89)" fill="#a8a8a8"/>
                <path id="Path_9952" data-name="Path 9952" d="M966.9,769.813c-12.062,2.128-28.377,2.83-31.923,1.415-2.7-1.081-4.579-6.271-5.32-8.688l-.354.074s2.128,8.513,5.674,9.93,19.864.71,31.923-1.415c3.481-.614,4.477-2.057,4.1-3.883C970.709,768.438,969.495,769.355,966.9,769.813Z" transform="translate(-929.303 -752.168)" opacity="0.2"/>
              </g>
            </g>
          </g>
          <g id="Group_2814" data-name="Group 2814" transform="translate(347.468 290.688)">
            <g id="Group_2811" data-name="Group 2811" transform="translate(0.687)">
              <path id="Path_9953" data-name="Path 9953" d="M311.809,583.848s7.243-24.588-1.359-42.691a38.831,38.831,0,0,1-3.141-24.368,65.32,65.32,0,0,1,3.45-11.45" transform="translate(-293.775 -488.332)" fill="none" stroke="#3f3d56" stroke-linecap="round" stroke-miterlimit="10" stroke-width="1"/>
              <path id="Path_9954" data-name="Path 9954" d="M300.905,452.994c0,3.015,5.458,11.744,5.458,11.744s5.458-8.74,5.458-11.744a5.458,5.458,0,1,0-10.913,0Z" transform="translate(-289.275 -447.41)" fill="#1f46b8"/>
              <path id="Path_9955" data-name="Path 9955" d="M332.4,502.739c1.638,2.531,10.968,6.9,10.968,6.9s-.17-10.3-1.809-12.833a5.458,5.458,0,1,0-9.16,5.931Z" transform="translate(-329.791 -480.462)" fill="#1f46b8"/>
              <path id="Path_9956" data-name="Path 9956" d="M326.365,595.6c2.692,1.356,12.95.42,12.95.42s-5.346-8.808-8.038-10.164a5.457,5.457,0,1,0-4.915,9.745Z" transform="translate(-323.36 -544.797)" fill="#1f46b8"/>
              <path id="Path_9957" data-name="Path 9957" d="M308.873,670.06c2.422,1.791,12.695,2.6,12.695,2.6s-3.781-9.583-6.2-11.377a5.458,5.458,0,0,0-6.491,8.776Z" transform="translate(-300.71 -597.737)" fill="#1f46b8"/>
              <path id="Path_9958" data-name="Path 9958" d="M299.342,526.443c-2.161,2.1-12.234,4.275-12.234,4.275s2.466-10,4.627-12.1a5.458,5.458,0,0,1,7.6,7.827Z" transform="translate(-274.304 -496.682)" fill="#1f46b8"/>
              <path id="Path_9959" data-name="Path 9959" d="M276.141,610.042c-2.692,1.356-12.95.42-12.95.42s5.346-8.808,8.038-10.164a5.458,5.458,0,0,1,4.912,9.744Z" transform="translate(-245.401 -555.041)" fill="#1f46b8"/>
              <path id="Path_9960" data-name="Path 9960" d="M270.669,697.206c-2.422,1.791-12.695,2.6-12.695,2.6s3.781-9.583,6.2-11.382a5.458,5.458,0,1,1,6.491,8.776Z" transform="translate(-237.73 -616.909)" fill="#1f46b8"/>
              <path id="Path_9961" data-name="Path 9961" d="M300.905,452.994c0,3.015,5.458,11.744,5.458,11.744s5.458-8.74,5.458-11.744a5.458,5.458,0,1,0-10.913,0Z" transform="translate(-289.275 -447.41)" opacity="0.25"/>
              <path id="Path_9962" data-name="Path 9962" d="M332.4,502.739c1.638,2.531,10.968,6.9,10.968,6.9s-.17-10.3-1.809-12.833a5.458,5.458,0,1,0-9.16,5.931Z" transform="translate(-329.791 -480.462)" opacity="0.25"/>
              <path id="Path_9963" data-name="Path 9963" d="M326.365,595.6c2.692,1.356,12.95.42,12.95.42s-5.346-8.808-8.038-10.164a5.457,5.457,0,1,0-4.915,9.745Z" transform="translate(-323.36 -544.797)" opacity="0.25"/>
              <path id="Path_9964" data-name="Path 9964" d="M308.873,670.06c2.422,1.791,12.695,2.6,12.695,2.6s-3.781-9.583-6.2-11.377a5.458,5.458,0,0,0-6.491,8.776Z" transform="translate(-300.71 -597.737)" opacity="0.25"/>
              <path id="Path_9965" data-name="Path 9965" d="M299.342,526.443c-2.161,2.1-12.234,4.275-12.234,4.275s2.466-10,4.627-12.1a5.458,5.458,0,0,1,7.6,7.827Z" transform="translate(-274.304 -496.682)" opacity="0.25"/>
              <path id="Path_9966" data-name="Path 9966" d="M276.141,610.042c-2.692,1.356-12.95.42-12.95.42s5.346-8.808,8.038-10.164a5.458,5.458,0,0,1,4.912,9.744Z" transform="translate(-245.401 -555.041)" opacity="0.25"/>
              <path id="Path_9967" data-name="Path 9967" d="M270.669,697.206c-2.422,1.791-12.695,2.6-12.695,2.6s3.781-9.583,6.2-11.382a5.458,5.458,0,1,1,6.491,8.776Z" transform="translate(-237.73 -616.909)" opacity="0.25"/>
            </g>
            <g id="Group_2812" data-name="Group 2812" transform="translate(0 76.407)">
              <path id="Path_9968" data-name="Path 9968" d="M596.362,696.517c1.21,4.474,5.356,7.245,5.356,7.245s2.183-4.483.973-8.957-5.356-7.245-5.356-7.245S595.152,692.043,596.362,696.517Z" transform="translate(-589.84 -687.56)" fill="#3f3d56"/>
              <path id="Path_9969" data-name="Path 9969" d="M580.391,708.5c3.321,3.233,3.727,8.2,3.727,8.2s-4.979-.272-8.3-3.5-3.727-8.2-3.727-8.2S577.07,705.27,580.391,708.5Z" transform="translate(-572.091 -700.508)" fill="#1f46b8"/>
            </g>
            <g id="Group_2813" data-name="Group 2813" transform="translate(7.321 85.936)">
              <path id="Path_9970" data-name="Path 9970" d="M953.221,731.873s-6.093-1.219-7.719-2.844-8.938-4.468-9.75-2.431-10.968,8.938-4.063,10.156,16.25,1.621,18.281.81S953.221,731.873,953.221,731.873Z" transform="translate(-929.297 -725.89)" fill="#a8a8a8"/>
              <path id="Path_9971" data-name="Path 9971" d="M931.7,766.705c6.907,1.219,16.25,1.621,18.281.81,1.548-.619,2.622-3.591,3.047-4.975l.2.042s-1.219,4.875-3.249,5.687-11.375.407-18.281-.81c-1.993-.352-2.564-1.178-2.348-2.223C929.517,765.917,930.213,766.442,931.7,766.705Z" transform="translate(-929.305 -756.6)" opacity="0.2"/>
            </g>
          </g>
          <g id="Group_2823" data-name="Group 2823" transform="translate(0 0)">
            <g id="Group_2816" data-name="Group 2816" transform="translate(218 26)" opacity="0.3">
              <rect id="Rectangle_2221" data-name="Rectangle 2221" width="138" height="179" rx="10" transform="translate(0 0)" fill="#fff"/>
              <g id="Group_2815" data-name="Group 2815" transform="translate(37 127)">
                <rect id="Rectangle_2222" data-name="Rectangle 2222" width="57" height="19" rx="5" transform="translate(0 0)" fill="#3f67db"/>
                <text id="Subscribe" transform="translate(11 9)" fill="#fff" font-size="4" font-family="Poppins-Medium, Poppins" font-weight="500"><tspan x="0" y="0">SUBSCRIBE</tspan></text>
              </g>
              <rect id="Rectangle_2223" data-name="Rectangle 2223" width="61" height="4" rx="2" transform="translate(19 71)" fill="#3f67db"/>
              <rect id="Rectangle_2224" data-name="Rectangle 2224" width="61" height="4" rx="2" transform="translate(19 98)" fill="#3f67db"/>
              <rect id="Rectangle_2225" data-name="Rectangle 2225" width="35" height="6" rx="3" transform="translate(19 84)" fill="#3f67db"/>
              <rect id="Rectangle_2226" data-name="Rectangle 2226" width="18" height="4" rx="2" transform="translate(101 71)" fill="#3f67db"/>
              <rect id="Rectangle_2227" data-name="Rectangle 2227" width="18" height="4" rx="2" transform="translate(101 98)" fill="#3f67db"/>
            </g>
            <g id="Group_2818" data-name="Group 2818" transform="translate(0 26)" opacity="0.3">
              <rect id="Rectangle_2228" data-name="Rectangle 2228" width="137" height="179" rx="10" transform="translate(0 0)" fill="#fff"/>
              <g id="Group_2817" data-name="Group 2817" transform="translate(37 127)">
                <rect id="Rectangle_2229" data-name="Rectangle 2229" width="59" height="19" rx="5" transform="translate(0 0)" fill="#3f67db"/>
                <text id="Subscribe-2" data-name="Subscribe" transform="translate(12 12)" fill="#fff" font-size="7" font-family="Poppins-Medium, Poppins" font-weight="500"><tspan x="0" y="0">SUBSCRIBE</tspan></text>
              </g>
              <rect id="Rectangle_2230" data-name="Rectangle 2230" width="59" height="4" rx="2" transform="translate(21 71)" fill="#3f67db"/>
              <rect id="Rectangle_2231" data-name="Rectangle 2231" width="59" height="4" rx="2" transform="translate(21 98)" fill="#3f67db"/>
              <rect id="Rectangle_2232" data-name="Rectangle 2232" width="33" height="4" rx="2" transform="translate(21 84)" fill="#3f67db"/>
              <rect id="Rectangle_2233" data-name="Rectangle 2233" width="18" height="4" rx="2" transform="translate(100 71)" fill="#3f67db"/>
              <rect id="Rectangle_2234" data-name="Rectangle 2234" width="18" height="4" rx="2" transform="translate(100 98)" fill="#3f67db"/>
              <path id="Path_9972" data-name="Path 9972" d="M16.979-5.759H12.724a7.041,7.041,0,0,1,1.461,3.474h3.624L16.979.487H14.238a6.243,6.243,0,0,1-2.542,4.7A10.486,10.486,0,0,1,5.529,6.768L14.419,16.8v.211H10.326L.769,6.189.751,4h4.49A6.575,6.575,0,0,0,8.9,3.04,4.1,4.1,0,0,0,10.686.487H.246l.829-2.772H10.65q-.866-3.334-5.3-3.474H.282L1.13-8.531H17.809Z" transform="translate(19.75 36.882)" fill="#3f67db"/>
            </g>
            <g id="Group_2820" data-name="Group 2820" transform="translate(100)">
              <rect id="Rectangle_2235" data-name="Rectangle 2235" width="162" height="233" rx="15" transform="translate(0)" fill="#b2c2f0"/>
              <g id="Group_2819" data-name="Group 2819" transform="translate(46 167)">
                <rect id="Rectangle_2236" data-name="Rectangle 2236" width="71" height="23" rx="5" transform="translate(0 0)" fill="#3f67db"/>
                <text id="Subscribe-3" data-name="Subscribe" transform="translate(11 14)" fill="#fff" font-size="9" font-family="Poppins-Medium, Poppins" font-weight="500"><tspan x="0" y="0">SUBSCRIBE</tspan></text>
              </g>
              <rect id="Rectangle_2237" data-name="Rectangle 2237" width="71" height="7" rx="3.5" transform="translate(24 97)" fill="#3f67db"/>
              <rect id="Rectangle_2238" data-name="Rectangle 2238" width="71" height="7" rx="3.5" transform="translate(24 128)" fill="#3f67db"/>
              <rect id="Rectangle_2239" data-name="Rectangle 2239" width="27" height="7" rx="3.5" transform="translate(24 112)" fill="#3f67db"/>
              <rect id="Rectangle_2240" data-name="Rectangle 2240" width="22" height="7" rx="3.5" transform="translate(118 97)" fill="#3f67db"/>
              <rect id="Rectangle_2241" data-name="Rectangle 2241" width="22" height="7" rx="3.5" transform="translate(118 128)" fill="#3f67db"/>
              <path id="Path_9973" data-name="Path 9973" d="M27.019-4.1H20.21a11.266,11.266,0,0,1,2.337,5.558h5.8L27.019,5.9H22.634a9.989,9.989,0,0,1-4.068,7.523Q15.017,15.947,8.7,15.947L22.922,32v.337H16.373L1.083,15.021l-.029-3.509H8.238a10.52,10.52,0,0,0,5.857-1.53A6.56,6.56,0,0,0,16.95,5.9H.246L1.573,1.462H16.893Q15.508-3.871,8.411-4.1H.3L1.66-8.531H28.346Z" transform="translate(23.369 42.286)" fill="#3f67db"/>
            </g>
            <g id="Group_2822" data-name="Group 2822" transform="translate(174.705 52.665)">
              <ellipse id="Ellipse_340" data-name="Ellipse 340" cx="46.467" cy="13.614" rx="46.467" ry="13.614" transform="translate(59.292 315.181)" fill="#3f3d56" opacity="0.1"/>
              <ellipse id="Ellipse_341" data-name="Ellipse 341" cx="5.636" cy="5.636" rx="5.636" ry="5.636" transform="translate(174.665 97.905)" fill="#e6e8ec"/>
              <path id="Path_9974" data-name="Path 9974" d="M417.881,415h32.145a3.7,3.7,0,0,1,3.705,3.711v22.265a3.711,3.711,0,0,1-3.705,3.711H417.881a3.717,3.717,0,0,1-3.711-3.711V418.717A3.711,3.711,0,0,1,417.881,415Zm0,3.711v3.154c1.74,1.409,4.5,3.606,10.4,8.228,1.3,1.026,3.879,3.479,5.676,3.479s4.372-2.429,5.671-3.479c5.908-4.639,8.7-6.819,10.408-8.228v-3.154Zm32.145,22.265V426.631c-1.774,1.409-4.285,3.386-8.117,6.378-1.693,1.334-4.638,4.268-7.967,4.25s-6.221-2.9-7.967-4.244c-3.827-3-6.337-4.981-8.117-6.378v14.339Z" transform="translate(-335.442 -321.009)" fill="#6c63ff" opacity="0.1"/>
              <path id="Path_9975" data-name="Path 9975" d="M297.158,338.526l.539-.22a13.6,13.6,0,0,1,1.676-1.971s14.768-4.952,17.771-6.778a12.1,12.1,0,0,1,6.146-1.693l5.358-.91s3.009-.649,4.447-1.16,4.059-1.56,4.059-1.56,3.137-1.3,3.664-2.087,3.137-1.432,3.137-1.432l5.358-4.059s4.314-2.609,4.969-5.085,3.137-9.381,11.5-4.952c0,0,4.186-1.16,5.218-2.476s10.843.128,10.843.128l3.056-5.218a44.775,44.775,0,0,0,.244-8.808,7.8,7.8,0,0,0-.075-.841,15.539,15.539,0,0,1-4.737-18.653c.087-.2.185-.394.278-.58a5.22,5.22,0,0,1-.5-1.444,2.9,2.9,0,0,0-.058-.383,7.889,7.889,0,0,1,.191-2.563l.122-.406a6.761,6.761,0,0,1,2.122-3.114c.968-.789,2.186-1.328,2.9-2.319,1.049-1.5.777-3.612,1.739-5.149a4.285,4.285,0,0,1,.313-.412l.087-.093c.1-.1.2-.2.307-.29l.064-.052a6.426,6.426,0,0,1,5.485-.789c2.232.58,4.3,1.739,6.587,2.076a27.952,27.952,0,0,0,5.473-.214,8.139,8.139,0,0,1,5.282,1.067c1.85,1.293,2.6,3.676,4.221,5.253s4.2,2.319,5.613,4.18a5.12,5.12,0,0,1,.69,4.841c-.58,1.49-1.85,2.69-2.14,4.262-.325,1.739.58,3.664-.029,5.247h0a2.916,2.916,0,0,1-.162.331h0a1.573,1.573,0,0,0-.232,0h-.226l-.22.041h0a1.476,1.476,0,0,0-.215.058,3.189,3.189,0,0,0-1.937,2.1,9.164,9.164,0,0,0,0,3.85,7.919,7.919,0,0,1-.1,3.833,1.19,1.19,0,0,1-.075.174h0a1.371,1.371,0,0,1-.145.255l-.035.046a1.127,1.127,0,0,1-.2.209h0a2.348,2.348,0,0,1-1.119.319h0a1.816,1.816,0,0,0-.394.075c-.128.029-.174.046-.255.07l-.122.035c-.11.035-.215.07-.325.116h-.029c-.116.052-.232.1-.342.157h0a4.982,4.982,0,0,0-1.577,1.16c-.18.2-.348.412-.522.615h0l-.249.261a2.743,2.743,0,0,1-.284.232,2.407,2.407,0,0,1-1.438.377,7.535,7.535,0,0,1-1.913-.371l-.052.487c-.1.928-.2,1.844-.273,2.737a1.581,1.581,0,0,1-.029.371,18.831,18.831,0,0,1,4.639,5.8l-.174.58a1.858,1.858,0,0,1,.174.226v2.6s13.858,2.476,15.429,3.653a9.6,9.6,0,0,0,4.441,1.3s7.845-.389,7.845,6.906c0,0,.261,3.386,1.826,3.52s2.354,2.215,2.354,2.215l7.973,8.6,11.637,9.381s5.166,4.859,6.488,6.877a1.535,1.535,0,0,1,.307.684s14.1,15.7-1.334,22.283l-.481.2-13.492,10.106-16.815,9.509-.5-.713-.267.18-2.024,1.334-2.586-4.169-.342.075a3.865,3.865,0,0,0-2.609,1.647c-.771,1.426-5.427,4.447-8.262,4.743l.1.313,1.589,5.062s3.137,3.647,2.482,4.952,1.16,10.947,1.16,10.947-2.9,1.16-4.314,1.954a4.243,4.243,0,0,1-.846.232,6.7,6.7,0,0,0,.081.765,4.638,4.638,0,0,0,.9,2.522c1.571,1.56,1.438,4.691,1.438,4.691s.789,4.557,0,5.079.354,1.693.354,1.693-1.218,3.908,0,5.474,3.728,22.671-.922,32.963c0,0-4.146,8.86-1.919,11.991s5.05,13.162,4.639,14.983.609,6.256.609,6.256-1.7,9.277-.522,11.2,4.314,31.664.522,38.848c0,0,3.792,4.824,5.752,4.824s-1.7,7.538-3.264,8.993-2.273,8.465-2.273,8.465l-.226.1c-.064.278-.139.58-.215.875-.829,3.23-2.25,7.665-3.827,7.752-2.482.128-12.025-.522-12.414-2.87s.133-6.256-1.826-7.428-8.761-4.557-4.581-12.634a9.5,9.5,0,0,1,1.536-.046h.035l-.783-17.395L400.952,520.1s-2.748-8.732-3.143-9.9.655-3.125.655-3.125l-.736-7.039s.475-7.816-1.09-8.86-.655-4.946-.655-4.946a43.468,43.468,0,0,1-1.438-7.039,30.3,30.3,0,0,0-.916-5.346s-.522-2.319-1.438-5.468a38.851,38.851,0,0,1-1.16-7.039s-3.525-4.43-3.137-7.949-.261-9.121-1.566-7.949-2.093,5.218-2.093,5.218l-1.96,10.947s-3.4,10.814-3,12.379-1.049,7.294-1.049,7.294.261,6.645-.522,8.21,0,4.691,0,4.691-2.615,6.645-2.221,7.949-.041,8.987-.041,8.987l-.748,5.734s-.783,4.563,0,7.039-3.421,34.789-4.586,37.4.667,7.944.667,7.944,1.438,4.3-4.7,7.538l-1.832,7.428-.133.041a5.414,5.414,0,0,1-.081.8c-.516,3.432-3.119,6.958-12.727,3.983,0,0-2.9-1.009-3.659-3.108s-6.8-4.32-6.8-4.32-5.288-6.036-.655-10.292a4.3,4.3,0,0,1,4.865-.951,9.2,9.2,0,0,0-.812-4.917c-1.438-2.992,1.438-9.382,2.348-10.437s-1.16-5.862-1.16-5.862a31.85,31.85,0,0,1,1.438-3.908c.522-.916,1.044-24.631,1.044-24.631s1.044-13.028,3.792-18.5c0,0-.655-3.908-.916-5.6s.261-29.838.261-29.838-5.618-9.277-1.7-23.065a38.785,38.785,0,0,0-.522-6c-.522-2.864.783-7.949.783-7.949s-1.438-7.167,1.3-9.277c1.16-.858,1.647-2.824,1.855-4.841,0-.255.041-.51.058-.76-3.664-.968-6.343-2.041-6.616-3.125-.916-3.647,5.1-20.874,5.1-20.874l7.254-21.071s-2.748-9.642-1.571-12.64-2.615-10.558-2.615-10.558,1.7-4.946.528-6.25a1.38,1.38,0,0,1-.209-.365l-2.8,2.058s-4.708,1.3-5.845,2.6-6.181.916-6.181.916a45.689,45.689,0,0,0-8.117.487,4.639,4.639,0,0,0-2.319.945c-1.571,1.7-6.8,2.319-7.845,1.566a3.023,3.023,0,0,0-2.024-.18,17.906,17.906,0,0,0-2.812.7l-17.395,2.215a14.167,14.167,0,0,1-1.125-1.038l-.226.174c-14.072,10.245-14.6.214-14.6.214s-4.963,1.3-4.963-1.739C278.459,346.383,291.5,340.822,297.158,338.526Zm129.3,41.6.371-.029-.249-.4,1.386-.649.3-.139-.522-.748,13.736-8.216a5.049,5.049,0,0,0,2.093-2.319c.783-1.693,4.181-2.081,4.181-2.081l3.856-3.392s-4.511-5.473-5.8-5.473-3.531-1.618-3.531-1.618l-5.514-3.723-.1.133s-4.836,5.989-5.218,7.033-4.7,5.6-4.7,5.6a44.832,44.832,0,0,0-6.668,12.118,17.031,17.031,0,0,1-2.632,2.87c3.583.394,7.862,1.16,7.862,1.16Z" transform="translate(-278.442 -252.896)" fill="url(#linear-gradient)"/>
              <path id="Path_9976" data-name="Path 9976" d="M398.721,311.089a53.756,53.756,0,0,1-1.71,16.542s25.106,1.554,23.3-1.809a4.876,4.876,0,0,1-.412-1.739,36.857,36.857,0,0,1,.128-6.222c.075-.887.168-1.8.267-2.725.336-3.032.783-6.152,1.16-8.6.064-.377.122-.742.174-1.084.354-2.163.615-3.589.615-3.589s-19.3-5.676-25.141-3.74c-1.647.545-2.226,1.687-1,3.74a20.563,20.563,0,0,1,2.534,8.373A4.081,4.081,0,0,1,398.721,311.089Z" transform="translate(-293.09 -271.728)" fill="#ffb9b9"/>
              <path id="Path_9977" data-name="Path 9977" d="M581.85,412.958c0,3.038,4.917,1.74,4.917,1.74s.522,9.967,14.455-.214c.354-.261.719-.534,1.1-.823l.58-11.26v-.649s-.986.388-2.534,1.015C594.763,405.055,581.85,410.592,581.85,412.958Z" transform="translate(-581.833 -315.441)" fill="#ffb9b9"/>
              <path id="Path_9978" data-name="Path 9978" d="M370.883,800.424c1.942,1.16,1.421,5.051,1.809,7.375s9.857,2.98,12.3,2.853c1.56-.087,2.969-4.494,3.786-7.7.47-1.844.748-3.293.748-3.293s-15.655-6.221-16.96-9.329c-.823-1.983-3.137-2.435-4.691-2.5a9.758,9.758,0,0,0-1.519.041C362.208,795.9,368.946,799.259,370.883,800.424Z" transform="translate(-242.743 -477.659)" fill="#464a5f"/>
              <path id="Path_9979" data-name="Path 9979" d="M474.464,811.465s5.949,2.2,6.726,4.291,3.624,3.091,3.624,3.091c9.515,2.963,12.089-.551,12.6-3.96a12.63,12.63,0,0,0-.3-4.714l-13.979-5.844a11.949,11.949,0,0,0-4.453-4.012,4.25,4.25,0,0,0-4.865.928C469.228,805.469,474.464,811.465,474.464,811.465Z" transform="translate(-412.713 -482.745)" fill="#464a5f"/>
              <path id="Path_9980" data-name="Path 9980" d="M365.06,787.84l.3,6.517c4.134,2.841,4.639,8.408,4.639,8.408a20.439,20.439,0,0,0,15.951.2c.47-1.844.748-3.293.748-3.293s-15.655-6.221-16.96-9.329C368.927,788.356,366.614,787.933,365.06,787.84Z" transform="translate(-239.929 -477.669)" opacity="0.1"/>
              <path id="Path_9981" data-name="Path 9981" d="M471.932,802.3c4.917,15.713,17.168,13.3,18.937,12.866a12.629,12.629,0,0,0-.3-4.714l-13.98-5.845a11.952,11.952,0,0,0-4.453-4.012,7.951,7.951,0,0,1-.2,1.7Z" transform="translate(-406.169 -483.03)" opacity="0.1"/>
              <path id="Path_9982" data-name="Path 9982" d="M355.569,673.9a9.138,9.138,0,0,1,.649,5.827c5.305,16.954,19.134,12.808,19.134,12.808l1.815-7.375c6.082-3.235,4.639-7.5,4.639-7.5s-1.815-5.311-.661-7.9,5.323-34.685,4.546-37.143,0-6.987,0-6.987l.736-5.7s.429-7.63.041-8.929,2.2-7.891,2.2-7.891-.777-3.108,0-4.639.516-8.152.516-8.152,1.426-5.694,1.038-7.248,2.974-12.292,2.974-12.292l1.942-10.872s.777-4.012,2.076-5.178,1.937,4.4,1.548,7.9,3.125,7.868,3.125,7.868a38.366,38.366,0,0,0,1.16,6.993c.9,3.1,1.421,5.433,1.421,5.433a30.091,30.091,0,0,1,.91,5.306,43.6,43.6,0,0,0,1.421,6.993s-.9,3.879.649,4.911,1.078,8.8,1.078,8.8l.731,6.993s-1.032,1.942-.644,3.1,3.1,9.857,3.1,9.857l3.131,25.216,1.038,23.042c4.134,2.841,4.639,8.407,4.639,8.407a20.294,20.294,0,0,0,16.391,0s.7-6.958,2.244-8.407,5.178-8.929,3.235-8.929-5.694-4.8-5.694-4.8c3.751-7.114.649-36.621-.516-38.564s.516-11.132.516-11.132-1.032-4.4-.609-6.21-2.366-11.776-4.569-14.884,1.9-11.909,1.9-11.909c4.61-10.222,2.116-31.188.91-32.742s0-5.433,0-5.433-1.125-1.16-.342-1.681,0-5.044,0-5.044.133-3.108-1.421-4.639a4.546,4.546,0,0,1-.887-2.5,29.71,29.71,0,0,1,0-5.647l-17.858-10.483-22.387-1.815-27.437,8.541a32.549,32.549,0,0,1,0,5.8c-.2,2-.707,3.954-1.832,4.807-2.719,2.076-1.293,9.19-1.293,9.19s-1.293,5.05-.777,7.9a38.654,38.654,0,0,1,.516,5.955c-3.879,13.719,1.687,22.909,1.687,22.909s-.522,27.953-.261,29.635.9,5.56.9,5.56c-2.719,5.439-3.751,18.381-3.751,18.381s-.516,23.552-1.038,24.463a31.674,31.674,0,0,0-1.421,3.885s2.07,4.784,1.16,5.8S354.149,670.917,355.569,673.9Z" transform="translate(-290.456 -361.233)" fill="#2f2e41"/>
              <path id="Path_9983" data-name="Path 9983" d="M396.045,301.9a20.565,20.565,0,0,1,2.534,8.373c.035.278.058.58.081.835,2.6,1.983,6.6.98,10.129.98,1.241,0,.945-1.826,2.1-2.1,4.157-1,8.413.186,10.506-3.415.064-.377.122-.742.174-1.084.354-2.163.615-3.589.615-3.589s-19.3-5.676-25.141-3.74C395.4,298.7,394.821,299.845,396.045,301.9Z" transform="translate(-293.011 -271.745)" opacity="0.1"/>
              <path id="Path_9984" data-name="Path 9984" d="M393.107,287a15.47,15.47,0,0,0,15.47,15.47,15.882,15.882,0,0,0,3.618-.423A15.475,15.475,0,1,0,393.107,287Z" transform="translate(-293.558 -260.724)" fill="#ffb9b9"/>
              <path id="Path_9985" data-name="Path 9985" d="M399.23,332.7c5.984-1.838,14.211,1.252,19.3,3.688a36.852,36.852,0,0,1,.128-6.222c-3.421-2.858-8.819-4.969-16.357-1.16-.69.354-1.4.754-2.128,1.2Z" transform="translate(-291.708 -284.009)" opacity="0.1"/>
              <path id="Path_9986" data-name="Path 9986" d="M391.45,333.368c8.025-2.47,20.091,3.943,23.193,5.729l.58-1.971.168-.551s-6.593-14.142-20.908-6.9c-.69.354-1.4.754-2.128,1.2Z" transform="translate(-283.928 -284.289)" fill="#534f91"/>
              <path id="Path_9987" data-name="Path 9987" d="M374.6,525.035a165.47,165.47,0,0,0,23.535,3.9c1.16-.128,11.521,2.2,11.521,2.2-.388-1.3,3.1-15.272,3.1-15.272l2.464,16.049s22.462-2.319,27.066-3.282a29.7,29.7,0,0,1,0-5.648L424.43,512.5l-22.387-1.815-27.437,8.541a32.559,32.559,0,0,1-.006,5.8Z" transform="translate(-301.056 -361.216)" opacity="0.1"/>
              <path id="Path_9988" data-name="Path 9988" d="M323.394,445.423c.887,3.612,28.863,7.091,30.023,6.987s11.521,2.2,11.521,2.2c-.389-1.3,3.1-15.273,3.1-15.273l2.464,16.073s26.4-2.719,27.831-3.479S402.608,450,402.608,450s-1.809-9.579-1.16-10.872-2.458-4.923-2.458-4.923l-1.577-5.021-4.76-15.168a7.284,7.284,0,0,0,.8-.528,16.167,16.167,0,0,0,3.079-3.224,43.914,43.914,0,0,1,6.6-12.078s4.267-4.528,4.639-5.566,5.178-6.987,5.178-6.987l14.362-18.508-7.891-8.541s-.777-2.07-2.319-2.2-1.815-3.479-1.815-3.479c0-7.248-7.764-6.859-7.764-6.859a9.517,9.517,0,0,1-4.4-1.293c-1.548-1.165-15.278-3.63-15.278-3.63v-2.2c-11.515-15.272-26.092-5.346-26.092-5.346l-3.032,5.218s-9.7-1.421-10.732-.128-5.178,2.453-5.178,2.453c-8.286-4.4-10.738,2.464-11.388,4.923s-4.923,5.044-4.923,5.044,4.407,22.132,5.572,23.425-.522,6.216-.522,6.216,3.74,7.491,2.58,10.46,1.554,12.559,1.554,12.559l-7.248,20.966S322.489,441.8,323.394,445.423Z" transform="translate(-256.337 -285.466)" fill="#4c4981"/>
              <path id="Path_9989" data-name="Path 9989" d="M391.38,340.106c7.242-11.132,29.124,2.319,29.124,2.319v-2.2c-11.515-15.272-26.092-5.346-26.092-5.346Z" transform="translate(-289.001 -286.012)" opacity="0.1"/>
              <path id="Path_9990" data-name="Path 9990" d="M391.42,334.251c8.025-2.47,20.091,3.943,23.193,5.729l.765.446v-2.2l-.168-.22c-7.178-9.341-15.5-9.01-20.74-7.451-.69.354-1.4.754-2.128,1.2Z" transform="translate(-283.898 -285.173)" opacity="0.1"/>
              <path id="Path_9991" data-name="Path 9991" d="M391.38,338.766c7.242-11.127,29.124,2.319,29.124,2.319v-2.2c-11.515-15.272-26.092-5.346-26.092-5.346Z" transform="translate(-289.001 -285.449)" fill="#444173"/>
              <path id="Path_9992" data-name="Path 9992" d="M425.694,489.26l3.879,16.815-.742,3.044S424.662,491.591,425.694,489.26Z" transform="translate(-317.871 -352.211)" opacity="0.1"/>
              <path id="Path_9993" data-name="Path 9993" d="M455.43,441.05s1.942,15.655,14.629,20.189C470.059,461.239,459.576,451.794,455.43,441.05Z" transform="translate(-375.693 -331.955)" opacity="0.1"/>
              <path id="Path_9994" data-name="Path 9994" d="M405.4,461.869s-15.4-6.6-15.4-3.885S405.4,461.869,405.4,461.869Z" transform="translate(-273.097 -338.794)" opacity="0.1"/>
              <path id="Path_9995" data-name="Path 9995" d="M460.038,437.814s-10.744-7.636-13.069-5.694S460.038,437.814,460.038,437.814Z" transform="translate(-360.628 -328.07)" opacity="0.1"/>
              <path id="Path_9996" data-name="Path 9996" d="M584.642,414.493c.354-.261.719-.533,1.1-.823l.58-11.26v-.649s-.986.389-2.534,1.015C582.009,405.407,580.154,410.017,584.642,414.493Z" transform="translate(-565.253 -315.446)" opacity="0.1"/>
              <path id="Path_9997" data-name="Path 9997" d="M487.936,399.6l17.215-2.2a18.024,18.024,0,0,1,2.783-.7,3.045,3.045,0,0,1,2.006.174c1.032.777,6.21.133,7.764-1.554a4.638,4.638,0,0,1,2.319-.939,45.831,45.831,0,0,1,8.042-.481s4.992.388,6.123-.9,5.8-2.586,5.8-2.586l4.917-3.63-3.1-22.514-4.407,1.032-5.3,4.012s-2.592.649-3.108,1.426-3.624,2.07-3.624,2.07-2.586,1.032-4.012,1.554-4.4,1.16-4.4,1.16l-5.305.91a11.951,11.951,0,0,0-6.088,1.681c-2.969,1.815-17.6,6.732-17.6,6.732S479.494,392.612,487.936,399.6Z" transform="translate(-467.213 -299.693)" fill="#4c4981"/>
              <path id="Path_9998" data-name="Path 9998" d="M528.054,404.4a8.023,8.023,0,0,0,2.319,3.3,3.045,3.045,0,0,1,2.006.174c1.032.777,6.21.133,7.764-1.548a4.587,4.587,0,0,1,2.319-.945c.4-2.9,1.455-14.756-8.541-13.985C522.587,392.264,528.054,404.4,528.054,404.4Z" transform="translate(-489.682 -311.075)" opacity="0.1"/>
              <path id="Path_9999" data-name="Path 9999" d="M528.054,405.069a8.023,8.023,0,0,0,2.319,3.3,3.044,3.044,0,0,1,2.006.174c1.032.777,6.21.133,7.764-1.554a4.639,4.639,0,0,1,2.319-.939c.4-2.87,1.455-14.756-8.541-13.985C522.587,392.934,528.054,405.069,528.054,405.069Z" transform="translate(-489.682 -311.356)" fill="#444173"/>
              <ellipse id="Ellipse_342" data-name="Ellipse 342" cx="0.58" cy="0.968" rx="0.58" ry="0.968" transform="translate(22.816 91.336)" fill="#6c63ff"/>
              <ellipse id="Ellipse_343" data-name="Ellipse 343" cx="0.58" cy="0.968" rx="0.58" ry="0.968" transform="translate(21.65 91.724)" fill="#6c63ff"/>
              <ellipse id="Ellipse_344" data-name="Ellipse 344" cx="0.58" cy="0.968" rx="0.58" ry="0.968" transform="translate(20.485 92.089)" fill="#6c63ff"/>
              <path id="Path_10000" data-name="Path 10000" d="M505.119,375.85s-.968.678.823,2.766S505.119,375.85,505.119,375.85Z" transform="translate(-440.864 -304.559)" opacity="0.1"/>
              <path id="Path_10001" data-name="Path 10001" d="M523.4,384.64s-2.621,9.555-.388,11.208S523.4,384.64,523.4,384.64Z" transform="translate(-468.421 -308.252)" opacity="0.1"/>
              <ellipse id="Ellipse_345" data-name="Ellipse 345" cx="0.968" cy="0.968" rx="0.968" ry="0.968" transform="translate(129.242 169.988)" fill="#444173"/>
              <ellipse id="Ellipse_346" data-name="Ellipse 346" cx="0.968" cy="0.968" rx="0.968" ry="0.968" transform="translate(83.007 168.956)" fill="#444173"/>
              <path id="Path_10002" data-name="Path 10002" d="M405.671,587s-9.857,9.057-22.781,0C382.89,587,397.217,589.9,405.671,587Z" transform="translate(-269.245 -393.28)" opacity="0.1"/>
              <path id="Path_10003" data-name="Path 10003" d="M466.912,588.9s-16.7,1.038-20.839-2.714S466.912,588.9,466.912,588.9Z" transform="translate(-366.852 -392.444)" opacity="0.1"/>
              <path id="Path_10004" data-name="Path 10004" d="M390.359,627.87c-.261.649-5.827,17.087-13.719,17.215Z" transform="translate(-250.309 -410.453)" opacity="0.1"/>
              <path id="Path_10005" data-name="Path 10005" d="M466.37,599.08s7.12,30.684,15.145,34.685Z" transform="translate(-393.493 -398.356)" opacity="0.1"/>
              <path id="Path_10006" data-name="Path 10006" d="M374.354,786.8s-15.012,3.1-13.2,4.528,10.883,1.032,10.883,1.032Z" transform="translate(-225.236 -477.232)" opacity="0.1"/>
              <path id="Path_10007" data-name="Path 10007" d="M492.256,775.824s-5.305,6.082-7.114,2.719S492.256,775.824,492.256,775.824Z" transform="translate(-414.978 -472.599)" opacity="0.1"/>
              <path id="Path_10008" data-name="Path 10008" d="M476.6,797.438c-1.16-.128-5.827.649-9.578,0s8.7-2.064,10.228.261S476.6,797.438,476.6,797.438Z" transform="translate(-389.743 -481.272)" opacity="0.1"/>
              <path id="Path_10009" data-name="Path 10009" d="M393.084,280.693a3.711,3.711,0,0,0,.58.742c.516.51,1.16.864,1.647,1.415.986,1.131.9,2.7.939,4.262a8.976,8.976,0,0,0,.191,1.867,5.219,5.219,0,0,0,3.711,3.786,7.59,7.59,0,0,1,3.183-3.253,1.339,1.339,0,0,1,.8-.22,1.386,1.386,0,0,1,.8.58,10.147,10.147,0,0,1,2.221,5.3,10.374,10.374,0,0,1-.07,2.841c-.116.649-.87,2.058-.58,2.661.452.9,2.708,1.16,4.337,1.357.58.064,1.049.122,1.357.191q3.438.765,6.807,1.8l.417.116c.383-3.479.928-7.114,1.345-9.689A15.47,15.47,0,1,0,393.09,280.7Z" transform="translate(-292.202 -260.699)" opacity="0.1"/>
              <path id="Path_10010" data-name="Path 10010" d="M386.307,283.326a1.369,1.369,0,0,0-.8-.58,1.334,1.334,0,0,0-.8.215,7.671,7.671,0,0,0-3.189,3.253,5.218,5.218,0,0,1-3.693-3.786c-.481-2.058.255-4.528-1.131-6.134-.47-.545-1.131-.9-1.647-1.409a4.725,4.725,0,0,1-1.241-2.748,6.749,6.749,0,0,1,2.389-5.99,15.156,15.156,0,0,0,2.9-2.319c1.044-1.484.765-3.589,1.739-5.114,1.235-1.919,3.983-2.192,6.2-1.624s4.256,1.74,6.517,2.058a27.412,27.412,0,0,0,5.421-.209,8.005,8.005,0,0,1,5.218,1.055c1.832,1.287,2.574,3.653,4.175,5.218s4.163,2.319,5.566,4.151a5.108,5.108,0,0,1,.678,4.813c-.58,1.479-1.832,2.673-2.116,4.233-.348,1.85.748,3.937-.2,5.566a2.86,2.86,0,0,0-2.8,2.18,9.126,9.126,0,0,0,0,3.821,7.9,7.9,0,0,1-.1,3.809,1.547,1.547,0,0,1-.446.678,2.254,2.254,0,0,1-1.107.313,5.057,5.057,0,0,0-3.015,1.624,6.276,6.276,0,0,1-1.049,1.113c-.968.661-2.273.325-3.4,0q-3.369-1.026-6.807-1.8c-1.2-.273-5.091-.336-5.7-1.548-.3-.58.452-2.012.58-2.661a10.246,10.246,0,0,0-2.145-8.117Z" transform="translate(-273.207 -254.548)" fill="#464a5f"/>
              <path id="Path_10011" data-name="Path 10011" d="M381.357,488.793a2.353,2.353,0,0,0,2.255.365l-4.76-15.168a7.3,7.3,0,0,0,.8-.528c-2.1-.226-3.949-.325-4.511-.052C373.64,474.141,379.56,486.9,381.357,488.793Z" transform="translate(-242.554 -345.482)" opacity="0.1"/>
              <path id="Path_10012" data-name="Path 10012" d="M360.445,488.115c1.815,1.9,8.981-2.476,9.932-4.285a3.824,3.824,0,0,1,2.58-1.635,7.909,7.909,0,0,1,1.5-.2l-5.05-8.3-1.624.139-1.189.1s-10.872-1.942-12.379-1.212S358.654,486.225,360.445,488.115Z" transform="translate(-221.26 -345.193)" fill="#ffb9b9"/>
              <path id="Path_10013" data-name="Path 10013" d="M353.93,474.669l5.178,8.367a7.91,7.91,0,0,1,1.5-.2l-5.05-8.3Z" transform="translate(-207.387 -346.022)" opacity="0.1"/>
              <path id="Path_10014" data-name="Path 10014" d="M199.72,423.51l7.961,12.86,2-1.328,1.154-.759L203.75,421.62l-2.656,1.241Z" transform="translate(-53.055 -295.292)" fill="#6c63ff"/>
              <path id="Path_10015" data-name="Path 10015" d="M199.72,422.861l8.587,12.182,1.154-.759-7.085-12.663Z" transform="translate(-51.681 -295.292)" opacity="0.1"/>
              <path id="Path_10016" data-name="Path 10016" d="M281.774,437.735l9.579,13.591,16.693-9.445,13.336-10.037.475-.2c15.284-6.529,1.339-22.12,1.339-22.12a1.565,1.565,0,0,0-.3-.678c-1.31-2.006-6.43-6.83-6.43-6.83L304.944,392.7l-4.639-1.421L289.561,410.3l6.6,4.47s2.2,1.612,3.479,1.612,5.763,5.433,5.763,5.433l-3.821,3.369s-3.363.388-4.14,2.064a5.01,5.01,0,0,1-2.076,2.319Z" transform="translate(-133.961 -311.042)" fill="#4c4981"/>
              <path id="Path_10017" data-name="Path 10017" d="M319.731,432.637s-9.967-1.664-10.483-.962S319.731,432.637,319.731,432.637Z" transform="translate(-140.596 -327.943)" opacity="0.1"/>
              <path id="Path_10018" data-name="Path 10018" d="M313.924,442.17a15.571,15.571,0,0,1-4.146.516C307.32,442.686,313.924,442.17,313.924,442.17Z" transform="translate(-134.789 -332.425)" opacity="0.1"/>
              <path id="Path_10019" data-name="Path 10019" d="M289.206,444.316c15.284-6.529,1.339-22.12,1.339-22.12a1.567,1.567,0,0,0-.3-.678c-2.824-.47-7.114.655-7.758,11.533C282.1,439.556,285.257,442.785,289.206,444.316Z" transform="translate(-101.704 -323.711)" opacity="0.1"/>
              <path id="Path_10020" data-name="Path 10020" d="M288.536,444.316c15.284-6.529,1.339-22.12,1.339-22.12a1.566,1.566,0,0,0-.3-.678c-2.824-.47-7.114.655-7.758,11.533C281.433,439.556,284.587,442.785,288.536,444.316Z" transform="translate(-100.645 -323.711)" fill="#444173"/>
              <g id="Group_2821" data-name="Group 2821" transform="translate(100.562 2.78)" opacity="0.1">
                <path id="Path_10021" data-name="Path 10021" d="M378.975,302.46a2.782,2.782,0,0,1-.278.684,2.075,2.075,0,0,0-.887.093A2.829,2.829,0,0,1,378.975,302.46Z" transform="translate(-340.166 -276.501)"/>
                <path id="Path_10022" data-name="Path 10022" d="M386.021,320.9l.313-.04a1.287,1.287,0,0,1-.371.5,2.255,2.255,0,0,1-1.107.313,4.952,4.952,0,0,0-1.455.458,5.073,5.073,0,0,1,2.621-1.235Z" transform="translate(-350.766 -284.233)"/>
                <path id="Path_10023" data-name="Path 10023" d="M432.1,266.521a15.153,15.153,0,0,0,2.9-2.319c1.044-1.484.765-3.589,1.739-5.114a3.775,3.775,0,0,1,1.676-1.4,3.54,3.54,0,0,0-.51.62c-.986,1.525-.707,3.63-1.739,5.114a13.078,13.078,0,0,1-2.9,2.319,6.749,6.749,0,0,0-2.389,5.99,4.726,4.726,0,0,0,1.241,2.748c.516.51,1.16.864,1.647,1.409,1.38,1.606.649,4.059,1.131,6.134a5.218,5.218,0,0,0,3.119,3.6,7.859,7.859,0,0,0-.58.968,5.218,5.218,0,0,1-3.693-3.786c-.481-2.058.255-4.528-1.131-6.135-.47-.545-1.131-.9-1.647-1.409a4.725,4.725,0,0,1-1.241-2.748A6.75,6.75,0,0,1,432.1,266.521Z" transform="translate(-429.67 -257.69)"/>
                <path id="Path_10024" data-name="Path 10024" d="M393.23,300.423a1.334,1.334,0,0,1,.8-.215,1.369,1.369,0,0,1,.8.58,10.246,10.246,0,0,1,2.145,8.117c-.11.655-.864,2.064-.58,2.661.609,1.212,4.5,1.276,5.7,1.548q3.438.765,6.807,1.8a5.271,5.271,0,0,0,2.766.307,2.839,2.839,0,0,1-.533.487c-.968.661-2.273.325-3.4,0q-3.369-1.026-6.807-1.8c-1.2-.273-5.091-.336-5.7-1.548-.3-.58.452-2.012.58-2.661a10.246,10.246,0,0,0-2.145-8.117,1.369,1.369,0,0,0-.8-.58,1.3,1.3,0,0,0-.794.209,7.749,7.749,0,0,1,1.16-.789Z" transform="translate(-381.127 -275.555)"/>
              </g>
            </g>
          </g>
        </g>
      </g>
    </g>
  </g>
</svg>
