<svg xmlns="http://www.w3.org/2000/svg" width="30" height="30" viewBox="0 0 30 30"><defs><style>.a{fill:#c4c4c4;}.b{fill:#fff;}</style></defs><path class="a" d="M15,0A15,15,0,1,1,0,15,15,15,0,0,1,15,0Z"/><path class="b" d="M81.948,85.94h2.809V76.578H81.948Zm10.943-9.686a4.216,4.216,0,0,0-3.448,1.6v-1.3H86.623V85.94h2.819V80.861a2.23,2.23,0,0,1,2.215-2.121c1.232,0,1.536,1.047,1.536,2.094v5.1H96V80.625C96,76.934,94.255,76.254,92.891,76.254Zm-9.551-.611a1.406,1.406,0,1,0-1.406-1.406A1.407,1.407,0,0,0,83.339,75.642Z" transform="translate(-73.496 -65.33)"/></svg>