<svg xmlns="http://www.w3.org/2000/svg" width="25.506" height="24.556" viewBox="0 0 25.506 24.556"><defs><style>.a{opacity:0.8;}.b{fill:none;stroke:#000;stroke-linecap:round;stroke-linejoin:round;stroke-width:1.5px;}</style></defs><g class="a" transform="translate(-0.25 0.806)"><path class="b" d="M8,10.98a2.437,2.437,0,0,1,.709-1.7L15.761,2A2.3,2.3,0,0,1,18.3,1.546a1.611,1.611,0,0,1,.952,2.034l-2.424,6.436h6.776a3.315,3.315,0,0,1,.527.042,2.648,2.648,0,0,1,2.37,3.03l-1.873,9.121a2.87,2.87,0,0,1-2.9,2.14H10.944A2.79,2.79,0,0,1,8,21.743Z" transform="translate(-1.553 -1.349)"/><path class="b" d="M4,20.819V9" transform="translate(-3 0.867)"/></g></svg>