<svg xmlns="http://www.w3.org/2000/svg" width="41" height="41" viewBox="0 0 41 41"><defs><style>.a{fill:#dce5fb;}.b{fill:#90a0dd;}</style></defs><g transform="translate(-49 -367)"><path class="a" d="M20.5,0A20.5,20.5,0,1,1,0,20.5,20.5,20.5,0,0,1,20.5,0Z" transform="translate(49 367)"/><g transform="translate(54.881 377.867)"><path class="b" d="M36.257,56.692l-.233-.1-6.444-2.751a.933.933,0,0,0-1.4.926v2.977c0,2.4,3.721,4.354,8.312,4.354S44.8,60.148,44.8,57.744V54.767a.933.933,0,0,0-1.4-.926l-6.445,2.751-.233.1A.68.68,0,0,1,36.257,56.692Z" transform="translate(-22.105 -42.869)"/><path class="b" d="M25.217,25.466l-12.4,5.295c-.774.33-.774.866,0,1.2l12.4,5.3a4.087,4.087,0,0,0,2.8,0L34.93,34.3l5.492-2.345c.774-.33.774-.866,0-1.2l-12.4-5.295A4.084,4.084,0,0,0,25.217,25.466Z" transform="translate(-12.233 -25.218)"/><rect class="b" width="1.187" height="8.888" transform="translate(27.342 5.821)"/><path class="b" d="M85.05,63c0,.33-.377.6-.841.6h0c-.465,0-.841-.268-.841-.6V61.547c0-.331.376-.6.841-.6h0c.465,0,.841.267.841.6Z" transform="translate(-56.273 -47.339)"/></g></g></svg>