<?xml version="1.0" encoding="utf-8"?>
<!-- Generator: Adobe Illustrator 23.0.3, SVG Export Plug-In . SVG Version: 6.00 Build 0)  -->
<svg version="1.1" id="Layer_1" xmlns="http://www.w3.org/2000/svg" xmlns:xlink="http://www.w3.org/1999/xlink" x="0px" y="0px"
	 viewBox="0 0 315 336.4" style="enable-background:new 0 0 315 336.4;" xml:space="preserve">
<style type="text/css">
	.st0{fill:#1F46B8;}
	.st1{opacity:0.5;fill:url(#SVGID_1_);enable-background:new    ;}
	.st2{opacity:0.5;fill:url(#SVGID_2_);enable-background:new    ;}
	.st3{opacity:0.5;fill:url(#SVGID_3_);enable-background:new    ;}
	.st4{opacity:0.5;fill:url(#SVGID_4_);enable-background:new    ;}
	.st5{fill:#C4D3FF;}
	.st6{opacity:0.2;fill:url(#SVGID_5_);enable-background:new    ;}
	.st7{opacity:0.2;fill:url(#SVGID_6_);enable-background:new    ;}
	.st8{opacity:0.2;fill:url(#SVGID_7_);enable-background:new    ;}
	.st9{opacity:0.2;fill:url(#SVGID_8_);enable-background:new    ;}
</style>
<g>
	<path class="st0" d="M315,307.2V2.8C310.9,58,294.2,109.7,267.8,155C294.2,200.3,310.9,252,315,307.2z"/>
	<path class="st0" d="M83.5,0c77.9,28.8,143,84.1,184.3,155c26.4-45.3,43.1-97,47.2-152.2V0H83.5z"/>
	
		<linearGradient id="SVGID_1_" gradientUnits="userSpaceOnUse" x1="-800.7044" y1="714.1621" x2="-801.4304" y2="714.8031" gradientTransform="matrix(712 0 0 -712 570409 508579)">
		<stop  offset="0" style="stop-color:#2B55CF"/>
		<stop  offset="1" style="stop-color:#0A2980"/>
	</linearGradient>
	<path class="st1" d="M83.5,0c77.9,28.8,143,84.1,184.3,155c26.4-45.3,43.1-97,47.2-152.2V0H83.5z"/>
	<path class="st0" d="M0,329.8v6.6h315v-29.2c-4.1-55.2-20.8-106.8-47.2-152.2C212.4,250,114.4,317,0,329.8z"/>
	
		<linearGradient id="SVGID_2_" gradientUnits="userSpaceOnUse" x1="-801.3729" y1="714.8553" x2="-800.6419" y2="714.1803" gradientTransform="matrix(712 0 0 -712 570402 508937)">
		<stop  offset="0" style="stop-color:#2B55CF"/>
		<stop  offset="1" style="stop-color:#0A2980"/>
	</linearGradient>
	<path class="st2" d="M0,329.8v6.6h315v-29.2c-4.1-55.2-20.8-106.8-47.2-152.2C212.4,250,114.4,317,0,329.8z"/>
	<path class="st0" d="M267.8,155C226.5,84.1,161.4,28.8,83.5,0H0v329.8C114.4,317,212.4,250,267.8,155z"/>
	
		<linearGradient id="SVGID_3_" gradientUnits="userSpaceOnUse" x1="-800.9051" y1="713.9348" x2="-801.6311" y2="714.5758" gradientTransform="matrix(712 0 0 -712 570409 508579)">
		<stop  offset="0" style="stop-color:#2B55CF"/>
		<stop  offset="1" style="stop-color:#0A2980"/>
	</linearGradient>
	<path class="st3" d="M267.8,155C226.5,84.1,161.4,28.8,83.5,0H0v329.8C114.4,317,212.4,250,267.8,155z"/>
	
		<linearGradient id="SVGID_4_" gradientUnits="userSpaceOnUse" x1="-801.3631" y1="714.8659" x2="-800.6321" y2="714.1909" gradientTransform="matrix(712 0 0 -712 570402 508937)">
		<stop  offset="0" style="stop-color:#2B55CF"/>
		<stop  offset="1" style="stop-color:#0A2980"/>
	</linearGradient>
	<path class="st4" d="M267.8,155C226.5,84.1,161.4,28.8,83.5,0H0v329.8C114.4,317,212.4,250,267.8,155z"/>
</g>
</svg>
