<svg xmlns="http://www.w3.org/2000/svg" width="67.102" height="59.126" viewBox="0 0 67.102 59.126"><defs><style>.a{fill:#3b5998;}.b{fill:#4d4e50;}</style></defs><g transform="translate(-230.078 -261)"><path class="a" d="M55.2,41.377H49.827V61.066H41.685V41.377H37.812v-6.92h3.873V29.979c0-3.2,1.521-8.216,8.215-8.216l6.032.025V28.5H51.555a1.657,1.657,0,0,0-1.727,1.886v4.072h6.085Z" transform="translate(216.188 239.237)"/><path class="b" d="M1.078,0H2.352V-4.4H5.8V-5.432H2.352v-3.29H6.594V-9.758H1.078Zm6.58-3.864A3.69,3.69,0,0,0,11.284.126a3.2,3.2,0,0,0,2.87-1.554V0h1.288V-7.672H14.154v1.4A3.184,3.184,0,0,0,11.3-7.8,3.636,3.636,0,0,0,7.658-3.864Zm6.5.014a2.625,2.625,0,0,1-2.6,2.856,2.627,2.627,0,0,1-2.59-2.87,2.59,2.59,0,0,1,2.59-2.828A2.629,2.629,0,0,1,14.154-3.85Zm2.968,0A3.654,3.654,0,0,0,20.86.126,3.413,3.413,0,0,0,24.4-2.464H23.03A2.058,2.058,0,0,1,20.86-.952c-1.4,0-2.436-.994-2.436-2.9,0-1.876,1.036-2.87,2.436-2.87a2.09,2.09,0,0,1,2.17,1.512H24.4A3.334,3.334,0,0,0,20.86-7.8,3.645,3.645,0,0,0,17.122-3.85ZM29.358-6.72A2.251,2.251,0,0,1,31.78-4.4H26.936A2.376,2.376,0,0,1,29.358-6.72Zm3.584,4.354H31.57A2.109,2.109,0,0,1,29.414-.952,2.412,2.412,0,0,1,26.922-3.36h6.132a6.906,6.906,0,0,0,.042-.77A3.517,3.517,0,0,0,29.414-7.8,3.651,3.651,0,0,0,25.62-3.85,3.7,3.7,0,0,0,29.414.126,3.45,3.45,0,0,0,32.942-2.366ZM36.05-6.244V-10.36H34.776V0H36.05V-1.414A3.2,3.2,0,0,0,38.92.126a3.692,3.692,0,0,0,3.64-3.99A3.628,3.628,0,0,0,38.92-7.8,3.25,3.25,0,0,0,36.05-6.244Zm5.208,2.38a2.63,2.63,0,0,1-2.6,2.87,2.633,2.633,0,0,1-2.6-2.856,2.637,2.637,0,0,1,2.6-2.842A2.593,2.593,0,0,1,41.258-3.864ZM51.52-3.85A3.745,3.745,0,0,0,47.642-7.8,3.752,3.752,0,0,0,43.764-3.85,3.725,3.725,0,0,0,47.586.126,3.8,3.8,0,0,0,51.52-3.85Zm-6.454,0a2.544,2.544,0,0,1,2.562-2.842,2.577,2.577,0,0,1,2.59,2.842A2.6,2.6,0,0,1,47.586-.994C46.256-.994,45.066-1.9,45.066-3.85Zm15.414,0A3.745,3.745,0,0,0,56.6-7.8,3.752,3.752,0,0,0,52.724-3.85,3.725,3.725,0,0,0,56.546.126,3.8,3.8,0,0,0,60.48-3.85Zm-6.454,0a2.544,2.544,0,0,1,2.562-2.842,2.577,2.577,0,0,1,2.59,2.842A2.6,2.6,0,0,1,56.546-.994C55.216-.994,54.026-1.9,54.026-3.85ZM62.16,0h1.274V-3.388L66.444,0H68.18L64.554-3.85l3.612-3.822H66.388l-2.954,3.4v-6.09H62.16Z" transform="translate(229 320)"/></g></svg>