<svg xmlns="http://www.w3.org/2000/svg" width="49.196" height="62.78" viewBox="0 0 49.196 62.78"><defs><style>.a{fill:#fbbb00;}.b{fill:#518ef8;}.c{fill:#28b446;}.d{fill:#f14336;}.e{fill:#4d4e50;}</style></defs><g transform="translate(-108.602 -261)"><g transform="translate(113 261)"><path class="a" d="M8.71,151.405l-1.368,5.107-5,.106a19.686,19.686,0,0,1-.145-18.35h0l4.452.816,1.95,4.425a11.728,11.728,0,0,0,.11,7.9Z" transform="translate(0 -127.654)"/><path class="b" d="M280.5,208.176a19.644,19.644,0,0,1-7.005,19h0l-5.607-.286-.794-4.954a11.712,11.712,0,0,0,5.039-5.981H261.628v-7.774H280.5Z" transform="translate(-241.545 -192.196)"/><path class="c" d="M60.12,320.633h0a19.658,19.658,0,0,1-29.612-6.012l6.368-5.213a11.687,11.687,0,0,0,16.842,5.984Z" transform="translate(-28.167 -285.658)"/><path class="d" d="M58.622,4.524,52.255,9.736a11.686,11.686,0,0,0-17.228,6.119l-6.4-5.241h0a19.656,19.656,0,0,1,30-6.09Z" transform="translate(-26.427)"/></g><path class="e" d="M5.5-9.87A4.813,4.813,0,0,0,.6-4.886,4.8,4.8,0,0,0,5.5.084,4.733,4.733,0,0,0,10.29-4.284v-.98H5.04v1.036H8.932A3.29,3.29,0,0,1,5.5-1.064,3.54,3.54,0,0,1,1.9-4.886,3.544,3.544,0,0,1,5.5-8.722,3.113,3.113,0,0,1,8.47-6.93H10A4.614,4.614,0,0,0,5.5-9.87ZM19.25-3.85A3.745,3.745,0,0,0,15.372-7.8,3.752,3.752,0,0,0,11.494-3.85,3.725,3.725,0,0,0,15.316.126,3.8,3.8,0,0,0,19.25-3.85Zm-6.454,0a2.544,2.544,0,0,1,2.562-2.842,2.577,2.577,0,0,1,2.59,2.842A2.6,2.6,0,0,1,15.316-.994C13.986-.994,12.8-1.9,12.8-3.85Zm15.414,0A3.745,3.745,0,0,0,24.332-7.8,3.752,3.752,0,0,0,20.454-3.85,3.725,3.725,0,0,0,24.276.126,3.8,3.8,0,0,0,28.21-3.85Zm-6.454,0a2.544,2.544,0,0,1,2.562-2.842,2.577,2.577,0,0,1,2.59,2.842A2.6,2.6,0,0,1,24.276-.994C22.946-.994,21.756-1.9,21.756-3.85Zm7.658-.014a3.692,3.692,0,0,0,3.64,3.99A3.206,3.206,0,0,0,35.91-1.442V.168a2.277,2.277,0,0,1-2.38,2.506A2.382,2.382,0,0,1,31.08,1.12H29.82c.252,1.638,1.694,2.66,3.71,2.66A3.439,3.439,0,0,0,37.2.168v-7.84H35.91v1.4A3.162,3.162,0,0,0,33.054-7.8,3.636,3.636,0,0,0,29.414-3.864Zm6.5.014a2.625,2.625,0,0,1-2.6,2.856,2.627,2.627,0,0,1-2.59-2.87,2.59,2.59,0,0,1,2.59-2.828A2.629,2.629,0,0,1,35.91-3.85ZM39.354,0h1.274V-10.36H39.354ZM46.06-6.72A2.251,2.251,0,0,1,48.482-4.4H43.638A2.376,2.376,0,0,1,46.06-6.72Zm3.584,4.354H48.272A2.109,2.109,0,0,1,46.116-.952,2.412,2.412,0,0,1,43.624-3.36h6.132a6.906,6.906,0,0,0,.042-.77A3.517,3.517,0,0,0,46.116-7.8,3.651,3.651,0,0,0,42.322-3.85,3.7,3.7,0,0,0,46.116.126,3.45,3.45,0,0,0,49.644-2.366Z" transform="translate(108 320)"/></g></svg>