<svg xmlns="http://www.w3.org/2000/svg" width="13.229" height="9.617" viewBox="0 0 13.229 9.617"><defs><style>.a{fill:#727171;}</style></defs><g transform="translate(-496 -78.655)"><g transform="translate(496 78.655)"><path class="a" d="M496,217.79a4.511,4.511,0,0,1,2.054-1.811,3.869,3.869,0,0,1,.415-.151c.244-.073.438,0,.5.189s-.04.371-.281.453a3.838,3.838,0,0,0-1.108.562,3.661,3.661,0,0,0-.891.972c-.212.335-.384.358-.688.1Z" transform="translate(-496 -208.661)"/><path class="a" d="M530.828,78.655a2.939,2.939,0,1,1-2.943,2.981c0-.205-.05-.246-.25-.2a1.476,1.476,0,0,0-.82,2.4c.051.059.109.112.161.17a.346.346,0,0,1,.036.512c-.164.174-.34.113-.506-.025a2.152,2.152,0,0,1,0-3.235,1.959,1.959,0,0,1,1.3-.52c.192,0,.247-.107.307-.252A2.9,2.9,0,0,1,530.828,78.655ZM533.1,81.58a2.267,2.267,0,1,0-2.272,2.275A2.3,2.3,0,0,0,533.1,81.58Z" transform="translate(-524.222 -78.655)"/><path class="a" d="M546.882,207.18a4.74,4.74,0,0,1,3.95,2.295.442.442,0,0,1,.09.414.31.31,0,0,1-.274.209.365.365,0,0,1-.36-.21,4.334,4.334,0,0,0-1.134-1.237,4.1,4.1,0,0,0-5.77.981c-.049.071-.095.145-.143.217-.166.252-.351.32-.533.2s-.191-.317-.034-.573a4.631,4.631,0,0,1,.82-1A4.893,4.893,0,0,1,546.882,207.18Z" transform="translate(-540.14 -200.489)"/><path class="a" d="M658.217,128.333a2.16,2.16,0,0,1-3.136,1.934c-.171-.092-.312-.2-.268-.423s.27-.315.517-.2a1.622,1.622,0,0,0,.981.16,1.4,1.4,0,0,0,1.14-.948,1.425,1.425,0,0,0-.276-1.481c-.056-.066-.122-.123-.18-.187a.31.31,0,0,1-.027-.445.315.315,0,0,1,.464-.049,1.877,1.877,0,0,1,.632.841A1.835,1.835,0,0,1,658.217,128.333Z" transform="translate(-646.537 -124.114)"/><path class="a" d="M693.081,215.729c.106.035.265.078.416.141a4.268,4.268,0,0,1,2.067,1.751c.143.234.11.434-.077.542s-.36.04-.5-.183a3.608,3.608,0,0,0-2-1.566.609.609,0,0,1-.164-.077.322.322,0,0,1-.138-.387C692.734,215.793,692.861,215.724,693.081,215.729Z" transform="translate(-682.423 -208.592)"/></g></g></svg>